<mxfile host="65bd71144e">
    <diagram id="Jz4JlQK4B5a-qAC1iCsH" name="第 1 页">
        <mxGraphModel dx="854" dy="971" grid="1" gridSize="10" guides="1" tooltips="1" connect="1" arrows="1" fold="1" page="1" pageScale="1" pageWidth="1920" pageHeight="1200" background="#FFFFFF" math="0" shadow="0">
            <root>
                <mxCell id="0"/>
                <mxCell id="1" parent="0"/>
                <mxCell id="31" value="" style="rounded=0;whiteSpace=wrap;html=1;pointerEvents=0;fontFamily=Helvetica;fontSize=24;fontColor=#FFFFFF;strokeColor=#000000;fillColor=none;gradientColor=none;" parent="1" vertex="1">
                    <mxGeometry width="1040" height="880" as="geometry"/>
                </mxCell>
                <mxCell id="2" value="&lt;font color=&quot;#000000&quot;&gt;&lt;span style=&quot;font-size: 24px&quot;&gt;客户端APP或小程序&lt;/span&gt;&lt;/font&gt;&lt;font color=&quot;#000000&quot;&gt;&lt;span style=&quot;font-size: 24px&quot;&gt;&lt;br&gt;&lt;/span&gt;&lt;/font&gt;" style="rounded=0;whiteSpace=wrap;html=1;fillColor=#e3c800;strokeColor=#B09500;fontColor=#000000;" parent="1" vertex="1">
                    <mxGeometry x="80" y="80" width="370" height="50" as="geometry"/>
                </mxCell>
                <mxCell id="39" style="edgeStyle=none;html=1;exitX=0.5;exitY=1;exitDx=0;exitDy=0;entryX=0.5;entryY=0;entryDx=0;entryDy=0;strokeColor=#000000;strokeWidth=2;" edge="1" parent="1" source="4" target="6">
                    <mxGeometry relative="1" as="geometry"/>
                </mxCell>
                <mxCell id="4" value="&lt;h1 class=&quot;home-panel-title gl-mt-3 gl-mb-2 gl-font-size-h1 gl-line-height-24 gl-font-weight-bold gl-ml-3&quot; itemprop=&quot;name&quot; style=&quot;box-sizing: border-box ; margin-top: 0.5rem ; margin-bottom: 0.25rem ; line-height: 1.5rem ; font-size: 1.4375rem ; margin-left: 0.5rem ; text-align: left&quot;&gt;独立的webview加载嵌入页地址&lt;/h1&gt;" style="rounded=0;whiteSpace=wrap;html=1;fontSize=24;fontColor=#ffffff;strokeColor=#006EAF;fillColor=#1ba1e2;" parent="1" vertex="1">
                    <mxGeometry x="80" y="130" width="370" height="40" as="geometry"/>
                </mxCell>
                <mxCell id="14" style="edgeStyle=none;html=1;exitX=0.5;exitY=1;exitDx=0;exitDy=0;fontSize=18;fontColor=#000000;strokeColor=#000000;strokeWidth=2;" parent="1" source="6" edge="1">
                    <mxGeometry relative="1" as="geometry">
                        <mxPoint x="265" y="510" as="targetPoint"/>
                    </mxGeometry>
                </mxCell>
                <mxCell id="6" value="&lt;font style=&quot;font-size: 14px&quot;&gt;https://t-webinar.e.vhall.com/v3/lives/embedclient/watch/816348740&lt;/font&gt;" style="rounded=1;whiteSpace=wrap;html=1;labelBackgroundColor=none;fontSize=18;strokeColor=#314354;fillColor=#647687;fontColor=#ffffff;align=left;" parent="1" vertex="1">
                    <mxGeometry x="30" y="280" width="470" height="70" as="geometry"/>
                </mxCell>
                <mxCell id="36" value="&lt;font color=&quot;#000000&quot;&gt;&lt;span style=&quot;font-size: 24px&quot;&gt;客户网页中嵌入&lt;/span&gt;&lt;/font&gt;&lt;font color=&quot;#000000&quot;&gt;&lt;span style=&quot;font-size: 24px&quot;&gt;&lt;br&gt;&lt;/span&gt;&lt;/font&gt;" style="rounded=0;whiteSpace=wrap;html=1;fillColor=#e3c800;strokeColor=#B09500;fontColor=#000000;" vertex="1" parent="1">
                    <mxGeometry x="570" y="80" width="410" height="50" as="geometry"/>
                </mxCell>
                <mxCell id="37" value="&lt;font style=&quot;font-size: 14px&quot;&gt;&amp;lt;iframe allow=&quot;camera *;microphone *; display-capture&quot; allowfullscreen=&quot;true&quot; border=&quot;0&quot; src=&quot;https://t-webinar.e.vhall.com/v3/lives/embedclient/watch/816348740&quot; width=&quot;800&quot; height=&quot;600&quot;&amp;gt;&amp;lt;/iframe&amp;gt;&lt;/font&gt;" style="rounded=1;html=1;labelBackgroundColor=none;fontSize=18;fontColor=#ffffff;strokeColor=#314354;fillColor=#647687;align=left;whiteSpace=wrap;verticalAlign=middle;" vertex="1" parent="1">
                    <mxGeometry x="525" y="280" width="500" height="90" as="geometry"/>
                </mxCell>
                <mxCell id="41" style="edgeStyle=none;html=1;exitX=0.5;exitY=1;exitDx=0;exitDy=0;entryX=0.5;entryY=0;entryDx=0;entryDy=0;strokeColor=#000000;strokeWidth=2;" edge="1" parent="1" source="40" target="37">
                    <mxGeometry relative="1" as="geometry"/>
                </mxCell>
                <mxCell id="40" value="&lt;h1 class=&quot;home-panel-title gl-mt-3 gl-mb-2 gl-font-size-h1 gl-line-height-24 gl-font-weight-bold gl-ml-3&quot; itemprop=&quot;name&quot; style=&quot;box-sizing: border-box ; margin-top: 0.5rem ; margin-bottom: 0.25rem ; line-height: 1.5rem ; font-size: 1.4375rem ; margin-left: 0.5rem ; text-align: left&quot;&gt;独立的区域加载iframe&lt;/h1&gt;" style="rounded=0;whiteSpace=wrap;html=1;fontSize=24;fontColor=#ffffff;strokeColor=#006EAF;fillColor=#1ba1e2;" vertex="1" parent="1">
                    <mxGeometry x="570" y="130" width="410" height="40" as="geometry"/>
                </mxCell>
                <mxCell id="43" value="&lt;font color=&quot;#000000&quot;&gt;跳转到预约页面地址&lt;/font&gt;" style="rounded=0;whiteSpace=wrap;html=1;fillColor=#FFFFCC;strokeColor=#000000;" vertex="1" parent="1">
                    <mxGeometry x="99.38" y="700" width="331.25" height="50" as="geometry"/>
                </mxCell>
                <mxCell id="47" style="edgeStyle=none;html=1;exitX=0.5;exitY=1;exitDx=0;exitDy=0;fontColor=#FFFFFF;strokeColor=#000000;strokeWidth=2;labelBackgroundColor=none;" edge="1" parent="1" source="45" target="43">
                    <mxGeometry relative="1" as="geometry"/>
                </mxCell>
                <mxCell id="48" value="&lt;span style=&quot;font-size: 12px&quot;&gt;&lt;font&gt;跳转到预约页面地址&lt;/font&gt;&lt;/span&gt;" style="edgeLabel;html=1;align=center;verticalAlign=middle;resizable=0;points=[];fontColor=#000000;labelBorderColor=#000000;labelBackgroundColor=#FFFFFF;" vertex="1" connectable="0" parent="47">
                    <mxGeometry x="-0.225" y="-1" relative="1" as="geometry">
                        <mxPoint as="offset"/>
                    </mxGeometry>
                </mxCell>
                <mxCell id="45" value="&lt;span&gt;如果是预约状态&lt;/span&gt;" style="rhombus;whiteSpace=wrap;html=1;fontColor=#000000;strokeColor=#000000;fillColor=#FFFFCC;" vertex="1" parent="1">
                    <mxGeometry x="195" y="510" width="140" height="100" as="geometry"/>
                </mxCell>
                <mxCell id="49" value="通过location.replace方式变更地址、这样浏览器不会有记录&lt;br&gt;此时操作webview本身的返回方法是可以返回到该webview之前的操作界面" style="rounded=0;whiteSpace=wrap;html=1;fontColor=#000000;strokeColor=#BD7000;fillColor=#f0a30a;align=left;" vertex="1" parent="1">
                    <mxGeometry x="99.38" y="750" width="330.62" height="50" as="geometry"/>
                </mxCell>
                <mxCell id="50" value="&lt;font color=&quot;#000000&quot;&gt;https://blog.csdn.net/zuoyiran520081/article/details/93887566&lt;br&gt;https://blog.csdn.net/sinat_36521655/article/details/113897563&lt;br&gt;&lt;/font&gt;" style="rounded=0;whiteSpace=wrap;html=1;fillColor=#FFFFCC;strokeColor=#000000;align=left;" vertex="1" parent="1">
                    <mxGeometry x="580" y="400" width="390" height="60" as="geometry"/>
                </mxCell>
                <mxCell id="51" value="" style="shape=image;verticalLabelPosition=bottom;labelBackgroundColor=#ffffff;verticalAlign=top;aspect=fixed;imageAspect=0;image=data:image/png,iVBORw0KGgoAAAANSUhEUgAAA4IAAAIwCAYAAADTfNWrAAAMamlDQ1BJQ0MgUHJvZmlsZQAASImVlwdcU0kTwPeVJCQktEAEpITeBJFepITQAghIFWyEJJBQYkwIKnb0UMGziwhW9FRE0bMAcqiIvRyKvR8WVJTzsKAoKt+GBPS4r/y+yW/f/jM7OzM72Zf3FgDNHq5EkoNqAZArzpPGhQUxx6WkMknPAAI/FOALzLg8mYQVGxsFoAz0f5cPN6EtlGuOCl//HP+vosMXyHgAIBMgp/NlvFzITQDgG3gSaR4ARIXeYlqeRMHzIOtKYYKQ1yg4U8m7FJyu5MZ+m4Q4NuQrAKhRuVxpJgAa96Gemc/LhH40vkB2FvNFYgA0R0D25wm5fMiK3Efk5k5RcBlkW2gvgQzzAV7pP/jM/Jv/9EH/XG7mICvX1S9qwSKZJIc74/8szf+W3Bz5QAxr2KhCaXicYv2whrezp0QqmAq5U5weHaOoNeQeEV9ZdwBQilAenqi0R414MjasH2BAduZzgyMhG0EOFedER6n06RmiUA5kuFvQ6aI8TgJkfciLBbKQeJXNFumUOFUstDZDymap9Oe40v64ilgP5dmJLJX/t0IBR+Uf0ygQJiRDpkC2zBclRUPWgOwky46PVNmMLhCyowdspPI4Rf6WkOME4rAgpX8sP0MaGqeyL86VDawX2yIUcaJVfCBPmBCurA92isftzx+uBbsiELMSB/wIZOOiBtbCFwSHKNeOvRCIE+NVfnokeUFxyrk4RZITq7LHzQU5YQq9OWQ3WX68ai6elAc3p9I/niHJi01Q5okXZHEjYpX54CtAFGCDYMAEctjSwRSQBUQtnXWd8JtyJBRwgRRkAgFwVGkGZiT3j4jhNR4UgD8hCYBscF5Q/6gA5EP910Gt8uoIMvpH8/tnZINnkHNBJMiB3+X9s8SD0ZLAU6gR/SM6FzYezDcHNsX4v9cPaL9rWFATpdLIByIyNQcsiSHEYGI4MZRohxvi/rgvHgWvgbC54F6498A6vtsTnhFaCY8JNwhthDuTRYXSIVmOAW3Qf6iqFuk/1gK3hj7d8SDcD3qHnnEGbggccTcYh4UHwMjuUMtW5a2oCnOI77+t4IdfQ2VHdiaj5GHkQLLt0Jka9hrug14Utf6xPspc0wfrzR4cGRqf/UP1+bCPHGqJLcYOYmexE9h5rBGrA0zsOFaPXcKOKnhwdz3t310D0eL688mGfkT/iMdVxVRUUuZc7dzh/EU5lieYnqe48dhTJDOkokxhHpMFnw4CJkfMcxrBdHF2cQFA8axR/n29Y/Q/QxDGhe+6QisA/LC+vr7G77rIzwAcgvcUpe27zrYW/k3cBeDcSp5cmq/U4YoLAf5LaMI7zQCYAAtgC9fjAjzgMy0QhIAIEAMSQAqYBKsshPtcCqaBWWA+KAIlYAVYC8rBZrAN7AJ7wQFQBxrBCXAGXARXwA1wD+6edvAKdIEPoBdBEBJCQ+iIAWKKWCEOiAvihfgjIUgUEoekIGlIJiJG5MgsZAFSgqxCypGtSBXyK3IEOYGcR1qRO8gjpAN5i3xGMZSK6qLGqDU6EvVCWWgkmoBORDPRqWgBuhBdhpahlegetBY9gV5Eb6Bt6Cu0GwOYOsbAzDBHzAtjYzFYKpaBSbE5WDFWilViNVgD/J2vYW1YJ/YJJ+J0nIk7wh0cjifiPHwqPgdfipfju/Ba/BR+DX+Ed+HfCDSCEcGB4EPgEMYRMgnTCEWEUsIOwmHCaXgvtRM+EIlEBtGG6AnvxRRiFnEmcSlxI3EfsYnYSnxC7CaRSAYkB5IfKYbEJeWRikjrSXtIx0lXSe2kHjV1NVM1F7VQtVQ1sVqhWqnabrVjalfVnqv1krXIVmQfcgyZT55BXk7eTm4gXya3k3sp2hQbih8lgZJFmU8po9RQTlPuU96pq6ubq3urj1UXqc9TL1Pfr35O/ZH6J6oO1Z7Kpk6gyqnLqDupTdQ71Hc0Gs2aFkhLpeXRltGqaCdpD2k9GnQNJw2OBl9jrkaFRq3GVY3XmmRNK02W5iTNAs1SzYOalzU7tcha1lpsLa7WHK0KrSNat7S6tenao7RjtHO1l2rv1j6v/UKHpGOtE6LD11mos03npM4TOka3oLPpPPoC+nb6aXq7LlHXRpejm6VbortXt0W3S09Hz00vSW+6XoXeUb02BsawZnAYOYzljAOMm4zPw4yHsYYJhi0ZVjPs6rCP+sP1A/UF+sX6+/Rv6H82YBqEGGQbrDSoM3hgiBvaG441nGa4yfC0Yedw3eG+w3nDi4cfGH7XCDWyN4ozmmm0zeiSUbexiXGYscR4vfFJ404ThkmgSZbJGpNjJh2mdFN/U5HpGtPjpi+ZekwWM4dZxjzF7DIzMgs3k5ttNWsx6zW3MU80LzTfZ/7AgmLhZZFhscai2aLL0tRyjOUsy2rLu1ZkKy8rodU6q7NWH61trJOtF1nXWb+w0bfh2BTYVNvct6XZBthOta20vW5HtPOyy7bbaHfFHrV3txfaV9hfdkAdPBxEDhsdWkcQRniPEI+oHHHLkerIcsx3rHZ85MRwinIqdKpzej3ScmTqyJUjz4785uzunOO83fneKJ1REaMKRzWMeuti78JzqXC57kpzDXWd61rv+sbNwU3gtsnttjvdfYz7Ivdm968enh5SjxqPDk9LzzTPDZ63vHS9Yr2Wep3zJngHec/1bvT+5OPhk+dzwOcvX0ffbN/dvi9G24wWjN4++omfuR/Xb6tfmz/TP81/i39bgFkAN6Ay4HGgRSA/cEfgc5YdK4u1h/U6yDlIGnQ46CPbhz2b3RSMBYcFFwe3hOiEJIaUhzwMNQ/NDK0O7QpzD5sZ1hROCI8MXxl+i2PM4XGqOF0RnhGzI05FUiPjI8sjH0fZR0mjGsagYyLGrB5zP9oqWhxdFwNiODGrYx7E2sROjf1tLHFs7NiKsc/iRsXNijsbT4+fHL87/kNCUMLyhHuJtonyxOYkzaQJSVVJH5ODk1clt40bOW72uIsphimilPpUUmpS6o7U7vEh49eOb5/gPqFows2JNhOnTzw/yXBSzqSjkzUncycfTCOkJaftTvvCjeFWcrvTOekb0rt4bN463it+IH8Nv0PgJ1gleJ7hl7Eq40WmX+bqzA5hgLBU2Clii8pFb7LCszZnfcyOyd6Z3ZeTnLMvVy03LfeIWEecLT41xWTK9CmtEgdJkaRtqs/UtVO7pJHSHTJENlFWn6cLX+ovyW3lP8kf5fvnV+T3TEuadnC69nTx9Esz7GcsmfG8ILTgl5n4TN7M5llms+bPejSbNXvrHGRO+pzmuRZzF85tnxc2b9d8yvzs+b8XOheuKny/IHlBw0LjhfMWPvkp7KfqIo0iadGtRb6LNi/GF4sWtyxxXbJ+ybdifvGFEueS0pIvS3lLL/w86ueyn/uWZSxrWe6xfNMK4grxipsrA1buWqW9qmDVk9VjVteuYa4pXvN+7eS150vdSjevo6yTr2sriyqrX2+5fsX6L+XC8hsVQRX7NhhtWLLh40b+xqubAjfVbDbeXLL58xbRlttbw7bWVlpXlm4jbsvf9mx70vazv3j9UrXDcEfJjq87xTvbdsXtOlXlWVW122j38mq0Wl7dsWfCnit7g/fW1zjWbN3H2FeyH+yX73/5a9qvNw9EHmg+6HWw5pDVoQ2H6YeLa5HaGbVddcK6tvqU+tYjEUeaG3wbDv/m9NvORrPGiqN6R5cfoxxbeKzveMHx7iZJU+eJzBNPmic33zs57uT1U2NPtZyOPH3uTOiZk2dZZ4+f8zvXeN7n/JELXhfqLnpcrL3kfunw7+6/H27xaKm97Hm5/or3lYbW0a3HrgZcPXEt+NqZ65zrF29E32i9mXjz9q0Jt9pu82+/uJNz583d/Lu99+bdJ9wvfqD1oPSh0cPKP+z+2Nfm0Xb0UfCjS4/jH997wnvy6qns6Zf2hc9oz0qfmz6veuHyorEjtOPKy/Ev219JXvV2Fv2p/eeG17avD/0V+NelrnFd7W+kb/reLn1n8G7ne7f3zd2x3Q8/5H7o/VjcY9Cz65PXp7Ofkz8/7532hfSl7Kvd14Zvkd/u9+X29Um4Um7/qwAGG5qRAcDbnQDQUgCgw3MbZbzyLNgviPL82k/gP7HyvNgvHgDUwE7xGs9uAmA/bDaQabBXvMInBALU1XWwqUSW4eqi9EWFJyFCT1/fO2MASA0AfJX29fVu7Ov7uh0meweApqnKM6hCiPDMsMVTQde2b5wHhojyfPrDGof2QJGBGxja/wssDJAov52mUQAAAGxlWElmTU0AKgAAAAgABAEaAAUAAAABAAAAPgEbAAUAAAABAAAARgEoAAMAAAABAAIAAIdpAAQAAAABAAAATgAAAAAAAACQAAAAAQAAAJAAAAABAAKgAgAEAAAAAQAAA4KgAwAEAAAAAQAAAjAAAAAAQREJywAAAAlwSFlzAAAWJQAAFiUBSVIk8AAAQABJREFUeAHsnQd8HMX1x8eS3CRZ7oXeQ++99wChdwgQIPQSCCkE/kkIkBBCbyEQeu+99yRASELvvXd3W1axZVn+v+9I7zS32r2mO51kv+ePvHu7s7Ozv52deX36zRVyRoaAIWAIGAI9isCEiZNcS8tst/BCC/Tofe1mhoAhYAgYAoaAIWAIgECVwWAIGAKGgCHQ8wgMratzM2fO6vkb2x0NAUPAEDAEDAFDwBAQBPqZRdD6gSFgCBgChoAhYAgYAoaAIdCJQFtbm1fWVVVVugEDBnSesD1DYB5CoGIeehZ7FEPAEDAEDAFDwBAwBAwBQ6DbCDQ1Nbtvv/3eTZo0pdt1WQWGQG9FwATB3vpmrF2GgCFgCBgChoAhYAgYAmVBoKGh0fWr6Oeamptda2trWdpgNzUESo2ACYKlRtjqNwQMAUPAEDAEDAFDwBDoMwi0tc11jWIRJJYbQig0MgTmRQRMEJwX36o9kyFgCBgChoAhYAgYAoZACgGsenPmzEn9zrQza9YsKdvqhg4d4gYPHuTqZzQ4S7KfCTE711cRMEGwr745a7chYAgYAoaAIWAIGAKGQFYEEAKnTp2Ws2WvsbHJDRo00PXv399bBWfOnOlmz56d9T5WwBDoawiYINjX3pi11xAwBAwBQ8AQMAQMAUMgJwTI/jlFhMDp9TPctGn1OVn2GpuaXHV1ta+/uqbaVVVWeqtgTje0QoZAH0LABME+9LKsqYaAIWAIGAKGgCFgCBgCuSEwV4oR3zdDXDtra2vcTHH5xO0zE82e3epmyRqvNSIAQhX9+sl+ja+nbS41GhkC8w4CJgjOO+/SnsQQMAQMAUPAEDAEDIH5AgFi9rD2zZnTlvi8CHSTp0wVIbDWjR0zWtYD7O/q6xsSy3OCZSOq+le5QQMHpsoNGVLrWlpmu5nNM1PHbMcQmBcQqJoXHsKewRAwBAwBQ8AQMAQMAUNg3kcA4a+lpUWWdJjjWiX5y1z5PWjQIFdZWdFl4fdJk6c4FoQfPXqk6yeWvbohQ8RFtN6NahvhKiribSENjY2uevBgX17RJGHMABEOZzQ0iMvoYD1sW0OgzyNggmCff4X2AIaAIWAIGAKGgCFgCMz7COC22SiCmmbxRLiToD//u78IaqNGjvRWP5DwFkMRFMeOHePdOzmGu+eUqVNlbcCZrrbD9ZPjSlzTLOfGjBmlh/zWC5F1Q3yM4ZyRInxKOTKQkkwmSaBMq8B+GAK9FAETBHvpi7FmGQKGgCFgCBgChoAhYAi0I4AL6MSJk3ycX50IZVj3EP6wECK8TZg02WEBXGDcGG/NQ3gbJ/sDBgxIQUgm0IEDB4h7aH2sIEj84Ny5bWIRHJS6RncGyrUtkjl06rTprk3awj73MjIE+jIC8XbxvvxE1nZDwBAwBAwBQ8AQMAQMgT6JAIJdXEqWJsnk2dTc7GP9Ro0c4S1/CHuVktGTRDCjR42QpDAzvKCoDx4KgXqMeL+mxmZxLW3VQ6kt8YH9q/qLO2m7nQThc5a4oXLv5qaZ3v10isQczpZr25PJiEXSyBDowwiYRbAPvzxruiFgCBgChoAhYAgYAn0dAVwtfcyfCFhY5WpFWGPJhpCmTceKV5vK5hmeY3+IJISprKiU9f5aXYxBL1W8VjKATpo0RVxMm2TB+LrUcXYQNLEaIiRSD+sHNkvCmdmSKAYXUK4lA+kYiTnELdTIEOjrCJgg2NffoLXfEDAEDAFDwBAwBAyBPoaACn9tbXPEitfihS4yc/J7oGTsrBqcLggSk4flL4mwJEKEDWYiBDjWCJwhy0pEBUHu329AP59ptFmEwIp+FV4wxBV1sCSkwW2UZDIIkcOGDc10GztnCPQJBEwQ7BOvyRppCBgChoAhYAgYAoZA30cAgQ1r22yJsUPYmikWN2Lu+g+okri/Wp+VM87ahnA4IMEKR53TJHavoqKfz/iZDSXu8933473lT91AVZDEMllVWeVGDBvmrY+4nnZShRxrtwoiRPpkNZ0nbc8Q6HMImCDY516ZNdgQMAQMAUPAEDAEDIG+iQCJXaZMneaTvCBkEWtXIxY6krhkolEjh6di97Rcu1Wx1SeLmTJ1ulgMq/26ghxXAU/LhlssgpUi7E0Xd9OREm8I4frJMhOsHxgniOr1xBhOksQ03MMEQUXFtn0VARME++qbs3YbAoaAIWAIGAKGgCHQxxDwlkCJxVtooQV9ds5chamocEYcH0IlrpokeakUQQ6rHgvIE184pK42bVH4ECbWHKypGezdQ0eMGJ4S6IgzzEY1so5gv451CbOVtfOGQG9HwLKG9vY3ZO0zBAwBQ8AQMAQMAUOglyGA0EVMHUIYC7znSljjxJgm2TkrUwJYrteG5RoamrzQx7HhEq83ZsxIN2zoULEs9neNkuVz/PiJ3gU1vCbcZ/kJhFKS0+RDmjQmVwE2n7qtrCHQ0wiYRbCnEbf7GQKGgCFgCBgChoAh0AcRaGub65O5EEeHAEVWzUZZVmGwpOnMdU091v6rEiEQa164vAOulgiXLNlAwhfcRjMt1l4rFr3Bg1kXcGAaktVisauprnFfff2Nd/0cJctKxBFtxspYX98gCWG6rhsYd40dMwTmNQRMEJzX3qg9jyFgCBgChoAhYAgYAkVEAAENoQzLH4uxs7YeVj0yaQ4VF0zi88jqmZ5YJb4BWNJYooEkMWLA8/VgmUOopH4EQdYRHCQxg4MHD06tFxitrUqEuCQmlnhDEsI0iwtqEtEOvxxEwwxpw8huWSeT7mHHDYHejoC5hvb2N2TtMwQMAUPAEDAEDAFDoIcQYLF0/pRw/0RIg2bOmummSnbOoXV1bsEFxvnkKsOHD5P4vH5+SQW9JtsWaxxr9mEFpO6JknyFBDItIhASv4dFkHUDJ0yc6BoaGny5bHVGz1fJwvBtSKsZaMiQGm8NRNA1MgTmRwRMEJwf37o9syFgCBgChoAhYAgYAjEIsGD6xImTUmcaJRkLghpCGxa0Clm0nYycuHdCWApJslJfPyN1TbYd4gRZpJ31A7kXdY8ZM9oLl6NGjXRjZX/c2DESR9jfjZ8wSdxQ02MQKZ+JOD+rZZa0LfOigriVLjBubE6WzEz3s3OGQF9FwATBvvrmrN2GgCFgCBgChoAhYAgUAQHcOlW4GjhggE8AQ1ZOiEXcW1pavSsnAiAxeFGhr0bKNIurp16TrUncAzdSLwSKIyjWxWqxEoaE++jo0aN8HN+kyVN8/CDnaWeTJIPBUhlHnKctDbJgPAlhjAwBQyAZARMEk7GxM4aAIWAIGAKGgCFgCMzzCCDYqWCF2yZWvhkiSEEkVOFY/Yx2i1+dxASSlRPhUak98UpVFwFRz0e3YZzgaLEAJlnucBPlPFZJzUyKG+ekSVO9EMkxdeskkQ0L1Tc2NrvJk6Z4gbWuzgTBKPb22xAIETBBMETD9g0BQ8AQMAQMAUPAEJjPEECwIwkM5F09JdEKLqJY1xD4sM5hYUPYYvF3OeyFQYXJJ14RqyDCY2anTb3CyTp+NX4BeNxEMxFCJvXP6rAAYkkcPXqEX/oBl1WE2MbGJmnvDDdV4gwnTZ7sqvpLmVGjLAFMJmDtnCEgCJggaN3AEDAEDAFDwBAwBAyB+RiBIbVD2oU4JDyhmppqv7wDAtY0SQ5DQhfcQufMaW0XFBH6ZNmFkIgTxEI3S9wyc6GhQ4f4+LxsZRFGaRbCoBLC49iOGMJ6EVhxHSW5DEluhg8f6uMLBwzor8VtawgYAgkIJGXeTShuhw0BQ8AQMAQMAUPAEDAE5iUEiAMkXg/BD4tbiyRnqRT3UASs/sQFDq521bJuH26iEO6hX3/znRe8OA+xZAPJV3AhxYKYjVSwQ/TsFPG6XoXLaoUIgXofLYGlkD8slq3yhyUzWkbL2tYQMATiEegnmpZcrfjxNRThaKMkg5o6c66bMUvSCHdmLC5CzVaFIWAIGAKGgCFgCBgChoAhYAgYAvMeAoNFD1M7sJ8bPqifqx6QWakS9/RlFQTF1dx93zDXjZc/I0PAEDAEDAFDwBAwBAwBQ8AQMAQMgfwRGFfbz42Rv8pMJvZItWWNETQhMPI27KchYAgYAoaAIWAIGAKGgCFgCBgCeSKAXDVB/vIxr5VNEMQd1CyBeb5hK24IGAKGgCFgCBgChoAhYAgYAoZADAIIg00iY+VKZRMEiQk0MgQMAUPAEDAEDAFDwBAwBAwBQ8AQKA4C+chYZRMESQxjZAgYAoaAIWAIGAKGgCFgCBgChoAhUBwEGvKQscomCFp20OK8bKvFEDAEDAFDwBAwBAwBQ8AQMAQMARBozmMFhrIJgvaqDAFDwBAwBAwBQ8AQMAQMAUPAEDAEyoOACYLlwd3uaggYAoaAIWAIGAKGgCFgCBgChkDZEDBBsGzQ240NAUPAEDAEDAFDwBAwBAwBQ8AQKA8CJgiWB3e7qyFgCBgChoAhYAgYAoaAIWAIGAJlQ8AEwbJBbzc2BAwBQ8AQMAQMAUPAEDAEDAFDoDwImCBYHtztroaAIWAIGAKGgCFgCBgChoAhYAiUDQETBMsGvd3YEDAEDAFDwBAwBAwBQ8AQMAQMgfIgYIJgeXC3uxoChoAhYAgYAoaAIWAIGAKGgCFQNgRMECwb9HZjQ8AQMAQMAUPAEDAEDAFDwBAwBMqDgAmC5cHd7moIGAKGgCFgCBgChoAhYAgYAoZA2RAwQbBs0NuNDQFDwBAwBAwBQ8AQMAQMAUPAECgPAiYIlgd3u6shYAgYAoaAIWAIGAKGgCFgCBgCZUPABMGyQW83NgQMAUPAEDAEDAFDwBAwBAwBQ6A8CJggWB7c7a6GgCFgCBgChoAhYAgYAoaAIWAIlA0BEwTLBr3d2BAwBAwBQ8AQMAQMAUPAEDAEDIHyIGCCYHlwt7saAoaAIWAIGAKGgCFgCBgChoAhUDYETBAsG/R2Y0PAEDAEDAFDwBAwBAwBQ8AQMATKg4AJguXB3e5qCBgChoAhYAgYAoaAIWAIGAKGQNkQMEGwbNDbjQ0BQ8AQMAQMAUPAEDAEDAFDwBAoDwJV5blt6e86u3Wum9PmXIWIugOq+pX+hvPQHWa2zPVPU1XpXFVlV+yi5+dK8Vmz268Z0L+fq+h6SVZ07H1lhajgAq1z5rrWOc71k/cyUN6PUWYEFC9KDRowf+P1xYRWP4YuMmqenSoydwY7WxIEonNISW7SzUpL0feLMVfm+liFYqzjX1+dL5qFf/nku9lu6QX7u0HBfNcT2Ct2vKP5fe7ItZ9aufIjMM/O7mfcOdVNqp/jGd/zfjqq/Ej3kRaA2am3TvGtXWOpge6nW9WltTzu/EsfzXQ3/GOGL7fb+rVui1UGp12Tyw97X7mgVFiZSx+Z7j76drZDpDnroFGueuD8LdxkQ/HmfzU4+jT0u71GuHHDRSMyH9J9/210T73R5J98+7Vr3HZrVPc5FGaKgmrSdNGC5EgLjazyCpOk4lNmzHGfjm91n34/WxSNc90SY/u7pcb1d6OH5t5H3vuqxX0+sdW3CyXlWOlfKy82wI0cknsdM5rb3GufznITps1xjbPa3Ci5dmER1ldZfGDG9kefq2nWXPfFxNnuq0mtrlI0eItKHQj9+TKx46UdKPOgBUdUeeVB9F76O24O0XO9ZVuqvl+MuTIXjLqDcV+eL/gu4F9QTDPPnf7jkam+3BPYZ5s7EFL5br+f2upa5HsZ1L/Cf29LjK1yI/L4/mXocd9NaXVfyjgypWGOGzusyi06usqPQ7nO7tRBO6hjsoxrhdRBX8x3DMl3TOYeKCUYm0OaION6S4cBIjwet187uMINq8nsAMkY9v7XLY56eaYFRlS6xQTTRUf3d4NzVAhjfHrz81n+3Uye0eb7Hu9lMamDcT7XdxP3DKU8lo5sKe/Uw3UzSUMdm4Lu7q+VauiE/CVRruWSru9Nxz8WTZrSQjKhRynufIhxW/gjenGG38V4Xxmqn69PtcngBPFFtKEW7bXDEa0sPuX7fX78XYtvBEx6Pgx+8Vte3hphWJRel/2+KAi+L0LXVU/W62Nk3Z68x/AuDAcXTWtsc5c/Ot19Pbk1rY5/v9euMIBhOHK7oW6IMBxJNFEYjBv/OcMLkdEy9/7Huc1WrnY7r1uT1aPiqdeb3KOvNqW8MMK6EML222yIZ2DC49H9b4WJvO7pGY5tlJjqEHAP2nJIVuYUZvbOfze4/7zfjgN1/XKXYf76aL36O24O0XM9sWUEnNsxJuIxFEel6vvh9FjoXBnX3uix7mBc6vki3/E4+myZfr8r37t6J8HMf/hti1eOcE1PYJ9p7nj2nWZ3ryjXVGESPkel9MMfrVXjfrhadUZek+n7oZca3TNvNcfWgwJnd1HGr7/coLD6tH3qePDFRvfPt5u9MJp2Un5Qx4/WrMmq0C90DHn5o1nutufaDQfRe2f6/cf9RrrhtZ0f7FVP1MeOX3F1rLrEQHfYD9ONGlqOfsIY9vLHM51nj/RExxYvqv1lTF19yYGRM+k/mSN5vwjVcbTiogPcgVvU9UpFfCeqcS2fj4/ROY6/cqI7Tv7+cvfURCRyLZdYQS87EU4guFZEKdv5aHn7bQiUE4F8v08G8akN7VwizDAT9PxKyy/S+f0vv/CAPglDvVgIuksIcBfcP62LEBjW+4Vo1c+XMlhi4mi6CJKXPDwtVgikPJrkp8X6ensWBunx15rcff9rTDG70XvBnF0q9/lONP1JhJBz7r3TEpkoBKVPx892Z98zzXsSJNWDFfEvd01NEwKTyobHyz2H3P1Cg5/XmdvR3sdRX+/75cY4DlOO5TseJ9WTdHzZhQakxuz+osjDWt9TlGnu+IcIbnc83xArvNE+vn+EswsfmJZYBkvaFY9Pd4wBccIk9eAOfPO/Zjj6eJxQA/5/E4XWE6JMQokTR9Rxz38a3PXPzHCzJawkjro3hsTXGXefTMfyGdvjsKBunpXxEmtxUhkUC1eLMhEhL4m4/uqn6hOFQK5758sWd+ZdU8QKGz9HJNXdE8e7mnx64q594B5YqLRjqLUqrtm5lou7tjcew4UQYhBdfEzXQTTb+d74TNam+ReBfL/PNAZqga79f35Ccq+NhrjVRJOKN8QPFuybgiCuYkpbi7Y9o4uPPGfUPQsG7eKHpqWUA7hvYrWDwYQxwwJx338bPCOHwIhm+SixDEbpJrEEThFXIWiwuKzttl6tWCoGeMYYxu6/H7Rb1LAwLiNYr7V0V+0zwhnMohIaZtoyvLbSfSAuTXcK84fACbMH4/LbPUd0sS4gIF4jDIvObTzPD1ev9u5pfCsItI++0uQaZ7a5Bvm7TJjG0/cb4WoHdWpEYOOeEaH1AWkL+ORL5Z5D5gR8GLHTcdTX+365MY7DlGP5jsdJ9SQdx/3v1H1Hus8nzHZLiiKvJui3SdcU63jS3IElEMFMaUkZOzZafpBbSuYXxoy3vmhxz4p1ju/qE3E5f/rNZrdtjBv+oy83+rLUw5i82UqDHQq6YWIlw63xBbHK43YOIXjiJr5MRJmPJU7LUG5DacfKUm7kkArvZv7yx7O86yrnEG7qqivcruvV8DNF3R1Dll5ggNtJxq1s1DRzbio0gbwTAwJpBas1YxSE6yXzVCZaMOJWqmVvfXaGH/P4jdJ3y1Wr/dhbPbDCK9Mek7GQdwKhqGNcjsbLg8eNEhqlYyourDuuU+MWlm2TuO2/KwLgw1IPwjtK5vv/1+CO2LbrHOFvUqb/AmjL1AK7ba9BgE6qZu3Fx1SlNGvawGzntZxtDYG+ikDaZB6ZRPvqMxXabibf5fqoJVCfub6pU1LZbs3qvBOHoflWCzFuST/faVjKPYmpfOywwZ6JuuLxdvdTGHASRoRJtj4TAe49EdQgMD1SmAC1VNSIBxduRzAh6mb66CuNbk2Jz46GIyCgKa2wyADviirVeVpN3JZgds4S7xU02GidX/lkVheB8gURNEOG5Wc7DE0T8rCCE6+IZYLnxmrw4oez0tzEcJFFu620jDC0TaJZ/ybiNqvnw21fmUP6ct/vKxiH/aKY+3ynw2szCwbFvJ/WFTd3oCh5JPhuf7BQf3eUfP8o2iEUMYyxhCDcJUok6Emx1m0grp0IYUq4tSKkQVyJsokxQAmXcNwfUfLgogjxjYaCIAqi0OV5302GeEFQ61hgeHsduJ4+Jq7n0L/fa+4iCHZ3DCHmftzw7PHmD0o7lNZcelCaUD9DhEAdx1CcoczKl3Dzf1XGSKX9Nh3i1vlBp0vtsJoBbjmxMGPpU0wfF1wOjbiYPvhiU8rteOywSnfibsNTvDOKCd7ND6Sec++b6hBg3xbBn7EyGvOo7SjHdr4SBKcLU0A2KUzKBMWjSQgnbF4ApmKCRUNNMgG+BNRCxBQg6edajmvQrKo2mI+A2COuJ0ifCZs6R9VVuqVlQu0fk6WTOkJicsYt52v5Y0BZUIJa6WzdzY6q/u3ci7ZEKdv5sDwuBWRdIxiZwZABDw1YRo18WEHCPkwOiRqmCJPC/lAZLME0148K1y3eJTE/NYP6OeIgSbIAIQQ3ihYKJkCPJTQj42E0RN9NmePvwWCeTxA37ePdMpkzOfBusVIow5d0Y32uqfJcdYPpE1U5YcKAxPvhvWg8HDgwqdFHx8jARn/PFPuU1CaOF7N+vsPP5N1PkvYxoI4QLSZB2ENjgsDz+T7D9utkzriAMgTie8vHnWOMvDdNtkE/U2GEPkXfiiNc+rBOhO8hrlw+/V/7M/UwQWXKGKvjG2OIJseBcVBXR/pBmIEv+l6ZlOm3CD1otteVCTX6rYPjdzLekeQAa9qCwniASVLyorhxE63q5zKucK8h0s/HSR18+0m46jjO+yhkfPxSxmil9eSZwhgVPY7mnfENvHlG+lAoQD//bmf8HLE7KgTq9Wx336DWvSoMXLNgjnaf2Cbc3JR4D6rJ51lh4qJdiX4HQ6RWw+fEEhG1LFK3EtaA0NKnx3mWtYTxgiGFmA9DUg058xaxRNvIPS9/bLp862Gp+P1c5pBi9BP6DkI5yX0QkLGc8Ox8P9MaO5/nezmmfZ93q+Ncpr4fPhlthacgMQQKAPpiIcl2wjp1n2+M7wW+pUasyIzPWLmiCgItr9tcMC50vtB7sO2J8TjfvkC7mH9nC7vGeMe4ly+BTSFzcNzcwXfc0OGVAK+GEkiFwLBdWPeY21De0EcRxPbaqDZV5COph34ALSPCZCgEaiHGhfWWHZQSWt7/BmVNp+UN66MKT/TzDeT7j6OtxCrGtw9fwDzK/BUKpcUYQ+LuGx7j+/2nWDUhngslXkg6rnMMHrAQekYsr8xVEGNyKAS2H223vO4hYzNJucivQGIeMNRvkL4SupfzzuLCSeABtxGPlNc+axc8GXNy5Vm1LaXczheCIJ2GTFgITiHxwjZZcbCfhPX4SxIwevtznWZ8juNuc/Y9nXGC5xw8ygeW5lIOZggzPZoE6NCt6yTL21zvVqOmbX9C/uNjI+tmdPLW8wyKt0nb4vyZ+ViYkLeTiTkaAE/HhYlgIFldNM0hQ6d1s9WBjP1lxHwfpWzntfzr0tlxhUCYCQlmjIQTmN8LITRE/xIXCganKMFQ/liYIz64OILxvEF83t+SmJDo1WjNYKxuFvctZXL+cuDIWCYprm49xgR0i2SchBmOEv1ga3k/BIPH0QcyaNM+HezDMguIoHvQlnWxAwd9ArcEMNdBXq/9gTwXLk5JhDB1psT4QAiOh0jf/Jt8JzC0ISEUMRBvLe8t2rfCctH9Ytb/cEeAPJNkSLRnbWFa992kNk2pk+t3HAorfOdMltBiIgSqUuatz1vctU/nnnBk741r3cYrtGfOvVfcBl/p0OSeJIlIEKrjiFgrtL4we3/YZ0RcEZdv/7/7hcbUJIWgsfnK8dl8GRd1fEOD+af9R/r7vyDaYOLRIKxWMBlQ9L3usWGtu/KJ6V6I8QXkP/reYOlTkNeKi1vTk+Jaw7VRAuvDfzi0i0AfHTdxjeT7p76Q+OZpH304SvVN7f2lUGaB+mAm+baWzWAdpYx+NwgRIcEMKm24fPw7QEhdZ5lB/vkoixATCoLq6se55cUSECeQcg5LAt8KfQn3OMaHUAAOFZ9J8wD1hOeqYvgshEWSyWBBzIcyzSHF6CdkuYaZfpPxsKNhWEsRBLFyhgwkpx+RfskftJl8HzB9UFLf9yc7/uM6+igCUUgI6ItJWAX4oODNl1AK3fps/DxCfXsLs0kfSKJMGHdnvgjvV+rxuNC+QBuJbUVhxDdCgpFcqdA5mPqT5o7J9Z2DFcJG+C1G28U7pe9CocWd37x3xnAI19IkCoWQauE5QmI5MCWE5PSzeqY9LIgMwrjxQuGYEf0djhO+cPBfeC5uDAmKdtl9+o1mLxBzYm0ZF1FyhaTKVY5lywYaXhfu404PIdSFQndYhn3q/789h0cP+98ffNPJ6zHOhGN29AIyb/PXGylmiO+NzSy8TQwIaCujQiA1MtgwkN/fwewUfpfcr/y3+HHjlxwVAqmBzn3jP+q9hjFaI+UJ8H/xw07XnrAM3yyZ5BB4o/SwTFgECBNEfP5906KnU791AmEwIZ1xlLKdp/zb4o5AfEpUCOQcAhwBtzxDvoS7AsJ0nBBIXbxfnlEZ+bB+sLlG2oTmJn3Kbi8Fk3WJxAGhhSqUsPxc+vD0WCGQOmEWHpB+hkCB5jik599t9tfGCYGUQyt8jrx7JqooEXuEu0dUCKTch/Jcf5VA6FyCqul7cUIg9dBerAww8oVSd+pHO5qUJRHB4n/Sn8Chu6T9m3riLOLdrT/T9ek9omvJQvo/7oVKrwUuMHpMt6F7THiNns+0RUOKOxKWrDji/ZwnLjHEwcUJgVyD5wBuM1HLU1gfyQ3Q4EaFQMqgXb34IRFEIww555TxV0GQ8QNlD8o0XHSyWXpRzP1+7xHuFBHOM/WJsO2kHVfCIqVjIUqLTJ4GZB5VCvsix1RBxT5CRhKh6dc4R7DCehpSGN+Cq1kHrxcW8Uy0aq45EW0zVkeUGvkKgdSlzxWdY4rVT4hbfCMQArlnKQh3P/7i+hxfAkI4ypUPA0Yxl3YwBzAOxykTuR4LxJWSLTGOn9H6kzDmfDHmi1KPx8XqC4pHLtvuzMHUr5izH44TxIgpZVMK6BhFeZRKOnbxG8ULijz+wnGCcyGpCyPHlo7EdePVoYIo/Sipj/H9oDCA8LqJemwUYwzxlSf8x3Oj8IMwcMTFS4bYqLUSSyVKW8Y1xsskXpF6Kav8FtiqdY564bOeE54MBa56C3BNHH0Y8GSrSsw3xLiLNZ85Bnd/4sjj+P24+sp1rHPmKVcLeuC+MBq4O20kWno+IixyTwpjopMrZvCNVxjkJ9A1lxrk3QURCjTug46GJQ9iMseKkGu56OOpew8ac3y6aReuJS9Jp0OIoROR7hw/41Dri9sQmkKIyR7NJQMOnZn4E9UC04kZlMLB6E35OJSog0EgOijBqKvJH3e7qPtCtvNavw6IDBYwlYsI3l8Jo0b79aNC2zlWXLoyDWhaH1s+SvVZ5zdpfHGNAB+we1mYXLDDBQNBmPTl6uJDeXzv+RghtGBrLdN+PYHkCIF8sMqs+UJ5/gczwOSNMAihQUKLxTtmQCcYnPcO08XggrV1I+lvEAIcDIUyZGtL23DNoG0M1CgqcIVFGEMQDjVOMNchE49GaiVJIFEn/QO3kJckTbO2yd8sw3/09waRz3E9WlcsP1iuYPJRIiizzP2T3MkyVO1PFVo/eNG3lXA5JEkG2k3e3XPidgc2DP5jhjb6FNyULeT7/Khj2QiuJ+5JaUWJmfrFzsP0Z5ctaw9pHAiudist2imAdSlcwIFC+/8qSwzwYxX9k75EX4jTnoZMf5x7TKYmt0+2c/14wnjGN01fHt1hCXnlk5mp756xc6tVqt2Sgi1MD+5XxMPx7fFHwgSsi3HE2IFmegthhLDgDxCNNpP+M2+2fzt8+0/I90DylJBUCcIYTl9GmIxalRF09pTxFNf1QojxgzEV4rsdO7RzWsVVW2l4TWWiCytlYEiUouNR+JvEDpkI5k3bM1W+YdHxp4pvKi5oMFl8j4yJJIMhGQQutoxFxM2QuVQFDSzUjGUhJXk1hGXi9jPNIcXqJzw3YzxjIe9zmLx3kmlAx24/1L97xk21uGwjHiordljXQvz9BQn/kZRDrYgUIaYS92D6GPMv3hmEgmAZvkEUu6eLVQqGNhvBfP9dlNY6ZmMFwQqPxZwx+EXpZ/AylLtMyv161+FdvudMGBdjvuiJ8bhYfSEb3nq+O3Ow1pE0d6iQQrnQzVyvC7e4KYdEPwj5mPBcdJ8+gRJE44y5bt0fpM9DeLjglaTz6SWiPMMSRv9l3KLvMI/eJ8lMlLZbI3085XgxxhCtP27LOK6CKGOPhqyEZWmrEsIbBg48RkJC6MUVH2VeaCmlTJriTnhwsCara+jmqXXBo+NZBT8XpbAexlCU0vf8p7GL4MfcxfugnmhbonWW43fnjFWOu/fQPelIx++YLhww+OMWp8IVjAaaVLQfmN5DjYMeC5urx7KVC6/RfRhZ1pzSuQHmHiGVQH8EO+p8RBgkgleVXv+0U5jj+Ery8ULER+EaJf3MPY5ft4wlaClCQXD5hfunnhMBcGQHk6Z1s1WhmP3wWn5D2c63l2r/H+0KjLMKkzzfJsKAnCcfK5oS4gfvlfTEJF7IRjAsZOJTYrF6PmwlYnE8dqJ9ZXCAEWBAVOxw2SBrl9IOks0JF1olBErcqc65d6qfuPV4PluYAu1HuL8eJ30tdGWgfbSJAQ6iPSoIwqDroMZ7ZJ0ZJQRemF5cmmAsYNIYIBngYO6xEimFbk0cW0H6GEw9mGMVz4Xo9zBLqjWEAcFd5dRbpnjGkXsj1GdyS8p0n3zr5xnRYGvrdxS3Chg3JZgvMCPNNYQwxlpsfJuFfJ+qxEBgCd1vcHEJf+v92WLx+dc77RZumL2DtxqSpsAJyxay353+z8S/hihjYA7AEMsxGuWQYPjVis53q5rRsEy2fSxDJC8A8yihhNL+xHer/Z5yKIuIwzzzzqm+fR+JUieJwBZXuzA7HK5W3JNvC9L3p3UgpGrfh8FJIjBAgXSsJE5BEZIPIaDdLRO/0k4yvtB/lMh8pzSiQyDR39GtWvI4ziLxIYW/R0iW0EzUfr4dS2KeQwKv3+w+3K/jhTCEgkqVk7hIhZ4FvFdNZBPWUeh+pjmkaP1EsGfsR2EUJe3bIX7EiCd929Hr+c33GC7xwdi+j7iCKzG3o8j70x1T/HwCgwlzGfZbLRvdkqFQlaUoOY+X+VGtRMsu5DxTyxIl9FfmNdaTjCpOkjAuxnzRU+NxsfpCFN+k34XOwWF9OvZE5w4SsCjx3uAT4lzYMQCESl2uSfKy4BzfLApCiPhU4q5VmUyfOfpHQ9MUS76g/EdoDsqReyRkgfqTPGkYs7eVcJC49QhLOYbQrzWmGiyjsYH6HCHffYOExug4r+fZwq+g9IK/OlhcxkNlTGipRan45zvbv9fwet1HCUOCrKME01BBzHkNA2DmI4mOvhO9Vrcoq5mHafchWw/tdcJgZy/VFs+DWxjIqGaFSQ+mBC0AxACMFrHUhOBGvBcdJyQ0RwfK8YsfbHfdhOEOaWZLJ2MQ1WhTbiuJPeMvjhB+FpAJD0uoz0YXU0gHMk51Z/1AhD8W7lQhUG/FwIJVlQmSQQ+hBhYlioOW1+0bn4klrePREUx2Wbdz0tUyHlMRoEjzDjGR7Ltxu/WWhDxKCKShEKjHURQcsHmd18bqsVy3ymBreeIUQyFQj/9IBlUG64aOZDS8Q/z0mVyVwIUBI/TJx8L0u726xowxqSjThjBEOvooYdXDcowrci5EWWXatTxC0DqiycKSAk0UQXt5PZnnNt/6YaB0HSP/7gIhUG+NxvDdr9qtuhz7alJ6bJWWy7aFwRsvAz606KjMsRxaF23Deq9uH3xntLOY1N3+jzJAtcS4h0YFQSz1SnHMs57LtCUmMk4I5BriTjMRTBGKKRQ433YoiTQ2M7wO5UMcM02MtwqCKtDqdSGzoMcY/1AewWRgaWesoBxMA1Z9FIah65NeF7fl28WipskgsIaiVAqpKRi3hwcWv7CM7jOOwazA0CHEslXmJWQKQ08RvTbchgJnc0SgpBwWso0FN/VS0Gt1POE34/eu69cUlGxD64tuM80xxeoneEQU2o+j7Y37zffIOA0xvu4ZY8FmLifmXMdMmNtcKPwWDxZeQIVAvVbn0FNvneIPfSlzQJSSMC7GfNFT43Gx+kIUm6Tfhc7BWl+muQOeBYsSwgTfM1Y4xhiOKTHn4+6LQBpSHJ+n5wkXYeyKEt4Ae244JKNCD2XFJ98PTC1ZE62D3/DGm4iSI4lKNYZgtdY5n5jpqOeatkeV5/xGCMTThTENTxTmErx0CI2BUIBWibB44BadhpVQQYaVG4IXXVVkACx/NbJ8BEoVrtX54TKZH8iyHLrE8+4huDjciyHazFzFuyepIctHaFgP7+w6CQ/K1sd9RT3433whCPJC4kjdlzin/sJx5Yp5DI1CmKAirJsOiEUJJoDEI0w4akam87HGE4S7yafjB/ukMrhxhhrosD7dh7HSRA96LLrVZAQwHnEa0mzntT40rEkfLwIXGjKEQJ5xsnywSWW1vtCdAutd0rOSSYuJEoYOxhyXTO6nmFHfCsEC2Vq/bpcTqylY6ySvx7Nt62WSV1cesFu5w088eh3CXdzaMbxXBiAGEqylxIFiPcVdI6q8COvErU4J63YSLquKe+Ctz2rJ5C19RDXm0VLhOwoH0Gi5TL8Lqf+z8Z3PCJNNwp84IrOqEgqdQoQxGCitPc4irvWHW5RIqsHHLbJQl7mwzuh+d/s/VjPeH5NjnHsoEx1E38UtOV9CUZHUbzLVBZMDA9YsghJtg8DfK306X6c/zn+LJ1jqGC9rxQ0KYUwFcr0oZBYoR0Ia0rcrITBsvdocb3HnG2ZMQqg8RjS/2Yhx4iph3tQTgDb8VIRezSan16sgx29NvqDnolsEMRXGqCesK9zPNkYJX5mifmED5CjMKO6H6hqpBRHkubcyxTBXuFvhCo5QUwzKdQ4J75VvPynk2w/vl20//B5xGdf5OXod3hz85Ur0Vf0OuAbFbdx4Rz9jLIVZVuEu7BtJGBdjvujJ8TgOt3z7QlwdcccKnYO1rmxzxwGb1blLJFaf8QWh4izxXsLzAG8I+BQElnCs0nozZXlG2QB/A/HNqjIKzyG+b4S9AzYf0iXhHV4X5DJA+FSCdyCcBB5Yxx+UGKxteoJ4doVWTa4p1RiCdwXLVUC0KS420J+U/9Tln99rytp+KOBDvIhjJveHZj7GfX+TFQelhLjw+amDbwhPgpBPpl4Up3hkgQ28JXkesNQrhfWAKErEn+0wLE0xuqV4sZEbg3UIIeZcvtNwaQ9/ooz/xUtIZWxQsW8NA57k+8/Cvj1NSQtbajv46GDYmOyxIGmgPn7ZxPKgXeQcJm/+6PwMKmQDXUMmHhiefAkGintB3C/M9sSxbOcpoxQy5Xos3DLBIQhCTE6hkBGW0/1wgIxzqdByPDXZNVXwY6BgoAwtq5kYViZXfLwRxvKhcEAiGJt68iEYsC3ElUgHCbC5RZL6QGQixHoBw4rVL6SwnWCaRDDqCJRx1pHwmpF1FYlMDYurdpcKqb++qV1A4N4kC+EvG6lglq1c9PzHHdpDjsdZxKPlsbL9R2KFIN7TAZK1shTU3f5Pm+g/xMcxUTEJqVWQvqZWNCxumRQPSc8GQ5Ktx8PAgRXZM0leghZVrfxJ9UaPjxOMkwjFWkM7/5BWBK21WuhwIw6FQC3I+ENK97+IWz6EJhl3nyQLJ2Vglq5/pj6l5UUBdeS2dbHzTPjt6BJC1BFHuBkre8YzhbiyfMCkjouI3aXPJRH1KHFdSPdINmcVAmF+dlirxruQY2Xk3ijn/inziqZup5+PGVblYGa6Q7nMIcXoJ1ErWnfaHHdt+D2i9CwWhfMIdf76Wn3byXeAMSWuX61LmTAuxnzRk+NxMfpCMnLpZwqdg7WWbHMHhghcNRHAeC6ULFiI1Eqk9aD8nSXnNMFQtSxvlURklg+zy1MvMaSPvNzk53q+cTKYH75Np0cGY/2Vj3cKgfBTeHPAW8C3UAdeErdKjLDGuF7+aL379W7D0gTKUo0hj73amFLEM2dl4g1XlfF8lHhYeM8FiXEOvagUM+LFx09rTVlOcb1Va16UT0ZwDIVArQMe8vBthvrQIY4hSDMGMO9BgweIErLDKshvwoLiDD3EYcNja64KssOaIAhiPUShtqyHbpnxNvhnZyLcg5RINLDwqPZfdMifSycjhTzmZdVE8PGSLIY/Yul2E3ceTV2v9WTbYgJXBiTOGpLtfFh/XDKKpPNqSQvPR/dDrWi2SV4/TupA+waFLqqzO/kjfy76X5yfebRM9HfYvvD+0XKZfjNI4M6FYB8GHzPJj5/WLvAvLpkCjxBmU5n1qcFaWGGfibsP7ySbIFhR4g+lkPrVOhH3TEnHVDOadD7puLpUAQNWtExERsA7nm8X1lHEHCaWpujEkun6fM6F/auQ/s+9cO0ljpUvInQPDTOJMvGWgnCJYmkJTURV6D2SWaLkGlEA/jiIs04qifKLb4TxCCEPLX31wGQm/3axBGs8T7ulv060+/F9JhQoQwEtri0IeEokbwipOvidTaAkZkgpvD8CLmOMEgtbE0usBMYwX7hwjxPh7zZhCCEYNGKzC3kHvgL5L9scUqx+ovcr1Taf7zGfNhQy1lE/47oKgpkwLsZ8UUgbCxmPy9EXCpmD9f3mMnegrEdIIFELLtnKb/FN4RpPyMp64lb+u5sma7XePTH1I8sO8xB8Hx5ixJHCH+LKi2JUlcjkJtCYNrzPyFMRhoJQBwpBEhVe/OB07+3AWPjih7P8908TSjWGYA3/j1ggIazsmayBlMEwkguttNjAlCAYWtyjwhpCeBIhyKvXCWWoR3k9jEkk2VOK1qvH2ZLXQwVBVcCG58u5nzzblbNV8/C9ibHKRJM61jGjTDTWDGGQdZL4GN/+YpZPjsA6JnysEIIMaxti0YtmevMFEv7TgYzT3Vk/kOuzPV94Pvp8XB+lkCHi2ji3Vb0mZIBYLB5iECQdMoQrTdIHj+BYyMdZG2jtWHS0UGJg4w9r8PvyTsmGyiKy6gaG8IGLwm8lXhBvL7BTzSEDUybhJRwAC21fOa7DT18Jbd0qCW63lGEB4f4ymg2VzIz5EgzONx0WcazGmQZztH+4BOp7IZmGMmJZ76uzf6QgrjYpziByrrv9n+oQiMigyHceuodqTBLPm+TSHGlO3j//Lhpo/a4QlnGXw+uBxeDRpiKoXCKa8kKUMHk3JsMFWNWnNbbH3GBZSSKWUdFYEBiWQ2Q8zuSOyJjNSMQrRpMMgxanveZ+4fgVhi1wjt/vsSOUVaAMLIJjggymZNXTLkg/D4XA9po7/2exaZSOYEF8ItrsTB4ZnVfG72WbY/pKP8HDQmm8zNWFZprVOnQbtdyGlhwto1sd6/hNVm6lTBgXY77oqfG4XH0h3zkY3POZOwhvwDKI8h6erVXYBbyI1AOLujSelHExm1Jd33u4hd/BLVR5HizBKgiiKFDiWUMhUI+zpY/jSXGXeA9AWAlRBPn9Eo0hj5I5vWPYRSmZ5MXnG5HHf3iJKYVhLVFrY9T9Va/RLR4YqtQg14YSVkmd3xRnPRfdolxTCpPV6LFybjtbVs5WzEf3/nZKsrAAQ6gphPlIkwQlBgmSQPBHlyQYFQZFXS7JkFeIIAjDEjex6QSTdD58fZmej3Lqgsq+ur2yn0ShFSRT3TDmuAEoDa1uHwDCj5O03lutOjjNSqjlSfvb+Xnr0exbvQ8lsSggpIda+Ow1pJfAdUHdF/BLR4vHsg0QVhXcaZlQFpGEJmL39Mcz4YLffSGaXF9xmf9TrRvNwGKKe18pCKFbYyPiLOJ6T75P1qNUSzbuctnigPhmlEIXEj3GlhT/SX2vu/1f78PkynfMfXAPRSOsExjPkK9Ls9abaUv9eg9iPk6WteeiEzy4D5SxrhSCIO6o74j2HULDTHKPJPpeYrKV1Oquv3VL3AzJDCCUMST9yiZAw1SN7UgWAfa4FrG4eRyFa1LxfkLCjYixANIkCOF53cejQPsnGv4w8U2oqAoTyui14ZbnGy5WUhWKubYYgmDcHFLufhI+d7b98HsM3S2zXZftfDjWoWBYUZagSYo/TKor0zxdjPkibGOpxuPe0BdynYN5D7nMHSh/+PbxiuGd8l3GfUssS6L0A1kDMHTSISP215IIDSJmN2mM4nyoVAhzX4TeRtFxmOtCIumMUnhdKcYQ6ieGDwKfMDO4tiHcYpW/uSOb+BhRkO0UWTIoLIt1WQmrntKiYjlFIaeedYQURcdcLcu8r7HgHAu/gyXEewhvPChJsPYn5T/lz/kd1qHny7ntRKacrejl90aTq4xipqbmUo4YlPDDCuv7n5jGtWOisdWBgHujyecvat1hYkUDFGYvy2eCwhKGpQwifjEqxGQ77y8M/kPQS0oDjwVLn52BLJxUgyrSdkPGnMVS1bUhrZD8ILBZrTQMcppZzyfTASQhcLm5I/6u/Uj7/3zId8tyFoUQeIUC7T9kXbM4ot1nSMbUk26Y7Mj6powvghrvFRcOYj5CAh8y3oa+5PpuQ6b2VVmrLQkXZR7DevvKfvju35S1GPXbiLaf7w53G/7AM4mSvs+wv0bTQ4d1ESiuTDjvZOeYTK1hefbDCTfJPRKrfhKFGBTS/7VeL+yJwAXhEqrWQH6Xyi00XNeJhEYhFtwXIqtvkoDcXqLw/2EYwIw/jXmLq43EXNpvEFjj2omiiCVvIMZlEjFkUwLovZYLMsmyVmIcwbC9LhkplZaNCIv0N9oGMV6EyT/aj7b/H7p+wtjoNZzVMZF9+nzS98R52qNjDb91LT7286Vsc0g5+4kKzbk+U2j9xT1YLTjR61n/9WQZ60+6frJfCzZ6PvobhYF6FjCPqUUnWo7fWHYY63Qs4lg2jIsxX4RjUanG43L0hULnYHDPNndQ98+vmuROkL+Tb5iUUqxwbUj0o3Btyqi1foZ8j4QE8QefmInCfhF+86GFUV0Uk+oJz4fXhfUVawzhub1XjDQGz5+48TdsJ0pLkq0wrj8pCVjUIy4so/vhc4SGFQTO0MMoDJPQa3WLgk6zNqMgC701VpNkfMqnMy7rPKLX6hYe/g1x1VXKFOOtZXpya4JgAtpobZRgspMm3lzLaV24BRCwG2X60RboUhaUXXJsp/YaiwHrwfH3x9undFk4k/K4qSgtFolXgdEhzTkJEaLraWH2148wHOi1rmzntZxu1WoSnSCZcK+VtLkqUGdy8dS62CLkqnDKB0/qXa1DyyFEhWsNhtkPuTZca4nnRxDDhfZucX24QNwtWSNG3RK0zug2E4YhI83C92+LhTZKt8gSDqR8xr2AgU5jF0niwXs9WzKJXfOUPFvkQvpJiCXWQIikPNr3GHzicIGZ0KxZkWqL9jMTLt29CT716qaJsoL1AqPvHosFfZt14PgLB1vurxixn/Qdf9yxkDxffJxFnGuxoj3VkfWLiREXbSaFbBQqCWDSo989ip1wPchofd3t/1ofbpmrdrjWwmyplRkXGRZ4LwWFEy9u3dFn53u+oWMNyFLcn2QK+o747jWuL7wX3w4JEZRWEktMNN6TWBvVQFOODHX5eFywxqe24y1RaCBUhsTYAw4qmKGMCC15lEVQIJ260o2SDj2KJ4q2UPGzxSrpywkRp6RWJgSHy+S544Rw3gvflI5FuCfHWTC0Ldm22eaQnu4n4ZgQTdiR7VmWl8zTao0hPu9qGbNVAanXwivcJ+u0cR58Q68ULRO3XXvpzvfL+m6EA0QJhecFEgPGWMd8oXN3NoyLMV/0xHjc030BfAudg7k229yB4KTKReYf4ov1O+d6iHeIGya8IcQ160QyOBPnrUTSNE34pMfYMo7AB6mxACWQ3pvzWBmV4FPUCqfHdIvnQ7p1snN+KPYYAv9A4hTIWwODNZ61PdEt5VgfF4IfYGyOU4Q/Ks/IvK0U8oUcY81XHQ9Z/0+Xe9HybPmW+caV+AaUH+UY46ImmWEcYAkzFM4h8VYxQGA9VsKbrzdRp7TRm1rVC9qCmReLjJrWL5EXjGsaPsdMsKppzbVc+EgIBH+QRbpZDoFEH2he0XDo+il0rh9JNjclFhpGE8mkRWe74rF6nzKXj5J2YGVkMUslsoeGhNuoDhysKUdnVr90dSehfJwgmO18eB/dZwJkvUAyXjKwYwV8P9CqgOteMesv6fXhFnwPk6xNmvIYDQ+CHNghJCBAh5opMgNut2YndtTFWmO4NJAND2KgjC78iYBVIdwaWp04yoQhjB4TMYMOH/0VIugTs4clgGxwvJ/QGrSluKcqsWArkzv0tjCJ9DOsJ2MljopYIDTL6l6HFkkznyJIsi7OlY+3C4+KC4ID574QJiLUrur9ir3NhEt37+XfvSRiufSRab7fgy+KEPoVWPAeYap1EoBZ1kFZ753t++SbUyUPGnnqiBL9N1x4F2FR1x6KluX3srIUicYcwASiMWTCop4z75rqF+mtlr7LOID7YpShD+ssRv/X+lBYRBVBMBw5yLNaRV5bFFJMmrwfXHT+LAvHo4Ulbg7BnjXZ4gSRvG6SoTAMO98DwhfMF4zzW18MkrG0nbHB3QfhUK1CvPsd1k4XnrC+XPvUjBTDze1Q9MQpe7QpKLnCLJsI2+uKpluzzNKXyGbMWAXzhrJGsx3TV3YQL4A4IqEE/Y4+S9vpS6xPOkhiLVnW4MnXm1OKEuaL0JOA+phrWOxc3VuZT86Ud4L1YSyxjHLvbyR0gfhz/aa4Dkzoh4VStjmkp/sJ/U+JeRElHEkymFMyxVpzDe5kZJm9SNb75btl3D/llsmO9QtR8NFfmMtVOCSJULY6tS1byzrAXM9YTt0k7GBO1nkZz4FQcCVuSxUM2TAuxnzRE+NxT/cFsC90DkZwyzZ3UD8Ls38k6wdCjDeMhcTgMi6g5H1OXL5Dt0EElGgcMe6qzP3winybKGrgR1mCgu+aNXDxbNL2cK/NJA4Q3lGJzJjMofBn9C8Uq//9gEyaeIK1J5RDWAn5BtrI+nxKxR5DyHKqyt31l0tvr94zbss8Dw/HtVhA+YY5NlJcWonhg+eCn1LaSBLpKO+kx3g2YiVVALxHPD7Iy8BYUCkfFmMqnjNqDWQ+2Wmdrus1M14zLoMpvNo590713iLw8WD9llhxQ0y5Z2ih1/aUc2uCYAb0+VgJYoWIs1JN7obSqdRSwblcy1GWDvmCrJVCB9H6OK4E40SgeKi15Bx+0Fc83uoHDpgnrAuhG5Bez7pPrB0XEouYK+GSyJ8KgqFrg044WpZttvNhWfYZVDHZg1eojdFyaGAOlQXnGVByJbRaCD3eYiaPgsY6KshRFx86a4WpliesfzfJhMeHjDAI9kpMkJvKQIdfOklAkigThrBItA+hj4EU5g5mgL+QPJMnAj4MhxJMAoHZqoFDq69JYLQMW6xQ0QyITAQoDNBoQuASWgQ4BlPK+mVfSNr+UlAmXIpxP5hlErJgMaEXI0xNmN7VvY7sXcdsL9k7A0u+3j/T94nWnfcFLb1A53tpP9L+P0K1ams5wqCfSRAkA50KgjCHuG2rtZ+JAhfTkHjGuHeuZYrR/6kLd0O+u9DCXErNJEzqzuvWivW9XZBCcNdJV5+NyRIhjfdaCjpQ4viI61QXIbTgcZpw4keOk8WCaU9IMBOqoNPjmdz2KMPzhIIgx1B8oQxCcIB58Us0dCimOK9Exs4kqzQCzEFbDnFXy/NgRaAvwcxFCSXJwVvFL2eyozCZ9AG8IRBWUHSqgBqthzmIby9XF9jo9fo72xzS0/2E+fGBF6BD+uAAAEAASURBVDvjH/Eo4Y9vPBehjSyCB4tHAJ49vAe+J5bZiBJK43AR6+j56G+Uuiw0TVIwGHoYS/qt9t2wPEqdrUWoV8qGMeWKMV+UejyGr+rpMaPQORjmPtvcAe4oZZinH31FMjdLf0GJc5dY7uJoexEqkrwNWIgeryrcgiE8FfiLEvzIjsIvRte1hYf4ze7DPZ+j1mYUC6FyIawLPoU46CgvWqwxBOEXXhGCZ0PRlSuhYIXXAw++E+aWJM8asqnuJctkxNGPxGjA3KNCI0pD/qJETN9xsj6gum+H5zFs/ET4P6x+CI14mUTnOS2/uRgNdpcxvrdR+qzX21rXjfaoRqWqUyHSpTYtw4m4ctuuUeOFB6xtdFomLAb+KOVajuuWE6ZvXTHz3/Ofxi7WJwbZXYRxQlMRJSxWv91zhJ/AmRjShBnRUi4groJbiqWSRTCjhKYRLfRMWbwZ65i6tvAB6QK5MA96XK/Pdl7LhTiythJaZ7QrJLEJ4cLdCW0X2q0oaR1x74GyMCOHiQD5xGvNXVxm0FRi9t9eBtuoW5feh3eHsIdWDAvANFl+gedFY8Y5iMWtlToO6U9ZeDoeQy1A+48QyyWDPRa+MEEL7UMDxP2xUEQJAQ8r7cOiHSNphWqTKcfgvYy4dOy+QU2stQptI9kyn34jIuBKe7BUck+shhCCKJquFPnfLHQd3/+1XFUgs0ffT0ZcilA/bWBiBF8sJzBsIYEtmkDeK1jFUabvM1wDKmpB0bq0b+rvbNtoeb45GAaEfVxhVAMK47fR8oO9Bei3kjYcBU2IdXif7vZ/6uLVryYL36sCCSVB3Fij9w2fI9zHhMjEna3fUA+KKd4LrnIkwko9u9TBe4OpuFIUMEzG4BF2z/Ce4b62T7fEjEBxZVAMkCad+5MGPc4CCWPPos9xk3y0v+s9M221PWEZFE5HSTtgVsg6Gn7jlMMdDAY4XBssvF73V5X3Rz3ENIeJEDgPCmvJt7KLKCLiLNtaB/0Rl+UnJPENAkeoGKAMyguyUbLGYBwmWk+4DZ853M91DumJfqLtBRuEfoRxFDoI7szr7b2ovVTYl8J9rYPs04eLZRAX66gXCfgtJ14Bu61f24WJDusK97VemG4yS6Lce+mjWWkKKMroPLKazIfa3lwx5vpuzRdUIFTK8Zj6u9MXuJ5vlsyqUXzD3+E+1xQyB+cyd1A3hOUeyxtrBMfFkeE5hbCY6fvHSHC0fPtY9FFGIVCG4wjnyYnA952UxIqxmEXiWcYCLy0SzdH/lZhPUahzPYoGeIY4KsYYAl+td8aAEMYfxt0zeow2/lwWd2eZGzxMorw5SgWsogjXSQS/iIX/+XclBlzmiFDhq9egKNhPFGKh27Ke0y3zKtjf+I/6tNhdPc+7gT+HH+uN1G+uUDka9tp3nUx3Oe6f7z1h7EEKBiiqIQnriitHGm6NyTlUNH4M4hBlYfxxSRwlJu0wVXxYZ9w+DA0TOIw9KYhDBiquPB87LzqcpNEEXdLhssDgSzaqkLKdD8vG7fNRoanhvnUidBUrUxJxYVNE68IgRcZBhLk4KyBtYpLUZByUCa1xYZtJLHGyBPaj/WdA+uN+I8PTfj8Owy6F5ACDM3Gd1AneDCBJA2r0egQGmGKseAzaufYJBkFcSYn9gekkoBnGuicoV1yK0Rb6Peuo8S7BButGwlwVe7vo90m8De5Y0BkHjMwpgVFsxTke5P68J94N7yjKkORSTT79P1ofbsskHID43vnue4r4Hnh2xlG+CfppTxNWNBj3VvnOEBKxAOYq7BSrrSiiYFxQ5jE24pa5qAij4dic7V5871iqsTKyzzI2MHAIIfkS7cB1nhkZRR5MS7GokDmkJ/sJYzXzFGwQ7nG5jtMhPrjq4Y3BmDS8tjLNWygsl+8+beN7YZFx3ggWYRj1KBWCcbHmi2KPx9Fn68m+oPfOdQ4udO7g+0cBP6N5ruclmQdQvGTj4bR9uqV/kJyP/gfPMgo+Q0/muPV1CA/aJF5j8Ge58JJxVZdyDIm7X/QYfN7n4vU0WfhN+jZZbfGsiPteotfqb7CAH0c5Rh3MDyjMMgmAem24BQvq4D0z1+GuSlvyGd/D+rqzv/oCuTGB86xFsDvgxV0buoLGnddjuZajPGXjrGNaV6YtWs1MWt/otXEMZxhXgNUpStnOR8tHfyMwR/2yo2UK+Y0AkKuARP03iJZG/bzx544uVool5iZJvqAuYEnCYhyGce2HIchkaYm7Ro8hIBTCmDKJFHpPvXeh21xxKbT+8Lp8+314Lfvh98l7VxcZmCxcPEpN3L+730S+/V+fCVdlFQKxhkeD57VcqbYqeJWq/lzq5T3zV05CwTOsput4m0+b+N6ZOwqdP8J70Rei3iDh+e7sFzKH9GQ/YaxuF3zzZaE7UeH66oHFZ6VoWy59tRCMizVfFHM87kS0c68n+4LeNZc5uDtzR/v339VzS++f65b+ESYjy/W6sJyvQxRI3aVSjiG5tA2Bzy//IJmSCyWwYG7u7vwMFkk8ZKFtK/V13e8BpW6h1V8yBELXhrj4wGznS9awIlbMALGxuN+RaQvCJQK3CtzBWAx0msTIEMCtmZ7QCKvFtojNsKp6IQJoENECQnH9v/1M3/4fC/GHEgDPs4YxySQsykdb2rdRsNaXC4F5YQ4pF3a53tcwzhWp4pWbH+aO4qFlNfV2BEwQ7O1vqETtw52PwQzCkoSWKqRs58OyvX0fpvdLMdWTSUos9d5sj+k+SlgwCY5OWvA5Wt5+920EwgQLYZrtvv1U6a1HCLyiI0ZUz+AOSYyHkSFQSgTmpTmklDh1p27DuDvoFX7t/DB3FI6OXdnXEDBBsAfeGLEH6sY5UFzDegPhv4zgw1+cGTvb+d7wDLm2AVe6YyWjJJndyJD3/bRWH0vH9bgDjJOlGgjCR2CMZg3M9R5Wru8hgBVYv8s41+i+90SZW0xgPN86iRHMGpgZKzvbfQTmpTmk+2iUpgbDuDS4Zqt1fps7suFh5/s2ApYspm+/P2t9gQgwgeLnT5B1T8a4Fdhcu8wQKAgB4l5hWhD8ShUHVlDD7CJDwBAwBAwBQ8AQKBkCliymZNBaxfMCAlFX2HnhmewZDIEoAmQqKySTZLQe+20IGAKGgCFgCBgC8x4C6YFh897z2RMZAoaAIWAIGAKGgCFgCBgChoAhYAhEEDBBMAKI/TQEDAFDwBAwBAwBQ8AQMAQMAUNgXkVgzhzW9Z3rTBCcV9+wPZchYAgYAoaAIWAIGAKGgCFgCBgCEQSmT693LS2znWUNjQBjPw0BQ8AQMAQMAUPAEDAEDAFDwBCYVxFoamp2bW1tZhGcV1+wPZchYAgYAoaAIWAIGAKGgCFgCBgCUQTq6oa4GQ2NJghGgbHfhoAhYAgYAoaAIWAIGAKGgCFgCMyrCFRXV7s5rXNMEJxXX7A9lyFgCBgChoAhYAgYAoaAIWAIGAKSFyaNqqoqXU1NtQmCaajYD0PAEDAEDAFDwBAwBAwBQ8AQMATmIQSaZ850ZAoNaejQOhMEQ0Bs3xAwBAwBQ8AQMAQMAUPAEDAEDIF5BQEEwO+++97NmtWS9kjV1YNNEExDxH4YAoaAIWAIGAKGgCFgCBgChoAhMI8gUF8/w1VWVLjBgwd1eSJbR7ALJHbAEDAEDAFDwBAwBAwBQ8AQMAQMgb6NAIvG189ocEOGDHH9+vXr8jAmCHaBxA4YAoaAIWAIGAKGgCFgCBgChoAh0LcRaGxscq2zW11tbU3sg5ggGAuLHTQEDAFDwBAwBAwBQ8AQMAQMAUOgbyJAbODUqdN9dtABA/rHPkRV7NESHaRBLbNnu7lt5DAdWKK7WLWGgCFgCBgChoAhYAgYAoaAIWAIzJ8IzJnT5qZMnebmtM1xY4aPinULBZkeEQRnSsrS78dP9NlqcE/FX9UNWXL+fDP21IaAIWAIGAKGgCFgCBgChoAhYAiUCIH6GTPcDIkNHDlyhEuyBnLrkguCEydOdlOmTXO1NTVu3NgxbuDAAa6trc29OaFETy7V1gzo54YP7ueGDHBuUMmfsHTPYTUbAoaAIWAIGAKGgCFgCBgChsC8gUBzq3MNs5ybOnOua2qZ6yLrvBftISdPnuL6izsomULjksTojUoqJs2cOUvMklPdWBEAh8mihUqVlZWy26Y/i7atEGvjuNp+bqz8GRkChoAhYAgYAoaAIWAIGAKGgCHQWxAYLJIXf6Nr+rnvG5yb0DDXzSmBNMhi8U1NTW6axAjW1Q3xVsEKWUIiSl2PREvk8Lu5uetq9Vw2cdJkV1NdkyYE5lBdwUVMCCwYOrvQEDAEDAFDwBAwBAwBQ8AQMAR6CAHkljHyVwrz1ShxCR05YoSb1dLixk+Y6KbLWoItst/m87R0PmDBFkEqZoHCxoZGSQDT6hZcYGyX1KStrXPc8OGdlsDO2xZ/D3dQswQWH1er0RAwBAwBQ8AQMAQMAUPAEDAEio8AwmC9uIo2iptoMQmBjyUjBg0a6KZOmy4yW73kapklBrpq179/f1dVVekqK6vyixEk6+cMEfyoDLfPqv5Vrk4WKKwbUismRwnIixAmyH6uKEbHSM1dfxITaGQIGAKGgCFgCBgChoAhYAgYAoZAX0Fg+KB+RRcEW2a3uMGVg0Tgq3KjR40UIXCIWAXr3ZQp01xFZYUXEAcNHJibIEjWzyniY9og2WcqJL5viEiYVDp48OCMGC8wbrSXOjMWKtJJEsMYGQKGgCFgCBgChoAhYAgYAoaAIdBXEKgtwYp6M+ob3EAx0mlcIMk6x4we5VdwIHaQsL4mWWw+J9fQpuZm19DQ4BZYcJxk/6zOmH0mBD3OStja2uqlUedGhEW7vW/ZQbsNoVVgCBgChoAhYAgYAoaAIWAIGAI9iADJY4pNyG5tslxf1C8TgZC/4cOdFwpzuvXgQYNk7T/nqrOkIM32EJOnTHWTJk0RN1K57cDiCoLZ7m3nDQFDwBAwBAwBQ8AQMAQMAUPAEJjXEWiTBeWJCawU782k5SMQCKOCYiwug0QQrJC1GZAuu0O4lC6y8IJuicUX6041dq0hYAgYAoaAIWAIGAKGgCFgCBgChkAMAqwfSFLPbJSTRRBJkqwzzc2zJD6wNlUnaUhJGjNrVos/xjoVSJdJhKtoTE6ZpOJ23BAwBAwBQ8AQMAQMAUPAEDAEDAFDIA8EyBg6YeIkWS6iTbKDsn57POUkCHIpkmVjY7tFcI5UOnHiZFc/fbpkDu3vM4YS+zd12jRXXT3YsXYFVkQjQ8AQMAQMAUPAEDAEDAFDwBAwBAyBnkVgrsT1FU0QrJZ1J6ZMnubmiM/pd9+NdzPF75TkMaGFsFGyz0yaPNl9+933bvHFFk1lqunZx7a7GQKGgCFgCBgChoAhYAgYAoaAITB/IjBNjHWs7qBZQ5NQqEBazIVIGCOLArrvxyMEzhRBb5E0IZA6aiSj6EILLujmyCKG4ydMSqsWi6GRIWAIGAKGgCFgCBgChoAhYAgYAoZA6RDAUDdu7OiMbqHcvSKXQEIKEieIe2hDQ5MbO2a0X5Ge41FipXrOs+g8MYRQa+sc9+lnX7jx4ydGi9tvQ8AQMAQMAUPAEDAEDAFDwBAwBAyBIiEwbNjQrEIgt6qY0dCY8y2rB1fLAvFVbsiQzoQxcReTHVQkR59IhvMIhwuMG+tXtMettLmpe9lH4+5pxwwBQ8AQMAQMAUPAEDAEDAFDwBAwBHJDoIq4Ptw2q6qy540ZOqzOjRgxLGvNWA/7icdp6HSqwiMJZb765lvnapfIWo8VMAQMAUPAEDAEDAFDwBAwBAwBQ8AQKD4CkvSzv5vR0OCGD8su4FVlSD8aNg3Bcq78q6xMX6YQYZC/2bNb3dvpIYTh5bZvCBgChoAhYAgYAoaAIWAIGAKGgCFQQgQq6upq3fTp2RccDNvA8hGZaPKUaW6gLBhYWyMuojGEe6mRIWAIGAKGgCFgCBgChoAhYAgYAoZAeRCoGFpX55eCYDmIXAhX0o8//szNmNEQW3za9HoRLKe74cOzWxhjK7CDhoAhYAgYAoaAIWAIGAKGgCFgCBgCJUVAXEOrXLWsMzGjfoYbNHqgv1mDJJBhAcK6uiFdbs4SEcOG1rnvvm9fSxCr34AB/d0sESSnTpvuF50fMWJ47LVdKrMDhoAhYAgYAoaAIWAIGAKGgCFgCBgCPY6A99HEKjhp0mQ3evQo3wCSvUycODlRmBsr61L0F+Gvvr7BTZkyVa7p5ypkjUEWLlxs0YXcwIHtAmWPP43d0BAwBAwBQ8AQMAQMAUPAEDAEDAFDICsCXhCsra2WNf4muCZZ1qG6erD/I9lLc/NMv3ZgXC0jxPWTPxLDYD0k6QwCpJEhYAgYAoaAIWAIGAKGgCFgCBgChkDvRsCn9ayUbKC1svbfdInvgxDoasTls35G9iQyLDsxQBLDmBDYu190rq2bOXOme/iRx/xffX17f8j1WitnCCgCuIpPnDQpNabo8VJuv/32O/fVV19LVuLZpbyN1V1iBL786iv3yaefuVktLSW+U2f1c+eK6lP+jIqDQGNjo3vttdfdY48/WZwKe3EtH3zwoXvn3fdEkd7Ui1uZuWmMmW++9bbkfsjM87W0zHYvvfSKGA7G2/eSGdKMZz/66GP3+htvdnjUZSza50+++upr7rnn/+35gT7/MPPoA6TSdw6VuL9vJe5vzpw2v+xDnSzzMEHcQ43mLwQ++PAjd8CBP/UP/Y+nH3errrJytwBgYmkpMmNeU13tBg0a1K122cWFI/DFl196L4BFFl44cf3RE0/6rbvxplvc5ptt6u6+89bYm3333ffum2++cQPlXa680oqxZXI9CIOyw067uc+/+MLttOP27rprrsz10rRyc+bM8WNg2sEi/yAuWxVnCB9TpuJeXzqqrKh0w4YNLd0Niljz9zIHrbbGur7Gfz7zhFtl5ZWKWHt8VW+8+ZbbfMtt/MnujnnX33CT+/Szz93vf3tS4rcR34rOoxMmTHBvv/Oue+utd2T7jkPQ+MUJx7lddt6ps1Av37v8iqvcGX8+y/fzV1/+j4SMLFryFjc3N7sm+cuVZLVjWRd5eK7FE8udedY57oEHH3brr7eue/jBexPL9eYTL7/yqtt+x119E5987CG35pprxDb33y+84Hbfc19/7l//eDLvcfumm291U2W8+9mxR8fWj/JndgEKoNra2tj6euNB5pj1NtzUC9KXXHyB22/fvXtjM4vSJt7nVtts7+u65qrL+9QYVhQA+kglKUEQl9AKsQQ2NMxwQ4cOdVXCrMydO6ePPIY1s7cicMhhR7mnnn6mqM075Xf/535+/LFZ65w8ZYrLlQmGicCyjXXcKDMC622wqU8O9ffL/ur23GO32MK4i2ejm2+9zf35zLPdUksu4V7637+zFc94/uprrvVCIIV+dsxRGctmOnnhxX/1DGymMt09d8afTnNHHXGYrwamf/mVVu9ulRmvR+h8961X3dixYzOW6w0nCTXoq4T164Rfnuib/44Ictde/XdZNzc94RrjzP0PPOSmSWbt6ZJcDaaY/WnsT5vqPv/8S4nPn9gFgt//4XS33Xbb+mWZwpOvvf6Ge/jhR8NDRdvffvvt3OqrrVpQfT85YD937rkXeKvubbfd6X5z4i8LqgevlH89+1zWa1E4XfLXy9w5512QtWxYIEnoYe6YMnlKWDRx/5NPPvXnKioqHJaebDRi5Ag3csSILsXuvuc+d8ONN3c53t0DeG0lKeO07n+/8B+/S4LAVVddRQ932T79zD/9MRRLK66wfJfzmQ7cd/8D7rift/eDt95+x11y0fld8kmccspp7sqrr81UTey5rz7/yHuxRU/21u9jXvI+wJpMgkmIfqFKzui7sN+9F4GUIMjLY7H3KVPr5UVWyHa6Y2AzMgT6IgK33Ha7+4UwZfTly/92sdt5px27PAaT0dnnnOeYLHArpL8/8eiDbo01SsuYd2lIHz3QE0z740886bAuZqMJEuOs9NPDjtTdrNuLzj/XbbbZJlnLFbNA6EKGJbPUBNPRE/cp9nNgUV5mmaWzVjtYLMr777dv2RmQzTffVKzRO4h16CH3zD/+6bbbfhd37z23u9Gj2pOw8SC4Sx997PFZn4kCCO6rr7aKW02EMQQyFLVRQuA8/8KLo4eL8nvxxRfrIghizbj62utdSw7LTWGlmSUC1Y033yJMenXWNtFPjz7qiDRl3Guvv+kOPLhdaZKpggfvvzvT6cRzSctmXXXVte4smRvyIYSpdTfIPpb85te/jBWMcWvHha7YRFb3bKSC4GabbpLRkv30M//wVW280YZ584ebb7aZ4zqe8a6773V4ltxx681ieKjL1ryCz/f091FwQ/vwhU8+9Yzb/ycH+yf4/JP3Jclk6d5nH4apVzc9JQjSStwkiBGbJJowloXoK+5EvRpha5xHYJsfbu1O/PUvYtHAKsQEs9RSS7orLr80tgwH99p7P4emNhe67vqbUszvDTfe0kUQxPVql932FI38tFR1WLFahdExyg2BiRMneTe4uNK6zigWEFzl4miqzzgcd6bzGNfDIOVD+ZSPupLt/+N93Babb5bT7e6593536d8u92VvuO5qt9BCC+Z03YILjEuVg9l/+sncLTon/OLXPpZnheWXd5dcfH6qnmw7fcEaGH2Gq6+5Lnoo8fcuO+/YxfpGYbTVzGmZiHg2JfYzxUmhME1yQxsoHgW4P/3u96c6XCPffe89t+tue7sH7rsr1gURV0IshqNGjnRjx41xY8aMcePGtm+XXGLxvCy4ZOzee6899DG6tb39jrskUVxzbB24MZ908u9izyUdRMl2yql/TDqddvzwww9NEwRxow75EN7P7NntVuPwOMnqlH7wg2X8e9Df0S3jw777HRg9nPab0IOw/rSTwQ8ULKrYoV9UVVUGZ+N3R40aGXsCYf+Iww6JPRc9+Pcrr/aH1l57TbfGaqtFT6f9rqxKY/PSzvGDb+TFF1/2x7facosu5/XAN998692U+b3pJhvr4Zy3CHx33n6LWAV/4e64824fa7j7Xvu6eyR0ICo8rLfuOu76azO79//nv/9zB/308Jzu31PfR06NmYcLZbIGHnXM8e600/+c+PSrr75axu828UI70W0E0kaIKnGLW3SRhbtdqVXQ+xDAxebVV1/P2rC33n47Vebll19xuTDraKyzTZooGZLcjBZbbFF/T9azTCpDAVn0MtW2bDubiOaR9kNoIaN05VXXpITAlVZcwTNRK4irC/tGuSFw6ul/cvxlov/+70W31jobZCqS8RzM8m233BBbBpfjq66+zp+Dof7zGaeL9aWdyQrPLb/8cu6kE38lbkgDutQT7RsITLkKTbhyQdz7R9ttk7eGnGvR1mfq85RRwhpDIhVo2222zvk6vb6vbWHoGRNyoSTvFdwwDz/ymFyq8GWIM81GCO5J74x20A8RCs49/0IvDO6+5z6O2MMo0a+jrqPRMrn+Zvw9/9yzci2esRxW+CRBMLwQDJKE4rBctv1p06Y5vDPiaIP113OffvRe6tSBBx/qHnzoEbflFpuLUHFz6jg7Tz/dbq3CQoyiBEJwRIBhuaslFl/cHxtSO8RvM/13/HHHOP6yEe7AP96/Xah89p9PusUXWyzbJYnnN910Y8dfLvTQI4/65/rh1lu5X56Qm4U5Wu8jjz7u8fn6629S7xtX5TvvuidVlNjt5ZZb1v/Gyq1UL+tOY/lOomqJ448TKhnvLrv0Yr80GWP3q6++5vbcZz/3+CMPplXFdzF69Oi0Y9EfQ4cOix5K/F2O7yOxMfPpCRLIYQVOIhJUGpUHgTRBsDxNsLv2BAIffviR200Yknzo17/5v5yKo/HeaMPCmf2cbpJnod/+32/cxhtv5BMfxbXtDcnYBaHBuuO2m924cWPzvMP8W5xYyrlz24oGQCYBH6Hsh1unvxuYVGKmrhEXNQhLCkxhmHAGBgnLAck73nvvfXfOuee7yy+7JMUg5tp4MinjshZHr0iCBWh5YZRgjJKosrKiKAw/CR2IJYO23nrLpNvNM8fxDuhuspgkAbE7IOUiJP3fySd674Vrr7vB7brLzrG3a2uL71exhXvhwfPPOzuVTAwmD48KLC9xxDfEed5H1GqAq+DOu+4Zd1m3j5HE5Zif/dwnq3ntlf8WVB/f+f1STxyRGVXpmmvjFVacR0GVlCBFr+/pLZZrkmuF9IfT0hV7v//tySlBMBQQT/9TsmWH+lAQfPnZh2HVqX3e/1lnnuHHMlxEdxZ36ii98uqr4rGzV/Rw2u/xEl9t1HcQOOjAA9waYvVLomHDchfsk+qw44UhYIJgYbjZVb0cASabTTfZKLGVH3cE+BPwbkJgIkyxJ7749IPY45kOYh0ZJ0LdNmLJCmOmMl0TPYdF7Iknn3an/OE0v7wA55dcYnF3l7gWkZUwKrCdd85fxMNhEXfGmWf5LIxbbLWtO+boI90B+/84Z839Gmuvl7IcR9ujv1986WW35DLtFgg9Fm6xMj/7z6fCQ132qeORRx/rcjw88Nprb6R+PvTwo+7Rx7pamVIFOnbWlHjXHXfYPnp4vvm9w/Y/cs88lRlXEnwccVR78ikSIC2zzNIZ8Vlm6aUynteT55z1Z7ej3D8pBvXBhx6OTXCh14dbknhgBeuthIsesdYn/+ZXPl4zmnQLSx599ugjD3d/+uOpPfYYuSStytaYd0WR9NdLL8tWLGMZ+lRvEwT1gXC/XWDcAvrTb78f/30qtIIDWAOf//cL/tzAgQPT3Hf9wY7/Wltn++uiwn5Yhn3OX3rJhT7Z2NZbdVVqTZGwgWefez56mf3uwwhssvGGljW0l74/EwQTXgxMpWr5cWdI0nRyOSlyZzbP9DURFF8lPvl6TMa7Lv7v4S1xXWltneNdxDLdg7gVhBfSq4+UrGNLLLF4wQw1mtGFF1oobEZq/80333Jb/vBH/vfTTzziVklYPmLixEluhZVzT6qCe86jjz2Ruk+48+WXX/mf4J1UhgKTJ08OL8u4TyKTxsb2dZ1IgoQmOjzGhAWhuexcPzP9XTU0NPilBML3z3t4SVxOYTA22Xhj/96iDaHMe+9/4GONcFFaIIgJi5YlPqOpqdkf1nby4+OPP5HYus/cssv+wAsz0YmVWMn35R70nTVWXzVni1Mx+tGJJ/2fu/feB9zee+/p/nT6H1KPRMzc70VIW3jhhdJcfXAHIQ4UeuyRB/Lut/QdEofcdMutPqlP6oay8+lnn7s11lo/PJS4TzzPBRde4i686K8+1fu+krZ7Z1lqohjubYk3zfEE7ngXX/K3HEu7VGxitgtIojI/C4J8u6tlyIIIfuG3hTtqd5fM0XfCmJMkBFJGMyhq+UxbxoF8BEFioF8XwSwXWmON1fK2lIf1IkgjJDCXkTWV+MjT/vA7seRvlSo2Q8ZST0yIEQrxj5zqVT+J5cTSmw+RhEVdyPO5rifLnvHH09yhhxycdstNN9865a4LL3Ta6Wf48yhNX/rv84kKjFtvu8NbYGNec1r9/CCuM04I5BzfIVbDTPTmm2+6qAUzU/nwXE9+H+F9bd8Q6I0ImCCY8FZgPldZfW1/lliITAkdfvWr37ibb73dl7391hv94Pb7U05NxS+99frLiYkkYGLJJLfWWmv6jJXR5sDwn/7HP7s7JIAf4VKJyXObH27l/njaH3ySFT2ey5YlFaIaW72uIlg+gf2kcri75UNo97Jp+BAY9jvgoHyqTSx72+13phitm2+8zm237Q8daxj9Qt5VSMSwLbH0cqlDH77/lk/ewIEVV1nTC3MbbrC+++slF7hDDz/aM1dYpqB333otzZp4/wMP+mDoqLsNFrBt5f5ni4WAhBIhXSWpsn/7+1P9IVxs33vvA3fRJX9NE3hwj/vbpRd5Zg2Mfvu7P4j16PFUNTCcK0gc3DVX/d0tnWCtKGY/Yv0/6oPxCwmXOc4N6J/+jC+91B6rSZ+lnbkSQt7J//d7n0ioGJp91mF7TvohbX/hP//1fyeK+/N111yRyJBoW9Hm77RDu4JEj2XbXiNugTBG+RBKgzC2hlhHMMWlZsWY+FWy4r0q7mkIs7vuslPqVs8//4L77PPPU797085e++zv30Ncm2RZ99Thzbb4YZfvJXWyY+dFYUoX6UNx7c0dSh+aTzwYY3Em0risYbKkUz5019335KxYwGUr1/hC2vHQA+0xZEsvtaRvEtauN1590f1dBMArrrraJxTZ58c/EUXZRu70007J6t6r6+8hcPQXJWpvJZbUYi7IhxjDCiEsYig+hw0flrfirJD7ZboGQVZjOE895XeJQiB1tMk7hLor3OPhkcmjx9+kG/+V6vvIt0n3ivIUhW42wrPlsEPThfVs15TqPMmRZs3q5EVRmCuRTArltFJLyyzd9Z41YXK+1ImYndraGq8oiDllh0qAQO8ddUvwsPlUiVVj7bXX9JmtcHmBAY9bFBeLzsMdLl0kRNl0k/b00R3job9l1GUtbIcyuLoNzyH47X/Awe5/L74UHk7VSaD6u+++75584uGyTxZdGhhzIMkFE4scQgQuKiNF65pEEyZM9Ja4pPPh8RBz3Y/DOLyG/bli6VPS6xj4DvjJT717oZ6Lbn92/C/czbfcFj3sfyPoY9FivSmE0jBdtt6Dgo+JxRRterSdb771ttt5lz3d/ffd6faUzKkIBiFRHg3nTrvu4R556L4ubo/F6kcwJ2ChgzmCIIkGlKaIgAW1zmn1x2EGyKT54kvt/ZfYwnPOu1CLd9kedOD+ThM6cBKmk2t5PrL4kRkSppW4KzIb7r7bLu7Kv+duRaNO2sz1xA5+8ulnnmFZc401OJWRSKIVXWSZBEy3STug3XbdOaVA0IoeycF1U8vqFk34RRecqz/drnvs7d83Lo5xa2di3UQQXHPN1dOuI0FKbxUEZ89uSVNqpR42ZidUfsWcFrGxU3CMO9+Tx4hZhRGK0t577pESVqdLn4FQ3txz523eGyEp0Rbf1trrbuixKjQjKFasDTZYL9ok/5t+E36/sYUiB7HikMBFibFguAgrzH0nn/Rrd5S4fhJ7xvI9KP7++KczffxuSwfjGCcgoGxEGOzthDdOLstDFOM5jjz6Z379XdYbPeNPp3WpMpw3upws4gHG8jP+fJavcZ2113J77bl7xtp1/oy+Z/rJ1ddeF3vtCcf/rIvC+f0PPvBKwNgLOg5+8+23mU7ndK7Y30dONw0KoehRZU9wuMsu2PcWQfB3p5zmrrv+xi5t5MDqa3aODdECv/z1SY6/XOjIww/1SbdyKWtluo+ACYIZMNx37728IEiRByT7XJyPP5OdJnCAGcQVqRjEQH+sBLmrEIiL4d577e4th2iQ0NJh1SCL4H4iLD4o1iR893sr7bvPXj4mIK59vzrxZJ/4Y7lll3X/+seTcUX8MRbeHj9+fOL5bCd2FkFiJcmCBm2/467i9jnHZwk9V2LJlOIEURQBEJrv7X+0rXc1w81wuDA/EBYvFQJ5Bz8/7livRCDRydtvv+MTlaAZ5n0hgBz3s6P9ddH//nb5FT5j5XHHHuXWFgsxrsBnnnWOXz4BK9bmW27jE6AwKRx80E8csUrvvPuetxhzHkaF+v/w+9+mqi5mP2K5DQROJQL9+YuSWtPJ/EY8oVoESShxyV+TBbetttw8TRCEuTz7L3/2Frx99tozlZkWQQ565ZXXHAJ4PgSuxx5zlI8VxJ0N5QL3KYQ++/yLVCr9dddZu4sgWEid89M1uIUdc/QReT/yhx9+lHVtSb41rP250PffdypWbhb3Y10rLdu1LGIeZg9liQRdSiC8llT4arWcPn26P4UyaJJYfLYSN3zq+OvFF3RxUT7r7HO9EEgGxj123zWsMuf9jSRjMktaxNFRxxznFSpx53I5RhKVbbff2aGkOOX3J/tvF6EW74nddtvZJ3Q66y/t7n0sIQHBeOdLWBdVqaFKMJYOUKEMa0k0g2i+98ilPKEbcYnHMl371ddf52TxidahXidRgUrLJR3X88Xacp/RY0Y7nkPfZaa6k9qNklDDA6LXH3fsMV0Ewa+++trpEhnR8sX8XcrvI5d2ovhbIIdEdfBG8xMlre85P2HQk89qgmAGtMn2hmsaWmnSkMcJgvfd/2CqBgTHYhFujBpbgLsf7jiqOUZ7ut+P93W7ibUAhodlEq6QdYXi2les9swL9YwcMcLxB6HZZtIaIb8RrLIRblw3XX9NrFvMrbff4WDWmDQvuei8tIBoktGst946br31N/H9iJiRJEEQwemuO25xXAPhLox71drrbeQtpmTB5Ng9d93m70eZNSQZCO6WW2/bnnktTCjC+WL2o0LSOyOcqvC4w/bbyaQ3jmal6KNPPnH//Oez/vfSSy2VOq47e+6xm+522eKCG3XD7VIocqBFvuWfHLCff1fRpSMiRXvVz3fefdd/69FG4anQVwkPAfp3vsQat9noX/96TqzPF2Qr1uX8VVdf1+VY0gEswqEgyFqps2bNTBV//Imn/BiTOiA7WNWhYZL6/qabbvVKHpheEpLcKGtREgsIIeyqtRmX394Qx+obFvx3o8xRjKG4xD/y6KPukIMPcr/65QlescJanLoeJ8qo775vFwSTvEKCarvsvvHmW10UgAjcxCZCbR2u+l0u5Fzg4RF3Pp9jJLsi9CMfYi3MXLNv51OvliUEQmPs9Vi43WLzTbusoRuez7aP6/I1V17uLbw/EEUoywWRD+EvZ/4p9lLFu6JfRdp55g6W2FFinVmyxSYRmaCJ386VMmWezrWOcpSDZ9tPYtULpcv+fmVBioZ87resCKtHH3VE6hI8U1hvN1c64KBDvFfLTw8+0P1YDAK50KjRo3IpZmWKhIAJghmARGu77bbb+IkONxqsb2gflXAL1Ux/aHZYELNYxIKrSgggKgTqMSyP1193lVt2+VX8ZPdKDmsE6rW2zR+BSy48P1YIpCbiazLF2OBSzBqFWBbVTTKuBfvstUdKCNTzCy64gAiqa7p/Pfu8P4SrEEJnSLgsomnHwvD2O++Ep/zCvXqgu/0IZcScOW3u4EMO80l9yL55zllnavViFb3Vu37wjRC7JXKxt9zALNJ/ceNEcdHQ0Og232wTz9zCrCMIktAjU1Kd1E2CHaxwRx15WHAk+25SkqTsV5a3BEohVQyVtyV94+5jZWH2XJeeaBK39I8//sQ/GH0w16y24yJKjauvvCwNnEUWX6ZLHK0KL3gTwFDh2oqlhPuTpOuSi873sZ5//svZXsjCXf5nYsHujXTh+ee4XSXu9rwLLvLJYnBrxyX0hOOP8y6i6h2DNQkPCijfb5xrTjrxlylL69+vuNrPw3hnHPST/Tnt6jLET06YONGXCd3x/YEC/sMquewKq+Z15cSO++d1UR6FCTfgL4mGCjY777Rj0ml/HC+Sfz37XFqZUMG08MILuRN/9QufaEsTWmHhJgNzlDQ+LLqIPQqAm264NlWcJX023GSL1O/oDgmb1AKJso8kcggS0Rh76rlVhGFJGR2tYr74/aAsa5Kr50OhgBCrGQqCzO8hH6z1EkfKMk0XXXCedxfX44MGDvK78DIoruMIBQLu8kblQcAEwSy477uPxGaJxhPCPRS3MiU0WhovhetasYjslvpxs6gqQmYcYd1acsklPBOh6+LFlbNj3UNgySUW95kwC60FJoh3CsW5jmm964oLWRwtvPDCqcNridAXR0tJ4gYEQWW4KFPsfkQsD386YLNVZo/7EQMIYRnluI+J7Iib3GuP3b3r8tHH/txr9zWpEt8UtF2gLfYHcviP+1dW5jeEhcmQcrhFrymCIF03pK5Le+pn1Kdc07ucnI8PwDTylwthccLtGrrlpuuLljU07t7EPkG4dfOd/OLnx3klyGFHHO3nkkMOO9Ldc+997uFHHvPljjzi8MTx3xco83+6CDqMOom4cN2/9G+Xi+v6Aamx4amnnvGtZOzIlsE17nEO7BD4OMe8qApZ4hGzkcZALrbYotmKZj3PeKPZprMW7iiAO2ku607mWl+0HN4jy2dIwBXGc0av1d+EF/CXjY495kj35FNP+3dwqmQRXXGFFVw0Ky4xhVBVVWW26nI6P3PmTIdrMBZy4tJQPmg8KUoV1hokBp9wmTtuuymnOuelQiQRGzhoYEkfKZcsyvDBPznwEJ9Lg/0H7+80ZGRrHOFVLC9zpCi5UXpFFd3Zrrfz3UcgPy6q+/frczXg3oIwhmbvvoggqG6hTBCFBvPHATJx4qSUSxH3xeqXRAyCEBo8PkAC97PRttsnuxrNmtmZ5Wm/Aw5KdEma0yHYZLsXcWHQG2+85ZIWocW1FfpItOJJZTg/ZcpkNj1OUc1/XANwf8Id7dnnn3cvvviyn5xIgoP7GJNZLjQ6B3eIQYPbtWvR+mCyolTqfhS9X/T3H8/4ixdGEQoPO+wQf1pjpIYPG+aXflAGZDuxvOdLxAnxlw/haspaccWgCcGCxjURK20x6g/rII4mKVlMpm8mrGN+3WfJlBbx3qgT12tcwgshmHksh2S1rKvrKpDnWifJvaAw5oc5hrUOYaTQqqsQiPXsxF+dkGvVZS1HVmaEjlNOPV2WudgsDSOSmkGritW/O9j5SvL8TwXBRcUro7uEZ8crL72QVzWldg3dRdyGf3nC8Xm1KVqYuPdoeMTZ517QxZrNt0OG5c1EaYLL/08PO8I9+4+n0pSkrfKdQVV5KuiibdLfVfK97SIWzQsuuti7Au+w024OxQDu/T/e/0A/z7LGJomK5kf60x9PLftjY80jOZlakRHociXCrn4pCiR4pYsuvlRcR/c2QTBX8IpYzgTBLGAyEME8/u2yv7tXX33Nx3TgFoG15eFHHvVXbyKm80JcXpJuPXVaexyJnldhT38nbb/97rucBEEN3E+qR4/nWk7Lx22/+OJLf/jd996TOJjMWkcEJrIg9jViEDvmZ8enLenQG56h1P0Ilx2+CaXPJXlKSJrYB1expcRyzaCvQvHw4cN9bCtWEVyPWHQ9X8I9Zf31183rsijDk9fFkcJYkiA0mFjmjfJDgEy6/+5YpDqfK1lvNB9i2RcsGTDMv/2/3+Rzaars+Rdc7F0gcZO69+47Usfz2QljWpdbrj0WUK9HyLjn7tvdSrJkjSrPcFGNU/DoNbls8UBQBi1aftKk/BVrxKRhmclEH3zwocyXV6SKvPb6637/008/ddv+aKfU8bid/ST2CJfzYtHX33zjq1ps0c6QjkLrxsV1/58cnNfl77yTec7Lq7ISFd50k427rCNIEjBdMiK8LbF7N1x7ldt+p129J8Kxx50g38Pt3rpNOXUNLZZFEP7rpN/8ym0v8eUkz6NN9D/tg8Qe3nnbLWmxumF7s+0X+/vIdr958TyKSE2whcccioVc6fzzL/LZuyl/0om/SiXVyvV6K1ccBEwQzAHHfWThbARB6IEHH/K+8aFbaHeSxLTNbevSguHDhqcdu1FiBJMIpkGzhS6x+GJJxdKO/+oXP+8Sc6gFEP7IXgmhdSNAPI5YIPiss8+LO5U6hpuiTsQw+kkuLMS/YV3B/S1pgVkqffChR1KCROomvWDnIImZwxoIkYFypx138BlGidvjmYjT+OmhR6StDdgTzS51P+KZ9bnjnoeYQtbR27Mj5fjXX32dKsZyEKQi32KLzRxZRgshlne57NKLC7m0KNe82SEIriyZaPEKKCXNbp0d2/dVaCjlvUtZ96effV7K6tPqzrYURVrhhB/dCUV6pMPdE+Z23XXS3cDxHGCpoPB9smwMGaFvufn6LrFRCc3rcviJJ59y/BWLUDa++NLLBVVHdu1s12626SYF1c1FK6+8kndVXGrJJX0dzGUak0nM5ZPiooo1aeONNvDzDN9ULh402iCUv+H6rXp8ftuSsOzEX//SLyuBW9+Vshbu4Yf+1MMAplCxk7cwxj71xCPuwov/6s47/8JUCAQJyJgHCqX/Z+884KQossdf7JKTiQySRBARERFzQFFUDJizZ/b0cs6/y/n+l73ombOYUDEriIJIVhERyTnnzO7yf9/afUNNT3dPz+xsgK3HZ+me6qrq6tddVS+/Qs+PfMexN7bDCuoHP/xxKror0ZF//KPvJ34U5iY5kwHe7xfuzG7qnbhzXzEnDHhGMAG6YGL4I/oh5qE4SatZaPPmzSV89rkZvYiiIwXrJWQ4Wo8gII1SH0P3WqtWB1nCEpU7ErhcJCxuP+65S8DA4IWNh/poOZQRJEVBlH04JqvZGMGFYq7KMwDf+PpX0qJp2sKK/zR9xMHiCxdntjfmnf6hxLDbV3Wfk0x13Lj37G3RDI0fNyY0RDpRAguhYc3l+ariO3LvjzTWTb1Ajj6Nikg9tBnXXXt1qsn4CRNT5/gR/fpXP7e4igsp/6Uvf9288tprqXac6D1eeHGk6dGrT9q1XH+cM2SIDXefa7tNmzaZ8ePL0xO4kSNz7Sdp/d/89g+Gv30BvimCqOuvu7bSj0Iglb0p+M8IESICEEwIiBTw7b38imvs2ksZGjGYRdKkjBr9trnp5tvMA6KFycWslX2JvSMJYFqXFE475WTT8Kf/l6j6tA8+FH/HEbYumtTBZ5yetd3AgcdkraMVdokZ4muvvynCpickx9otdh9292KiObP/IChlr0UrjE/b0BZn5xz9k3uSEzXXqKHPPvu81STrmPeVIymSMPklhQiB7ZQRVEFGExH0FRLwN2f/wDoLeuiW2+40aJ7JJ8u++3tJU5KL9ryq5kchn7k298Xc+8KXvpoKYNa9W1dz3z3/setWknFjGfTVr3/LMvS8t7/+5Y+J2ybp39fJDQOeEUyIL/Lg/fD/fmoXPqKHqVkoIY5xCA+Cm3x+nki9w0zfJk6aEmxmf7Phk++MHIJoymBAw9pTGVv9bdu3WZt8TFaj4PDDDzNvvDrSXk5KIET1RTmmfdpfVDCbufPmpbooZETVVKe14IR3RFoHICypOOXkvspmFku9QkNVfEfuGMlt9uc//j5VRC7FuLx+4x1/vv/+7167qWf7LpYsW5pi/FI3qjhB46xMYfBa0t+bt2xOWjWtHsESIOCBU8W0ykMyDKCVe/SxJ2xkzDjtv/ZGfkwkz66wAGITU82uYgFR1ZpYHUdlj+Ss1HyabmAkN8gK9/i8+NIiIOGZERI+N+J5S3Df9vkvGqKSJiV2sfrgr9BAhGL+sgFafjXfoy5MIL5DMLiFgEmTJ5vDJa8s3wdw3bXp5qTg79FHn7DXWJfffGu03UttQZb/0MTCZChMrPBhX7NmrcnV1FPzHmLOPPypZ7RLSQN0tOnWtWvq9952wnf4b7HGeOiRR61Jn45fYwxg8ZEPrKjwuya3J1ZYBAd6//2J1heQ/siR+9WvfNG8MvJ5a6ZLOiYEJviCki8zaYqjqpof+Tzz3tgGCyf1ZSZgESmtiKWRBBaJZdD1N9xsmGcA60I+QaSS3MvXSYaBwqzKye61V9eC6P3Jz35pfQO//Z0fpAjQqyLyomCmonDfAw+aC84fqj/tEQnlzyQnTxQg+dJk8jhFv/byiyaYgwmJ67mS0BfCiE0lzpGdBTIqdG/UGOLK2dCz9aebKVojlzGO63dvu9a1yx5z3DATR97z175Rc47shf6O8n0/aEPR4CkgqUciSJCMOOLwd7/+pQ24o+30uFE0cpeJFgVAGvmvf/zdpquwBYH/HhRfNHxe8D+6ssJMVascIJF344DcaLxDdz5DfCiRe87ZZxn+CAoxa9Zn5jrR5mDmApx6yik2kqob9TXuXnHXvvudb5ovOrmctO4/hFjKppnXusEjpnoPPfyIRGFcbC695CKrqQrWKfRviDb8zJDkT3jvHXPIId1tVOZ//+d/hpQP9997d+qWCBUQLpBr8Lln9vjlfed7P5RxP2o1Pf369ZU8mr1TbWrLCYwIfwq//8Of7CnaN/KGwcB87/s/SknUuej6MOI7++9//t3g54v5tXVJ+HIjW6Z91tYjBN5V11xvhZQ6xh//9BeG9BK3i+YO88yk6RyYexMmTDLvT5xojxpNG79sgH7I39i7dy+9lT2SP1WT0N8i0WNhBMOAuYx2yLV8IWqrpklw26DF+PydX3KLEp/jL+22JZfsT3/8o8Tta2NF5m7wGQioBDRpmikcd5+htMJSyC3D3eZ5SYcA4AsY9FFk7uzctdNe570/Nfwx84UvftU8+9wIq+29/MprzUsvPmev+/+qFgP42sMIcnzisYdj5/OZg083K1etFjejQ22amZtuvj0lwCHq8A8SBvrB4uje+x6wbQkqE6WAYFxYUuD7GqS7FSvQpo+IQLJN61YS4fhziQUI2n5fO3pGMOEbRdpBdDdsyt8aNdq2IlhFVHjmI/v2FVOe+lZbRJ40QiBjJodJEATjXf/4d2wybD7OsePG20UOadfZQy8wF5w31Jx44gk2ouh7ko/t3vsfSNnKRyUpT/h4Ba9G7rj7H3jY9ntUv34F77+2dMhmyHewcNEiu/jAnFwoWmLKSekB0asJ1WtizLXlO4IZRipeVFRkzX+/8KWvWLz8/a5/ma9/7cuRqIla7DVJMwTz3//251g/kYeFmYCIw4TpK5LAN05zHhzID77/nbQiNDhf+srXLJHPXEYjCsHygx/92M51/GWQbmLeh/AIk7hCQKOGjUIj+FKeL/z2d38waGYBCOc5sz6u0ohtEPV//svf7f1ILs0cAbZIOUIvTPjQGGqusNMHnWYZQbRpENJtJaE3gJn5s889L/koNxs0ZW+9/rJtay/Wgv9gUu784pdTqWL4xiF4PpV1/2ZZ14mciRBE80J26tTRkKeUOi4QbZfcnxdedJnNQYr1R20GIqvyfv/+j39Z4SRzEw3nMhn3iyNfsqbxJCQndyjM8B2SA9QVpIU9G+acN93y+bRLBGYbeu455vyh58p+eHyGySzz/OvfLJ+3MHgILBlLGPzvnvutIIJx/ubXv7BVOnboGCnkJComjC5zv3uFL2KwX9Z99j8CZO0n0ZHDgHvUFmANGPnyK2nDmTtvftrvpD+UQQ9LdaN9zJk7L40p/vVvf2c1fe66jHAQxqFv3z7m6P79bVCww3sflmYBwDrxv//+05CfDleD667b44ag9/LHqsHAl2UfbSjr9edknwuziHPvqvkg/3P3PTZWgqbSuuP2W80vfv6TxFYOCGdYO4A33xxl3nn7Tfc29nzmzE+ttpEfMI3j3hllDjssXUjEtc/ddGvKf5g9p7KRd+lzbwbPCObw9sgp6DrekzIiaoNho/jnXX+zYXWRDIc5JSOtGCfMnpq3uEOh33/+46/WnAWpJep0fPfUf8+tS5JxpKy1CfANUYlsrpEdw54DraemHgi7XpNlP/nxDy3hh6kiQgIVFOiYcGZvUL+BTaauZdV1rMrvaK1oNVTry/MsE3OeMCBh8RtvvmUvkW8T7RPaU4jCX/76t5ZgJvw3TGIS4NtCAwfw7WteKVsQ8t9vhcAjOiUECH4NI54dnvhe2h3MHslyXxz5si1irL//7a8tc7Jdvk183iBAYU7Q1PP3ox//zGBSziZTyKjCOqbKHhcsXJTqgvk15p2xVruZKizwCQwCvsV8kwSbUDhNNKcAY5gogUhOPulE+5tIgVgTYP77jDB+vGsA64LfiPkkGkMSSv9MzHQxp6wNwFiHnHOeTY2i44GZ4blfeWmEEK0dbDEmbkitYXZ/KcRQC0ltEQZYcjwh+dGwQnHNsMPq1lQZDD5mjySW13QNmAbi760SeSKm/ksiiSKUQbIP83GvaIdvuuF6893vfCvN19h9DvwpgUMP7WF9AM8TBhBz8qh9F00zkSyxOIBA/bPknQNc7awtqPhvydLyQFUHHrTHMuC2W28Sn8Ob3Gr2HJ840mMAaBEff/TBNJNlymGGjzvxVIuHxbLGwYQiAObuSYiFAABAAElEQVSbjhoz7WoSZkvaJv4qCzC/GkUa//QwQCh6vkQcdSP/QuAvWLBIrDr+ar8Z3jWB5VQgFNaPloHTX/zsx9Ytozp8tfW+/lhuxp4ND5hGMyfx1yU4DICA649/+J210MnW3r2+UtZQBYRizOngnFJ3Da1HcKsgI0i7tWLmrTA/T6GHtt8Xjp4RzOEtniO5zmDwMKkCrpRoonEAwYsm4r8iCZkhBAsLJcBE+Pztt9kcUQOOPcmW1Q/JA8dC+PCD95nf/+GP5lFxiFdpGw2YAGwy3/7m18yQs860fdSW/5hof/5rueQfEw7M63IFiAvSZqjT+X0SMhpcAkET2bC+3cThxcWZDIb62hSFXNP+tJ3W1fLg8WLJ5YRZ2/d/8H9p7xmN8M033mAJHfLsAEVFxWnN08eZfk0ruvcvDrQP1tExaznHqvqOiOLKXxTgUP7zX/4mFXEXP9c//P7XtvqXv3SnGT1mjEFbDgFJkKL//vsfaUE0wvqF2UKbAlizEtHYoY1lY1gmiz7aBzYfzt0yvicAoQq+J4S5zgb452KqhFmpG+2QsP6MVTU4MCb/7/e/MT/7yY8sQYz5I4wjRCFSyUceeczcKAQvms9s/rlTpkxLC1H/8fQZdpiYQuIXFQQYToB6bmh7LQ/Wd3+jBZk4aVLKzH2e49Pr1ivEOQTiHyVUOEBADzWf5TdBODBtR3A0dux7KUaQ7/bSiy+yUQmflnegjCBtMPN95dXXrHkSTAVrsWveR50gKEMWLFfmhXIC8oRFkhwnFhjZgHUPQQPaFAQFv/vNLw0M0XfFBJT3MfT8i8Vv76tm8ODTDYGxJo5/N5EmE/9IAjHEAd98+45d46okvpY0uipE/WNiXhXcmzDV/NUvf2ZNtvWmaP7QDHzvu98299x3v/mXCDXxgUSDPvzpZ8y3v/UNc+vNN2Zo99ACfzBlQlYtPt/XL0SopFGMwf/d//lnhu/R6oq8u4wLc/WPZN0Bovz1mMNYAWAKjmYaqC/aKhjSxqIRCQLXviPPQv0pU6fZ9QAmGeaGcvaKoMCLwFOYjaqvOX2OHVd+rxdEk4omOQia+uNxicqsQauCdYK//yYBOcIEUqecfJK1dnLrY8ar6X/c8qhzGG/WPU1VEjYXEQDgWwYTCCN993/+YddVtMgjnn/BkF7kNok+Co2VK8AEomlirwwyB/RVHfOD9/h/P8kukAJXCswfhF+5wA9lz0vqj5dLv4Wqy5zBPJOI4W+PeScVMJD+GfdDD9yTkbcyyb3RIE6b9oFZKmsdOAh7zyeJxRx0N3MWH3TMQ4NAu/+T6Ka/+vXv7N5D8Me6DvVk89rjyFCN2Ji6bM9kKMRt+7fPJPYL0W+h+mARnCUSkeYi4e0imyLMYC4AUY10Y43kfkLS2a1bV0tk5NJHkroQ5KcPPttWHfXmq1mJq7A+WQRwBgZ+/KMfhCbCdttp1FCIw7dHvW4v/es/d5sf/ugnbjV7DnM165PpsTbpGY2qsYBF8DORrjZs0MB0E9OgJFLNahyeEBuV/454t7zjKIAxev65pyTh8B02uBL1YJ5ee/XFNF9RQuaT4021hRBjDz14T6jPF8vUoDOGpPmN8C2QtyrpEkZ9iC3eyZtvvBx6H7S6P/7Jz8wY8VfBzMQFtDO33nKjZSIPyuJbiC8Tmir186UfmIIvyaYTNDfl2i9+9ZuU2SS/CwVoIyAAowAtHH7GMCqPPfKA9beKqptvOWvfqYPOsowemi/MdWD+XLjt81+wppJs5C+MeDp1iW/jiqvKrR0mTRiXxlxA3A08/mSrUUYo9trLL2QQ2XR05dXXWx+iVKeVOAn6K7pd/f2uf1o/csrIV6jmRkRWvFJ85tzARjADrWRONJW1vLh+sSVgKVPiBmKR75rjLvkmt4kQbLsEBfvzH/9gmQm9Lya9X/naHu2qlhfiyHfjRv2lT77np5951gawcRlorvEOvv/dbyWKDooVzM9/8Wtrkqzz95BDuptf/eKnOQk20WRhWeCmdYB5xL/SNcvGvBZGDvzClJHwfPac2SnXionvj7WmnDwHQEqjx0WLgQUA368CUUd/88ufm169empR5BETUusTKwSxMte0++63v2GGSZJ0fdeLFi02/Y4u13xGdlaACwgewLHC0cecYN1TiLh56y03abE94opCcKP/++H3Q033eWfnXXCx+Oztsuspwg9lHDHVnDJxfAaNc+cXv2K1Qzz3ow/fn1prEHJhyusySAwCn8CGDRrK/Kgv87qendu01XlRImt5SWmJfYe7xHeQtRsBHSb5CtU5PxAcHtbnKL11lR2D77HKbhTTMUw3/ttW2CqWQBx5/whiEbYE3yWafdwlLhp2QVZT0pjb7vOXaoov8hrBavq0ICIrY7pABEgIbP5qO3TufLAl/CFw7vj8rVmHiy9Fjx6HGNopqHmY/ubIJorPW9JAA27b6jqHST+y755AQdV136T3KeR3hDnyn/7f70JvjU8QBDAAQUYwl6AmF18pzKsIJIGWDo3QW2+NDmXQIAAIE+6CK0HHhLBD+/Yi8W5vfUaQfPMboqR9u3a2vEmTxubYE06xZtZ33PllM2b0G2539hwBzXLZ0JQJRMKP6SmRHq+8/LJQbVFGJ1LAxvfyyBFWY/rzX/zKmqWi0VbNZFgbymCGr7nmyqjLicufE1PKj2d8krX+ggULpd4MS3QFc9tlbZywwlSR4i5ZWp7YG0I/yATSDRoEfOYmSYRGmFPNjco6YH0HpQwG5Nvf/Hrqrrxj/AV/+avfmqmifUFaDDMSBdxDTQ2j6kSVEzkSDU8c4LcIwMx+42tfSVUlyub7EhgHRnGkMBYQzRBKEI65gkvIu22RtBcqUMbQ8y+ypqxu/3qORv1/99yvP61mh8jZN998Y077G4KUv/75/5kbJJURwX/ALSkCYApysXCZKUEflAlEG4TGDV+/oKDmGvFJfH/CBCsImuVo2GC+yWfKHuTCv0UQ+epr5UJJBEdDxR+RtEsuc+nWDztnH8Ccl28BQQ/fN6b03/jWd8UkeFBqH0M4gna+KgFmKrj+4n9dWlYaapb8/LNPieBhh2ksa2YYsB7vFN+q4Jxg/UT4GxR0oy17a9Tbtqtbbr4hxQRSAINAlPQ//eVv1jxd54VrPho2hrCyqOiT1TE/GjVqnDKFDhtbIcqwKEKAVNPAvsh6xloWBQh/rxRLjetFGInwxUPtxYDXCNbed1MjI0MjeMaZ59h7E9ExzMQjycBYIDD1OHPwGUmqZ9RB6gdhoIA2pVOnjvrTH2sQA5iCffLJp2LeMUA2vvMiR/I7MWlG44EZJoRDHBDBy5oP/uG3kdX4NtFCtGjR3BIvLYWA4pyADEk1r5ggPfb4cHPnHbdHEnVINn8m2gqCQ/H95mOq5D4EWlgCJxHd7mmJdIewIAh//ds/zP/uvc8ynUi1KwuYvTz+5HDxnbnImqyG9ffgQ4+Y74k5MwzqzyU3XBJz2bB+kpTx7oaLWe8vhREMAzSoP/3ZLyWs/gDL7LnCnm9++3uW6Bx24fkZ6wmalmuuvcGGlEdbFwaYEuMjih/nV79SbqIdVi+uDFNG/FLPOGOQ9Q0Nq4vLwB1f+LI1iwwyFm59rAYw7SO/LD6lSNfLytD+lVr3AfyJd+zc4TZJnZOGwTUVR3gyefJU+00VIt8sN0LbzxjRfrlpO7jGWK+/4RbLzBPw5+STTsog+qmXC8AUwwD+5a93WW1wrus8OEdIhLk5gpQowBT13bFjRdCw01ZhTzn++GMznpGLCLEw6b1SfJrRMIWZC0fdJ6ocgQhWAlcJcczf3g5oDEmLRKTQMnF7adeunV2/EL6FAd/qt779fcmJeXdo4Cttw3tau26d2bB+vdWE41JTVlpmynaXmaJ6RYak9apF1jYc2WOCKWmqe36449nXz+8Sn+977n3AClsR7vHXoX35kXOC+yB49pAcAzWlEfSMYPJ35Gt6DHgMeAzsMxg48ZTTzfz5C8w3xW9NzRj3mYfzD+Ix4DHgMeAx4DGwF2GgphhBbxq6F30kfqgeAx4DHgOFwsCPfvA9c9xxAzPM6ArVv+/HY8BjwGPAY8BjwGOgdmPAM4K1+/340XkMeAx4DFQJBjDt8+Ax4DHgMeAx4DHgMVB3MVBUdx/dP7nHgMeAx4DHgMeAx4DHgMeAx4DHgMdA3cSAZwTr5nv3T+0x4DHgMeAx4DHgMeAx4DHgMeAxUIcx4BnBOvzy/aN7DHgMeAx4DHgMeAx4DHgMeAx4DNRNDHhGsG6+d//UHgMeAx4DHgMeAx4DHgMeAx4DHgN1GAOeEazDL98/useAx4DHgMeAx4DHgMeAx4DHgMdA3cSAZwTr5nv3T+0x4DHgMeAx4DHgMeAx4DHgMeAxUIcx4BnBOvzy/aN7DHgMeAx4DHgMeAx4DHgMeAx4DNRNDHhGsG6+d//UHgMeAx4DHgMeAx4DHgMeAx4DHgN1GAOeEazDL98/useAx4DHgMeAx4DHgMeAx4DHgMdA3cSAZwTr5nv3T+0x4DHgMeAx4DHgMeAx4DHgMeAxUIcx4BnBOvzy/aN7DHgMeAx4DHgMeAx4DHgMeAx4DNRNDHhGsG6+d//UHgMeAx4DHgMeAx4DHgMeAx4DHgN1GAOeEazDL98/useAx4DHgMeAx4DHgMeAx4DHgMdA3cSAZwTr5nv3T+0x4DHgMeAx4DHgMeAx4DHgMeAxUIcx4BnBOvzy/aN7DHgMeAx4DHgMeAx4DHgMeAx4DNRNDHhGsG6+d//UHgMeAx4DHgMeAx4DHgMeAx4DHgN1GAP16/Cz+0ffRzEw7YOPzIKFi8yhh3Q3hx9+2D76lFX3WIsXLzXLli837du1M506daiyG+3atcu8N36Cad68uekj76lRo0aVuterr71pGjRoYPoecbhp3bpVZF87duwwL738mmnTpo0ZcHQ/07hx48i6tfXCtm3bzIxPPjUNG/K8fQoyzFmfzTGrV68xnTp2MJ07dwrtk+sffvSxOfDAA8xR/fqG1vGFVY8B3gPr3DHH9Df777df1d+wCu/AejN56jT73Q04+qjYO02d9qFZsWKlOfTQQ8wh3bvF1q2tF3neT2Z+ak495cRKr3m19RmrclyF3t/9uleYt1VaWmp2lZQYjmVlZYXptJb2UlRUZIqLi02D+vXtsZYOM/GwPCOYGFX7VkWI4ekff5LXQ7Vv19Z06NA+oy0b3K6SXRnluRQ0atgwtO9c+li6dJmZMWOmnaT5MoI7d+40rwhjUcgF7Zwhg9OYjhJZNMe/P0kebXcuj5e47jED+qfdj4bbtm034957XxavIjPotFNC+5o9Z44waBNNnz69QxlBxv3yq2/YtmcNHpRxj9BOQwrHvz/RjB33vjCCzUy/I48IqZG8aM7ceWbK1A9sg149e8Q2nDL1QzPz08/M3HkLzLEDj46tW1svTpw0xeIO5vnQHofk/Q7c55s4cbJZuGixOe7YYyIZQQjY9ydMMu1kDUjKCO7evdtMnjLNEgju/Qp1DvNQXzZk4NNZs82qVasK1XVaPzBcR4iQoTbA+xMmC0M+3cz6bLb5wh23VsmQ+BZ0TuVzg46yRww8Jvv8enPU24Y1e9vWbSKYiWYEERy9PWasrGHbrPBob2QEt2/fbp4Y/oxhf2ncuJE55eQTc0ZtXZ9PhdjfXaRX1brHPXhX7KWFhhOOH2jq1atX6G7z6q9s106zddFCs23lMiOLvDHFDUxRk8amXuMmpl6jJqaIo3zr9eo3yKv/2tgIupA/1iRoVgTQteV95IMvzwjmg7V9oM369RvMa6+/ldeTnHzS8aHM2osjXzHr1q/Pq09t1KJFc/OlL9yuP2vsiFTr4zwZ5ahBDz79NNn891zdtHmzeefdcXsKCnwGIxfUdq1bt85MEIKfhSuKEcw2DHAzffoMW+20U07KuAcXZs6cZXbKIhkFLKLlTLAxrQ46yHwsjHs2YNvr2zdc+zX67XdTzd95973UuXvSqVNHwwY6cdJkWwwx9tAjT7hV0s7PO3eIadu2TVrZmHfGmh07dqaVVebHWWeenlfz448baDVCW7Zste/zVHkPlQHe6RIhxoFDDukW2dWcufPtta5dDo6sE7ywVQj8198YFSwu2O8j+hyeYgSnicZo7rz5Bevb7ah7t661ghHknX88o1yI1/+ofnaIb7w5WjTE2eeQ+zx33H6zaJQbukVp58uWLTefiNa5MjAwS2MYdwh7YMXKlebxJ54ObXHuuWeZWVIXJhCY9sGHlgkOq9yhfTtzztlnpl1SLVxaYSV+dO/eNS+NJOvxiSccZ0a//Y7M2ymWUQ6u0dmG5edTNgwlv16V6x6jgBF8e8yevSn5yOJrHn/cMbWC8dgte+jGj6aa7cuX8rDlf8KglsKk1hPPs6J6Mk6O8ifCunqNGgtjKEyiHMvPYRKlTH5LxfiHrqVXdwgOgLi1tJYOPTUszwimULHvnLCxPvDQY5EPhFr7umuusJqEsEqfzZ5jizuKiVjTJk0yqqANiAMmRPNmzeKqZFzbKVKlzZu3ZJTXVEETee7bb7vRlJVGmzjAEDz0yON2iJ+77qqsCwGaLxeayAIYR8Cj5VqyZKllRnr1PDTV9NNZn1nzqG5du5iDDw434aMy/dcUPDvixcS3nr9goeEvG2CKEcYIwkyvXLkq1Xze/AWpc/ekUaOGlvGGkFbAzCwKtlYQne51iDekgIWCfBlB5thpp55sTVzLCcoBpolIYfOFpUuXW40d/R4sDHMYQITDHABd5dtLCg0a1DdH9k2m8UXjCH4POvBAw/qTBOhfoVu3LlZbpL+jjmW7y1LCDDRLzRKsV61bHxTVXbWWT532gX1XCHOO7n+kvfeWrVuN+10XckCYWefynU6f/onVVmYbw6ZNm0UY+WaqGgxO1Nxds2at1YBrZdryFwaqHXavLVm61EyaPNUtqtQ52rx8NZJYIXwgZr0ITbGKyFUg5+dTpV5dWuOqXPfSbiQ/eh/WUwSw0YKXYP3g711CI30iAtbaBNsXLTDbFsfv3Sl7J2H06m3ZbMoqGMN6MIcVf/a8oWgNxcIFprCenKcYRsplravNjCLMIPQJf3sj7NlB98bR+zHnhQG0MS1atDCXXTosoz2b8V///i9bfuEF5+blf4Im5TBZ9HIBmJ4nhz+bS5Mqqwt+kphzlJaWpMaAiVZDWbDiAE3FsQMHpCR5SIJPOvG4yCaYGsAItmndOq3eunXrLSPYufPBIl0+NrJ93AWI7QcfLmdig/U2bNhgiz4V88kHRXMcBPCTDWDYkIYGgb4XLVpii3n+Hj262/OdYqqMrwZgzR3FBygIxWwaAZgumsl3x463pTAb/Y/qa8a8M84SlBCEV195mew15ZLGVeJXhW8ggEbtKKkLQca7BtfXXXOlada8qb3Ofy3EdzEIxww4Sojw7M8fbJfL7xEvvGR27czObCp+eZePPfGUaSlzOhsMOesM07LlnnpIxHmf8xeUM88wgZTxB6gvBOfz55dv+OAKs7+o74Dr/CnAXJ43dIj+jD0uWLjQbNiwy/Trd4Q1UY2tHHKR+ZUEFi5cbBlBxjnswqF7ja8W7wUzW6D/UUdmjBtzcPwGo2Djxk3m0ceGR10OLccktousNUlB53dcfbTxTz71rBX+sQ5ccP459pt/7vmRthnrGibPAN/5W6PHWG0gwo5rrrrcfl+PPPakNXXH/B9/O4X6xZlkTXvREib9NrSfuGOYkGL2nLlm2rSP4pqlrm2X9Q6YOGmq+OWuTZVHnXA/rBkAP5+isJS8vDrWveBoTh90qtlvv5bB4sS/N2zYWOsYwW1oApOCzOPddl8p31syqAPZ3+sVFZtScVvhCJNYD8aKo+zlBoYQBpGjMIzuuXBgSUdRZfXwj/SMYJWh13ecKwYwZ/vCnbfaZhs3bDIPP1pu/nbj564xTZuVE7qYYIYBQUIAiPHaGITgrn/+18CsxoESqB98OD2rHyTE/p133JLWHZsEJoC5gJo5ZmtzdP9+1izTrYcGV03u3PLFi8sZJkymXHNHLV8gWjQl2N12Bx/c0XTt0tktCj2HyYwDfAGz1Ylqf/7QszMu4dP0+huzbTnMyJVXXCpmoQem6uGPRMAX/FeLRGp41pmDYrWs64WpHFnB2BHcZKiYj0HYDxVBxN33PGD9cObOm2e1rnwTw59+zt4LonDQaSfbumhkP5s91wZJIXDN5ZddlBpP2Emu0vuwPrKVYQIH7nMBNJtx2k3ti+dWgMD+45/vSvuGEMj8vz/9XatYU8gLzjvH/v5UhB2AtrM/Qv7jHXztK3eGmgyHVE8V4b8KsQN0aJ/pg5yqWICTOXPn2l6YK5UNUlSA4STuApNQ1j9wHOZ/B6N0wP77J+4vSUUEWKy7SSGJ6fSbb72d0uLDiHfv1tV2j3ky/q8EhRlwdH/rP8xvTDuBoeeeLUGeWtvzIWeeYRCaYL46UBjgML91W1H+6yyWE/xVJRDAR61pkt6HeZ6kDT7ducLeOJ+qY3/X9cvdO2tq3fto+sdm3LgJdp0NEwrjvrN27Tpz7LEDrJVErt9AVdcv2ZgpKM77nrJH70bILFtfBpMo651lDoXhs8whR5hF/S0aw3oicLRMomUYG4oWEWZRytHChgiR8x5nREP3e4qoUmuLM0VntXaofmBJMYBUYr+WmZIntIBB88T/3ftgWrfqgwExHrxGxYsuPM+0alVzJlJsnLlMuGx1w8z/XITwvA1kMQmDkl0lRk0gLx52vqnvmKi59UtKSs2zz73gFqWdo02M00Bi9uiaPmrjKJNKJMdRjCBE1M03XqddZD3ukmecN3++OfCAA0Lfe/B7CusQ4v6NN0elNH58P1cJExgURsAkY876/IsvW9MytENnDj5dNAPdLeEb7BtBBVrtCRI4Y5i8J4hjACbzzMGDrB+Oau/QbF1+6UVWswCjqHUph2l9RLQkvD80FUjcaxLOlqBCKswIjoPABqvFTO6wXoeabt26Bi9n/R18X9nmh16HyE3qLwahpXgPGxBzYeXK1RmXShwN+4gXRkqwp/B5hw8j7zcKWCNgphlHFMyaVa59bihEQhJfYLTvwe81qu+qKoewR9sN9O7dK02zW1X3pF++xSTMnY6BOZQNTh90ip2DRJ9VJpA2CCrmzJln96lNmzbZI5rPrWL6ylrU07EUQBNI5FwIZTSdcYxgtvEU4jrPEeXvh282wkL2ZrTyucL+++8X2WRfmk/Vtb/ruhaFVL1eyHUv7F4IONbKt4HZZxggJODbThqYK6yPqiwr3Vmu2a7Ke9i+ZS3fzf4gf6GrOlpDmEI0h2IRUA+rAPd3BaMIUwjDaI96TpsCQNSeXYCuq7yLwmCgyodZd2/ApgohDVGDWUGhpderVmUSZIrtsGv4orQy8Yzg5i1bDNqaXGCLtMkF0FK079AutMlbb40xmOlALJ966kmhdVauWGXUDCm0QkUhRCfhqoP+izAbpClQwDcJM58gEXSQaLzwDUgCaHLdPjHF4znQmh0lxJACgVXw1UIL1vPQHlosERM/S5ldpgoDJ5hLvvHWaNE4lZqLhp2XEhigZXjmueeNyN3MteI/qoDPDqaXzUST/JUv3aHFWY98r2japolkH2mrC/gyPfLok25R2rkuqHz3Tz8zwt6bgCBhaSHw08FX8rkRmT6JpEGAAHvm2edT/ePzOnr0O6nfeoLpG9JIAh4NEiIVxrem4Egxq42C6R/PMGaNMV1E41tI4oDIky6jg2DC1YqPqsAZvntXX3VZipF2x4mfxH/vvs8WKaPtXtfzDULYQPzEQZT/F21abdijRQ7rY9myFVZTFHYtWMb84i8bXHLxhaZXiz1zLVv9qrjOt6l46VlhNlkV9wn22eOQ7qFuBMF6+pv1IlsQLBgmArpg2u3OT/po1epA+32hoQ9CsK7WJ1AOAhICmdUUIGRTbWVwDKQzghHET7mQ85b77Ivzqbr29+pc9xCyvzP2PUOkbaXjllb4XGP6i8/ols1bU5G6oTlgAoG27drYo/8vAgMV2sTd4iaRCULVCFNog9UI/WOZRXsUbaEcRQIsx3KNYj0RBterD6OIJrG8HIZyXwfPCEa8YSRBqhFDZR8V5hl/DY2Id9WVl1pNzPCnnrPEb8eO7c31114Vegeio6HRwVzlmqsvz6izfPkK0Wi8m+E8D8GK1LTQ0k+Iu7jgIo8+/pQh9HUSAB+KkyT186nTUphiiNIwgGkBWGyj6mwX6XpSwO9jzdp0Pw7Mr1ymjb5miNnWGpFOu0BgnaSMIN+Ca+6FBBwitb2YybnlK4SJhRHs1rVrWjmMUxL/HBzkkbzSvwISUNoGCXg1DcVPMSmQEmKK5AULMs/ang1RNc9aFnaEyVu5apUlfklZwB/f/Q3XX51WHcaR6IOFAvwHTc3xgbGPsbPCd5CQ1YUENBVoRxXcc74LZZbOPHNQGsOo9TnW357bhonPVvfuXd0uYs8RKpD2Iymg2e3ppBJBS4ighjW0heMnSX+sBzxjsM0cKUMTV9NApF99B4wlOE+rcnzbtm/LyUQ8FyHgqtWrCzZ33fWsKvGRT98qIGwkZmtVBfvSfKqu/b061z1SLkHXbREG74rLL7aWTSpsx7rlYYlgjYD25puuswJajeIMHQO9wf7uIR8MONrEMAUmZqcwgpbxq2AMK85tyosKhjDFGMJEahmMZIUlUj4jqy1tPCMY8SYwX0MrAAPwySezIhnBmZ/Osto6fDPUBwHCNJt5VKpOWbnjrDsMmAkYL8wzg4Bk8fEnnzGfE2LY9a8K1sv1d+tWrazmBQZBc0dhqqcR2GASkzKCLK7KjCUdB/fN5vuXtK9C17v9thtDuwy+n9tvuym0XiGjTIbeIGEhWhjMWcE1QCS+Muu8bQypLAC+W8xQi+Qd8n2pbw7zIIq5R4PlplnApAsmkO+AoEH9+x1pPhD/wI8kEfnJJ50gc+kEe68k/zFPMEkcL0wg4yLVRBC4D6a5cfCZEPRoH5jXp8gYgsBzJ9EQB9tV92/eH9CgwIxg3HOMHvOOvUzwju7dukZWBYcKSRgVolGizXUB7TFmo2hz8d9zYcmSZTkxgs2aNjXq30g//158r2UEMSsNam74tmC0gm2Ivrxt2zJ3GNV+DvGoGtlsN8eX2PUnzlY/yXXWgKjAUknax9XpL3tM+3bt4qpYU3EEVawdrWX+BoFIs7kICILtq+P3nnkbbu5ciDH4+VQILO7po9DrHgGNnhsx0qa3YS/tI6bNrJkweexLBxywvxXGPv3M81bYuVQi3QLtAimM9ozQnxUEA/IOdotpLn+hIPRFilHEnBQm0P6VnxPEhkinRc3C426E9lnLCj0jGPNCSB5MDhiIYCQ3LLQuYOJG9Dmgz+G90yTqbr1czmGGnhRGzwbMEAk92kglvggoMnbceHttuETYvOFzEvylaWZ6h1zuF6yLxgFHfsDNzxWsF/f7wvPP3aujhsL83nbLDfYRCdFOsJ3ly1emPTI+G9dfe2Va2X0PPGKZK7cQc176uuPzN4t5e2mKsXbr6DkJnMkHpqCBe5YtW5ZWrsFiCHiB74wCQoI4uP+BR9OEC2FmVrS/576H7HeFKaiarmCiEhV+HfNXlxEkAAsbGxsdaTgAAvcA+GNp3jBbkOW/XmLeiykVORF5vrBAGDAd2aLUkp4ERhBCP6ru3sAIKsMOE7+0QvMdh0K+5SDTE1c/7BpCIswtBw8+LexyqszhA6VsD1OYqpDghEi1fCv9jjwigxFM0Hyfq4ImCeIRgQhrPeuzCnKq+mGZ11FzJcm9iSybDdCEZAtKRsJ51h/8noPCAfpHq2hy0BRnG1NVXNd5SzTgpOsf/pNRPodJx+jnU1JMZdYr9LqHEPMCoY1wd8CSTPfrjp06WA3/sAvOs3svQb9eefVNMRUtty7CP9lDDWJAhFBEO929I8QyBG2iMILFkn6oaD8xI4qwUqvB0Se6tWcEY9B0hBCfmgwUzV+QEcQnSyFoJqjluR7fFRtyNa0Zes5ZaXnTMIvDj+flV163dSZPmRqpqcz1vr7+HgzAWMDIKGBKFjQxDdN4Htarp1kvdv4uKKMexsC49TiPivyI7wt/QUBSrxq74LWw323atLKEpEaXhElVQgOJO+bQAEzdfmI6h+kyAgmYCfKIuVoeJJl8h0BQYskzE8Y+DPCD4C8pQIwq8B6iABPWhWLCGAXLK6Lhcu+4wDxR7d1yiFLMVCsDAyWXWDYCONg/JopqYkZC6qTwve98Pe3dJW2n9Xj3EOEIMsibiZkwAW2CkKtGMNi+un5/KJppN4UG940yY66uMUXdhznJN4vW+7JLhtn0J2FrgbbHrDks+qBeXy/pYBD0JAF8A/mraiCXXroQIf2OGqiG97Y4JNJxLmsg0Uh1nUu/S7JfMGcDjj4qWWWnFngHeJdxOX6dJtbfMcolxa1X0+d703zKBVdVse71lGBHWMSgtdfvUAUm0Hak2Xnq6RFpeTh7SJwCD7UUA2gThUEsgUlcJzTakeF0Ty0dfWpYnhFMoSLzBGIB4hPJDeZpwUVZo+jBNGRLsp7Ze3iJ2oVDeJGLLQhoRzDdhJhHSu+h8BggIIOraXMDsrh3Y3NXH1DOu0vAGAnj4Vax58p48aN58+YZZrOH9z7MEtfBhgTfeEX8CgDM8g6XSIFJwGVi3frkyQP+8Me/Wa3CFZdfkjIv5pkJ3Q2zp1FF0XACjA+CcNx778vYm1lCU6XaMMS5+Ksed+wxOeWHI3lyEpgiBB4av2wAE5cLExXWH4GNorSjYfXDynof1itnRtAVMmQLZlMqJufqU+Iy8GFjoezf/71XGP7i1GXX30pNfNHUqfABLSPRHF1Aa6VAm9oKpCPYW4BUJ8wxUiWE5a4LPgfzJS7qbVQEZPrB9P+FF1+x5mrBfgvxm+AwQQYcoWdSs1fSz1QWPpNcpcHgVbn0yb5cGUYQC4k4X3zGgvYQd4J6JN7eC2Bvmk9BdNbEuoeJMxZGmjbEFaSyzxMPQHGKULVQtGXw2f3vAmMgTppV4FsVurtkVFah77oX9Yf/E4wgfntIcJTItmahYsoHFEobCCGFPwiwTTZlIjaGgTIpy1fUXUYQ07iGYrYZBupriJRf8Rmst1wY6SggqubMmbOiLleqHFOroD8bRHWY+Z5qozFPhYgKhv6v1ECyNOb5FXdHSXJvQrRjzgLTh8ZBg7PkqjEgJ5maSWUZgr18SLeuNsdStrrLK6KvEUk1zOdoifhbwMRAiMKExQHMehxgFgxDWxlo3qJZzs2tCZy0QpP4+dtvim2P8OHe+x9ObK4O4ZnNlxVzTXAIQU5+K0ydXFO9st17GMEkzGfYA5SV5WdSGtZXVBnPEdTos56r+XJUu5ooB49E8Q1aJFTFWNhz3IA0hb6HarPdfpdXCDMJTuQGxHLrqPbdpsyQFEhRgLYuG7BX6x6erW7Ydfy48gGdu2eecVrW9QyNEEyCG7Apn3vSZm+dT1W5v7u4rKl1r2fPQ1KMIEJMV5h6xumnis/rLBskram4MnjwGKhqDHhGMAuG8VF6RZJcs2DglK5aQTULZaPGl64QoBGk6AtCjsiicQDxwl+QqIlrk+2am1cvqTYm2Ofrb45KCz0fvB72e6fgNxdQTVlcGyS/+Uh/MX3buSPCcdi5IdpbTCdh0JJG1XTrIWDArCYKVOPcsGEDMyoHU0DtDw0ikTfzAU0dgIQSTcQskaQDKs1WRvlQMXXJBfjG3e88W1t8+vDVjQPmpprLnXTi8aE5FGFeYGIw0WWjrQwg1a9sH/ncX3PfJfEZUe1cUs3cbbfeaJo7PocQ3+Pem5AxzHPOHmx9soha+9zzL1r/V9e8WBskva/W16OmlXBTWei1Qh0xWw4KXggWUxsZQZ65OphA7tNctP3k5XQBc2BRTYlparp2Cj9l0iHArFxy8QVuk8jzoDaQissqBJ8dJBVQ1Jxi30WTP6D/UWmCh8gbxVyAmeSvOoG9nPEDuc3ddJznM+a9dT5V5f7u4rGm1r1pH+zRbhNEjX22V0WEY2g6NVVH+QCNEJdSyH0ef+4xkA8GPCOYBWtoY9DiMFkhfpURVEKYqHeF0tRoElMdEmZBYQARxqaKmV6ugLbsY0lz0EOSdIf5randOoQYz54PsIhtNlvyaZq4DQw4kVrDYIcwceASYpS8TWFAwutg1E+tF+djo3Voe9c/77Y/zxKzLXIW5gowJtOnZzdnZGNIUi94/zYS3CiOEXxVzE41n9H2gCP06cIskY9Rkx9ruofGgnN8wchruFAY2WDUx+AYgr8xqzo6Bx8bZTyD/bi/3UA+RWJOpZpMt46aSWJuG3bdrcs5jEIhJPLBfvP9jTYFbSrQ+eCO9hj3nyZ0TyrMaSwhypWho9+G4gAfBsypSy66wKbWYZ4jJLvowvNsVVf7kI9GkO9Kzai9OVQY9rOXsb4r8R9WG81+FLDeQ5C6QOAwzKDRpA09d4h7yRhhBDFdC7ZJrxT/i70MaNmyZeS81H2RoG3ZvucmMp79pK/aBGh3AHyyw5jh4Fj1efPdf7W/vXk+VeX+rvjhWBPrHoJQTcuERQ1a+Fdefd1GSkaoT+wH19+aOZir5Y37jP7cYyAbBjwjmA1Dcp1NEEbQBu0QCQ0aASI8AnFmobqg24qB/7YLIxEEiE8WQBYBmBGiLxYSnh3xgkQsW24j0GHiEscIhoXpTzoWJLvdu3VNWt3Wg8h9a9QY+/xJGpJ7UdN1BOu/9PJrVrpPsJ8M4qWiMgtxtpDoLNBTpnwQ7N7+3ix+Ymrq9IEknP9Q/KfioKEwpEowa71DhRkP03yQ70z9BxA8RBEP4yXpN8QRQYzIIRUEzCTjQL/hsDoQdy6Bp8yTavNOOH6g4S8MqKMac72+YuVKe8q1mSLhzxeQ5gc1JBpdlT4feezJ2K55DvV9jKtIomEIt9oC4JP1BP8vrBSyQUlpRZqJPIU5cf3zPQ6RADIvjHzF+k4zzyBUNBVJvgw0QiiNiBlm3hs3plyuEZDLZXppq4nac+mnNtbFfJu/QgCadrSkaJejzCnZq6IEaowBZibue1AT/RkzZkoe1pmxw9bgVHGV+h7Rx5x/3tlxVar1Gvgh/RQQRyu4g0rNXQnSVRnYm+dTdezvueK2UOue+pdDv1x6yYU2eBPviu/7omHnmamStxgYdNopZvrHM6xLEpFzTxVawIPHQFVgoHIrTVWMqBb2ScAYFgHMO5DuoYljgQ8mH9ahN2pcLk3ftKncHETL9UjbdesyIycSnRGiHjOlygSCoX8k6/PmLzRz587T21rTOH4QaCJKaqoMSDBCaqqTBCf0nWv7jRW4YuxxgEaJEOpBZiCuTdi15qLxhHlyA2QE65G4PYlpqWpqgu3d30HCk2sw/kETNTRvo0aPsU0Pl/QLJ590vNtN6hyGBiYQGHTayXlJDMmxtp/4mwFbJA3Fs8+9YM/D/lskpmAA3yaO7GGMp7ajTlQuM5jPOAZU+4g6EtE0+O4hNgniEAS+JQ3Rrdd4D65zvpZzxDxZg+Dka9ro9leoc4J4aEANTITigoHoPSHigSR1tU0uR8x1Z302WzTKe/KnKhOXrybj7TFj7RCwsCiUlUXYM6l/a9i1vbWskQgINEJxoZ5huqR6USYvSviAtcKf/vKPyFsiiMMnMwz4RomYqGbMbh0ER0TJdQEtMRqcMMDElLEGTVjD6lZnGebVRAqFGT5aTFuTgAZqahjxrEn6oM7eOJ+qc39Pike3XmXXPRg+NUEfKPQH38X5Q8+2kWQXL1li903We5QNxww4ys4PhJtYBMVFzXbH6M89BnLFgGcEE2IMad7Yce9bCbiaZPYWk1GYtyC0bdPG1mMjw/yvk+SJcQGJrWqT3HLO28tmByENc4EWsq8Qfi5A3JL/DWfqFuI4f/VVl7mX7TkSJzcfHYWYADJeCEk3+hxan6KietaEEgJJNT9EyoTxXbBwoUgy+5guXQ62UuGmskDVJKhpbmXHALM6WBz3kwDmlSSDVRjx/EvW/AqJXbeu5QwIjD156FjYb7j+aq1q39PzL76c+p3t5E3Rimqwm7lz55sRL7xkNwDwrxpcmJWnJBcRAAOUr9lIOzE9Jmk8EKcRQROumkDqjnlnnPgzHBqpMSMvUth7KinZlUrdgNlz1Lg3btwo/riz7HMHTQTddBKMBSB6ZTCCJUTmyJdetdfZVJm/EyZONm2F+Q6bM1TUyKmcxwkIuF6d8JokH4bghjkl7UQSUB/Xqpyvl1x8YdpQdpWoFjJzTXQr8g4h/l3hCNogFUKddurJdn2cIZGa+c7UBBzhElL0XIVM7r05P33QKRkRW3OJXhnsD1NMTC5ZJ/IxiQ32l89vgknxV0iYJAIfBYRirvDQfc44H/U45hSBwZVXXKK3SB0JkvbMs+VCKeY1wjj2ojPPGBTpI6hWIGH7carjaj6B6Ef7DLDvxuHJHVquc3dfmk9h+4aLm6TnuezvSfvUevmue7QnyBY03EES2AiLIIC9EBcMrIPIGQrgx8z8wKoH5hNGUCOJ2gr+P4+BAmIgfscu4I329q6YjDCC1jxUCGMABikM2rVrkyp+QZiAIUPOEC1EW5FwbjMzPpkZGoRBGxDsgo0P/5uRYuKINLFb165WI4kGiITyMJdAlNO7+m3BOOALyB8EVJiJjgYHgPkYM+Zd2y8EeuvWB9mog/hWzZkzT/LbnG0XJluhjv2HiaDLkBRXhNlv27Z1qlwJEHwS3bouwZQEbeQBg1mZL9pctFkQyPwBbBQIGSCUMBPkPpiWVCWwaSlDhfaS51sk+fpeFd+wKy6/OPTWRLUM02Rq2gY2OExgovLoIcRAUAIhNezCoTl/d5j0Mj6IR5iNa0RYkiTCLpJYBfWd1N81dUQ487FoZoAwBiZqXBvk2YFmol1LAgQHUoaL+ksrfLeStNU6+OYCDRuE++VqPTTRLiD0elUIJACTcohmJex5jwRR6NevryEHlwZUsJXz/I97BDXxCN9U65pLt6zF5FYEsLS47dYbQtfZXPqsDXU/ml7uCqFjYR+76cZr7TNSxroAoLn98hc/b88r+x/zD/cA1Zgc2fcIy9z+4193Z+1a564rXMjaqAorsD6/KIIoBB7sH7hLJAHqa1TlZs2bJmli9qX5lOiBC1ipOtc9LCjUQuVsEdq4tMHR/fuZJ4c/a03j2eePdQR+Zww61WwVQSDC6PsffLSAT++78hgox4BnBBN+CWzyhPhV0zGIWDd0utsNWhqYNKI+ImlmgruAmSkbFsRHENg0rrjsYvPwo09aYhjmk78gIH2GaQwD/Dnu+PzNKQ1SWB23jMXpedE8wXyyOEFwMj4YXSSaaGdWCVEO06haKbd98Jy6zSuY1eC1qN8Q/R6M1dChpSOUOkQBPp3TxAcRwgyNlau54zrvBuI4HwJou2is0VoDGgwm+A6IDKjfPPmP0FiTkBphBT5i58qGpkxwsK37G2KfvgCIoigmkOt8f3yTzA+YwnPPOYvirAAD+N74CSlBCXOJwCYQ/UkYQY2MSjt3k8564yqqAM5GiJYZgHmJCq9vKwT+IyAUgOQ5CSjxnaRuVB1dzwjYkQRYG8eOfT+VPJlvWN812hO0SQio+Mb5471gOsZfkm8uyRgqW4e0JApoBkl4HuW7rPVq+xFB00svv26HiVAQwea7Y8fbKNaYerK/FRLQdk+cNFl8Gz9IWcrwjknonQRYuzTR/P77t0zSpErrwASSAoJAOKwjF54/1FrkJLkp/uGYWNMubo0M62tfmE9hz1WVZdW57pHeBFN9Im0HzTxZO9UNhTXQNelnLURzrgHPqhIf+2rf9Vvubxoc1Momf9+xaoXZXeE6kfR5i5o0NY3btTfFctyxcrnZuTqTdk/aV22s5xnBHN4KkmolitEQRkH54n+uzXMHccpGp8AmOmTIYPOaSLqBMIITP6irZOJj468SJG0PMYTWiMTyYRo+rZeEYcMMFCZjquSxAVh8zpONXgMDnHLyCaa1MJUQ/DBqDz38uLn6ysuymmbBPKpJjI6nrh4hCnIFNnQiYRKiXRki7QOBBIIELUdzQqhtBAN9xKeQTSYpkayaDO3bPcJkIp1XcxRMVVQbAzGIeTLmKpiMXiomgnyXUcAGhzktWgSk/JhpQjTb6LLC3OIfas8lkTLScJhd3fT4PnmmaDPSTeJQ/4kdi/pMMqdgmpCgRvmr4U903/2PyByqZ4rE5BINpN7TzemkzwTzG+bXq9crc9xP3idhzF3ATPLZ5160ml8IgfMDWjS3bvAcAZQKVg7r1TN4OfQ3Pp+kKVGYO29Baq3Tsrgj72zK1PIgJWi0owA8z549VyIXz7SEj2qW0G5ffNH5qcBImIdiJvbpp5+ZKdM+kAi1i+374ZsktcUJxx8rPlf9rLls1L34rlyzbKwrgNFvv2uIfuvCpgoNarCNRjF167rn5KTE1F+/HfBenYwgeFm5qnJECXNbgefFLJP5j1Zc85fis848fuzxp6yLAebWlQHeO4IOQuOT5F3XSQQX554zJFLIyj1hStGSF0lKC+Y681L9Uzt0SHfDILo3mrmqAgRhfSRYkgLjGP7Uc2b+goW2CGFt0DVE6waPaDUnVJjjEqk8bn/XtvvafNLnqq5jda17PA8B+C6/9KIUfeU+I8JKfGlLZd6xl4eBar3DrtXGsvr77W8aHiTRt0XAVxWwW/aSrfPnmt3ichIHxc1bmCadu5om7Tua0p07DEzd1nmzSbIZ1yztWj1xAWuw/4GmgTxT6ZbNnhFMw04d+xHmixSFAhZxjVgJYb9LApxAwKvJWZSfkvaHHx+RsyBYMXEDMBnIR/OjfXLEd2rS5GlCOKeb/sD8YWYIo+ECGxIJtB9/8hnL0KKpvPrKS9PMH936nEMkZAvzHWyD5F838+C1vfE3hADPA7MENIvQkkDw438DkQpBA2PF5u4CjF1P0frx/SmRCeMEA/TRR9OtuTL98AfjA+MEU5jNZwkiypU8cs/GjRuZDeKjBzGo/qIIL84cPCg1JBjC84YOkShnb9igREThhIgPSjlpgN+k5kPkN6bR5PTLBoyNucLmB7N72y03ppku0h78wqC5GyQMIwwgwpQ4oO/SslLBe/nc0rr4n501OFMTwTzUACxat1BH9a3T/jAHfW7Ei5YYZ85ffdXlkf5FvKtRwhzBzBYXFady/NEXBKoKdbTvqONxxx6TFqClgZh3qkYjrA0MAwIivk2YBmWYeG/HHXdMRhMIfgRO9KnMH5UQIMDUQQQFCV9+Y1nBHwwWDBzfOII1NMUwhEjPowgnmAs1q3UHpJJ3t0zPo9ro9eCRNf3Oz99inn7meTu2fBOOB/tN+ptQ8zOFWa4MKCPIGvzE8GdS689QwS3fH4A1CGZ070mkYrSzCqxDf/37v+y60wBiSYSJGrBFeD37rsEp+8H1116lzax1gJqKU4iJ6cBjBliTuOB3kGpUcQLOgykyaIOlQVADzpytqnnLcMp27yEmuQ/WPxoMizmFMDUKsJDAUgHfX+YQDDF9MIfi2tHfvjqfonBVVeVVve4Fxx0XyZu1jO/AhSlTPzAEauMbWSwuGQBrZrY54vZRU+f1m4nlW4eOpr4wYlUBpRLgbtui+cIIRvdeT/axxu07CRMoAiJZkOrJv6YHdzFlwjxuXzjflgVb12MNk7HvlsjbZVu3SP9yA5mT8hIMDKEgP9hkr//tNYLV8ApzNfFwhwTB2rp1eKQ0t17Sc4gwiAc1McS89agj+1piKypSItJ6/KweeWy4JbphJONCdJ8zZLDNvZh0TNSDOAua0ObSvrbVJfePmsoxNhjqMCBJeJAxgpHuJIKATp06moMl8ArO5MGFH8LpeCG4+YO4/kgYTrQsMEX4FC4XCT6+olHvlLHcessNqWAx7tjQeuvYSWOCZgbixAU0ewcecKB5+tkR1nwPpjGMESQhvAsQhQgzCGLCM7QQoq6lEJvNmzcXorP8nCNaML7V//z3PmteTSRVFaxofzAhp516kgHXaOsJpBIUZGjdsCPCmG1C/Mpt7L3YYCEyw+AqEX5gSlsVEHxHH0vIcAgCxoMwKG79AL+zxYc3SOzCEJ92yklZh6vvTIl3baDflv4OHhmbG0CI61gh9O9/ZOh4YSjUmoLv+5BDuonPXw8bMCH4bQfvxW8YWpgRNGBvybfANw9D2FK+lSjAtDSpb1ZUH5iuqiYxqs4aCRSDaSLfLPO2OqGN+AwTRTlfcLXACIFgZMHrheefm7Zm8Y4IjtXn8N7CCH5aLrwSrf669Rsqglttix0CwiQXBh7TXwQDH1hhz3GijSZCcpLvgD4IeoalCrkyWSPq1y+25t/BeWTrihAhLMCUO5bKnO8v37wCwoolsnYC+EhnC3yCIMsVktGONfHEE47LiIzMNRf25fnkPmdVnVfXupfL+Nljg9/w9u07UjECtC+EvHsD1BONfRH5aGXP37lmtSndHr9GwGQ16XCwMFvFZvvyZaZUmLA4KBOB+W4R5kaC4LORmHM26dDJlMkauXWxaOmlfhNhBJuKhnC3aAd3LNtj2q/9FLdoaZp162E1f9uEWSwt2ayX9tljPVlIhQyqfpi6LF3yUdkR9G+/73HplcVJVHuYrgULFtkADEEJalQbyiH28eM495wzQzdtiPUtQlhjuqrRKOP6c68RhGeqSL9gAiBCKwOYMxJxkIioJ55wbN5dIWmfIb5WmNdBqChg7gtTgJZONWpojJDo4h+FhgJmDKKAhb1r186WKQsyU/QH8cB4IVb0L47w1zGEHWEe8HNjzBAhUdEVGRvTHk1LFPGFSRXRcaP8YPX+aKthQKNyCsKYkpqikWwIEJpJzVa1f8zHYDgwhVZtul7jyHPABOl7cK+55wT1mPbhR9bHEf+j2gy8R7RfmLeqRiZuvGggMG0skQ2XtnxvSUzD4/pMcg1hAQFidol0lTQk2dYS/Fz3F9MaTOXC5kKSe2odvmFysWIeGgTWkjFj3rXCBaLxVQbQWhERlJyuYdpV1gj8qxFwwDy5ZoKVuW9UW0xjMZ8+SZiFsPFEtUtaDhO4dNkyu3YmaaPzj5QH5L8rKSkVwqnEzku+Ra7zR9Ci4LrGmhk2p4P35ZnRViL0STIfgu2r8zcm+6zpSdYYnmmh1Gf9Yu42FaEOkSSj1uTgc+yL8yn4jGG/C7W/h/WdpCyXdY9vX4NQQYvkatGFybnm5GXNRLhbFfM+yXOH1Vk2YnhYsS2D4Wp26GGmbIfQAHM+M7vWr4usywVMSffre5Ro4ErNpk8/NrvWlQdljGwkuC0TZk4WmNAqDVu1Ns169LIayW2LFpitC+ZJvd2mScfOpkmXbqZ021az+dNPzK61q9PaN2zXwY6jZMN6s3mmjGPjBlPccj/TvGdv03D/A+RZZolp6Zy0Nvqj/bDL9TSvY03xRZ4RzOt1+UYeAx4DHgMeA3UdAzApCNbwaSSqqQePAY8Bj4G6goEkjKBluGbOEMZOAgIKM1sP08p6mYqbxsKgtejV2+xcu8ZsFmardNPGcDQK44fZZhzUF8atWY+eplGrNma7BHfZOleCMAlDBxDwpbEwgpiIwmxuEmavdPMeF5G6yAh609C4r8lf8xjwGPAY8BjwGIjAAL5clTU/jejaF3sMeAx4DOxTGKhXv4Fp0KqVabjfgRnP1fDAg0yRxDiAUWvSqXNkZE9MRtHwiV1oRh8U1BersiZdugsT2NZq87YtXmRKHKYSxnS7tC8WtysCyJSJGejmWTNFcxlvuhp6s32k0DOC+8iL9I/hMeAx4DHgMVC9GIiKSlu9o/B38xjwGPAYqP0YKJLI1I3atjfNO3czZWISXRbQ7JXu2ilRPRtLVOdMX+ui4vqWUdwh/obbliwS38NMRrC4WXPLBDYVv0AYvm0L55kSTEwD5qMwk1vnw02E7wAAQABJREFUzzHFjZtYzWCpmKlvnfdZJPNZ+zFbuRF6RrBy+POtPQY8BjwGPAY8BjwGPAY8BjwGPAYSYGC3+MTukFx8u9Zn8QN0+sLcs4n470VBsQQhayqawKadukhgGvFLlBQRO1etDDcjFcawVFIe4btY3LSZaS5mpKVbN5kdS8sjs0bdY18t94zgvvpm/XN5DHgMeAx4DHgMeAx4DHgMeAzUIgxYRnDFctHYzU08qsai5WvUum1k/UaSJqJpl65W07hj5Qp7rC8RQGNBzEsJ/tK8Vx/T4MBWZodEK62L4BnBuvjW/TN7DHgMeAx4DHgMeAx4DHgMeAxUNwYkaEyR+OhhypkUiho1jo02jUbQagIlMEyTjgdLmojO1iRUQstk3IJ8ggSuKdm80awb/64h3+D2pYtEexiTjiKjl32nwDOC+8679E/iMeAx4DHgMeAx4DHgMeAx4DFQazFgcwYKo0aKh6RQLIxgkeQajILNsz4x21etsD6BTTp2Ev+/xqZky2abviLYhqA09Zu3lFyCjS3zt1W0gnUZorFal7Hin91jwGPAY8BjwGPAY8BjwGPAY8BjIA8MiNYtAsiJWF+igxaTcD4hlKediO5ztwSf2SUmoS5snj3LbFsg5qeBYDGNWrcxB55wqlu1Tp97RrBOv37/8B4DHgMeAx4DHgMeAx4DHgMeA1WAAfL+mbK0jsskOuhGyS24XaJ6JoXG4gPY8oh+Sav7ejlgwDOCOSCrqqvuEolGbQhHPmXqB2bZshWm88EdTd++fSr12Dt37rTPhASoMrBbFpN169ebRiJBatasaWW6KkjbLVu2mg8/+tj2dfxxx8Tarn/yyafmszlzTWvJn3PC8QNzvv+sz+aYsrIyeR/iDN20Sc7ta2uDufPmmzlz5pm2bVubI/seUVuHWalxrV6z1qxevcYc1uvQRP2wBsybv9B0aN/ONG/eLFGbulapVPw4WJ+Ajh3bx869XHCzZMlS8+ms2aZDh/aJ31cu/fu6HgN7KwZqam6sWLFS5uRn5qADDzR9+vQ2CxYuMgsWLDSdOx9sunYRH7Bqgh2SXmDqtI9wKzPHHXtMNd11775NveIimzx+t9Auu4OpHnDbk7JcfPJ2l5WGePvt3TiqLaP3jGDMm1i6dJlZtLhqwsm2bdsmbSFbtWq1efTx4aaLLHDnDT07lCHcunWbmTBxUsyIyy8NOLq/adEiuROu2yEM19hx483mzVvMfvu1cC/lfL523Trz2ONPmVYHHWQuvuh807Bhw9g+SkpKzPbtO+Rvu+FZV69ZY1auXGVWyB/4gUhu166tuemGa2P7qY6LmzZtMqPffsfe6rhjB8QSo5s2bzYff/yJaSL5cbIxjcGx8z5GvvSqxcnQc4eYfkemM0ww2jOE0UwKLVu2MN27dU1avUrrTRecgJfDDz+s4IwgG/cnMwtv99+r56H2PcYhBkYFJnfy5GnC1C2wVS847xxzxBGHZzTjm1+/foOZL8TN7NlzzcJFiw3te/fuZS668LyM+hRwHUFEZYE1orICmsqOIao9+BvzzjjTtk1rc+45Z6VVYz499MjjtuzrX/2CaSy+IEkBYdKrr75pBgw4yhza45C0ZgsXLTHvT5hkevXskTcjyHydPGWafUdpnRfox4CjjzL1K/xkYFpXrVpVoJ7Tu9l/v/1Cv9f0WrX7V3Xt3+xXkyZPrTJk9Duyb977eS6Dquq5wVg2Scj+RbLGhUF98dvqeWj6nFwp3/fYce/buQoj+Omnn9n5Rfs4RhDh22IR7OQCCN56HNI9tMmqVWvMqNFjTHFxsWcEQzEUUlivyJiiIsn7LgxfSSAIi5QXN2tmGhxwUEjD8KLi5i0sYxl+1ZdWBgOeEYzBHhqfqdM+jKmR/6X+Rx2ZtpB9NH2GZX4gXmF6LrnkQisFc++wYcMG8974iW5R6HmnTh3z3jggwGACAQj0ysCypcvNxo2b7N+DDz9urrjsYgMj4sIDDz0m1zeabdu2ZyWeIFrRjK1Zu05wc4DbjXl7zLuJcJPWKMsPiK6zzjw9S63sl/sKAzD67XftM4LfQ7p3y96oogYSUAgNIIyB27J1q3n5ldcramc/QOSG9ZO9ZeFrwOQDbdu0iewcYcLOHTsjr3OhZcuWGZrS5SJJzgUvsTdwLh5wwP5WWOMUifvBbrtOoKVavmKF1QDynSqgYYLIAdDufvDBR2aDfPMQRfputS5HGBs2T/ookg0zCLNFi/rMs88Hi3P+DYN1VL++OberjgasQcuWLRfCK/P5K3N/mEuYcxjuq6+8zBwsVg+FBARYr78xqpBdpvV1RJ/DU4zgNNmbWE+qAlgjwgQXeq9p8g0jkGgvgjm+79oI1bV/r5X96J1336syFPAu8hXs5jKoqp4bjIXv9aWXXwsdFpY+QUYwtGKCQoQkY94Zm6DmniowljCCfNebt2wxDeo3yNhX9tT2Z9kwgE9fPZhB9kLR5rlA0Jdm3STnH5E9E0I9EspLOw+Fx4DHagxOO3XsIIvCHoIuqur6DevNwoXlUi4k+Swg2YC+XTjj9FNFA9fSvPHmaNGErTUPPfyEueqKS6wGzK3HOQxRmHnChImTLfEYrO/+Xrx4qZk0JVp6uXLFHgkzG0MuwELqEpZI8Ipl4j7/wkuWuX340SfMdddcmcYMrpFnRXujwLOxITQTaVGL5s2teVwb0QpAcKBFRSIXBjuEWYAgByqr5dB+9Bh2v6gyCP35FVogt46O6e0xY605pHuNczSdR/btEyw2s2RDA3ju98ZPSLverVsXay7KNwfjAMwUiSkAgdus6R4TWqSjENcNsmhlbeNq+M8y9PLugTZtWkXe8eWXX7dEe2QFuXDiCcea0049ObRKIwlRHYZXNvutwkTznYUxW8HOICrd79S9jqb61dfeTBXxrlu3bmXfDfOB71dh5cqVZraYCbvAGDsKMd2ly8GmW9cutr5+L249Pdd3rb/zPbrMar597G3tzj37TGtlgMZg+NPPmRtvuMYceEC6UKkyz9SgQf3E2u1PZn5qrRwwe+sY2A+ixkD/Csz/5rJGZoMyyZU1XQSNAEIovvls0Lp1vKT+tdffsgQz+1BtZQSra/9uKvtVUtP2+QsWWMEo2qfu3ZIJBOm/OqCq54b7DAhyDzuspy2Cxhr//kT3ck7n0Ev0566Z7du3TdPq6/5HHYShYdC6dfk6jfAfYQ5M6aWXDAur6ssSYIDIoPXqC72GSWdpiW2xe1eJ2bV2rdlStGcdc7uqL996A0kcv1ssZXZt3GBKQ4TApZLyIRj8xe0j9FzeuwWhERlXUZPyNRBzUw/GhL8NjxmLASSicVJRRdNH0z+2jCCmj8MuGJq2IGmdJEc0UO2E2Rn+9AjRHm0zjzw23Fxz1WWmvfgLAcqYwBScPuiUjC5hGtCgxAFaRXzWkkDSetoXBKrLCFKOb1SzppeZJ4Y/YzZs2GgelWe67torM/yfbr7xOqvZady4Ud74434QJjDVlYG3Ro2xJmL59LFkyZKU6UpYe3we+AsCksgwhmXWZ+WMIIwLJmcuNGrU0JrMuCaEf/rLPyzDMvj001LfDW0g3GjfsEIz5fZTE+cQ4sqIxGkE3bEF/SNh/sFLHDSV3EJnDh6UUQXGDaYZwviKyy/OuB4swGwzihHUusx/tN7t2rUJNe3WehyP7t/PHCsmxQg71NTPvR53DgH1vV5fj6uS6JpLOCVqsA9U4h1dftlF5oEHH7UWGE8/87w1NecdlJTssk9YFCFsSvL49H/e0CFJqoq/00JZE3eZfv2OCBXsZevk2IEDslWx1xFSwgjyvoddONQgeKgLUF37N2a0Sd/5I48+aRlBNLthe3hNvpeqnhvus3UVgdepp5xki1hXlRFkT5j+8QyDVVMSAQ1WFffc+6DhHVx/3VUpDR5aVP4A6Kb/3fOAFYT2PaJP6l1BK6HNjTIHtY39f/lhQNYaUjSgFSSaJ4wdsFuCxOxcsdTsWrPK5vELMnQN27Q3xYdIPsBtWyXa5zyzS5QsFhxGzvoV5sjANWrbzjTp1Fk0ig3MbumrftNmpkzGtFNcBTx4RrAg34AGLkBrVVniCsnwdddcYf0FIU6aOlodzCyBygRLOVgCjpw+KJNRYrFUnzeklQOPSUZkuAg8MGCuqdfQTl0qpq5PDn/WbBUGFyaXe7iAZBsfutoM64WJxu8LwCRT4c233rZapR49umuR1ez0jJA8pirJyTwxlUGLGAaYt7DRobE65eQTMzRXaJFcYBNVZsX9bqizUxZjoGHD7NpqW7EK/sMkaNny8iAfrrnn408+nXE3mDf8ZRXOH3p2RuCiV159Iy/TbcxtCYgE7Ni5w5oV633cY5SW0a3jnqOtSWpq2KJFC3PA/vu7zXM6r+w6k9PNpDImj0FGPNc+oupjArpU/lg/0IhWFni/CAmizMwgGi+9eJhdY7FIoD4CgZ07K+ZINQhLMIVHMAZ0aJ8+jyv7/MH2c+aWa6D5NusKExjEQdzvQu7fcffBn1v91g45pFtc1Rq7VtNzAyHsxElTTG8Rdl007PyseKAu+159WXuj1ic0fGgNEaCfcvIJtk+EsbilsI7efNP1Ga4mWW/sK8RioJ4wXPzhG0iEUGX4oDN3C+NfJHhv1qOXJHTfYrYtnm9ECmf7K92+TaqWB5EpFTqxVPIAkki+Yeu2Ni/gjhXLbFnszcMulqEJlNyBLcv3XDSB25cvkXsvCKtd58q8RjDhK1+0aEmkbTvBCwAIiv/8977QHhFoXC6ahyTEX6tWB1npVnFRcZoZ5ey582zfSSRloYOQQnz0CFgShA8/mp4qggAO006lKuRxAoF3ycUXWA0IZnNBIDAMDGISAD81ARs3bJJgPZMzbq2BAlzmC60QWh8An0a0pZj+BqPCwuSFMYIsmOrjQIAYzB+zgRtAJCgs2FlhftugQcNs3VTZ9XXr1luzvOAN1FfQLYdoqgrAPJbgOwqYSvMXBrkygmF97Atljz/xtPWrYw5fdeWlBX8kTGXfHTveRgWsDCPInHl37Hu2L4RoN990XZqfNUIV1ULjc4XlQHMxkySYFUwZfkGAdJNi0rI9LAKtKHN12j773Avyza/O6KakwlSKCyNeGBnpTgDDEKbR1g4JNoQlCM8eBbNmlQuaGsrcJzhTNiAiY3X4pGUbRyGvV8f+TXAa1rgoWLV6der7wzLn4wrBblT9xiIYzcWfPKqfJOU1MTfCxkUQJ/ZTYiWcfHK560BYPcoQTmkMh5NOOC60GvvIO++Os9ewuNIYBZjr42rCO8N15Ybrr84QtIZ26AsTYaBIrA7qiUANJrC0gvbQhkWyDjVu39E07dTF7Fi7xmxfNC82Gmg9YeAb7H+AadK+gzCFjcyW2Z9Kkvgd2l2i464N68yWz2ZappIG0GNoHUuh3aX/ekJro62sq+AZwYRvfqd8JNnMLukqrs6uColz2C3RKrFoDTnrDEtYBBlGiFX18zhCfO/iYIX4+eVi7gAR9Pobo22XLJAEN6kKCEbpc++ByWhS+O63v5Zo0cZskKAQSvzF9X+wmKJgGhMHLSWKqvpmQjQqUYWJFpLFruLjNfPTWRldPCK+kTBpF4uEU/0iMioFCmbMmGmDjsAonhixyQWaWJ83ymA2g+aGKW1HDWoECbyzvkILQrATiFeY3B49Dkk9yojnR4pwsCSRwCTVKOEJxOCzI15IRdzEh/WE4wamWjOep54ZYZmAXOaPdsA7/uvf/6U/047HDjwmLXVIHOGe1rCGfyA518inHJGstzrowBoeVebtWXcJDoQZJHCQjDHo+3nv/Q9Z4jGzdXoJQjFXMJZ+Nf3X9ddeJWZsHdILnV8bhNiP2xOoChEeBa02xOMabdYIIWSTAAx30D81rN0lF19oerXoEXYptox5i6kdprUH7L9fLIMc21EVXKzq/ZshExAMYXASeHHkHmFUVH0EprkygtAQvAMsDoLCwKj7UF4TcyNsPNA97AkEIyJ6eXfxg42C198cZWkm1qNeEel5XhWXCBhGBBsnn3R8qiv26/PPO9vce9/DZrlYqSBAUlPVVCV/kjcGisX0Ek1emQS6408BU9Figrt1EespOd+xcnl5MBmtEHIsk2+6RExEy1q1No3bdRQGbpvZOl+sHHIwD4VxVGG4ewvGU3+//U3Tzt1kLCus2Wrppo2WaSzdIQEMnbG77fa1c88I5vhGMT+4UPwAcwEk6nGAL55qmlaJ79SlshG7i/hns+eI1OplSzjjLxgVzbN9h3aW6ECThBRMzceuF5+8OId+NCSqgSFi6T33PRQ33LRrSNW7d+uaVpbLDwJtAJgtFRFhKgIwiyW8NUyOPldE1VTxxk2bTDbca2V8FJEQxgFmM+p/yOahjCC+Hkp0QmjBUKqWgHqqqevatXNG941FwkWwCFcCD5OgUejQkCyOSGHC5qf3oWPVaKDlCMIOWUyBbMxusF0hfyNk4A8TW2WE8CnVbxPGnT/eL9E5CwnML8yOuC9zC9NB3h/3O0/ScvD+XhJGAqEIc5xUHfkAREcYbKnQNuk1AgqVZdnIeFcqeKAdgiDmQKEB4ivKFxrtO/hQ01AI/OqEXbtKrEBE74kJmAubhfkmABOaAd4t385JJx4nf8en5qTWRyMmnif6syDHoiIx9UgACIu6d++aoGZ5lWnyPBr4KUkjvhXXFB0tIWs65tUtxArEhe1ilqrrlNtmjqxdmKzmCnyTo2RuYcquwHxCoDj4jNNqlTlqVezf+sx6RDCwf4XZ93rBDUJcIgG7rgNad6EwjuxtbpvNIhiYL+lkkgKCznHvvW8++HC67Uvbsc4h4Dzn7DPF7SI+/2x1zw381YM+7zruk086wRBFHWHofoFvV+sQOVl97c8ecmYoTcCaz5oJkJILoM06SddDyh7eTblvcImNOH744b1rpZDLDnwv+69+s+bWlHPnurWmRPc+WZuLhEFscnBXU19cgXZI4LTtSxelaIGoR9wtvts7Vq0wRTKHmnY7RHz9uoh56BazQ3wNKw2yTjUQc9FmXbqV+wyuWm5NT7duxTpErCyiDS0qfeva1EH6rlqbRlZLx8LCETRfYsOdPOUDITzqiW/d0RkESLZHIeojknakUiRufVBs16+5+nJrSoimUJlEmIXLLhkW2f/AAf2tNBCfG4giJbbj7o8ZhivFpA3MYFLYIXn/wgACm+cJAkyPEp1IkFVbRyh3ldwF2/Ab/0IIjsMFV0kZQe2H+jjnhwEaPGVGw67nWoYvH38Kc+bOt6cwO2H5ztAQBrWE4AV/KVIMkGw9SuL/1a53pvlFbBWiGAiLMqeMfm0IFkMSeQDiVQMh8Zvvju8PxsRlcLlWWZg3b4HtG03fBeefYwkBokbOFBOk5aJVgXBFc4OpHwFfXEFM0nvzfon06wK5EtV02C1HU81fHPDdpjGC0pdq5+La5XqN9UznZLAt7+GO22+WNWKxMBWdCv5egvcL/oZwu/ueB1LFEMwXnH9u6jeBInQN4Vs6Wywq3G8qVVFO7rzjFvdn2jnf3R/++DcrGLj26iskYXWntOvBH7/9/Z/t95R0LUK7E9w35sydZ81GiW6JIMyFJUuW5cQIEiGYXJUK/158r2UEMStF+OICptgwgsE2+Ext27bMrZr13OZ0lNRAKuzSBrwTGBO0nQRjSoonbV9Vx6rYv4NjPfqoftbMmXKETTCCneX9uu9H2zwtFggwgm4bUiwkZQTZK0jNpEyR9suRd4IwYaWYJmPSjWtCFFTX3Ggka75aO+0SAt9GshbhLsLLJiJwAqBzMOOE7uEbCoMmstZqTtywuRpMJzXi+ZdiXU/4Xl+TAGLQXR4qhwHMLGH0iuRdl0oshTIxwQSKRRjRRNJFNG7XXnwDN5st88WkXWjnJFAmvoPbly81aBqbdOhkmnTtJn1szOovWM92zv/hHJ0dq0QpBXZLvABZ1O156lj+y65ftWUNqxhSQQ+eESwAOtEuaKCVw3sflqbdSdo9TswQC9irozF55LEnDQRJP9GYELoeyR5aCiSaUQABdOPnrrELXpk4xypEBWFBE0m6CheIQJkklPkzz71g83y5bd1zNqhx701wi+w55qFKdII3gM2ZZ37gwces1BwNjetLh0kfRBMQjEpqC7P8B1GPGUgYLFy0SLRA5VrJsOu5lmmwFm2nplgQe8FrWkePEN3ggmeHeEI4gCYJ87J5QhzAKPONQNjhP0rUUBe2VGijmoV8I8rsNqhB01Ad69wK5rizBC5yF1eSBwOY9RUa0OITrl/9Ntu1a2xOP+0U88LIV+y3p/c74fhjTb4+qOS8CzIhUcwe79BNIUMwH5Ve843DmLq4YXxE2gtj8nXseoTQh6mGoMLfKxsEgw4F6xNgJCrwSrBuVfx21wKiwLoAAYeQBbOvXM3o3H7w40V4BSB8iQPuqUI23lO+QHJsCF1M4YKMYL59Vnc7tDYA0aGtRkU0yItEwIG2h+8QpmbU6HdSlhTVPb4k9yvE/p3kPlVRB024MoFY5uBjx/qFcGvGJzOtlhYBF0FV4nxN48ZWyLnhCj5hdh97/CmZt13NxRddkDYE3CEIvrdL6IiwvIMdO7a3Aeii5h+abZ2jdEy+VtZDmGGE0Qha2Wf4w68TQTMCcd2v0wbjf+SEgWK0gc1a2EihZVs329QRmIk2ErPOpqINJILo1kXzzc7VK22/MIyW/5L/iqUe5pq2QJmyiruXbt5kti1ZaNNLNJJE9CUHdzGbZ30SblrKWi7tMftsKCalmf5/whyK4gbNZSOuS91dIninDfkK6ymdVEFGWw2n7IMEmbFRS3PCSO2v7BnBWvSO2EwbNhxmnpL0EUjzNovUBKYMU1GrsRBiBfv/pMBiF8U44gMz8qXXbFfY2BPNE0ajmWhE1KE67j6YNMYBDI2rGVslRH7Q1EnN5UgZgdQURgnmdJUQEJdIlFEWbGD0mHfsESZIzQhtQS35D6YXUxaOmB+GAdJN1eyGXafshOMHmkHCnCjwXvjDvOuhRx637+fYgUen5azCt5JAO4CadaGF/Ntd/9Zu7FEl9jVpGspAILZV2h00lUNyDeTLiNnGEf8hDCEAEowZZpm8L43CiyZPlG8Wf+SPIn9mz0N7iFT/MPH77JzBkEXcIqfiXj0PTfNZQTKujCC+lMyfIIQFeQrW4Tdm4TCCEFIXOtqzsLq1vQwNIH54LiA0UrD+bAmi82r9qONK0TwCmH9ni6zJPFcIMutaXluOCBGD6znfWiEBIYFLyJPTDYEffmfc6/0Jk6ylDIR4XYXVq9eGrv9rhQmpDMDEsD+gTUPjqOsG3zFmv+wD7Auu1U+u96uJucF6jQuMRncOjhkBCmtolDvHMQP62zyuLcUfje+OOcBcxc0GLTV7DzgCCL6Htp59h6MGoAne0/9OhoH6gle0f7vWr7O5AGlFgBgYxDIReKLZIzWEQVkh76RR2w42sAxMWCNJH0HdMvHP09yDqbvK9VLJLQgT2UIijtZv3rI8PYUI5oKwS5jGBgccKEFpOpj6LYQpDWgehd0Thq9YxtTMNBAtY4lEJy3ZWB7Ur1hoYILZEOxGzE1s1w2EoazfoqXZKb6KKVPX4E334t+Z1MZe/DD7wtCR6l126TAbRU41c1OmfZA495+Lg7CQ+1xHWkteOQBG4xrRPD72xFOW0YBIxkchG6g/WlQ9tFuuczYMXpARJHQ7QIJjpOJo7vCFRBN2/wOPWrv++pKQFCYROO3Uk+yxtv33z3//z262+WgrK/ss20TSqUye9gWzFSzTazVtGgpBooQ0G7kCEjnNmdhGGP5CAubWr4vmG39NV0rM/MLUmG8PQQvExYQJk60JMrlB+UOQ4oMIFPJtFLYvzFULAUskeiCANhANyhtvjBYNbGcTlquvREKiK1Qm56D2UZVHNEFVCWhrXVNdvRdr+ZCzBhuCQgHLV6zIy1JG+9vbj3xTuHkUGgguFwWsaVgoqXaWtS8fwUUh5wY0wIeyzuLHmw2I6EkAHgBBnQsIGDCJxdIjLEE8TF2YQHHixCmWKUbYBrOoUBXRkLXvunZE42d9+FavMiWbylOelYhmcNvC+RL0ZZ0wguK6VCFME3ZMmL82orWT1GvyvRLNEzPQnWtXS6CWTH9uAsfslKAuW0RrR45B7SeIY5hNGMr6YvZJ7kDJLxKsUv5bGNMdMk7q79bAMDKORpKuAi2gAiktiDK60z6TaA73MfCMYAFeKKZChQSYQRcOlMAZ2NVroAg0GNjIhwGMAWYQQJjZBNJZ1VopE+j6Q40d935Yt1VSRjhtQBds/LduuvFaQ5JnNBqEXlezMK7FRR2tkgGGdIoWCfMRGFsFJK5IHJFg6sbMpvvf/91vg4+QhuA4SR6uwLW7/nm3MI/bbHJr9R1y39eatWslLPwcbWLWrCnXBONft2VL+QKJT+ow2QjV7JMIafiHHn/cQGuqpY35Ptk0gQZihlGToGahaHbdXJKY/hKoJRj0ohBjRZNMuHaEE0ShO1Q0GJ3E1PqJJ54Rk9sF9vtD84fZaP+jjhTTtiViUvWZ/UNLjln2++9PihxKoed/5I0CF54b8aLFF/40UZJxtwmSbiLxMZcIIOFhDwZ430B7yekHocr3yN9+It0OEpo636hfGcGKa75PX1UBKmBz+0ZIFOV75dZLcs7cirIycE2fiWRdG9bvsGeqjvmL1umww/YIvnQcaGwLpaFFwIaGcLv47W8XjQq5WjGHrywUcm6slAAhzKt+Yv6urg3k5GW/g0nV1FiswU8+9WwqiF1xwEKCtZznRdCAFQ3WNB5qBwZ2CFMF01SeSL7C7UZoEJhA/lyQSBZi7rm4PDqnMGC7JTiY1SQKI0j7MCiVQC5b5swKu5Qq27Vmtdkgwhc0fjCEYWCFwiI0JzrobvlTwAR164K54uO4x+oN7WSJRBMt2SSB7hxBoLbZ24+eESzAG0TaB0DIR5li5nIbTBdeHPmKZSwwZ0MjwR8mo5g2dBNiFl++MCCEOqGXYe4geF1gw9PAFWFMIHXZrF0C3W3vns8QRiibz5tbP+xcE/mSx0sBhpecPiMl+TjMlhJdgwefplVq7Ig/mZrvuYPA/7CPRBxzGTmCkMDYwMgOOLpfWpANNjmYQDYzGBCOQVi1ak3K79S9hkRVNau0c4OJqI8TJoGur5r7nipDuLrjyPd8mUgDAbRzaCsIrgRMkWBLAKlRlPm3BQX4D0L1BvGdbdFcfBcqcE2aAYIVwNTzB0HLWLg/wQf4Q2rMXMxm0qaEHAT2H/98V9qI9Z1ooWpD85HMax8c0ZKTawtwJdu2IOI/noPnYX04XggnNY2KqF5nitE8gBegd++eEqmwpeQXW241B/hsX3fNFWnzqUSIB4WG6kuiBTkcdd/I9n3l0GVGVb6NsGAxBWMERfMSBexBRKtkrYMBqK2g76FQ+3fYc7ZqdaBYtJyccWm1RAkPyyObUTGmgPYTJk6SQHPLUoGTYqrndKk65gb74X/vvt+Oi+jdn82eawVWLoMedEXBTJ41lPyjxGeAkRx6zlnpe7DslSoU14fWtRoBoJrRcg2hat8j+uSlMdW+/XEPBkj3kAh27zYwjvwVHMSfj1QQe1brhHcQOnn7kkUJK+8b1TwjWID3uHx5+SYHMamEZmW6hUDGj4oNyk3sjqkljCAMElHGgtGyWFAh8gACYQQltWx05LJ7RaJjXXn5JaGREY8VzRVBPLIB4ZcrE8EQBk/9FoLBGWAEggs/Cz4+EPkQ0EhI1R8y+Fwwa0mhhdiOAxA4+C9qIJAgE0id8aJ5BZDIB32O1AQSPLubkW1Q8R84cc3ScPxnE0NbrBpUgpO4sFUkqwCmti5oDkHKGjSo2Sl/yUUX2oBIfN8EKpotm/5J8l0jJQY0mIv9UcD/gkwPc+eLd95mfQUxB0UDTVCCUaPH2CBNzGUgCZFOdFcFjc6qv4PHzZvL31Hce7CSymDDwG+d5+2E6Q8S+oGqqZ9oAhE8gHvSk4RFMUxVdk5YV4iue1ivnnttUBPncTJO8RcFbAj/Cr8hfN7ue+BhK8x5WrQOt9x0fSoEf2mFWRNtgmssZUmAd6xBPniH+zok+aZrCgeF3r+r8znwB2ZvVID+aCk+UY3E7549lLleGaiOucH+qBFNH370yZQWEPNRTROxf0jaGmIQ8F1hxfSRaFaJmu5aRmD9QMCiMFABoHutW9euidZ7t40/9xjYFzBQs1ThvoBBeYZly8r9S9DEVBbQ3qiz8tH9j0pjfCAY0NjBDL7y6uvmc6I505QESLTJBwhgdtdXNIlhwDWkbjUNBDRBWwIjhLO7Ags7mjfN0YdmC3NHfjeQuueK1C9XQAuTNEF0XN/glMiNjBci7r4HHgmtjraJMQMwYUgl9T0R6ELfb1heKe0QzSg5uBSWyjcGI4jG4si+R2hx2lH9Aps1b5pWTkRKhXwJV21f2SNMNP4YRJSFiIFQUWIFnz1lwCp7n6j24B/fVMzWIEDw64RZRwo9/v2JVqKujHZUH8FyDToDkz7swqHBy/a3MvzKrFdG6wmzqSZfufql8k2RJxTNto2QKj7CccA39ejjwy1e+G6/9IXbC2L1EHfPyl7D/5ngVydKBNhsTDIREZWpdlPMEKyCIF33P/io1RaSAPzyyy6yQ1MrBYhu1wogl3GjCVLtcPt27XJpmlNdUvjo2qMNVfupvytzJO9tFPDtoA0E2ogfUG2FQu7fUc+4QhiSsOiXlOcLrAMamRvXhGEXEPG7fRrNQE7hfN09qmtudBNfXA02BI7QVp89ZLDNQ6nPd4CY1oYBllLQDOyzLhNIXdb4YE7dpbIvsx8T0Aizbxd0jXbL/LnHQF3AgGcEK/mWIfjVtMM1x8u32ylTP7QSMRal/kf1zejmjDNONYskwTiL9ONPPmOuueoyg409YZjRbmGaqslTMxonKCABexLiRomYBF2GVpks+QsBfLZ0AVZmVjWNmD2SwJ2cQGwIEGzUxWQvCcBMkRcoiTQ6SQJztIAayTTu/kgve0t+QEz3YEDxseBZBh7T37zyyhvW3BUNFf5ohQIILn1O8oO5sEsIBoD3WgiNtdt3PudodZH2ohF9+tkRQiyW2+eTGoBnyEfrm3QcL0mkXNVEw3Ti/8dfF9GUfe66qyzDk+v9N1ZoBNu3b5tBdAfHpUGWyKcVBdnuT25C5h9zoY/4peYCMEYIEvgu3xEiUQmwqD527tqZMjdDcIMPciHM36PuV4hyrBXQMCOwiWME+dbIHYYJGswSgYNcgLAkuTXENBoEUiHA7KtpKKbG+cLbY8bappjhJzHFz/c+bpL3fPuIa4cmHYYkTMCkQUZo365d7WQEC71/R+GKvblQ5rh6D9YxNZ/EegSNdhDUaiVYnu13Tc0N/P1IMcE84/l0T4tLKYRmMIxmgZkMAlG26fdo8atOalIf7MP/9hjY1zDgGcGEb7SROI5CGLgSJhbhF0ULx2KFk3PfIw635pIQ2655JVo8NH3ZcrjR36TJ5VHe8FUKSnIZKve5/NKLrJSeTYwkwEi40BYhxSb3IP5/+QLEnm4ucX3oAh1XJ+oam5NuUEeKNgZgkySqmvqzYQar6SfwrUC6TB18HCGATx90SlT3aeWutjHtQhX+QDp7kZjgHjtwmXlz1NvWn6tcMjs+lats8OBBBWXKNIcg317QFFU1gtm0UJgik56EfGzZmJFCoK9Fy+Zp90HTjfbp4mEXZDIbgahx+d6fkOrME4QpELH8aYhycrlh/kg00yQmoTqGdcJ4AEm0HpoypYWYb+UDzHW0PEDvw3qFEuDZ+iVnKRFR8TXFdCqOWUKYwjxEA8n9kKTXBMD4ojnGdxateBwos900IBAJtmG9+f/snQeAJEd1v2tzuL2scKecc84BJYQiSRJJgEwwyWQbg8EGHDDYgA3YBJkoQH+JIJCEhHIAIQmUc5ZOOdwpXNpwm/f+7+vZmq3t7Z7pCbs7u/d70t7MdFdXV3/dXVWv3qtX5IkcawNs8feG7YcdepDNF1weDezQOUV6rK5FOuaOd8GONsb+oQNLfRrW5Q8++HDk1UFS6jYUKeZc89zxbCIMUtCGVGohp56Mu0VjFWdtv2oI1lHms7OMRygEWbrq6mvzm5ZsOtFbZirrm6lov/MXm/CFQeJDbDAwLnhFECW7HLFuR15C93+/kXnEPuK235b1cyrejaSyMMjk3zNc0hHcRgv1aQi4Q5141BGHp3pCJZ1rsrbRptC+8D7jAeOFegDPE+Yj4qYftrEMgjN4RRuUZbDZ56lPEagGASmCGSky2ha6VNIAEtAEFx+EgCHMFSKgC50WOlBExkI5ZDmILMJIv5/M7INoJB1HWVga4iILZODPj3IUKYEFJu8n5RXf9k4LjBAqsfH9/jeWQ2+589vSPrmm20YtgC9a0AA6n1T4dIZRkpmv5Du3VJwnnnDchAWscQmlE8wIN9YMFMViik1aeaZqO264rIFGpxvXsnjgkErKQaPCvfedeO9ymGRdoKOJFApsQYeBtQoRBhs+8P53J46yRgmq8A/38rzzLoyWLKGTTKh+AuzgVvuzs891b33zqfm5kJzupZdeyQ8e+NP7d8X/zvLJKLAfCaYjSmfjSbP00EDznT/WEmQAAWtyMeFdJ5IrsskmuXmFaceQlgENhMGCcoSIv+SBwv+qVx1SThbRuXc16xcKCZYp7/KYlhnvGn/TIX6xZxQ23h86ScUUQY5B5qcwZhCL+sYvrYA1Jc3dms5anA+BKaL8Y65l0cbYP/F5mFgVie6L0OFlDrh3h7vSrJNEKKXd2MkCfcWjlUYHlfgP5/B1hD+U+rdaiiB5Uif/7uJLI+s0ii/vEEsWeBdUvCHiAytTXd9MRfvt+SZ9Mr8cS1dcHnjwobIVwW223jJSJnieeZap+7nfDKbynF1nSy+UOmA7le+GZ8E5KS8Dvccec1RUP7HNz6Wnj1BIqA951taUMN+/UH477bhDtNB80rzEQsexD6X+x2edHSVjqsGHP/S+vMJH3e3rHFxa/RIa1Gu46+PVQ32D+31SO17s3NovAuUSkCJYIjkqKOarobz4hY1p6JjfRCRE/NLptLDUA9GscGvccYft7KU/xNxjJo6Khqe/xSoOZBtzU0ubp0SlgYvkTTffGh4aKZ9YnahgKh1FHpdxhT9QVrDy+A4w86koO1YfP0GcACF33X2PBb/Z0p1g6yIRaS4uVJBvfMNrbUmJS6JR+lpXAik/9woLpp/nEF7T+Rdc5Fg24jXm5lpotDM8hu/2+EXzu3j+Ws168N53vzNK4q0U8UAx7By0+RNIoYihz78wFrULBek5W3svy4BAlHGJ/2At+K1dPx1qXHpOO/X1keJ185Lbo2AtuFGx3MUH3/+efM633nZH4oLM+QRlfEHh5Y85gihpBK7B8kWAgo652dz+HjGrGoo21iTyKiRPWKQ66g8GbcpRBOlge/cy6pO4pafQueP7sE6gCOLyiMWLQYvpFlw6mc9EefzzSL3hAwnBza+t6suKW3xobeNYP/CxKMF6SZ39+0suz1tKGJnH/bwUyU8FKFKfh3ly3j//+Zb8XGXK7Oc7M/jFwBjvBe7k/FE3siwIf1x3rQpL5jxjrnYEMAuX1PHlpY5L8t7w95d0k13f+LLwOZntd3ieqfiOOy6DWigXKBHxOYg8Nz6mQJbyTPW70dXVFRWLgQTvwsy8XupGLKU+mBLeUYXEu+aXUqcSQI5BR9a3XGHz/V+0vltjU1PUnpJPKXmFZXshaEdpx6i/vFIXukpTT3nBC8fPpeX5JLJ2MeXXH6tPEagGgdptYapxdVXMA3M/o3cPWOfJB4egE0sj56M7oui93ebs0bDdffd91ug/EL3gdBz44+U+8ojDJozQUkzc4ryLyAE2lywu7MNigsLkLSF0Ppl3xgivPwefjPbTucWqkeQ7H8+7nN/DFpq3mGA1ZS1AKkM6rccf/2pTim6JOmG//s0FkXKMqx7uZh/6wHsTXbPCc2AFKWZdxc2P+1SJ9PfnLGiF8mCuVJJQkRPGe9njjzssvH5UnLRYebm3jMZzL7Go/vgnP7d1/w6I3O+4viTh3uMSh1xx5TV5190m6wTz3CDMe0AGbDTYb4s22D8odQguouxDqY67f+L2xyg+jReCAj8ZiiAN4AX2THgurGfn3XfhsMA6wBdbRx23Gt+AUh5c5nDvCsUPxITb4t9RFPySKfF9Sb+3NHe8Tc2NbdjWDQqP6zOuSeKj6mWZq8dcUWSzzZbkR4mT8kzahgX48iuuinZhFSu0blaWkXHc3OHOc4NVkHprqoVohygRPmDG8/ac8hcKgyTck+3MXdnPJ4YFdR+WD5bLIWovEXSJ/kidi2AFi89bQ4nG2uuDvZCG4D68D1nl/vsfjOpbjqFMhQSFlMEF2gyUWeoGhHbi1FNel+9s4h6K+y2DCnda/U4HlfcQCwLrvhLUh8GytPqBPDutU81748WvOYtViAGjULpsMA6JH+M73mHatO+0Kwx0YXU9451vc9de+6dx9Q77Cb6Dy20S36mqb3z5J7v99ufhE++Xx83ChXBeZLkpGuH9iTaObud7eAyKQVZ5zbFHR9ZWlEFfp3IsrqjH2b6nnn523H1Jy3cq3g0G27q6cm7VrP8XCu/53mYJx6LM8+8D3GAVT4q94OeVM3jytF0jElfeOB914RoblGeQib9XVubaURTNuBRye+/u7o4nT/xNu3XLrXdE7SdeBmEbdrB5HuBFxrux//775I9n4J7rRBlmQI62WSICU0lAimAB2igw1/zhOqtonslbtHxylC0CCSRZc7AMMMp81JGHR9Y73JCosOiE87fLzjtGc8jCBhI3AgSXUkapvdBZwkrhXUDZToeAkWLmr3jrGR06Ojk0PH50ls4SkSnppFZaudCBx6LR2NgQdaRQdpBC8x5ZpgIlhg7Z2952WmQxYYT4InMjYn4S1lL+EEbEsfLV19WPKq+5oCF0nkb7T5ECxNpvQ7ag59FHvSpxqQE6eb6jF2VcxX9oWFjsHgY07AiNDxU7yj+Wv8fNwsK9DgX2uIF4awZLeDy599PuyiuvjSzHN918m3UCl7nXv+7ERMvMU6Yw+rmT8KDR2N9GgrnPuCKHAu/4Nr+fjoLfh/tJ6K7FdeDGwvXxjGYJnuPzzfqJ8os7Mx15mB1v1l8GLELBfQpreNyag8vQnuZGFwpKsY/AGm4Pv9MZ572YDGFAxrtHF1v2gmt+zAZpEILTlCrUFTtbvXHzLbe7E044dvQdyeXCMhzMuW1qajRr2GCkqLAHhbaQHGyKN9E1cV+fDkHp8wMYnB8LBsrZZtaJRfljIIJ6IS48O9tvv21k0fTuvPE01I+hsHxMGDkYLw4G5QpZ22DKoE2TlYs6rLevN29JZFAnreOIMspzyRxur/xRFqx8KHU881xDKPymTeGPuh4FjvcwaoPs/qIQYkFMq8dRynyk5TBfb00Nt/nvacf4/YU+P/2pj4/bzQAd9S6dbZ5V3OoKsZ2K+mYq2+8QBvedv1Coe5Puj0+TdIzfV+yTZ5k/6iPmIDPlwr83tDneBTEtn6l6N1CQwneQ/glumEQ+9oFumDJw8SWXRUWln3N0LBaAb5cY8OXZ5h7TLtN3COvVX593QeRumnbNPKP0tVjfkfaGwbWlgVcEkcvxsuEZtqRWv+bmK8bdrOP5c00feN+7I6+E+EAUbRtrO3Pu+PvPHFvaqvgx8fz1WwQmg4AUwQJUcdnB7YDKBmG0Bqsec1SoRIqJV9joaOEOeettd0aVFjULlYEXOoltrbkODyNF4b4XzXXBK4FUVntYXuQXduLJh9F91rpiVOmBBx60SvKpSHmg8SGKZFoHwpeh2GenNWTxUTQqrW3MjTVJuCZcZRGifHq3OSpAIhUyJ+Bu6yy9+OLLrstG23LK03gFKilfvy2uKPjtROJMckXy+7N8Xn/DX8ZZg/wxNAq4koSKnl/nkXvNWkZeGCCg0t9t110SLcAoxO9/37uiUX8scSiSWK+ShIYSd2BcjPe19SP9yCfzbMp1A443RJyXSLRYD3nucXGuttCIc96WlmbHeoLxdTD9+UK3aBQsBjO2svkwcUExIs+0Z5D0NMz77btX/NCSf6OAhZ16MsAKxXONxaXYfeAd9sr87mYpKVWoE7AcHXjA/vlOns+DfXFrDs/I7rvv4pMkflInVFovJGaccSP3j2iSm9rSAhvb/EpYhnVfoWxOMkvydvYO4drqA2VwLNeNl8F2224z7nDC6tMJ5b0kqnIWV1jyCl24fIY8tyiRaULd7I9joA6llQ4v72/SexfPh+cfxQrLyB+uuz5SKmiDWB8uTej4l+riGs8L11VvSYzvy/Kbznix9yDMZ7Lrm6lqv8Nr4nuo2MT3Zfn9ks2HxhW+VMH6FFqgsh4/Ve/GDvYeEAyPd4F3n3o7/j4wwOo9nt7w+pPz/QZ/LVjcGGjBC8p7r1BvHHLIgeMGHiKF0aZu0y5jZeRvo8WLo/ffDzTGz+3Pwec6e9/8IJ/fTv0SH7j0++KfaQod5UmTtGPS0mu7CFSLQJ11bnL+KtXKMWM+dy0fyZgyW7J9l44fYc12VPFUdNAZdcZKR8NSiTAqiOWP+T1+xC7MD1c3lLZw/hvzqO64425zs9k1U+fF50enE6VwmY0qn3zS8ePm0fg04ScNDxXwvtZpTlJyye+223NLPnAcLLBseotkmJf/njvmzshy6relfTI6jUsmjyNKJJ/RfymP5/x588Z1GmGLnz2RAstpDMNyUW4aGa4trnCjwNJI0ChsseXm5ho1L38oczRRPFAAveKb31ngC3NKu7q6TMEfb/EqcEjVd2GhvdisddyHN7zuJFMidq36OciQxpVGupL5bVkKxnvDQvE8p8ybrVS4t3TGDzpo/2j02OeHmzidZ+/e6rcnfdLxxSqIC2xceOZwBeTdZ62/rAoR+VCGl1/JuaDxmzqk2Hxk0m1ogiKYcyNN74zFmVCHDtpIPUtGcE8YwPEDMfG04W8CRC2YvyCydJRyL8M8/HfmcuKanGR1xgPg+utvtDqvI7Kw+2PK+WROO26JvC/hYEw5eRU7Zqrqm6lsv/H8QUFhsIboj+UKeZAXSrWPnF1uXlmPm8p3o1iZaGNpzwspXfRVhsx9Hw+ipPeR/XgP0c6U8/4xiO0H4Ckvg8Bb22Bkof5OseuajfuXX/Sb2XhZZV1TnSn5S153WlnH+oOmSy+SIujvgD5FYAMmgBKCqw1WJyIWSkRABERgsgiovpkssspXBKaOwIasCKL42QiBq7fYBXXm0dcwb75btMfeFcGXIlgRPucmyyJYYbF0uAjMCALM7wkt0TOi0CqkCIjAjCSg+mZG3jYVWgTGEZiViqB5fqDk1ZmS5+pN2WuweaKN9hvFj+/+07ZZqFlX39Lq6tvaXX3HXDc38BAbByrjj+lSBDVHMOMNUjIRmM0EpATO5ruraxOB2iKg+qa27odKIwIbAoE6i1GQV+YiJa9+VLEzRS/6jcJnapEFXqs3JQ9Fr86ma0RKYfA9SkNes0SkCM6SG6nLEAEREAEREAEREAEREIGpINBg1rDh/r6pOFXhc2DFG1XssOJFCh+fFtAt/9tb+ZqaXb0pd3klD0UvUvaaTQG071j8ypBCwYfKyG5KD5EiOKW4dTIREAEREAEREAEREAERmNkEmswVcvjlSVYEzfKWU+xMqbPgQPnvwfacFc8UPItkHylzpuxFyh2ftq2OTxS8SbTiNZapQNbCEyBFsBbugsogAiIgAiIgAiIgAiIgAjOEQMumS13fyy+VV1qz4llI15xiZwqehYC1nyh7th2FDaUPix5WOgvIUm/KnC1cnVPsvHJHoJYKrHjlFTz5KCLLzlSZuSWfqcRVbhEQAREQAREQAREQARGYwQRaN9/KDaxe6XqXv+Bs3a+xK0HBG1X0UOgi5W70d7Qdax6Kkyl0RN10kUKX+x5Z8GwZruiTeXocV+PSYtdRaI3IGi++kyJY63dI5RMBERABERABERABERCBGiJQ39rq5u62VxQ1s/e5Z9x6UwajuXpY7lDmIoXOrHkoevz5bd5Vs4aupdyioATO9OBXUgTLvfs6TgREQAREQAREQAREQAQ2UAIN7XPcvN33dnN22cOxLMywKYMjoXVwFnIhMAxzAnEHncmWQH9rpAh6EvoUAREQAREQAREQAREQAREoiQAK0WxQikq66FmSOK8IdvaOuEeWD7nHVgy61T0jrqtvfXSJc1vr3MI59W7HJU1u56WNbl6b+ftKREAEREAEREAEREAEREAEREAEZiyBxq6+EXfdQ/3u7qcH3Pqc7jfuYlZ2r3cru0fcsheH3BX3OrfP1s3u6F1b3NxWKYTjQOmHCIiACIiACIiACIiACIiACMwQAo3fu7rbDQytj6K17rpZk9tlaZNburDBFL1cpB4sg8tXD7uHlw9Gf3c9NeAeeG7QnXpAm1kILaKPRAREQAREQAREQAREQAREQAREYEYRaEQJ3MUUwOP2aI1cQOOlX9xR5xZ31Ls9tmyKXEavvr/PPfzCoDvvlnXuhD3b3EHb29oeEhEQAREQAREQAREQAREQAREQgRlDoP41pgC+9eD2RCUwfhXMFSQtxyBX3tdr8woH48n0WwREQAREQAREQAREQAREQAREoIYJ1B+2oy3mGJOhYedeXDvsukcDxsR2O445dvfWaE7hhbf3WmCZYCHJeGL9FgEREAEREAEREAEREAEREAERqCkC+aihlKpvcL07/9Z17slXhmwdkFw5ly5ocKcc0O42njs+OAzK4HOrbO6guYkSbOb1+7bV1IWpMCIgAiIgAiIgAiIgAiIgAiIgAskE8todEUPPvrHHPf7SkNt8YWM0Z3BPmxe4fM2w+9n13a6nf2JIUeYV2rqKUcRRlp+QiIAIiIAIiIAIiIAIiIAIiIAI1D6BvCL4YuewW2FK3ybzGtwZh7e7Q83id6pZAvfeqtn1Dqx3RAuNC3MGiTKKEskahBIREAEREAEREAEREAEREAEREIHaJ5BXBHHzRPbdptk1NeSWjuD3ITvkooI+be6iSYIiiLAQ/XRKb3LxprNIOrcIiIAIiIAIiIAIiIAIiIAIpBJYN40qVF4RHBrOuX425rfkyts4qhSu7kl2/WTNQSRtfy6Xyf+3u3/yz6EziIAIiIAIiIAIiIAIiIAIiEC1CPSY5+V0SV7t22pxLm7MXU8PRAvM+wLdvCynYa2xOYC4gMYlXHg+vm8qf69OiXA6lWXQuURABERABERABERABERABEQgK4HVfVlTVj9dPmoo0UG33bjRPfnykPvhH7rdNvb9JZs36F1G6+vqnP1fs7LOtOkV3c4t6ajhQtYsPRVMBERABERABERABERABERgKgms6F7v1tmqDdMleYsgSt7ph+SCw7CMxJ0WHGZl94h7ta0XuKC93i3uyCcdV9auUUuctwyO2zmFP0D4ksEEqEQEREAEREAEREAEREAEREAEapUAOgu6S5LH5VSVOW8R5IRNjXXujfuzHmCbw8LW3lwXLRb/xwf73G6LckFh4gVbvjoXZIYIotMtTHNc0bXedZo368LWOtfRYlcy7gqnu4Q6vwiIgAiIgAiIgAiIgAiIwIZIgMAwzAnEHRRL4HQqgfDPq0nPrBxy/8/WEdx1syZ32oHtkRJIgmvu74sK6ecQsi2Uh5fnQt3suCRZUQzTTsV37IEAns6Jl1NxnTqHCIiACIiACIiACIiACIiACJRLIK8Iouhh1bv/uUE3NLLObbGowZaEGHIsG7H1Ro3ugG1zy0iEJyJSKIogbqU7L81nFSbRdxEQAREQAREQAREQAREQAREQgRojME57e+dhc9z5t61zD78wGP01mLfnjksa3cl7tyUGirnarIUjtqoEaw/Oa5t+19AaY6viiIAIiIAIiGOQepUAAEAASURBVIAIiIAIiIAIiEBNEhinCM63oDB/fVSH67YAMKt6ht3S+Q3RvMGkkv/lsf5IWWy2eYVH72qT8SQiIAIiIAIiIAIiIAIiIAIiIAIzgkA9Cl1cOizQCq6iBI9JEo659oG+yEp46gFtbm6rrIFJnLRNBERABERABERABERABERABGqRQCPBYFgr8Lg9WqM5goUKyZxA3EFxHWVe4Al7ttncwNoIElOo3NonAiIgAiIgAiIgAiIgAiIgAiIwRqAR104Uu0dXDLpdTKnjb+nCBrPy5ayBrBPIEhEEheGPOYEcgyVQSuAYSH0TAREQAREQAREQAREQAREQgZlCoK6zd3j9dQ/1u7ufHii6lgVWwH22bo7mBFbqDnrXctMoJSIgAiIgAiIgAiIgAiIgAiIgAlUjsO/SbNP26tabcNbO3hH3yPIhWzJi0OECiiUQwTLIshKsE8gSEdWKDipFMMKrf0RABERABERABERABERABESgagRKVgSrduaMGUkRzAhKyURABERABERABERABERABEQgI4GsimA2u2HGkyqZCIiACIiACIiACIiACIiACIhA7ROQIlj790glFAEREAEREAEREAEREAEREIGqEpAiWFWcykwEREAEREAEREAEREAEREAEap+AFMHav0cqoQiIgAiIgAiIgAiIgAiIgAhUlcC0KYJtjVW9DmUmAiIgAiIgAiIgAiIgAiIgAhs0gfam7Jc/bYpgR0tuwfrsRVVKERABERABERABERABERABERCBNAJzmrPrWNOmCC609QklIiACIiACIiACIiACIiACIiAC1SFQio41bYpge7NzSzqkDFbnlisXERABERABERABERABERCBDZkAutWMcA1FBdzECitlcEN+XHXtIiACIiACIiACIiACIiAClRJAp0K3qivBzla33qTSE1dyPCdfN+Dc6r71rrt/vesdqiQ3HSsCIiACIiACIiACIiACIiACs58A1j/mBOIOyvdSlEDoTLsiOPtvka5QBERABERABERABERABESgXAIjIyOm5GDtKsHcVe7JNqDjtIjDBnSzdakiIAIiIAIiIAIiIAIiMFMIDA0NubVru9zAwIBbsGC+a2trnSlFnxHlnLZgMTOCjgopAiIgAiIgAiIgAiIgAiIwLQQGBgZdb2+v6+5ZZ59901KG2XxSKYKz+e7q2kRABERABERABERABERghhJAERyxcCZNTY2uf6DfLIODM/RKarPYUgRr876oVCIgAiIgAiIgAiIgAiKwwRJgXiAuoS3NzW5uxxw3PDxiyqBFmJRUjYAUwaqhVEYiIAIiIAIiIAIiIAIiIAJpBPr7+83Ns8cNDBa37PX3D7ih4WHX1Nzk2tvbHWFiBmzbNC94kHZpM3K7FMEZedtUaBEQAREQAREQAREQARGYOQRQAletXutWvrLa9fcVt+wRKIYgobiFtrQ0u2b7w0KIgiipDgEpgtXhqFxEQAREQAREQAREQAREQAQSCAybZa+zszsK/DI0POT6+vscrp9pgtWP+YAsF9HS3OLq6+sjF9HhkeFIGUw7TttLIyBFsDReSi0CIiACIiACIiACIiACIpCRAMFeurpMCezrc4sWLnDz5s2NlLxCgV8GzRo4ODToGhoaIosgp2ppySmEzBNEsZRUTkCKYOUMlYMIiIAIiIAIiIAIiIAIbHAEooAuNt8PJQ9XziRh+Yeu7m6b59fmOuZ2uNbW1mieH66iaTJo1sD1I+tdc1NTfhH5ZpsriHWQfYWUyLQ8tX0iAS0oP5GJtoiACIiACIiACIiACIiACKQQQOnDytfV3RMpgLhy1tfVu1Zb8H3evA43x4K7IGzv6+t3TY1NFvmzwzWahY8ooA0N9eYeOuA6zLKH1S8uUTAZmx/I3EAvkZuo/e4zpRMlUovLezLlf0oRLJ+djhQBERABERABERABERCBDYrAOrPwrV69xg0ODrm5ZuFrb2uzOXx1URAXlMPVFhCmzpTCdlMKUd465sxxdR11eRfPKPiLKYPrbIF4FDoigoaClXHQ3D8bbF5gk1kEQ0ExrDclsteUy3o7F1FEyY9yMI9QUhoBKYKl8VJqERABERABERABERABEdggCWAJ7O7qsWuvcxtvtDiyyqH0Ed2z2ZQ7lLQ1azpdjy0R0WKunFj7Qqse0FAOcQ9FEcRaGFcEUTBZM7CltWWctRDrItv57OlZ59at643yZu4g5ZGUTkCKYOnMdIQIiIAIiIAIiIAIiIAIzFoCfr4fihyKm5deU94I5DLH5vu1z8mt7ef3kQ6X0L7e/ijQCwFdktw+Sc98v2az5BH4hfyaGsdUEoLEIH4bimHPunWu29xQWT4CoURz585xCy34DJZDLJKS0gmMUS/9WB0hAiIgAiIgAiIgAiIgAiIwCwjgkknQF9w7Weev1SxyCxfOjyx9/vKGLU20lIPtS1K9UAaZ/9c/kLPc+ePin42m+GFB7DbLXjSHsGNMJUHxoyx95jbK4vPsj+Yf2jkXzJ/nOHbt2s7c3ETKEyiR8fPod2ECY9QLp9NeERABERABERABERABERCBWUQAN0uscih/uFqigOHSOX/+XDfHLH4oXaGg/KHsoZglyaBFEEWBY25ffH5fPD0unVj6sPKtX2/WRcs35/45nNtueeFWumjRgsiVlLLUWxrS9fe3WqCaLkdQGRRKSXkExt/d8vLQUSIgAiIgAiIgAiIgAiIgAjOEAFY3FL/Orq7IskY0z46OOVHgFxQ4XC2Tgq8wn49onUlKHvP3WDSezyzBW1DyiCbKUhAogyiGKHkEn2ncpNG1mQWw0fbXURbbHgrHdnWbQmjWQtxROU5SOgEpgqUz0xEiIAIiIAIiIAIiIAIiMGMJDA9b0Jee7siNc9GijSKrGnPtUKgKKVVE6IwLVsRIqezsMkteb5QnCiHr/WFVTLPYeRfTTjsOq2Qu6IuL1htsHcktHh8/l/+NIrhgwbwJCqLfr89sBCbezWzHKZUIiIAIiIAIiIAIiIAIiECNEMCtspASFxYTN8uG+oZIaWuzCJ5J1r8wfdp3gsesWbs2msfX2NgQrSHIOoFDFiiGNQZxOV1orp2sIZgkrbiHNqyLlp4YmZObf0i6YuXhOrEcFlNck86pbWMEpAiOsdA3ERABERABERABERABEZgxBIaGhl2vrevX1d1tq7e7KIpmloXWieaJMkh0UP7SrHbFQGAhnD9vbhTEJedSmrMqjoysj9YPXLVqtSmDPRYhtClv8QvzjKKH2pxEgtPgIkqAmqxSTFnMms+GnE6K4IZ893XtIiACIiACIiACIiACM4pAFFHT5sZ1m/JHlE8UQJQ6H2kziyKIJQ0ljqUbBk2Z9PFWWPLBz9njOwoi+aUtAxFZFk2pREJrZEMDcwybo3mHnUQhNSXPu36GsDkGN08ig7K4fCmKYJiPvpdHQIpgedx0lAiIgAiIgAiIgAiIgAhMCQHcPlH0UJyYT4c7Jla3hQsWmvLUbNtZyH2NG+gfMAvfsCmGOeWsUOEame/Xuz6yCJI/8/vIg0AyKHjROW2uH4vEY/UjmEySQhgqgOH52I6VMMrLyp4muIeua+q1IDPD0TXK0pdGqvrbpQhWn6lyFAEREAEREAEREAEREIGyCWDpY/4dFjLmwmExw/0T6xxz+pjfV1+33n635CN4Yr0jaEufHYvSVkz8gu1E7MR9k7X5Gpsa3KKFC80S2BQdznIQzPNbY/tGTFlkHb80xS/pfDkFdjhSKpP2sw1FceONFke7pQSmUZqc7cmLgEzOuZSrCIiACIiACIiACIiACIhAEQIoRP1m3UMBRHDjXG8WQJRDFLGW0bl0WO+8RC6htooCLpYoYMUExZHlG3qxBJqFEaVzo8WLI2UT5Yy/VlM6Fy1aGG3rNoWQdf+85JS8dEsfiiMK7YgtJ9E0qlj6Y8NProfrlRIYUpma71IEp4azziICIiACIiACIiACIiACqQSwzKH8oWBhreOPbczZQyljLh3uofyOvq8fidxEfYa4YTY3NUeunVjysggWQCJ8Npj7J1ZEFM7Q4sd3zj1v7lxzEW1wfaaIRi6cVsZVq9a45ctfjKyQ8XPhttpjUUP5azUrJlZNSe0RkCJYe/dEJRIBERABERABERABEdjACPSa9Q/LHBY9rGNe8eM30myKIEoiyiFROL2iSNRPBKUtSmPRY/pGj4l2FPgHiyCWQRS1QoFaKAvnHDAFE0WQBd7b2235BlvsfeXKVZFbKcon8xNxT33ppZej7W2WL/MLQ+WyQHG0a4oJaI7gFAPX6URABERABERABERABEQgTgDFrtcsaShbuGSimOGKiZWwuXnAretZF7mKErClw80x99BWixzaY0rfgOuwY5FWU9h6eiygjG0L1+WLn8v/xp2U+YDkWUhZYx9/KKL2fySUb+GC+Y6ooKvXrHUrbakIIpiyG8Vx8eJFkbKYFGDGn1+f00tAiuD08tfZRUAEREAEREAEREAERCCyzEVzA80yONzenlO4TKsiUEtnZ2e0H+tau+1DuYqUPlMEB5gTiHXOFLXGUQsfiiAWuqQlG0LUWefm4ZJqKqBZKi0aqc1DRDgfCivnYK7i0LBZJq28DRaxFKVWCmCOUy3/K0Wwlu+OyiYCIiACIiACIiACIrBBEGDJB1w7idK5fMVL0bIO6Fxzbe7e3LkdkeUOxQ0FDGHuHkFYWKMPRQzLHrtazNWTIDO4mhZTBKOM7B8sfYjPO/oR/BMplnaeyIJoLqJeSM9f5Dq6Prc9LQ9/jD5rh4AUwdq5FyqJCIiACIiACIiACIjADCRAABfcI3HfJPAK1jAsY40NOWWtzdwomYsXCgFVkHqbZ+eFpSGi+X22D+sf7pdY4UiDVY75d7iOtptLZ84aR3CYwegYv+QDx3RbOZhbSCCYRitLIUGJXG3rBxKVdNGiBfnlKPwxKIFr7NqIAkreaYpe2nafjz5rj4AUwdq7JyqRCIiACIiACIiACIjADCJAtM2FC+dH1juCqRA0ZWRk2A1aIJfBdYO27l/9BEWws7MrUuLm29p8XonjcyObW4dqiPUvFxzG1vKzNQRRAqNF5eFiOmSkCJpyua6u1w1aABnSooyhhLZYPlgEWWC+0dxGURaxHOKyifUuFCyRKKCrV69xL728MrI+oriSX48plMxDJN8FNh+Qc0pmDwEpgrPnXupKREAEREAEREAEREAEpoEAipKP5MnpRz0t7TO3zl5d3fhA/UT+7O3rjRQzlEgv5IMFj/0oiihiKJYobyiauH12dnZHih1WSJaMQPHDqufdQ8kLhQ1FsN/yIbon5VlngWdIH1cEOSdLR/DJwvKrLOgL5+Q3Cuwc2zfPXFOb7NxjtktfYn3OZAJjT95MvgqVXQREQAREQAREQAREQASmmQDKE0JglSGzwhFZxVv7oh2j/0RRPc3VE4XNH+P3M0dwlVnnUPDmzGkfXeC9KXIPxUrY1jYUWQj7+vss77mRYscSEgODRBfNzdNDuYwUStxDbR+/I4XRlEd+M78wFMqAMsiafywATxrOxTG4pfIpmX0Exj8Fs+/6dEUiIAIiIAIiIAIiIAIiMCUEcMH07pTM5SPIy6KFC8YpUljbevv6ImUsKZgLFjzmEzLXEGWMv1ByFsQ6c/scdOvnro/ywY1zaHA4nwzFLZoraEolgWNQ8rBY9pjlECU0rgj6A6P5hHYs54grqD6NPmcPASmCs+de6kpEQAREQAREQAREQASmmMCwWdBY74+5dARoQYGbY0s84IbZ29vn1rX05l0vKRpz/QbNMoe1L6fUjS8wSlzcAoeih5tnT7edp6fbXDdHXJMFk8F6FyltZrUbtjmJhJ/x7pu4gHbbmoK4kHI8v9dZeVBWi4mUwGKEZsd+KYKz4z7qKkRABERABERABERABKpAgIAsWNFQ2LDYzZ07JzFX3CdZTL3L5vKhfmGB22ijxRZ4JRdZE8vbkEXjXLXKInKaIoZ1EKWsyxRGLHJz5iTnG56MeX/dPT2RlREFDuVy/rx55h7aZnnkFEaijzZYZFEsjSP255VIztHS3BLNN2TOIb9x86QsEhGAgBRBPQciIAIiIAIiIAIiIAIbNAGUI5Qlll3oHV2igeUUiOjZ0dGe6CaJ1Qxr3AIL4tJuihnLPDBF0Ltyohg22QLvWPGY8zdsCuawRRMlgMzcufMSrYHxm7Cud10UNIa5hIsXLYwUQZQ5fw6v1LFtaNhmJgY6HmmYM9jb2xsFmKG8WChRSCUiAAEpgnoOREAEREAEREAEREAENkgCWNN6zOLW2dUVWeuYI8ccvUWmdBG0Jedn6Z0txyPC8tYxatVLcqVEEUMZbCNqpymBrMWHLLQ5g2zPIiiSWPJQ6DgmPA8WwDVrOiML39DwkO0bW2ze5825mavItXBtKIEsUC8RAQjU2UhCMHZQfShk39U37F7pGXGdfSOuf2hST1f9C1COIiACIiACIiACIiACIiACIlBjBNqa6tzclnq3eE6962i1CK+YpEuQSVUEh2wC6/Nrh9yKzrEoRiWUTUlFQAREQAREQAREQAREQAREQASKEFg6r8Etnd/omixYUVbJnjJrjqPpsARKCSwRmpKLgAiIgAiIgAiIgAiIgAiIQIkElpvhbbkZ4EZKcPacNEUQd1BZAku8g0ouAiIgAiIgAiIgAiIgAiIgAmUQQBnsNh0sq0yaIsicQIkIiIAIiIAIiIAIiIAIiIAIiMDUEFhZgg42aYoggWEkIiACIiACIiACIiACIiACIiACU0Ogqz+7DjZpiqCig07NzdZZREAEREAEREAEREAEREAERAACvYPZV2iYNEVQt0IEREAEREAEREAEREAEREAERKA2CUgRrM37olKJgAiIgAiIgAiIgAiIgAiIwKQRkCI4aWiVsQiIgAiIgAiIgAiIgAiIgAjUJgEpgrV5X1QqERABERABERABERABERABEZg0AlIEJw2tMhYBERABERABERABERABERCB2iQgRbA274tKJQIiIAIiIAIiIAIiIAIiIAKTRkCK4KShVcYiIAIiIAIiIAIiIAIiIAIiUJsEpAjW5n1RqURABERABERABERABERABERg0ghIEZw0tMpYBERABERABERABERABERABGqTgBTB2rwvKpUIiIAIiIAIiIAIiIAIiIAITBoBKYKThlYZi4AIiIAIiIAIiIAIiIAIiEBtEpAiWJv3RaUSAREQAREQAREQAREQAREQgUkjIEVw0tAqYxEQAREQAREQAREQAREQARGoTQJSBGvzvqhUIiACIiACIiACIiACIiACIjBpBKQIThpaZSwCIiACIiACIiACIiACIiACtUlAimBt3heVSgREQAREQAREQAREQAREQAQmjYAUwUlDq4xFQAREQAREQAREQAREQAREoDYJSBGszfuiUomACIiACIiACIiACIiACIjApBGQIjhpaJWxCIiACIiACIiACIiACIiACNQmgcbaLFbxUg0OrXfDI87Vmyrb3FhX/AClyBPoG1gffW9scK6xYSK7+P71lrx/MHdMc1Odq594SD7vtC+6X2lkKt8+NLzeDQ07V2f3pcXuj6QwAc+LVK3NlfN65qUhV2f10JYbzdjqtDAw7RWBMghU+z0rowhFD5mMd7ca7WXRgo8miLfVWY8jnT+2yfpPDTPMJNBrfZgnVgy67Zc2udagzZsK9jPhuS7lOVBaEZixPZevXbDGvdI5HHV8v/buxbqTGQnA7MvnrY5S77tdi3v3q+eOOzJp/+3L+ty5f+qO0p1y8Bx39J5t447J8kP3Kwul8tJ8/4pOt2z5oEOl+cpfLXbtLZUrN+WVZGYc9asbut3ty/qjwn7uTQvdkoU2IlKmXHxrj/vDvb3R0Sft3+5O2Le9zJxm9mEjNk60fNWQe/aVIbe6e9htsqAxUow3nt8QPZdZr+7FNcPu0ecH3EtWT/X2r4/uzVYbk1eTayugtPfZQNUra200JKNsvrgxGjhJS76qa9g9aQr+ky8O2oDjerfNJk1uu02bHNeTVeisrrTrQOa01ruFHYV72wxs3vd0v1thHFd2j0SDFAwubGXXvqk9o4Xe6pfs2gdGB+uKla+jrd4tmDOxLNXIIzx3Nd+zMN9qfZ+sd7ca7WWWa0xqq7McR5plpkR995K1UfIj92h1px3SkfXQaU/X1TsS9WEYnKat++e3LcoP6E0F+yzPdanvPlCp+xgwRzZb1BgZOaIfKf9Uo84ljxWrc/U2dV459TbXeveT/Vb+ITdg5W9tqndbWP26zSaNbtHc5PqylLrGX/58q7PmWt3lpdp1fiX1ry8Tn919I1E7+Jy1hU1maNnC2q8t7H5WY9A5PE81v89YRZDGGRn9KItJdKxlgyWFvzTJmi7t+Fra/rg1AF42S+gAJ+0PGY+EP3xGGT6rcb8ynGaDTDJiHUiEN2KEIdGCXUZSzi4p9f30zzieBKV07JOo3fPkQH4z32tJESyVS/5CSvjC43bZ7T3uugf68p2Y8HAaPwaPDtm5Ndw84fs6U/ouuKnb3fF4v4se4VgKLN1vP7LD7bNtS2xP7ucjzw24n17blbgvaeNnTl3gUAbjsqZnxP3oyk73vCljodz0cG7gYCtTzD5wwrxxHZIwnf/+2AuD7pw/dbm1lh+yyxbN7m9OnOd3T/i8xzpSF9+6zq20zliS7LZlszvj6Lmpgzw/vabLLbcOXRbZa5sW99evGT8AyHHVyCM8fzXfszDfrN+LPf+T9e6GTWS57WWWa/R8SZvUlhfKIyyXbz8KpS91XzH2peYXpn/I3nXvoUS98djyAbfn1rl6YSrYe+5p7Uep7z7K0/lW993ySK6O4Vr/9g3zo8Gn8Lr992rUueRxqdXb11u9zfnjQr19og1qFhv0v+HB3qje8gpsmA9W5hP3a3ev2bt9Qv/6u5eudZ3rRjsu4UEFvh+8c4t7+xFj9Va16nxOWWn9Sx7Uv2f/oTuxHka92MGs1+8yw0uozHJcLcjElrAWSjUFZaAC+fw5K6NOB6Mv/3DagsSzZk2XeHANbvSVGEXbfrOmCSUstn/CAdogAtNIoNT3k472arO2IFh5KnWJ2nmLRveXh3Kd9122mPg+TReaUrmUU05GZM/5Y5e7/5kxZTieD+5njKDTSJ5ycMeEDgHpSfP9y9e6Z2wENU3o+P3MFL1j9hpybzxozoRknWYlqFReNqsa1vU0ZYz8KeO3zZLyIVMGN5o3cbSbUeXL7jAr8T290cBMljJ5K0aSAuyPf/DZAfdfF662885PtGB32Sh0Vkk7TzXy8GWo9nvm8836meX5r9V3N+s11mpbnYV91mtMSrfTZs1Rvc27hlsrlvqpkkLPdTnvPh4UZ1sdSt2TRapR53J/OOfDplCnCXXy727pcc+tHHJvO6IjsmzF0/7p/l534c098c353/C49PZ17qFnB92HT5oX3Su/M60O8vuzfFajzuc81ah/H7A2EKZ+gCJeflTtx8xr65sXrXHvP25e4iBk/Jip/L3BKoJYqPzD6K1VSeCzpks6tha3Pb4819miAt1644kVaLH9tXhNKtOGS6DU93Nc52lJ5dXfmw+b6/Y2CwseBTsuba6ZG1Eql3IKfuWdPXklkOs/cvdWt8vmzQ4XHlx/brYRbt/Z+NP9fdGoPaOicTnvxu68Eohifoy5nu+3fYtZv+rdCnM3uurOXveEuWgifzQ33P3MpT0+H7M7UASP3bvNtQXzhuLnw2Aed1mi03KmKaN+kGCxuTS97sD2qJNJ54vrwJWQdHTaLripx33QlMFQ2E5ngM5dVkFB/oW53fu2iEHJ19p5N7fPdf0j7mFTAC+/qzeytlK2S27rce8/fvx5sej0jCqCcNl7m8LP4dIES2g18givudrvWZh3lu9Znv9afXezXB9parWtzsI+6zUmpcOt+QtvXeSefnnQbWuDebhdT5WkPdelvvsoBtfdu85dYooSdUpWqUad+5s/d+frZc576C4tbg+zqC4y13Wu487HByJXT/YxhWJue/2EwTcsgaESuK0p44dZPtstaYqmbDE4eKNZG7lO6u4/3tfrjg+mTTCNgvqtmNzyaH9eSY7HP6i0zufc1ah/UazPuqYzfx83XdDgXr1Xm1u6sNENmZ7xtE0xuPyOdZHllTr8Qms7Pva6+cUufUr3V94TmtLi6mSVEOAh9KPdW5vfctwaUmx/JefWsSJQCwTGNeQJFvFSy0jgpJ1N+dnQBBcsOgyIIYiUol3N/dELCg0uiD//Q1fkdsN2rFpxRZAR57ueGHOJOt1Gnw/cccyNdMGcZrezWQB+FuRzzd297r0x18ZwdBj33FIDiDHHhfoPYS7fx147Pz+njyZ70wVtpjzWu59cnXM/ZU4uQSN8sC1Ge398VWd+RJjz779Ds/MupVHGCf9cdntvfnrDJtaB+PtTFuTrZTq8cNzBrv9/fr/Goawx8vy8MQvdWrHkeUVyB3umX7NP6fNUq5FHeHnVfs/CvKv1fSa/uxt6W807urAj2U28Ws9HUj5Jz3U57z7u59SHXnYwBWqdWeFeiLmk+/18VqPORWmhrvPy1ld1mAI3Vt+ivFBvX3Z7vbvK6lnkpof7ximCKK5X2uCUlx2tzvmgDU5hXEAYRKNN3Ng8JhgwQ661ATymB8wzpRIJzxltSPiHsl5jnhUI7+qrdh0fm6LSOp98q1H/3vlEX14JxFr9/uPnjmt/sFhvb/f3fy62OtzazSdeGnTMqyw0552yTaXMKkVwrfkcE0mKycSMjPLnG2oPFZM3o9VM6PTCiO8zL+dGcYlCykTXrOnIg7xWdeXyI/AEnQCOf+aVQffi6uEooiBuRDwMTB4tJvhs00F63kaWGy0v/P+XWoeg1M5N/DyPrxireLZPsIYU2x/mN2idIJgx0ZgOCiPsjAZV+nBjWidAwyrrlBH8gIqDEZaw4xOWI/6dCfSMyDM3p70VdjZR154DBCW4p299VKn4bfHjs/xmFGmF3VfOwWgZz1nWoBiUj3u7xq5vIws8sdTuLeyKPRX+upjDNLetLhptysKETiMVN/fFz4eDAw1avz2jG8PWnq1y/darmT+V41N271+x8q23Mi+0jjeBMrAwxaWU9zM89okVufeceoHBkCQp5R7RWJEeoSMfRrCrJhs6fi/Yc/eyBRTosPu/xeKm6HzxCL7lckniUGjbMpuXQ32LoHyESqA/jrIdtFNLXhF85Pmx+ck+zXXmXsSoMUKDGSqBua25+dunHjLHvWTXzhzYVRaMBsUnnNfd3ZvLhbkt5dSTz1pd7eWgHVrySqDfxifzkBbPzc3jo47mHfKDANTV3i0I5e1dx8yNRoALKYI8NwSH8fLmw+bklUC/jU+C5RxnI8x3P5Wrv6nfwnef9s7L/CCYgt+W5bMaeYTnKfaewY86lLoUbnRAuaa0QFdJbSzbUMhXW32BlRNrdCnPf6F3N7wWvldS58fzCn9TR6yw55r5Ulw7dTRWrvDZDtP771naaup90r28dsTagPVRfUF9msbY5x3/zFrGUtjHz5G1fvPHcT8GrSrHSkT/oFQpt4+V9FyX8+57Dwf6m8zFO84Gb35kA0kvrEq/kmrUuQTU8oNGtPmHBkpgeOZX79UeKW88Q9xXnk+vxDEn01vjUP4+ECiBYR5H7t5m7fmQu9MG+njHr7p7nXvzYdmDEv3BLKacG9nP6uRNYoG6Kq3zq1X/3rFsrF994n5tie0PdTj1G3U3/eXHrd7aY+uxgdOQ23R8T+4JTUdJKjgnjRhzO6iwQsHi9ardWt2pQUSs2x/vc7/983i/Zjr0+O56+c93LbagBdnS0cHGV/rq0dGT9x471/VY5xDfaO+u4/PlRXqjBU7Y39yekoTK6Twz299h5nj/svp0dKqOM5enE/abMyGaFGlxXaJjto+5TYWdUX88n+Fo1g4JbmzF9vu87nmq3/3OfMP9CLrfTifshH3abB5P6SPS5MHk5Rse7Mu//D5fPnmJ3majV7xQSYIyf+513e5+61jlqo6xVFghGPn61fXdeRezL5+xyHWU6FJC4/PrG3rcUzaiExeeA1zSmBidJI++MBCVz3eewzRLrCH7K+s4hp07v59nAtcxmMefiR3tut5UoGKlwvmvC3PPNR2t99iz+UMbifRWYX8OlKIT9m1zx9p9o2HKKtXM//LRgCO+M+3LQHl4X7j34aBO1vc4HJjgPcf1BeE5ig/KlHOPbn7YJsvfti7Kk2AmB++UG12tFhsGW35hQUfoLMYFhQf3RRpcL+Vw8ceW8smoL8oZgltQmoReB+32jsTlsVHlkI7vm0wRShOsY599U/I8bo7pXJd7631nJS2fQttR5HnHdgosm/H0dEb8+4MiEZcjzD2WOYw8q35wMZ7G/37UAsp42duC4DCanCYnHTDH8Zck45S4hEGTpGPi26qRh8+z0HtGx/IKm0N5rbmK8Y7Ehffyfa+ZN2HwJ2xjiXR91xMD7j7qxNEM4IciWMrzn/buhmWqpM4P84l/x/Jz3o3JbQmDxgwKEGAoTYq11QwwnP+XHsfAYSi00cdbG51lILTUMpbC3pep1PrNH/fNi9ZG7tJYBv/l9EV+c9HPcvtYZFzouWZ/Ke8+6alD/+qYjtSgMKQJpRp1bkOgM6NET6yRc2dEwWuwTicDCEjY9q7sHHumGLwrNPC2s82bRxFEmCuYVRjkIZANQt/3hAQvh0rr/GrVv0eYjrHPts1ROTGGpAk8vbTVWGT35F61L+0M+CRaESMpcSWQotPoMDeFh/j1ByY3otW+xJuCeTHxvBlVoVO30Brr+AOD0vjdSzujkcf4cfzmfbzSlM0nXxp2Hzl5/ByRy61h9WZ8rjetw/T4qDWEzhmhfeNSbD/pH7CX+QlTcuNKCfsYvbnIIt8RnjxpZJ80aULkQa9MJ6Xh/v7Q7vMnzbfaW7Z8Otj83AJJEE0sSRg1/j+b/+NdF5LSFNtGg/oDG2yIN6z+OKxZl5hC8MKqYfcOUwjCivPPD/VGjfJoneoPyX/Syf/WxWvNvW7uhM7gL015DV058gfZF1xSvn9Ftuuio5ekBJIfLm4MXCCMTJYjleR/1V3romc76bx0Fm97rD/qNKIsVyJh5yluEa/kHhUrU7lsuO/MOUvqMHNOOjW43jC4MFX1m79WOiVH7TGmgPrt8U+isXlhza9QCJfuB0bIzw+EwIsOOJ4b7c31UVCWtAEgnx8dB8RbxKiLsKASEr3N8iD/QsuEEMjmlIN9bumfL49af0kR5rf1phZN1EbGd98qvfMez3VZoAjuuXWODW0WXhZc/4CNa9LRJVJpoXlQ8PLiFWHYMujRb88IeeAZgRKQJtXIw+ed9p7xHOMeVWgOJYoBbrAfPmn+BAuAz5+6ylvh/bbJ+Kykzi9UHp556uK0toRrO8uiwH7C2ro0ha1QWw3Ds//YnRjFl/eC6LRxF+14eatRxnie8d9TXb9V0sei7GnPdTnv/mts0Phwc3UMByrjfOK/q1HnMtiF4kbbwXPGoDZB0+Jyrw2ykAbBJT60IvcGc/sWzys8cjx/1BWUfBhAo57J4n107T25OXUct79ZA+N9PrZXWudXq/5lPnsxwWiChyDCAHSaN1KxfCZr/0RtYLLONIn5UvHhHnD4rq3RSD8WuWtNafLm92vNz/hwM4Hjgrffdq2RKxwPkZ/vQeOJJQ9BaeflzJouflk+OALWmr1s0j7rPz1hHfY7bASThpmGnjDnn3rjgnHuR3dZh4nGH+FFYbQdV1Iq5EdsXS0mm6JIYLWgQmKfl/ueHhtpIQ9e8HhEO5RQXKsQ3EPiSlGx/f5cvjLEfXa/7ZqjNVKeM/53Weh838Az0rmprSNWrPPm87zRFCWvyLKNEPFEYKQDA7s7LW/Y4Y7wA2tAP/n6+eMqE8LOeyWQrg4VB8fTeUIJxMIat176c2f5RMkLlUCsE5yDe0zl9sAzg5FFlvtzp4W/597wLCIozPjTeyXwADvuGAuGQdmohFHccYVFGbva0oVWgavNlSKcP8Wo925bNrl59nw8Ys8BLglpnYn4dfG8d9sAG25HB5q7HuvarOoZjp4rOo0IijiuIqVaSjm23PzhxbPt5cAducZmU6RtrSu7d39+qD9iw7ICG1ujc+L+uQGdct7PZYFrdNgRquQe+XIX+iyHDWWiw+uVQAI74Wa5pb13A/Yw3fxIn7vdFGSECJWvHn2myuFSqOzl7qMTcYkN7njXSOo07m0o45Qqq795lrFihO6SPj31+5sP74jeOb8t/PTzRajLGRi7zt6ruHUZRfNNh86ZMAgX5lPoO9HlvALC+7vp/LHmk/eqVEHR9UJ9eetjfe6iWyZ6kjCodOCOzWYlmpvoOtpldbsXOlr/a4NKT8a8Fuj8EX4dhTe00uaPq0IePq+094y5NL6NwNLPM7ut1ZXUZ7jLMyBEPc3fjRaM4rRDk93IuAfU89SH29kUBzqb1MlItZ7/Sur8qCAp//BeMJfU19t0cA+292IrG5hlGslt1lbRnyHdj67udH/3hgX5a/NZFmqruf8/vbYzrwTSid/fvISIEI4l5/6nB6K2kro1TcotYynsy63f0sqcZXslfSzyT3uuy3n30zyHslxHWposdS5KCJ5Lvs0987LOyBNjDxvAok7j2aJNvtiCUnk5PjY4zHQYL8/as1pIfN/Cp+G5L6YI0ue90dp9hHoifn6fV6V1frXqX1+etM+nrS6mz+/bctbtDA0FacdN5faxlmwqz1rlc1GZMrk/fMB2M7eKr9ui8165ogFCEWRkA1emcAQUxS/u3pQ1XdKl0JFlrSk//krn/jAb/fnG79ZEih3nvuKunnFrotz75FjFTMAEP7LM/CgUKnt/3dU24XbY+g6PmWIYKoK7WAh7f50ogIvtLy5eKWb79ksn3vZi+8P8mAODMuaVSa7vVeae9j/WAcGdhPmDF1no4Y9niIxEJ9lPKOYcR+/ZGnVW/PmYgxOxM9ddKik6AXQw/XoyuGvcaO6kXk4+IOdv738zd+kQc9f7lo1EJ7ly+XSFPq+w6IieL6PqHzl5/Gg1I3tE8/MTmymPVwRR9ig3wlzCM2wtMC8ovCgk37Fw9HR+WLuMypxOGx2RywIFKb7o7672jB2ww5D739/nXGR8noU+ecYJ4+xdObZyNq/G+Hz516sjRY5zswhqIZekaubPNWLxNJ0nktdaJLHjgshizMmC2Tnm8otcYYrykXu0R+9wOe+nj7JH4xK+7+Xeo6hQGf8plT0WcJ5t7hXv9N/YfQtHjwkuMGRtMKPq8OP9hVc5XDJeQsFkDID9+aHce7jS5ktHc4dHbywddSJsMqIdShg1rtnclL5+werUd5QOBQEWPmhr8XHtoWDl8OtYMWCQJjBlCsGHzaOi1M4b7+fvTEnz8lqrZ3iOKhGef4R2AsXe84s2Bv8wSIRCzZyY9xw7b4IiFy77cK65kXsWQRZRvXKDuVp1mQsta1kFXkpRsmrk4c+X9p7dbwOWvu5hioSvIzmO95xR8v+yNhsqy0ajW/s8w0+400YeFAQV8vur9fxXUuf7siR9oux6ZZiBTvot3mqy02bOlPXWqE737z/zpOIKcaG2+lpLz7OKwOKj1lbl37vNXcT8/5mXQaH3pNwylsLeX1+p9VsS06zbKuljcY605zrr+audrpw6lzIQTItn7iKLgtxrRhPa4CTh3hxvU0bia8AutUErL9xH+nz0CeOC0QMX7lCoq4vJNWYN9HUYA+dJ1sBq1PnVqn/j1/OL67sirsxhZYCLPq6Xw8xAMNXeO/7chT4n3r1CqWt038nWgQyVQIrJnJPDdm2xEebciAWVLyOIky0obriweSXQn4+R6jNs+/dsIU3kuZfHRoP53Tcw9rDER7LZ/2qbe8Zfkpxsc0eWmOsPis6+NvoXPzfHeEse3+MuWln2kwZB+WMxYq8E5ra6qIHHqvrV81dHVk+UGl75pLL4Y/i81wIg+JESFN43HDhxFDhiagrU9y7LsaNDMXJ4brTIm9vJC4U0ybWRiuQdR82NRmJJV4pwDeHCw8xVi09aJj8WTiX4QfdoMBruIT74vrIhDRVjGGmQbVjf/vHNC/k6TqhgGTVF6CSdctBELlhlsRwTfj+LkNZ3xHx65pMeYNaG6+7LdeKx0uzid5b4WWr+WH4YNECiexcogf7UB+zQatbWwSiMNdueWzk4zmrq0xX7pDL2FvEtLdBKyKHce1TsnOH+UtngEvb19ywOs5jwffetmvJuw4So9osqT0g4BRt49u8za0NcsEjQkfVun+H+dfaueGEUGqG+2CsaIDF3SFs+gk4v7x+DZwxU/NAUOVzjQ3emcFAvysT+YYmJnTZvipQ1LO7UGT4PrPt0kHmvsgjPB658PkACrpqHWoe9UvEdBCj8ZVSJRunHk4S6kA4982rwAkHgSyeeub6hoNx5oQOFdQwli7xW2vtMkB7cyBEGDhr/5MYNSLG9GnmQT6H3LF5u0odCZ5JBTAb7lo8OKMbn8ZJ+dxsES1ICw7wq+Q7NSur8Que+255lLwQU8kqg30a9RDv65fNWR5uefWV8P4GNhdrysF+BspxXAv0J7JN14VgP08+XDnZFX6tRxnie8d/TUb9V0scq9FzHr22qfpdT5/qyYaygbr3VlmdIE/rP8UidpMV6jYcGg3N4Ov3f5bn6NHSVp5+DezODrKEk9W3D/VgMvRdJIWtgNer8atW/Yfn5Tp82SeGlTkYJr0XJ1hLWYsmDMqW5IBK+1gvm5qkQRqvDkfvwnLgSYlHiIWF9LBQD76azjc0x8Qsqn2vzCHHtIUgGbpzFRp5pLH2QivB84fdlL+QUYkaCQ2uIT1Nsv0/HXBM6GEmCwrXERotQArlGOiFpaf3xYbS+Xc2dM+1aiUxII0lnEF9/XDI5H240XnY1y2ia7GydQljDvBTptIrJu/HALi3SE6b++PpenIcOK51bOheMnH3LJrm/ygJK4IoRH7wgvRcsc152K8CFTuN5N/qU6Z88I0mdcY4IOwth5zw9t4l7ysn/KVNevGy1cYMj4E+SEFnVC64oKI2lCp0nn3vcIl7uPcpahnLYpOXNoEmvDRqhnPhIxaT1k/rTjpvs7bgL+ZFbyuaVJsqIKxwdj3cc1THO7ZjOQigM3tF5Desy5l8ctfuwzZ9eG3lT8P5fYnOcwnWYwk4B9SvBRghp7gWl4di9cnnwLlM34Xb7N2ZdLCbUFz+1Do33CGD+87uto14sqmOxfNkfXj8kGNjB2wDLipdjzH2SkXvWT0RQ5JYtbx03x8u7SLEfXgxWMQjl5TX7OPd781hgigTC2mAEUQuV6WrkQd6F3jP2JwmdQ54ZnmvveguPaIBw7NXPH7pTcG/zG6v4pdI6P60o3qPF72fwNqnO4xmjzmCQzA8Ihs9bobaathehHd19q+SBb9pR2sMkRbBaZfTXWOrnZNZvlfSxynmuS732UtOXU+dyjmXWFn7flLew/uF5wUWbfrIfgGZwGEURzy6CzYXyziPnujMtPgF1KfXvN8xjCy+Lra0dJ+I7A0/eEyo8LqyXwu3+O5FFfbmwBqb1H6tR5/vzcO5K6l9fdv9JH7jH5lHyLMPTnwePDwLnEDk1LWCkz2OqP8ff3ak+exXORwc87MiGWaYpZGGaan9fuiih5QpOwkPCKAkdDEY9/WTwI3Zrs8iQFvnTOirsw42HP14cXrC9bT7evjZSXmjCf3CacV9RnHDVQlAG4lFFi+0PM1u6yGqMAsL1+8YIs3jai+yzCEeiWSIjTejWEF3TK8u4MtHxfC4YMd3Mri1NaFiZh4MyVoqEHSTORz6lCJ26oy30u+/IwebXN3S7X1smTNymQT7QrF7xwQzPkHMtKcAFiyIKZVgxJpUPy4wfdIjvZ+HuSqWc/MO5TbjVetfaQmVJGiEvlN7vI1yzl7hFvNx75PMr9lkOG58n1qyo828DOVhrUYRqUWjYwsaNzv1tNqfuSlsMnmeTNbOIuPu+48asWS2mtIVCAIVQCfT7eO9Q7r5p7t0IHRk6GT4wCh4Dh9j8NwSraKgERhvtH+qh9x83z/23uecjzLvGgyJUuqIdwT90iM65ritvkaMD/QErf1p7Exya6StBbPyoNAd81NwEk9osopCusCBUfh40nYlwjuteFoZ8sb3feGn4iKXxAuCOhEXcW22ZexwqgtXIg3MWes/Yz3Nxi7nB0lF82gZ1uP5I4WNnRvH3PWPykpNVWuennTDMlzT/ePbKtKT57bzvWF68taVQW83gKAo1wiB4Wn3P/nBwjd9eqlFGn1eWz6ms3yrpYxV7rrNca7XTlFPnovyfZXNPvXKCgveWV82JvCPo2/B+ck+IXs8gHnXkj6/qcn/3xvnjBvGwCn7IBtJQKDkGTwQ8Fx59YfxVMuBNwKrHRgNjFYqWyfNL3YCgmKbNDWR/Ner8atW/lCeUv33D2GLxtCH0Oa+yaS1EfscVF0MP72e8zxfmMdXf03vOU12SMs8XjpSVmUVVD4u7esQz5wH2ssY6M1uM/qCz8zEbDWZeGI21f1F5yR62Tgt/zKV748HtieZ6n2fSJy4AvvsYt4aQvtj+MM8FNvJfSMLrQ6ktJuGIaDF2YQeAkSgkdFEdnOhFM+703g1x3MYiP6jEvITn99uyfNI5W2T3/XqbOxiOwtIx4w+Fn2AgLETqrYTeCkn+IdOk88GtmCJYP8kvSjn5+05L0jWlbfOWprT9adv9/A4wEPI6LuXco3geab/LYUMDwjwlGpCxJzDtDLW3nQEs3IrwaPi2zYGlPsMV+JmXbZu5PSJxpYdOQ5rQ8cBS4u8/nQb/PqKYnX7EmIKZlgeDbrhN8m7BlzzaW9KbwN/8pTsfrCln8Z/rti4jKExaeegUEcDJS5yH387nbuYG7BXBV2xduFCOCJYPCbfHv+9mfL0iGIaAJ1018iCfQu8ZrmxnWSAT76JN+lqUatT5SdcVtnVJ+9O25QYLcgPMhdrqsL2d3154QHr+nOT91Shj2nWE26ejfqukj1XouQ6vazq/Z6lzCcznYyXgoUYsCwa4vJAHMQIIZvi90Sj21JMEJjvavBNCwUCBiz2BZ5iv6NspcsPFOxrYMxf6f/3l2OKIuPunCdZA77FFYLFCRoRq1PnVqn/Troft9DcwvrzXplP97NqcRwcDX1fcuS6aN1/o2Kncl94KTmUpZtG5vGtL2iWxoKeX0HWVbVRUrJHEi/rAM/2Rm81jZgngRUQYdWENxGhel1mRsko4p2CHJRM7W8X2h+d5xUaJCskrwRozXE8xIVKVFyweSW6rfj9BKLzMGXWf2nKjBvPJzm1lYde0ziSKY8je51Ps05+HdKESV+y4+H46WvxhDWbODgvTskCsr/iefnnQfcfc3z73poVRIIeN59fbKFouF56pJOXFn8M/H/73TPkMGwUiYu5ZYIFVJl43WW1VrIOTdO0onC+MWsSZh5TW4S71HiWdq1rbWMeUaLNeaHR3sCBPC0cDXmHJ4hmiQallQenDLZRw5Aijo14RjDf0uMoVEubmekWQyNDlCOdY05ObpxUGq4nndam5Uvp5e1hW3mP1cjkuyfF8w9+LOxrydUqx+Yp4kngpVG6fJukztAL1BPMzk9KmbSuUR7H37CfXdOavF8+WvW3tLQJPdLTV2TuZC1F/plkYfKCItDJM9vZq1fnxcsbX0Qyt4/G0vr5ju/ca4nuhtjpsb4u1CWltYTXKSDmLyXTVb+X0sYo918Wudar3F6pzaTO8sO5hqAT67XziaXSoeVlccHMu/ZO2MPzRe4Ypct85F5ZBDBY8c0PWVcXTyXudwc4PUNBm+ei+8ZzoW7FMFEJ9W8gaGD+22O+0On+q69/jbP1OvHuQUj3Til1jpfvHWpdKc9LxEYHlq8eUlTgSJta+OKoI8gImBR3hGF4Y1uHjj+7OQ+ZWdamtUefdBe98fMAiRpagCI5GYGOkJr5+IefLj3al7CeNF9bJKyR+Lg1p0uakhcfPax8bjVpuI8ZpgsL00tqxSmze6IjnlqPWBY7DtfbV5oYZWgl9frdZaPZyuo6h4oEloZg7mT9f2ifuWN4lKwqTbGHS/fqJjJQzN5DKdQsLaGKOVFE2hbgQUILKdibK3ODeYzGdrGAnTzA/cBRRkkU8zi7rPYofV83fBMjxgttjksWLcPPTJSigzF9C3mpz0rwlO6k87cFUpXDeyJZmLcTS5r0fcPtmlDpJqDvDuoX5LF6IuPnQKC8aW+bapcmLNjfbS9oyKdfZYudXj86nY14wwb/S5gb7vMr5ZM4Snh5IWofM5+tZ89tbQvmOBedXo5F3WV7ldQXWy8Ui5wXrqpdq5EFehd4zOnp+IA23r8+cumCCiy3vaIu1i9OtCFa7zvecw/tGZ3e3LVsKum/648LPQm017yDeIbQrrJ/JffUd8jAPvvuBsfj2apQxnmfS7+mu30rpYxV6rpOubbK2VaPODZfsWWQDUYVkobmbewmXWmAbdTZNKt4uPMtYEpMih1I3e9lxaXPq3OorLZqudxHHGljM/b4adX416l/ctokYjzAl4cgC3hlhGxm2g57PdH6O3enpLMU0nxu3Ot9RLFSULOmYexJ/aXyetz7al+/08NJ4bz3OjaWIv7hFETWJEfU3HZZbP428ShlNwBLmOxHMwaMCDKXY/jAt35lryBydJMEP3Df2vlFKShduC5fBuNciqnm3hTAN328xdt56RiVB6G0kCqYzeklw+ZXNv4sLna0LbTmLcgReoUL7p/uSLTCU+6u/Xe2+cO6qKOKb78ygqHFf/dpQYRlotF9rEV/D+T5e2WedPy9323yeNC64esxUCe/9fbYWo1cI4tdDpYnrCX8+NHo8Db/T3s/weY0vPcBx5d4jjp0sYQTWC8uTJMmDFlEyi6RxyXJsWhryxM2Qv9vs3Swk4VIAC0bfW9LTgQitwDznafKYzT9hfgWCchZaExmNZuF6/q5/IP19QJH0zw/KSFJnI7eWX66uoH4mwA3LvEyGEOjJtwHUEb5s8XPRPtxrnL1ssmCs2WZeD2vCce3XWkCZQpagsPONx4GXauRBXoXes3BdQ5Z2SmL/jHlFhHMmffkq/Sz1+a+0zk8rLwMPRFtEaMu8lTwpPS6g1Hc+2itpsrTVvjPOm3LTw8nvJc/Zg1bfJkmlZYznmca+mvVb/JxJvyvpYxV6rpPONVnbqlHnhtNveL4KiXdFJ01oyeP5+fRPV7rP2N8Xz10ZBe9LygdLYOixsoutgZwkDFD55UyyWgOrUedXo/7Fs+GBZ3LtINdaaPqRj/4Mg4VFlPAkTpO5baw1mMyz1GDejGB4oZPt1/bx2/xn1nQ+PQ8ok3HjQR0InMJiyV623XRsNGZ193C0Bh/r8P2nKRNho+nTe0siv7ey+WSh0MEhvPl/Xbgm/0L5/Uz8ZTQdSbKGFNufO3LsX/L6uS2O6c39fg/WsrMttLlXqAu5ePpj+ETJ9copnRjCo/s8fDqUqHCtwf23H3Nv5dhTbZFoL1QohN7+jU12vvDm7mh+EuuP+dEmny7+WYjhQcFC2Cx8/4BZaOPya1vCYYWNDuG6xkibt0pebvO8uK/ftKhaP/+DXVvsQJ4TRnC9EJoeIeiOf/aoeJO40JHwkQD98dX+LMSl0nOxVqZ302SwgvUC4/ee4Ag826z/xl98sXHPiLKkvcd+oj9vfJJFvNx7VOn1Fzo+dPNKGvi52kZQw4Y6nlcWLvFjSvkdLg5/jSkgBIOJC+/c+Td15we3UL7iijjr8dH4I0RVwxoXF+rmn9m744XnxtcZbCNSJsohgrcEgVDiwjtE0AMvu5s1Jh54i2fLW9dIR/TNUjwvfN5ZP+m04xKNoBicefnaCZH2qC9+eUNXZG2LEto/YZlgt48FEkN4dyh/0qARI+7eLYm0YWCfauTZ/XlxAABAAElEQVRBnoXes9D7JSnoEXX/ObYGYrWk0ue/kjq/0DUcYM+qF9ZvY7HpuDDo+W1bH5b6jjbDt99Z2urtzMrshUixWLNC4TljwflCCnclZeRcWdhXWr+F15TleyV9rELPdZZzVytNNercMJAWfZnbLaBXklAP3/zIWD26Y7D2NIPwvh6nrvmt9Wvjg7g8sxfe3BO5jJI/xxxoUUCThHUrfbtPfch638WkGnV+NepfFOudbK1rBBa/tDqMAZu40Ie9xLz6vOy0+dh76rdN52dtlWYKSeCK490oOO3/WSOM+89SG7E7es+xxYKzpguLjkLw77ZI9y4W9p9z4E7JqK0fLSBS04n7jSkvPPjMP2HEgIr6J9Zh2deUHeYF0XnCynizLSjsZR+bWxHKZRYK3XfEWFOOjpJ3CQnnFIQWGH98sf0+XfjJyBTrBbLYO+5IL9u8wEeCEXuu+U2BchYeG/8O37+2aH4+nDGdWxQ52KEkPL/S2Flj5isaKrITAnbkRzQwLJHXW9AVBKtq3LKKglVvvUVG3pOkEMMj92izSFpDUUeKV/wnpugzZ29nK0unKSrM+QsDIByz15jbLoux+rV6GDk609ZCZDmITewZwH2HMnsrKr713vqIInnG0R02qJBTHj2XXW1UjX3P2NILSQMGSddWybZCXCrJl2Oje2/RIL9vYah57umoPv/boSiS6qY2H+wV48O8Ad+xZbT6oJ3G2Po8Cr3HvHMMwiCMxie5A5Z7j6JMJ+mfXSyarB+x5Z1mXTMizOLuheWd+qSQlFNvFcovvg/3WRpSlFTuD8o6rr2ED59nbr68D1igPHuOP9LmpMQbeSx7zFXx61j+ziz3XNvO9o402PvK8jKsa+atgXgaYEUPhW0MKN1v7xf1BJ1n3jXf6WEw425b2NgHYOIZOGn/8VZWLDBn/6E73+kmfyyuhayu21qnm+UdKpGT95/j7jLllQEh6oFvWWTUaO6c1Q8MKrH+Yfiewyru+sryGCjRdKawIDHohCJDtFruDfUTPLywqLGvZ/y2SvNgANTf66T3jMFLlHfKgzvV123h+D22boosuwwC3fdUda2BlT7/ldT5nmnS57G2FvAT1pZQn3PPv3dZp6Nd3n5Jriv2qMUECC0HR+/Rmh/kyNJWH2NTIx6w55Z2joEY5lzSad/c5tIzqIYLdXwQN17OSspIXlnYV1q/xctc7He5faxiz3Wx81ZzfzXq3NfY8xeuy8rg662PDth0lQZ7Py3onD0jT9hUorDOoY4+3PpYoRy/X5tbdlmuDWLgDaveobuYS6el5fn6swXG895NHMeAH9MA4kL74QfuGJA6fp/xdXs8vf9djTqfvKpR/x5m1+3baiI6P2WeDegSzOsesnf8WavfaMO8lxjtD/ehlmSDVQS5Ccy98QEZmGflJ6seaq5Y3lJRSjrS0sjebC4ZKEs+P7Z7oTFkkng4asa+1x3Y7n5yzVD0EjFa55eP8Mf5T142TNqhsIi5Fx42/rwiGLplJSmCxfb7fP3nwcYMF054hSPMfj8vMxGSikW69On5pKFC6YksZnYpjA7/+aGx+Sw+LR1PwshzjriccojNU7IXjMicsPeC0nSErZnFQvOsB5YmhRhSfVE+QmszwkoDS2c13hnHzetkW1h+V3N98oLCyHPmR9foxPtQyj4Nn7hesIZaKHSsT9xv2F0+GhAELjc+OJ4LllfWkAvXUwzzqPR7IS6V5s3xdNbffmSHOxdroP2mM+wV4zB/InwxKd0/1+G+Qu8xQXi8NTi+bITPo5J75POo9ucB1pFnvTc61yjJDPT4wR5/rr3NZRGXwDQpxCWs39KOL7b9Y7bcAV4AvhHEonbf0xOP4v15rdVvaY3fifvOsXs+kldWUOj4iwvzlz5y0vx8KP1w/xk2jw9PBW8lhR1/cWFu3EdOmjdhPguKkh+o88cUct0jDUpnpYoggxjvtLoFl3aUXSyXXin25fCfR5lScKrVc3FhTjH1IvcC5YJBMKJPJwmLGr/58OrnQcex0HuGxZb5i781Tw2sBZTxuvvG12UMkA7ZzqT3P+laim2r5PnnmS23zi9ULgZ232PrUH7HIunybnO/eGb9cxseiwXo2L3GOoxZ2mo627S/DAbQIecZzUUdH8uZazvCnqXr70+2BlVSRn+WYuyrUb/5c2X9LKePVey5znruaqWrtM6ln/H3pyyI+kK0jUjSsg++vPRlmCMd769iuDjR+jp4GjAAxWDbBTeNTWfwx/N50v7t47wYwn1X2PJCtPvIwTZo7qf85LYU/rfSOp/cq1H/7rVNiwV5NM8Ns/DzPrPsRtq7xSDZBy1Sa5JrfOGrndy9M1YR9KMLjQWsyA3BCERSuuOtA0LHAGsboxc0VjRSccmajuOwEjEa+7ub102wPtHpZT2ncH6LPxeN+WdPWxi5MzKSPk6ZsetgHSE6HZjE43Ksrb/1y+ttcrgtyMtCwYyWIDyUfsF2rE1+uz++2H6fzrPm9+bWWL/aLKYX2cg9QWxCXIxUU9n6YCj+eD59Hkn3gf3Mw2l4jXPX3N1n60uNt3Ywwrj/Ds3uJLMExt25OBbh3h23r3U2TeFj5H/tuuHI+sNIIPsQFiz2MrrJ/3RpDH0Cys86ZFfe1RNZ+MIALZRvc1NSj9u3LbJM+GP8J4E+sNJefkevjYbnOvZ+HxUzcwRPOcSeRVNk43K8VbZEy/yjLe4afyaOtMYcBRerIYIiihUlL9HvnNtZGnfSNganjacryKUK+XN+XN3gi5tr3EUbtriLoESE8xQ4zkuh9/Px0fWLSBvOxfTH+s9y75F/rskn/O4qZMOz8InXz4/Wc3rQlBRvFeU81B+vP6g9GqzyimBjeN9JZFKISy5FZf8yqPUha9SutrDf91qgJjoDKK1e2M8cXuqkQsFWeKc/cPy8yKp1sS2ezih8XFDWT7cBg9DFMEzDAAGh0C++tdtCnQ8kur5Rx77DFkL2a7KFx4fvQLi90Hfm1hWS8F0qlP/e1pGA0y9sfalwTpjPG47HmFcC9VuawJdOIi7xWNji7RiK/5F2H06KWVPD/CrJI8t7dtgurdE7fLG1HUx18O5gPLq841h6z7LBOhRBlJHwkQ7frfB7WP7492LPf5hP+N3nw7Zy6vwwr/C7z5dONYNauKTfsWxgwvPu2xIGevwTlrWt5hx0bv/G8v/9reY+HmujsQQzlQK2vrMaPqeVlNEfy2cx9pXWb5SZyKpxvuHv8DtlKqePleW5Ju+4hEwLvfvhcWF9klSfk7YadS7tKG3L5Xf0RN4CBKPzHlecgzaXQXcs9gxE+HnM7AsFRZCAK6yLzABWXHD/JU3ohh6moT9z32g0aQb3jyvRSlZpne/LUo36d9/tWiKPo0vNO4+Af+F0H/jh4cRANP3/tD6sL890fNatN5mME9/y1MS5HpNxnmrlScceEjyQ8dGP8BxJ6S69vScf+fG9NtpHBY6Qlo4/kZVY8DdcKiHMM+k7VkFG9OjYo8SFjWJSel5kbmRYmTDSc6a5niBYEt/2qvFrbRXbHx1Y4B86bIzscl6i+IURxwocVnQXLiyrrGLhBSKKHMpckhWQjGggHx3t7JMmtMaFJ8Kl7ovnrIpG/Rl1+pfTF4W7o+9JDCcksg10dplzQJ7wpnOaVlnGj2fUnGBCWPGokLM+E3Tsokhw9kxh5WTpETpLUyFZuVSjLDz3jKhxL2GDZdl3hrLkH38/mWuD2x/yb+9YFHWSiuVT7j0qlm+5+3m/CPfOsw6TNIW4UP4hl2briFYatYww8zyHofBeLLcBNc5FGTfivQgTZPhOHgSkwlrCM09jT+c1TQFMyxJlAve4IcuPPLA2JSmAacdP13Y6R1w7g1m0R7QbzGsN6/ViZeM5YbH2lVY3w3CR1XfkQQcvq5SaR6nvGXUn9RnXyL2NP0tZy5k1Xfj8F2rf0/KrpM5Py5Pt5AsH1i7k7tB5TrpP5bbVXDdtNPUpCmLW9iYsc9YyhseE34uxt0eg4votPF/W71n6WKU+11nPXa103Jtq1LkM4uGRgLEgS38zXn7qK4wOXb3ro/7zxtZn28IG3or1W+P5VPK7GnV+NepfroH2lfcO2czaL9qg6ZCDtxnv0ptWhhlrEUy7oHK3Z3WVypqOcpA2yTqWpYyMmCVZiNKOjY9+kc5Pcub7Dha6Ny7F9sfTx3/ToMbnmsTTlPObxqqUButcG0n3c4hONjeE42Mj57jKMonXu34x/zBJkhgmpaNRTbLqJqWNb0N5K6dDSoVa7jnjZSj1d1YupeablL7U5z6eR/h+ct+9dZkOFh2hLFLuPcqSdzlpfAexnGP9MSEXFCQCGFUiSW6KvBfhmmfl5E8e1CmV1ivcb/5mmtARSxvMynotKBIsw5G2FEeWfErJo5z3jI4RVoepkvD5L+ecldT5hc5Hvlme03Lbaq672BqVhcrHvqxlTMunGPtq1G9p5y60vVhbU85zXeh8k7GPe1ONOjc+77jUsjLwt2DORG+1UvOpJH016vxq1L9cA0aRahlGKmGS9dipq4mzlkjpqkbArzlEhknzA4vtr1pBJjEjOiyHm8vRNaPrfl1uc2NwU9vKJj9vZNE719gIO4EivAUEy5232E5isZR1DRDAKsKIKbLdaDCG3K8N+99q+IBgaZKIAAT0nk3+czAb2urJp1TdM+i5ri5P5Va7BKQI1u69qahkuPNRkSFYkuLuZMX2V3TyKT6YuZPPvjIcRVelf4prFX9xwYLJxOddRsP9xvfr9+wiEAbz8eGuZ9cVlnc1rGHEvL1KZGcLFiARAQjoPZvc52A2tdWTS6q6ueu5ri5P5Va7BKQIVuHeEHbXu3G2mCtGLQg+2yg+/CW5QhbbXwvXkLUMuJF+2CIB/sWitd5ia9+8uHYov5YLrhObWhjfzRfngu1MpTtS1vIr3eQQIMqrfy+TXKMn56y1nyuDQm8+bGLkyNovuUpYiwT0nk3uXZlNbfXkkqpu7nquq8tTudUuAQWLqd17o5JVQIDGEx9/AsNM5Ry3CoqsQ0VABERABERABERABESgYgIKFlMxQmUwkwnEXWFn8rWo7CIgAiIgAiIgAiIgAiJQbQLmOCcRAREQAREQAREQAREQAREQARHYkAhIEdyQ7rauVQREQAREQAREQAREQAREQASMgBRBPQYiIAIiIAIiIAIiIAIiIAIisIERkCK4gd1wXa4IiIAIiIAIiIAIiIAIiIAISBHUMyACIiACIiACIiACIiACIiACGxgBKYIb2A3X5YqACIiACIiACIiACIiACIiAFEE9AyIgAiIgAiIgAiIgAiIgAiKwgRGQIriB3XBdrgiIgAiIgAiIgAiIgAiIgAhIEdQzIAIiIAIiIAIiIAIiIAIiIAIbGAEpghvYDdflioAIiIAIiIAIiIAIiIAIiIAUQT0DIiACIiACIiACIiACIiACIrCBEZAiuIHdcF2uCIiACIiACIiACIiACIiACEgR1DMgAiIgAiIgAiIgAiIgAiIgAhsYASmCG9gN1+WKgAiIgAiIgAiIgAiIgAiIgBRBPQMiIAIiIAIiIAIiIAIiIAIisIERaJyJ19veXOcWtta5jmbnWmfkFcxE6iqzCIiACIiACIiACIiACIhAuQR6h5zr6Xdudf961zuw3q0vN6MqHTej1Ki6OueWzKlzm3TYF4kIiIAIiIAIiIAIiIAIiIAIzBACbaZ58beR6TMvdjv3Us96NzKN2uCMcg2VEjhDnnIVUwREQAREQAREQAREQAREIJXApmbY2sQUwuk0b80YRRB3UFkCU58l7RABERABERABERABERABEZhBBFAG20zHmS6ZMYogcwIlIiACIiACIiACIiACIiACIjBbCCxsmT4dZ8YoggSGkYiACIiACIiACIiACIiACIjAbCEwp2X6rmTGKIKKDjp9D4nOLAIiIAIiIAIiIAIiIAIiUH0CBI+ZLpkxiuB0AdJ5RUAEREAEREAEREAEREAERGC2EZAiONvuqK5HBERABERABERABERABERABIoQkCJYBJB2i4AIiIAIiIAIiIAIiIAIiMBsIyBFcLbdUV2PCIiACIiACIiACIiACIiACBQhIEWwCCDtFgEREAEREAEREAEREAEREIHZRkCK4Gy7o7oeERABERABERABERABERABEShCQIpgEUDaLQIiIAIiIAIiIAIiIAIiIAKzjYAUwdl2R3U9IiACIiACIiACIiACIiACIlCEgBTBIoC0WwREQAREQAREQAREQAREQARmGwEpgrPtjup6REAEREAEREAEREAEREAERKAIASmCRQBptwiIgAiIgAiIgAiIgAiIgAjMNgJSBGfbHdX1iIAIiIAIiIAIiIAIiIAIiEARAlIEiwDSbhEQAREQAREQAREQAREQARGYbQSkCM62O6rrEQEREAEREAEREAEREAEREIEiBKQIFgGk3SIgAiIgAiIgAiIgAiIgAiIw2wg0zrYLquR6br/jTrf5Zpu5pUuXVJLNpBz7yCOPuvXr17stt9zCzZkzZ1LOoUynh8DatZ2up6fH7mu7mz9/flULsXLVKnfppZe7xYsXu2OOPtK1t7dXNf+pyuzFF19yq1evdhtvsrFbvGhR6mm7urrcddf9yd6TLd2uu+7iWlpaUtNqx+wl0D8w4J5//gXX0FDvtt5qq9l7obqySSfwxJNPuQUL5rtFCxdO+rl0gplJYHh42P3p+hvcsmWPu91229W96vDDJv1CaBNffPFFt2DhAreVtXcSESiXQJ0pF+vLPbjQcbc81Vtod8n79l4yucbLFStedAcfdoQbGBh0Z373f92pp7yh5DJmPeDZ555zW26xRdbkUbott9nRDQ0NuV/94mx31JFHlHSsEtc2gbe+7Z3uhj//xZ3xzre7//raf1S1sOdf8Dv3sU/8XZTnvXfd6jbeeOOK8z/x5Dc4Gr5PfPwj7vWve23F+WXJ4KhXH+8effQx95lP/5371N9+IvWQf/3SV9wPfvhjV19f7275y/Vuiy02T02rHWMEGIx48skn3bLHn3BPPOE/n3BLlixx55x91ljCGfLtx2f9zH3xn//NLVq00D1w750VlZrO3Sf+9u/dP3zmU+7oo46sKK9SDqZN6uvvK+WQcWk7OjrcRjYAVMvyyiuvWLs2XHERF9p9bmluTsxnZGSk5HM0Nzfl83r9KW9yt99+p/vHz33afeJjH81vL/SF+nF4eKRQkor3NTU1urq6uigfunGr16ypOM9CGTRYnVrNgUoY0Rfy9c3jVvc8aXXPE0896b79P990hx16SGJxfvmr86JBwY98+EOJ+xkEGrS/UoX3pVzhWug/Pv/8crfP3nu5yy+9qNysxh334EMPu87OTnfIwQeN286PD3/0E+53F/3evfENr3ffP/PbE/Zrw8wjcM+K6tYZB2/TlgmCLIKjmL5vnUeUQDqQe+y+m3vppZfyAJubW6IRQfZ/53tnWiUzmN9X6AsVy8c++jf5JFRQX/jCv7hzf/nrqMP/znecnt83lV9WmWUla6Xe29vrmq2BbWhomMoizqhz0QhgTc4iO+24o1toI3ihTNJYTHSKe+65N/qkQ1gNJZDM7n/gwUgRXLVqdZS3/+eFF5a7W269zf8s6XObrbdy++67T+oxMC4mjz22zP3EFADkkIMPtOe2adx7zHY6MrPdSkg9093dHf11dXVH1mYspVid+Z37vs6tWLHCPf7EE+7xx590L1uHPEkeePAhd9XV17rjjzs2abf79ne/5y648OLEfZVu/MGZ33E777xTWdkM26BZNQQl4u3vfJd7zqyLZ7zrr90XP/8596EPvn9c1v/+la+6a//wx3Hbiv1YaBamC88/r2Cy0+28eIKUK29582nWof5GuYdPyXFvPO2tkSJQ6ckYHGKQKEku/v2lUac5aV/SttbWVvfksofyu5584qno+9IlS/Pbin357pn/5776tcll/2//+kX3wff/dVSUl19+2e2938HFilXRfpTOu++42W2yySYT8uE9oX7p6VkX1S+5+qfHdfp6x+qjnp5ut2ZNp3vqqaes3nky+qRPlSRf+vf/cFdcNrFe+f3vL3Gf+vRno0Oom77531+bUJ9/yQYDz/rZ2UnZFty27JH7y/a2on/0vve+x33py//p7rY29+lnnqnYE+GSSy9zH/t47pk+95yfucMPO7Rg+au5kz7JU08/47bdZuui2WKgGBwcdG1t2ZSOohkqwZQTkCJoyNeuXevOOfeXEXwqtCOPOW7cjcAChyVulbnZ/fc3/mfcvkI/tth8s3GKYJ2rc3fedXfk4vnFf/mSO+jAA9yOO+5QKIuq7/v1b37r/uGz/2QjifXuO//7jUSLDh39b37rf909997rXnhhRaQcX3rxBW6fffauenlmQ4aMap5iHZos8pMffd+dfNIJWZIWTMNIIc9jMbn5llujJC2tze5Gszpmke223dZttln2To/P866773Ef+dgn/c+SPt9++lsKKoJZMvv8P/9rZDUn7V9uuiWxY3TWj3/gTjrx+CzZzcg0N9zwZ/fWt59Rdtnp0Gy91ZZuhx22t78d3I72WaiOwmpVibJSqKD9/f2Fdk/JPgYGz/zet937PvBhR2cbi/OTTz3t/vMrX8pbY1544YWSGWSx1NHBkmQjMDCYbgEaKMM65M9K3wD3eoR3oZakt3ddvjhpClU+QRW+oByknefUN73N3Xrb7WWfBddb6pwdt9/Obb/9DtF3zuctnj7jI4880r3KFKIb/3KTDUBd5J559ll3zs9/agN883ySqn4+YQrr5/7pC5ny7Ozsyqd793s/4DbZeKP870JfvvofX3bbbbfthCT77L23W7hogQ3YveTe+74PufN/80u35x67T0hX7Q3c4xNOfr17+OFHojb5kovOj/qA4Xm4N9/81rfdtX+8zj1oCjl19XGvOdad/bMfh8n0fYYQkCJoN+qHPzorGs2i0d886AA/+9zz0W1sb8+NdDDi8VdnvCN/a6+86prI4oCl5cQTxpTHu0zZQ5lqbBxzL+EgLBS4nZ5grnVY2jDtX3rJ71JdWvInquKX/3fOL/OV+bm/+PUERZBRtree/k5zvRhzM4lcazJYZKpYzBmVldWJUy5f+/p/R5aarCfGZeUt5oKaRf71nz8/weqR5bjW1pbE0eKVK1dGFkTyiI8mr1mzOnoe4w1+lvOFaf7v+z90KEEILmL1gQWbd80LZdwQhboHN8mFCxbZ5wKzSi+KLNPMe2L75ptvHnV0t9lmm6ieKpXR5psvjUbESz0uLT118fbWKUySP1jnAytlIfGWaSwUn/unLxZK6jbeaCP3959KH8A48ID93RXm6vXe933Q3Xvf/e7nZ58TDeZ99T/+PeqonnbqG91ee+5R8Bx+J/Ur7tpZ5IbrronOkyVtmOb0d/yVu+HGbIM+4XHT+f2TH/+o+9tPfqzkIrzuDac5mBYSOqhXXDbmqtfZ2R21cRzzvve+273lLaeNO5xBUi8oAl6SOut+X/zz7W97a2Y34t9ddIn7/g9+FGXBQCHvUhZZam7bXqhXw2v029M+P/MP/+Tuu/8Bt+suu7hvffNrackmbI/X3xMSBBuo0+fNm2t1jtUxi62+WbAgqmuoc1BwNt5o40gBQgHMMjBC1ih8557zc/f3n/ms++35F0Yuu28/493uV+f+3M41Xhk8+KAD3Y9/eGZQoolfGSj9wIfS3X2xbJbzLjE4lnWAjHMkCdMafmHXipKN6/573/cBd9UVl+bnqvqBovr6uqTDy972l5tuipRAMqAve9dd97j99993XH6f/ofPuV/8crxHQ//A9A/cjSukfmQmsMErgnebFQN3T+Q97zrDfeXL/xZ9v+LKq6OGn8rsEx/7SLSNSujrX/1K9J1/brr5lkgRfMfpb3Wf++yn89vP+unZ7vNf/BfX3NKc3+a/4Or0z1/4p2g/Ddh/f+Nb7vP/mHN1IM3HP/mpqILz6eOfp7/jXfFN0W+sHFg7igmjaXeMujHyPS4//enP80rg7jbp+c1vOjUKurGbBd6QJBPAfeLZpx5L3hnb+v/ZOw84q4knji8IogIKNlBBiqCoKIhdUekovRcroth7wd57178oNqQpvUkXEBSwgxQbTUBEEbCjgNT/fPfdPPbyktfu3XEnmfu8S7LZbDabze6U38xmEmKbSHhCa+dHia5LdN6vTNLq16tr5n3xaczpU0+vIzCT781999xprri8W7bzWK8Q4LCWu4TywRXgtssxRBoQJIigSeR7QKw0r73xpk3DPwPNqRsUp9vlV5mx4yZYyPeZZ9S2+XaFfzM/eE8YrtJmDwmY47ZHbjz7gQccaK684rK4RfOev1240BxU5kDTvHmzuHnjnXzvvWlWGIuXR8+hqUZwi0eVK1WMKwhyLRbykcMHm3PP72Lhz/36v21OOL6WAX6JoMEvGRot0LZkBUG+w3S/xWTqkp/yFBMFDZDMVAmFQSICiu/C8RXVw3x+6y03WeECyx9t7RUmvhD+QOn0M+rpbsz2EEH/uFBGBKZkhaaRo8bY8kqWLGkVysk8k7cCKHpqHHusN9n3WH3zOAnkO9nrfAvzJOLn3l0gurjTEPysSJHMs5g8K5DnkiVLmN59+lth5bwLLzZjRg3PVhvrIytKnni0zz6l4p02FSpUMPgiMs/40Zdffmk+/OgTOxe5RgLyDhg4SPz71hkE0nhuD/FcNhDUX3+1p4Wno8y94qprRejtZy10f/8dmQf33DP178bvWTTtOEF+MV+sX7/eukQddVR23g8UiAqBGEdatWhqGjZsaAMZahnhtmC1QOa/0gL0/DjhXn7ltYJv3mLKCHOiwhwfwD0CM4M6dWznC4kEBrFkyXc2T9s2rexW/637+y+7WyogAmTXiy80k6e8Z97/YLoNbNG+bRtz+OFV7TW5PfHf1v1mc7pEtCKanp8zNhpviHq83b+PbRebEP6L2wKpTHhYK1QYp1D8jyDgni/3jBXmmYyaNjnb5tF/fXvHh2CsWvWzIcAK/mBAmw8qW8YMGjLMDuxYGvZPMEHqfXJ9uy0irHr7/cJFi0y9BufE3L7HS68YflBPgezhRzFu/ER7TOS0/n17ZRN68N1CCKT8RwXOl0lB3N40H/8j+nFuC4CpPD5C0FsDBllIfE4EQb0nvp6NGjbQw2zbpeL7qJaioIBGjN/fLliQ7bp4B7Tl2/17C1N2kRUsWrVsHi97Rs699PKr1tczlcL0uVO5Zmfn/fbbhSn7WVJnfF5TISItEg8AuurKy6wQeN/9D1mfsnM7dzRPPPZwtuJmzZodPf5FkA1BlOg7w6JjjL9iDqsLVE2UxIzXQYSAiLCYU8I95Y8//rTF1K9fN6fFZbue+sUTbLJlzsEB4/kjDz1gLWVARJs1iZ0r5sydawjEFo9WC9w7HqEswC/YpUiE7+I2icBkCIJ7713CKjrdfBMmvGsFwfr16phrs4wJRDJGaZAKnVH7NHP7rTebRx5/0hSXMWizQMZBvcCnQsX3itQllTLj5cWP/uOZ06yho3bt02N8/+bN/zJ6ObxvpgPcRQsPd/KsBXZpQfBOCdwCxhw6UOCdL7z4kt2fLx1dmfPtwqg+/OjjNh1nYJgrYJPXXX+zTatx7DExPjTfi5MtdMABwdqoxx97yJxVt5HFVoNBHzFssL3m9u63mI4d2tl991+7DhFIKoNSDbF6KL36Wi8rVOpxoi0DKANLEOHEDWEBRDgOKfMtMG3aB9G+5pb+xRdzDD8vobX1CoLePN7jW8UPFKaCyHIPPxixTg8fOcoyAHfcda9oGeNDZrzlBR0TmGSBCLA4yM8X7ej8+V+ZO+/oLktVnBW9ZMuWzXafvuelbduzNK0+57x5vcfX3XCTVeKQDrwIIdAVcLEe3nnnvfYyLDdA/EL677TASfI+X3ulh+8DwaB9LZZiYK9BeVC6EOglFcIKPXTw21YjX7Ro0VQuTStvr969zapVq9O6tiBdNGbsOMMvt+nBhx+1iAKgiMznENaaLYIoGCyKMgLOuDDFz2dF/N7O7dwhW7Ru4ILEFaA/PPv04wkVLqfWPiuKtLE39fn3uQid1Y6u6XMmkgRCZ8qk8YHnOUHQsonvToqbZ97c+dHz40VYeXfS5Ohx0A5WoqY+wlZQ/rxIZz55/tmnDNBs0CheIpgZ0bgzSSDF8IO/9JIu5o7bbk2paPjIl3u+ZgP83CFzZFCUWwpFOfCHWKmVjhSrHGgaeLePxD8SWrMmIsTCs02TJZOSIRQWWCgTEdZsopH6EUo2pXp16+huuC3ALbBLC4Iwj0rg5fl5CSuKUvOmTcyGjRvN5VdcbaNCwWTff9/dNurZAsGEg4dfKX6FY8dFLBREiAwi1ra69porbfAZIkzhkM76aECQ/AJ1YHECE3700Udlix5F+OBUiDLwm4GAVqBldNOUaQdWEdFiYh002SAzYNoJjQ1EQyNFIXTMFiEGCEXt00+P8TMi/fsVP0iEwu+s0H1EtSPiDoREoVq/PuLbpfWkzjbE9PLl1oLKEhxe4YKIqGDzCUles8YxSWtQqf9SCZ+PY/Z+4s9QUeCeLkPAvTNFlSpXtL4ZWp5aJYAvlS1TVpPN4iVL7LvxPmM0Q8AOsDWNYnjpJV2tkERW/KCIZIeF7JZbbzePi/Y7FUumFfrEgqKQ0yefftbcc98DUWFMq/PFF3OzCYJrf4lo0vf1Wf9Po4F6n7FSxYrWL0vLBN6Jzy7Qo/PP7WSTmSgv7HKJ9TEEGj1GogO6hHV7hQTygfYR/5EXe+wQfitIlNIWKcIT+Ua//uobA4yt2hFHBAYo8Ou7tBn9kkAjBJ1wxx6tM5rmpcuWC+P/s/SDA001gQXxjaVL0wWKmUnYUC1hmHNikVCh3/uu032+nXVdXkad7dShgw0fn8qzTpw0yYaxT+WanZ2XuXPvHFi79ikZ8Q9jLgsa0xB6sB5B94kftK7H26J5U/OUuGgsFYb6zTf72mVCyMMxcDyok/j8uYokIH8IggRWSnUcsQXm0j+QRliRkyX1TUyUH0E4GUHwB1Gss55epqi0+BPG879FGeMnBHL/qhKID6thPALamawyCJcf5jt4mdff6G06tGsbr+hs5xjbgcYzD7z6ei8buO0ViYrsNw9w4UOPPCYWuUigN7cgv/eFzzS/ZAk3lqBvRMugvvBQ8Lhq7dY05R/Jy3nlE/cQiKoKt+nOgfBhCxcttkpsYLFlBckUUu63wC4tCN5w3TXm008/txBNYGWtWjW3TCUfG5PEJV0vsm8Aqxu+JnT49p3Ot50UZoZBhvVd8EHxBiTA34EJJh5dc9UVcr9N5qorLg9kKrkeZlkZZpZyyAkNHTYiGn65z5uvm8aNGhjW5el++13ZigW+WO3oHVFCv5o/O7qQd60TT7NtcNqpJ4uj+VMS9OZ6wzIFWse5sz+NWhNhnu++537ROk7J5vPFQHSEwGEJge0XFrm3hH++74GHbZ3w+VqwYJF5qWdPG8VUK0oErReef9oKVVh2gfigsVNCyD1SBM5Xe/YIDDyB4Pjoo09Yv0wEHSXeb8MG9QTucZdvRC/Nl862Y/t2hp9Sk2atDBE327RqaR5+6H5NNrfdcbdBqEuWcWaSef5/PcyTTz1ry0Crd9MN10bLu/7aa4S5WW6GDB1ulzD5SQQO1h/y+sVEL8jaeb1XbzNEFCLANYFRK7nLRyCwIBwxaRMNVwkIEt8O5Kfg2CYWd8j7jHw/ruV7d4EBQljk3fQJ40abNu06ipDX054P+sczuHS8+Hcly8C9JhP362IxUJSAlnOoKCLuE0WQNwqst+/yLfUWJkKXaECQferJx7QYa6V9RLTFw4VJdf0imVRZnBgrhWthjV6YYIfgJpkkglHkxJ9ow4aNtjp+vtOZrGemynriyWfMjxIR1EvNmzVJ2ifQe22qx6xdmCotWrw4KsCkeu3Oyo+148brd4xV6dQDhWqDRk1Ng/p1ra+/uwD8/PlfyrzX3RaL4IBPJ4qZn2VBblW8IPj17tvPRvqG+R07fof1DSWhKwhyDVS+fDm7TfYf/mbNmmSH+Se6tq/MAVgrU6GDDipj6tWpE71k6vvvW8sylj0/f3/cEpiDUAC3dPgWYI/4dydLKBn5ZYoa1K9nkR7plAdPFw/9lGyZvOs77743yluAMujXu5cV4lThmqgs+Mkx74wwD4lFmjVOgW83ad7avCHInDPPrJ3o8oyeT8YH9cy6DSyvBY81aeJYe//TxEfWXVaNxAsuuiRaty4XXWCjKZOQ6hwIGuCRR5+0BpZogbJDIC8QUY+IW4cKme75cD8zLbBLC4I0IZoufPUqVapoTf1oPRAES5QoHjX9T5481fqSgBcnyhhMJc7KygAyqRCaH+dd1q+qfFhlwxqB1UQIiUdolpOBF7BQLEw+RJjlnJCWQxm6j4YrEWmwDvc6LHZdL7k86ovjLYPJl7W3lAF2z6O5ZTA8VyJ+0ZZeGILWjWsmiRBJm3vriQW3fYfzzNAhb5vzLuhiJzr3HuTnHu06djajRgyNWdcHwe/irpf5hr3m/kQmXCC+K+PGjQq0DjJJoCV06+vWwW//4i4XitV0Bzz3j6yFgNF+urQtK1KrV0hy8+g+bcFkxcLHSkccXiUmAMNTTzxm/UMHDhpq4SQEQLjl5htsfw3SEv4gllyi4HrpDHmGFi2aWeEvyHrFWnVKBx98sO5Gt1uz+h4+q+kQTI22D5F7NSjEYvH/oi34xtq0bhEt+ocVK23o8WhCnB3CaF9z3Y2BkDWsjZd0u8IGSbn37juiJbl9YfiIkVHH+mgGZwch+aKLL/Xtg/RPmDO+oTtv726uvupy58r8uTt79pyoNdpbQ0VcrPxhZVRZ4c3DcRHRMiMU6Hv1y5MXaQNEQeZlfLjv4VWqxAiCBFD49LNYDb63nu736T3HMX1u27bEa2b6XatpjK0QirmNgmBxqXDh3XJkZXbLyuS+t57plI2yELQKKJlHHt5hCaI9WrfrFPWpgnl3lZzuvVBc4cfK+nxjxuwQBN9/f3o25d2qVREFAaiUVKh8uUNiAocQq2Do8JG2GPxOQQa5NDEJ6Kabn/0q0keffmoH7JmgXECMm5zd2FwjSCQv9ejR0441xx1XI9t1V197Q0qCoLfcTB7zbvr06+9b5LVXXxnj/71IFJf33LujH/hd+NOqVX7J0TQEmkceezIaoKyi+Ou/1e/NQMVy9EKfHZSlD4mbBjEamFewfhHkBh+7Th3bZ7tCXYWyJToH8FZEn4fenTAmrtWUPFjCeZeMqckIgjqH6ZYyXB6QYy+5/Jl7XaI5EAUN/IgfwTuy7jaKmN69Xo9rMPG7PkxLrgV2eUEwuWbakQumuZOseQb8DS0ajOhm8YHaT3wO+D0gFoJMQ4d+WftLtAKlEkS5imZMYae5aACBnEKshwcDgT8C0EElP1gffmEQ8AageViDsBiVylow/dHHn4oKgaefdopp26a1qS4aJqweRM7D2gXjc4uEsm4msNugQB5AKfBXvEqiEhKpD0z8UwJLBCqIxbHxOc3tfdHYXnjBeaaKCOK8m0dlAOc8cE9gPG50VgaqG2+6NcqAA0No17aVhEmuZTXFo94ZbaEZMPtdRFgcPmSA73tlDUENVqJtlWjb0BPgQn0BtN30+q1ZDGEQQ8wzzBRflV69+4if6NSooAxclzbGj4VQ8kQdUwGJyejZp580x9Wsae6+935DAASs2b0kWiwh3FFuKNxX68HEBSQaf1jesU5ATZueY6Gams9vu3rNmmjywWLN85Iu/F1kt5wPRbfcfKPtt9wDGNgls64QjeJ+9nn1vixIzBpUydD0GTOiQiAh3R964H5z0kknWAvCh6L4eeyJp621E4thVxHuCfftJaKr0a9bisBM/yxTpowN3EM+Jk78TXT9LeDi+LvUrn2aWSHC96TJU6xQxTeCf0n16kdl81Py3otj7TPsL17wZRTWw3FOKRkG4gsJ0PDcCy/GvRXw2ER56ItB40HcwjN4EssIzJoS3xjjiR8xFl5x1XV+p1JKu/HmW6PwxZQu9MkM86dQSD3dTL7ZTPkHa5k52SrCZdTI0YIQOdz6dKZTHoL4/7J8/LEiuNZAiz6RQCwalIV+zFxd5sADbGCTsmUOkAifZSziAUTJ6/I9nyzfuav8mj5jpv1e9RtY+VNEgCgv0NCc0nKJKQBqBmKM8AqC9kQ+/6cKPSy73uAqOam6O/exbi5Wej8CVeUdL+APsL7lhHDPwDjAe7+0axdzW/ebczymorAcPnSAOf+Crnb+pW95BcFEddaAUEAziUSfiFQ55G2jRNe559+SQFkg2LBOw09BDz90v+UL2C8rc5sfxZsDURyqEAjfjEDPUhWgmb4RJT7rWTNfAJPlngVBGerXBvk9LefcV35/wiTrx1pnWIA0EhMdXteqcid/PiT8AGHgMPcv+na+LDT8SzRE+Z233+orMCRZDd9s7v1zahH0u4FdS+z4iDUKzD2CIGkIXYnojDNON71l2Qr1t9D8RMfCcR2IDeGH+/d9M5uAAXwQRpiPGy3uV2LRciF/Wg5b/JJYT0chLbVqHWctaqefWc8KPAifCHCDBvSLDtI1BQIDLBT4BeQ6yHMMHHbkqNHsWu3eyOGDRNsUsbbiTI1PSKdzz7cDEBE+e8mEAqzHS0RIU581zuGXBUyVOrsQG/e6w5zFY2kDxdi7zAv5CVQEuZOhCn84+E+W/qo+cORDgLvm6iuswIyfyNPPPm8jmp0tmsO+vV/PZqEm1DWQXIInANtdvHiJ1VJS7xYCfevcqWN07SDgw/yU+AYUBqxpQVugVxDMjZ+CJDpBCVQ4WcIKCwSWKHtYV/1o3d8RBr6EPE+6NG7cDojTaz1fMvQ7iGepLooT+vyDDz9m22L8hInmsm47YDJ6T54ZXxB3nVE917tvfyuwcgzzyvIEQF8hIvrCHLA+IveA0E4TATYeEQYfgvmlfm7fiXdduucU2is3skUcXrWK6dDe33eGdb/o77QdkFcvrRSlykcff2rrnAzDMle04s1b+d8LX2IIX66gPCtWrPRWIdvxgw/cm+2YscQdi7OddA54l4noUPFRDckYUAULFiy04xgWi0zQ2aKU9NLzzzxpsLAj/CEEIjiOFEG5uCB/dAxh3P5g+ky7/h+LZUMHH1xWoNt/GWDwX4rPsc5Ry0QZCaVqEbQX7cR/34iPN2vneel7efackKJa8PVUYTkn5fldy3jmjqN/r/s7rlIPYSIVGG4R4X28dN+9d9tYBRfKfKnjvzcPx0WL7O6XbNP8gkoBsX9n5FDTX/ifuyRwTKoEvwRVrVIlKcikzte7iUCbLqmvJu5USozlifjEeHPg4KHDLM/GPPXc049nW1YIfg/F65lnNbDfLsu1hYKgtnxmt8lzX5m9b74rDe0fEC0lIoO6x5rOFqgixAfAoFdI/pRSZbyIbodD7Dlnn23uEmjfImHIvYQfm5J3HUG0JRCDe8vWEXgBfnNAGPKCnhPrklcI5L6ESF6y8Ku4VUC4UM3SZxIxTSdZ70XtZS1DFQL1HAzzCaI50sVeL7v04qgQqHmIBkfAF6xeX3/7rSbbLXAFJQRZFQI1DcvZG7K47zE1IgLrHCfSmuZhyxqCrr8XfQaGAobdTXevcfexOMAcQ2q10/OqZQXOpUTeayVaJmHQlbAkASnCGqp+eASGsUuiiLWP+jRv1c4KGgzcSiyQjJ/oRx9/Yp4RoREmnPoAxfjhxx/N4AH+MBy9PpktwVUgrZf3GkJhQ0WK7HhGbx73+A1g2f97yU4Md995u3sq2/7vwrhBQLzTpZ+dNi4q/npesoFrJHhNPGojfscu8+LmVUUEaS+9+HxUCHTzXH7ZpWbe/K/EV+1HGzSECT2ekKR+myzenOpY5N432X205VBxUUJA9Hs/YRVYF76pEAqV1q12wHVtovx7Z/QY2wfRcidD9NVEUEsUDYnyJHOvZPMwbsyfu4NRSvY6zfeoQBrvuSsCM0ZBhs9WEOEby/iPbw4WVD9ifU36H/5SUDpr9fmVm6k01p5kDJj47rtm86bIWJBu2YTWr1uvTkwYf8rT5Zm0bPwJCccP0X58K7TRt1/NMWvWrjWnnl7Hnrvphuvt3IoSY4wsVcMcBdpE/YUPzYBF0N4oj/4x5rjjTqZu+4fwS5BXmZmp8imH+ax3r9eiRaJAqNsg2N8S/zaFCPO+UXhedOH5MYIT5QwZNgJfmWjZuoNfGpFJg4g5ALcWv6BcY0cPtwFXCD7nR8y/rK2bDs3/KsJbHSMIHQKzoKiuXLmy9afzKy8dhatfOemkxZsDWZfbXZvbWz7f5JEiEIK4mDV7tvd0eJyhFkhuxs3QzfJzMUy4BH7hg8FnkAHgjDNq2ypPeW9qtOqcnzDxXXtMdKxyFapk8w87snrEaqAXjBoxJFBjAjP/sAQqocynJXjE1zhsZ60ppNd7twoj86YjuOo5YIF5QQhBqa6Jo/XCsuX6pG3YsF5PxWzRCvmRC8WrdVz2dtf8DLYIgsDrlGjvTz+bZQ+x6FUVK4YfMalVqlTRRiqdL9aHRITGeeaHH9tsdeucabcw7mPGjhdtYs0oM+aWo0uNkOYVBBngIVdIQgjAmtev/wBruQNKGLRYLZMUz8citPTtoCi2WJ9OGzrIWgWB674j0TcfefB+e++c/OMdj5sQsaoFMUy8CygIGsq7w/L5i/gKQPRzqGzZA4UpO8bu+/1TBUkQXMXvGm/aCSfUsmMB6eddcLG5VWDhrEmXilW+du3IGOItm/6oS4VghQUO6kcomgjokyzhTwy5MGPGMyz06RL+zkGEsAKVFEtAPPrGUcRgqfcj/UaLFInVzLv5G4kCqYy8/3g0YMAQG3iAgD7nnR9cf8rYZ+8IEiBeeXl1DoUUv3HjJ1jUSdeLu4h/6K0SnS+2TdSCgbLLL7reawJxxKJMoCf8qIG/5zdCofeYBILglwoRXII+fdSRR2Y02AbWiz3kt//++4lwaEx7iQzJkjQIgoPEj+nWW26Kzv8IJkF9OZVnycu8jF17l4j9Vv8SBAXKmnSIcV7dG/bNcgtBec06eukSAo5aoNItQ6/D/5SgJqBe+r81wPJauoTCkiXfmQ4SABBfNIIHvS3wRz/Cv5lInpmiF5592lfxl0z5zIm4JkG49Nx4c3frakPfHT5kYBTJ45al8yzKkrymoDkwmXowJ2jdFa2XzHVhntRaIBQEs9rreIF9sQ4ZGu4qR1S3jBTHEAtba4j/Hi+/Yn3Tsi6LgcipCV7PxzPFDxg02HZyPmB8N4CsuGu0UAbQq0cee0KLs1sc2ZmEgghIRF6QH/PhvS8QHEJaE32MpSP+ksirTDpAttQS5r3Ge+yuDec9p8eELvYjvyAkv8hyBvqe1or299iaJ/pdatM00A1WNSbKeELAJwJd0MFKrSLtO55r4aWdOrSzEVa9N/pcYKcQQrFXUCN8s56zO1n/0P4TTCMZCA5W18kS9etQsRpirYhHCMQ4s/PLBDFZ/fTTz7aoOmdFBGNvuZv/3WSTvJEk0Vr36dvfwovdfkI0vOuuudp0lsWf40URi0K3siwh3vsmc3yuwGOHDh1hBQr6CZF18afEOn3qKSdbTTD+DPEo6DtFsIWBgmAmM2W9W7s2IjC7mnnCnvMNpkPUK64gKPAsaG9ZniMeKZSJdxYUMl0VH4n6qVod8eciKqAfIoFIzlCdumfZ/hKvbvnxHOHpYYIIXIYmvNdrPa3fTLJ1xW/5gYcetdn3FYsEvqn/JeovijDWiAOWn+moiyjPQIksEv8w+mIdUeqhrAEWzBI1EydOsk3ZpnWrpMbgRO3O2KKU24z61eJLFxQsRi2kWpdktwh9Op+WKh2xfhEQ6pbuEct2suW4+YiUnClBkLm1hSjw/tfjJYPg17ptx+gyRBd1vdQKgUBau996o1uFbPsEPWP5h0xRTpT14+Xb1jmxoUQ2r1+3jh3f4am6dO1mxo4ZERMYT++Hq05eU9AcqPVgHqRtZ370kaA3Zsv7+NXyhwRRykQQKb1PuA1ugVAQDG6bmDPfisbouecj2vnOEjAGB2UIWOmVV19n9yeOE78DwbJDMFGHHVbZ7nv/MXAOkOhkEIuFowX2g5AB21MC1sOHsV4sfn7+apovv2wnyIR5w0232I86v9SJevz+xw6oLccq7LEfj35atSquIKhBYxAU1FJav149KwiymPvNN90QE1CEgQ8CxuIN0qJrOroWQfIysSVL+LP2fPU1u9D70MEDfOvPQIz/SwWBExMZN10iwiJ9HkYK0gWiEVj9+jZ5/t0cEQS9Qh3WMrVwc71OfOefd66FcnEtPlt/CBPCBAidd0EXs1cWRFHD/mMVmZhlwSfPPxLpFsLv87TadQzQS+BCfoS1Ar+9x554yoZEZzKlHnzv/Ihki8X5GYnOh8U1FWKSU9K+osc52RIpD1JfQ7csxqVk/Ne45p/168X3eQeD6pbj7v8izDGUaA04At9ABDYI6r+Ma9Bee0VgpvbA5x+W9yuuvMaGcwfq3K9Pr2zPiw+pKiCCrOU+xearJBatf0TQIgTKAtraolV7M2hgvyjknyALKNmggYMHmw4d2kb91d6WeeWue+63fRWL6JCBb+UqZC/VhiNQUDIIi3jl6tgAKsdvmRSgoG5EbpQhTzz1dLRIVbKRcMRRNaz1T09+OGOaRVlo32FsQpHH9/6gCNc6X7QTl4VMkEbThUmvVKliJorM0zKwpCn5BQQrJ24iiaz8ej0QeHz+M0mMNwT5w3eUAHGM3VgG+UGMiwP69427NM7RRx1lnhM/U+ZKeEAC0UC333az+J0mVrKgmNLgeqeeclKUP7CFpPhvrECUIQILqQtQz5f+Z62eWAuJMu3yoeQloj1UvHjeC4L2xgH/iI8Aj+gu+xWQNUzOxRZInqPMxUrszKKVwUymDr8L08NC6gh3jz78YNTfQoN9UAaMIdrDRMQCoOpncK5YN4JI/WqIWvjiC8/JmmmdbKCTyyUwRZBmPaisvExnou56aURQ5r61JTDJiSeeYNddQvuG4AtU4867M2N9SuXZSpcqnS37m6L9DaJNm/4VrXAxe7pinAAPCPaqKW7cqGG0uK4XX2jw00FIeqnnqzEQKBUEGdS9pBPibgERNXGeJtocmtN7Zb3DwoULmaOOqWWLGfhWX6spx1I6ctQYG1SHACv333tXtttgwWTNIBZOdtcBypYpwQHPxjp+OL4T9Qv/RCZMXYcLa3uQVZflE6A99sjO/BOplOcD+ormvZ1YVjUAiFZnhUTbc4N3uH6Tmof3ojBRTdMt6StEcx2PEKhY3gTfrSnvTbN1mjnzQ7vwO9ctXbrMdD7vIgPjnshp3r0Pa1EpLVu2XHdzvMV/CYJx8RKRfV984Vlvsu8x/nqJomDyjpdn+SjHE2bpH7o4cqNGDXzvR+L69RFmpYQPdM29qKgwdgcfdJBNgqlr0rylCINvWmUKiSiglGpJ0KiCSEBB77/vbgvzuva6m6xVuvO5F5mPP3zfINTc/+BDUYaZb7ddu86mT5/XzfMvvGRGS2RciKUKBg9+yxc2ujPbBKg3y6JkgmDIlSl3y1MIuaYxjqvCSNN0u25dRJGkx35h8rt162relGBNKgQSVdvrt67Xp7pFCQeh1EDplZu0eesWXysLypV0SSNYBgmyQyXitgosie5R+6z6MeN8omuSPU/7jh87yoDqel6UEQpFJ1J2ImQHPu4a2ZNAd8RjYO4ZMmS4jP0DAn3gGSNx/1EhEHcDAueBAkuH5s2fb9FVXNu2TatoEfXEKnhH91us3ytWT9Yg7vG/56LnFcK/Vz4TBLtdcVXU0sqc2LTJOZavBe6OUho+8fIrr44q9qIPFO5ktAV2eUEQMzQ0Q5g7IKFbsvyy1qxZa485pwER8KV6LicCXwAAQABJREFU4rGHbYj6nDrd9xNoC0SgD8r1I6w5owWKAnXu2NHC0VhYetr7H5gbb+luRohfl5/viF9ZeZ3mQtGwXvqFlHYF6LysH87bamUCRguDnFMi0IoyCU3EwquEle+6a6+yAhuRSm+8/pooxIulJ1QZcOKJsYLgpiwhaU+xBPsRPhiRwAU/2sA0aP1UsaFRMxlQiYr3sgihfYSRuaTrRVHLAWUyeTeoX99GvX17wEBZE6+bry+j3p+JjR+E4MU6TQiAKtB9Niviezlo8NDootYIc0Gkmkqvsz0WxCAropZFUCSdzDWNLVp77yLITIp+sJjKlSpySULCh5iAPPwgghQ9+fQz1lqDlX6wPG8qgiAwcDTV+D8sEI06Amu8IDAJKygZfpKQ9urnU716rCCYTBmp5MEipdAdlGNBRLhx+iXW4qCIolyrfSGRIo1vlyAQ5cuXsxFVWR6GZW/QirNMDQoPqGrVKoH+vzbDTvy3VIT/Tp3PN01l2Rx8T/36JtWL+KSWNlcJ4gTBkMia3iUhyEf0YFwYlLBgEfU0UVtq/rzcspYdywjlhKa8955dF4937GeNx3/dJdb6da3kixYtMc9moXvoN9I1LRUturuv0orooCxxhIIEypQ1ECH0s88iYybL8+Q2PfnUs3HX8Ezn/t9m+f8S1CO3Bdl06qfXLF26zBCUjvmIuQVF16JFi83QYSMsGgdlXzJjMGMdawm27XCuVQi2lrEHJYzXB5cIziyNpRY83u/b/XpHEWNar2S3zLt3y3zLWApk2bv28tVXX2Gmz5xp5yaW52KtYhVe/xZ3HCg/LU2CcIo7DcT4N/39Kb7122fvUqEgaFsp9/7t8oLg6tUReA0flwp8NDcfnXtM2nzR3DERjBz1DodRcjWNOCW7UL4KYkV65qknonnZQcDDIgh17tzeMkj2wPMPjD1wNKLo6QdNlCngosCFHnr4MTvZey7LF4cIRkr4NPrR+yLQ7gxCeIZpx2qJtQKNJhpeP0LY2bBxgw1m4gan8eYFjgUxSbiRORGQyh1yiD3Hfs9X34hGClM/JiZPdV63GbP+bfh3o90L8n9kYWSobp06gXA7zl915WXW3w7r3+Oy9h0RKiF8smiL20WTiBUBLfrTzzxvLWA2g8+/GTM+jAqb7lpwaDgv6dpF/LGutALi/Q8+bK8GFoQ/nx/xfakjeCIfM7/r69erG5MMpFSFQNa0Av7DfVCeuBrSmAt9EtTaCNzUC9vFN+0Q0RKzhAmkGl+fYnyTYDiACCFQIkwRHKRF82YxeREQr73+JrF6rLR1GPR2v0Bmyw0Ln1NGO6YiPglLspZo4FQQOgEI4DPPvmCvBhUQL9z+b79GYKYlRehOhni/fJPXiMWMvg1EEGZLIa233XpT4NiaTPmJ8jCOX9jlUjNkUP9EWWPO4yOKJQsfQII/xVNI0NeGDx1oLpegTwsWLLTvHx8qAphgJacdgOfRxyFcDZ6LE+kwpjJ5nODno8Y3cMNN3U0tWdDcbxkWbxU7dFxuBcGTxToTL+qgXse4zE+JOVQFQdb4REmRiHSJBPKpwiXRNYnOYy0CzgfVrn16ouz58vwnn3xm6+XOezuzokR9heDtiMrOPP/55/ie/WLTWU+YZZZGjxwmqKXLbKRigqQRfOjVni8mJaixPFW/Pm+Yy6+4xiphWMv4+uuukfnvKjunjnpnjLn3vgej98RHHoVDOvOcrbT8e12QRRoB+QJxkfDGK6APPy9BaOo2aGyt398IX6P017qIL3d+8hX+XIRyRT21atnMVwhE2ajxOfRZwm3mW6Bw5ossWCVi+YMIvf/1l1+Yzz6ZYY/5yDjmh9YRWi5QNIKeeH+K8SfPp599nu38XJ9lBxAaEDxhBju2b89lMYRFBf8HCF8HhV7hY6Mhh/FZ8NMOxxS2ExIqOGG1YWK9RCTW4bKO084i10rVRZZ88IMVwsSefNqZNpR4+47nBVYVn6QJEyfa8x3at7FMO4FOYBKJIosDtxITDgIXwokunYFFUv3qNB/bDVn+bH7WZxhArAoQDuPxCC3gxV0usFkIwgKcDmotMGNC0H/9zTemu0TDg9Akuj4fNjHrH8zahV0ucZOsZhJ/2Y/ErwarL1CO7rffGYVh4Rfp9f/TAlyopzdiquZJZUu7IjRBWHoRBK679kp7zHPR9skS2tyatU421Y89XvrAWXYRee+1ysCRfuyx1b2nEx4TkVDppltut4EM9Fi3z7/Qw4Z7hwEotU+pQCGQ/KxlCCFUYAnObfo0az0y+qefgIfFv9vlV9ulPqjLxRdfFLdKyqgdlCAiqFsIVpphAj2jjzOmKuQQi1CTc3ZY5t1rMrFPdGd8VGFSGPNTJRRQEHMAEM4gQlnDON+sZVsrBDIvEcTsBmE6USBBJcTHiXVC1UqFrzJjjwrEQWV70z/86GNZwug+g4InJ1BBb7nJHBOICSXrfQ88bGFtqiBK5tq8yEP0VZ2Pud+LL/W0Spxk793lwgsM7hyuggbou/qpNWpY34b+Z97gHegYTfm1Tz/d+rhdGqBQTbYO5MNXbvGCL2N+pKdD9H+F3vspM9MpM9lrdHklNz99eOy4CTaJNrz/wUfsWq06tuCWsnnLZnse6OEAUaypZQ3FKtGhkyXW4Z0yabxV4iLQoERlzd4OYuknZgT3ZO574P57ZB3kPjGCW7L3IR9wdw3+hP8rC9v7ERBWhMHXX30pm5FgxYofbPZkAvz5lZsbaaDhlIC3ewnlXqKAQyhrH370cYuUmCdLTLgEj4Wyp9vlV0k094/cU1YJjpIA5eH4HES3zVZoAT7Y5S2CqyQaFISPFpH2lGnFwqGR9zS0fQ1h9ljmwUtYIHq89IpNJuKiC+XzMkhMcAMHD7F5gXn6fZh89LcLxhvC6oHG1yWgfkxKrItz3Q0324GtY/t2bpadvo8GTNcr6nrJ5aZ9+7bmrDNqmz//+tP6WQGNxdqxswjBH78lmA/gmc1btrGM4ykSDZJ6weT27f9WFHoYtJApVr677rkvmu8Vsfg99vjTMY9VU9afAgLI4IZmr7Tg4RUa632/erEuDu4H73qzd1+bDUYS/4BEBDyX/oIArIwnC3gjAC9Z8p2NDNnj5Z4WzvnEU88YP79JGP4jj4ys6YMvLBH7OggEzYWb8M4niQ8QxITVvl2bwKp94SyVcniWsiUwc4ITWM5ZwxHhGAYZmA/1vfyybvLc79mlGtDQEpRHg0DEKxKB9hyBsBHwBob6XAlEc6FYbk7OCgoDE/ektJOSnzVPzwVtaRu01SgEmLTw/23S5Gy7Dh/abODqvDOlqwS2G0QI6VOnfWBPN2vWJChbRtOpHwQ0j37oEoiK62+82a5hSTrQvEQQbFVsHCIwvFSoUqWKskB9tWyMOcxpw8ZNzbmdO4kvTUuroEilzHh5x4r19unnXrBwaCBauwuzh+94KrRgQSTAxiHi6xgE72ceeFhC1mu7gFro9cYrMREBuS9l4MuKLy5WRqD5Z9VrZB564D77zSeyeNk+fv5F0XFsizC2WB3zim668Tqxdsy2QoVaZ3hWnY/zoh7MzV999bX5W75FYHVKfOuPPPakPWQcZ63OFT/8YK6+5noz+d1xcSN4axndRSnlEt/1jTffapFHCPdPPfGoFf7uvf9BayXBHxHrNvEDWHMTq3AmqJhAX4G5e4n0dEiZaN5Tg/p10ykirWv4Jq65bkf/BKaPpc9F7QC9Z8F1YPI1a9SQsftEG6FZFSjcmHr3fOkFCxvmu+ncuUNK9YF/GzLobdOqbQe79Jf6aFMIY+I7o4bGDUKTzM0IpAIkHEUXcy2WSD+eQMvyjrP06+8EFgtVqljRbvPDP3gIglkBa4efxdee6Pmko4QHsqv+p0H1fUEUpSjKIJSl+FDr+2UceerpiJ/k9BkzzZxZn0Qh+ChNURJAk6dMNbM+/dCXF7cZdoF/u7QgCBM/Z848+5qrBaxt5fYBNBg1ZCLwEhHcVBDsKAJPvI/03UmTo9YnvyAxWPiuv/EWC5kjVP7/XnjGF7ZC0IeO515oB58bBVKDf80lCTTu3nrn5jGD0cBBJ8pivJ9bzRg+avyU+FgRTtw0PZcXWxgjfMzWrl1joSHAtIjQx89LQFtZk8+PNm78NxuzjlWKshGCTjv1ZOvXeeqpp1gLzZ1332t69+kv6/SNFcjvelsczuN+vmUsgPuTWBohV9DimHDdA8ViDCGs+FnTvBp1lBozBIOvhDVLlxqoXKmSZSQv63apue/+h6z2ca4EcwD+4iWYQwQsP79WBEDV4BGJ7bWePWIEBC2PSa133/72EPhoUDAZzR9vC1NwabcroxCSRx6638LjuIaJvrcwlGc3bWGhZIQOZy0wfCF1wggq+2ZhTtEywvQByfMLbMS7BsrmMo5B5fmlP/7oQzb6IxZyNMjAhRUyrPlhaB647x7f96F5Ro2mT22wh1jJcptQYsyZO9feRtfM1HsCsbrp1tvM9OkzbRKCN8xWPEJw06A5rqY43jX08T7SXk8/81xUqQKTC4wXwQYmAiXNgw8/avsD4y39NpFQFHTPP7PWaJwnTAqEQuW1V16y7wVmDcIywL39LPw2g/xD0TQ1C8Z5WJXDNDm6hQl64KFH7LhEIvVl/HngvrtjIMrRi7LygRYBPfKoCC6MRTDLL738qg3gRFCMoGcH1eD629If81IQJJjI2DEjbeRD4N1YZ7pddpXp9XrPQEHZffac7ANd/uzzz83sL+ZaRR3KV/2eGQeB//HOeN9vyTpz+OI2Fwst3ysWhf7iL+Ydo4Pqg5WKqJMqQDEGEXgOBMNG4UdQXIBewH+KfsYPhrWD8BVYgf0Ux0H3yu10vr9hw0ba2+gSG7l9T8rnuwbJ4rrk0MdXrFgpypCI60OVwyqbI4SnS0aRwDfBdwM8scaxsfyd3zOh6Jot/XSUKD7HjJtgXUy8+egzCDdNBZnQUnzLWXLIqzDzXuMecw/8nRFm2EfpFKQIcq/z7qMgRAEN1ayZ3PN5y8it47vuus2ieBh73v9genTdXr0f/BHBwTTYmKbrFj5JabWgLFCIqr/191lWUM6vE2gsCpwd53Zcx3ta+eOP+erb0mfKq+0uLQgSBZABl49T4Z9+Da9QAr9zqab17f+2vQRGwYX0wdw/JpP32wMH24+eAezlHv+LWiW990HYJDJkh07nWd9FokcSEv+xRx6y0Za8+fW4sKO591tjTweqQrtFYEd6nbvV63YrnN0K4OahfoMGvmWDibDujfpbkUfhraVLlYoKgoULZS8rez2zn9P7uPd39/U8W03XOrvnaOM333jNPCva/cFDh0WZSfIwOcDAEtylQf167mXZ9oGXYGUCwsVAj9B3qgiAak12M3e79BLJW92MkIl+pkBYoGuuikAX3XwM+sAWEJYgJjWXevXqE2X6r7n68uipPfYoJkxTEcuM4qNQS6J1lvSJwAij+sKLL0XLRwMHYeEjmhoMJIvK+wmCQdbH3qLBvkcsbgyq0PPPPmnfM/ukAcFGgCxWbHfri/Hk089aR33ON5M1nuIRbasLyrv5aB8CkQAnW7dunT110w3XRZeX0LwwWW/162Mu7nqZFeqAkkycNMmwqK8+u+Z1t/TT9yaPl4WEHxcr52QR2NZETyNsHHlkNd/+kUzf1YL43vBLYcIHMs5kpYRQc4xos7vferNvQAzNB0P2/PMv2sPKlSra/qjn3C19YtGixW5S4H4iH6jBQ4bafkYBIBuUsG4CYdIodYyriQIkYPm+TeDE2nf8lAxaPluiDRNEa/iIkVFYGumgEAjxTjAolgxBSMRXGYUfCjZ+CBxYBipXrmi145VECUKbKYNAOX6EULtUFA5KQPmwwGE5hspmrevKt3v1NTeYNm1b+zKhfFsspQG0FGKdT5duEivRoCHD7RxAOhGBCVDm9y3+K0ooP7q0axdDQJYHH37MIh6A71162ZXWD/rOO7r7IgiOFesTz6TWfIX7+ZWfW2mMmcMk+m7HzhcY/IewahL4yW9d0y0S/TJZon+hkGSN3gikfpmgIJZGL39Gxn+XSpaMWMyAbd597/1WQKZ/9On9hhX4EPoee+RBc9Mtt1ko8jkCB+wrVhpvsBAtk/EWuCJoCZ5LiaVc8Nc+44zTbdKhsuYpiiEg9vRVLBoIjih4UA4NGjTE+pMSfCyeooHCcElxl9X49psF9h7wF7PnzLH77r/5X0aUG+Rzr9N0N6/u46Oq/tgKr9Rz7rZT5wvj8iRuXtYfjEcgJy6/8horBDI+vtzjebvW7P9efNmiN5YtW2a6ikJ8H7GypkoIgYyljMlehQlQ6QUSkRlfcCJ34iuvgd70Prz/iy48z/pLDx8+wowaPc7OpW/JuM6PeahB/TpW2OS7Zv4Iih7KNwtPp7EWUBg89cRjvrEE9P5+27/++ssuf8Q5+ley0Vt38E2xvJfLSym/6L13snMgSBrahaBz34qyVecA+JiLLjjfQpmvkvEUKuzDb4KmmjvvS/HZ/d1cK/EJ3HG8y4Xnm2lT3zc/rlplLevlyh0SrSYuWcNHvGPnQ8ZgP2V8NPMusFNIJq7tufGcny6PaKczVXaNssGCSbr3uEw0fUC/0AASBQpioCF6KIMMGlhgIg+IRg6m873JE3xDRs8SAQwNIbTwm3mBDsEMmqfVrmsneaCGd995u71mkDCzD4oGGCYBggF9uccLvveyGZx/XHPhxZdEnYhZZqLnSy9aqKuTbafvYlX5XZhcMOyJJrGdUVmEDWDCBKxAYKkoPkZskyH6RiLrkpbz6ONP2qUWOAaeCpMH4SMDw0qgoZkzP45C6tBCf/rxjGwTEwIDQtfxIqgSmtuljudeELXEuOlB+8CPJo4fHT2Nf9EBB+xvCJGdDDF8wHACq1HC3+TmG6/XQ5nMPjFt2/tbVJkEZrw/OeabYULAzwnh9gdhDtQPF98HLF5MxAiATJgQQv0tN99ogwBEb+zZwYoFHEuXF+D90v5o25MhGMrvxU8Ya2elShWTfufJlE0emBD64K8SyXhvETDwc/MyJH5l4U98483d7SmChBAx0iXa0Y3i655LtM/9f/phB9NMft454xjj2XFiNSYkO333gi6X2PeiZQKjA2LsRmvkHOtcwRyzXuAWec8wrTw7RJTM117pYffdf3yfL7/yqnnnnXHRd67nCTuOH7Wf1X7RosUiEPaXwCqjosoCvc7dlhW/xMMqV7Zjsp/QhQBxRp0Glkm88/ZbLVzffTe0yfEnnWqtzm658fYRKD6Qvu9ak/BRIpAYCiaCODFG6NiCdQqIF8zOb+Ibo9Z3BCWEPz/CfxEmS78fGCf1MffLj2UTQcA7Lvjlza00vrOWEonxL3EjGDZkkEFhyDyN8oU+s3r12ujyGd0uuTibL5RfnUDsNBPovx+x2HX1o4+2Ab6AECIQl5Ex6Y477xbUxTB7CX5lWH7POvOMbEU88eQz0Qi18Atvvv5KVKjDwsGcjsLP63PN+IHP9pVXXOarMHRvAnSc9STZKjFuXSnv0Qs35TxrniIUZZrOFcikG/SO8ZkxgHkd4WLGB1OyBSzDqt1YBOR0CWs0Sj0v4QoDZJBvD79YIOfQABFwb73tzqhyU6/j3e0usNfdZF5leSW+pULyJ7Gvbd4tm7fKGLTFCvubZU1b3hu8F3BcCMUWCgHmGQ1somWzReGNIMF3inuRSygnEf4pQ78/93yRIhHoKi5Hjz/+SFRx1KNHT/P4U89EhSKUaS/IuJ7IpQFF1Q2CJttTvpHiMkaw7BRROdWXHeUFS0TlV0LhQQCy3QXmXrFSxWh7JKovcwPzhzegG9fBm2EN5fv0IwTlnATw8SszJ2nzfo4o/3NShnvtyRX3dA8D93dpi+CHH0UcSM8TS4iXNosGCOZcNRQIWEcGwEcZWJRc5kDTdEuHA0Y2cNBgc26njposloafrRDItV3F/++eu+8I1BRFL8raARbIMhL3C1OMXwFWCybS/EZoo/jlV8LHJt06KqOW6NmALQwaFIF0Yq3Df0cJ6KGrLSadgB+vvPxijDBAfz3zzNrRYDJaBlsYBKxvlJeI0EjfLdpnl4g4mAoBnXwjC6PPxIZvHlEQXaolAiuaT4QFJY7Pkmd48vFHfQdiNI1LhelVjTPXMamrRfKDGTOiAgFt+bxYgpgw4xHMNYIJ1tZHHnvCwkjcSIDxruUc1h8Yxdwi2g+fYq9fcaL7HXLwwRY2VE6ubS+WqCDCx6x58+Rgo998szC6Hp23PPpx0d2L2uRuWQEsrJ9cljDHe0KIuUg0sn7fBoIMEZi9xNIPLwoU3o9om2nTpkffORpjLPUE3EGRB2zKj4BoA73Df2jM2PFWo//dku/M4u++i0L0uY5xk9++Yk30o8PEKn+xMFGthEH0MnzkZ+x+5eWIVXfmhx8KYxI8oR8kfkXMJQRScoVAykFQK3Pg/uZOURJ6A/5gpXcVLuSH6jkW2UjKjv8E8EDRw9I1vd7sK/DCq3ec9OzBNE18d5JNpU13FvGdDRnY3was4VtAmGddND86R+CuiYhATjCCBx54gBX6jjn6KFP9mIjw5wdJZ9wZKooDiDGlT6/XfJEDt3W/2VQQZU332+6wFnAXOUR/BKqmQiD99xR5F40aN5RvtE3SgUNQyL0zcqhEFZ4ocN8nrFWa70+hfkHPjnDWqVN2hVBQ3njpo8Wq5fq9uXkrVqpgBUHWjeX5goggOaX3LRV0Olv666/3zoYeck8iWL3/wQyb1OWi86NCIAnAvlmv9n89XpbAIB9HoZoufNQtK94+1jollFjuWMUcwjcVQf9IMDFRIgRZxRASERD5MR/ja4pA//msWdYXH+EFAZN+6UJYyx9azvKdlIvB4CZRqrrntW7ebRkpZ+68eb4CK4It43F+JgQ50FWpErwbPz9i/gkSAsmfn4RAv/rnVdoubREk3DpapGlTJkYHMrQLTJpYrRYtXmTWiPbxYGG0YKCCBBm0xZ3Pu9Bs277NvP/epLgdjxfLAOAOnGiTu0s9mNSU0U2nA6B9AsLgtQikU1Z4Te60AIIN7/qF557JZilhGYE5c+eYfzduMrsXKyoBISpY5/t4g1i8GsLMoO0KIixOWBuDBtCg6/zS8ee5pfvtorV8xgqofnmACv7zz3q7FAdMM0tqBE2gej2BfNByQlUEvtpAtL+q9eMbuqTbFXZSvvyySxOWZQtx/mEluE+WuBg66K1omc7pAreLJYdJD3ifl/D7xDIEc5+s3xfO+489/pRAi0vEWJ0pH2UTFlmCXGgfos8RcAghEEtvEMFYAmPfJGMta2WWFkjgKbKURiLY0hIR4IhI26xpU6ux9/ONDbqnXzrfB2P3YgTDJUvMH4KueMonGJjftTsjDUshMGUlLPcECXMXltZzqW6JYgrkDggl1tHp06bE9XVPtfyc5Gd+JPDN+vX/RIupVKGiFaqwhMZTvuoFzOvaTzUt3hbkBn3jheeeTjifE6mSJRQQiFyiTQkyA2S5Xt2zojBiN08q+zxD/7cGWgXNwLf7+o5bxCro06+fjIsnRZcJSuUe3rxYPYcOHy6RNVvErAWMBefxJ5429917V4zCB/i2RnDuLYK0FxXgvY8eA2FmWRaWPPILwMX8efsd95g3Xns57nsB2o67zV8yTm0QwRmF/jYJ6ASPVrhQYRtgj37lJfqSVwlCkLFy5ctZ4Q9lmp9yy1tOomP8qFUo7CgIDq9vIorK5oJ8SVXxiIsGkFXGVXhBBFeE1pzwlYmeJTyfuRbYWRbBXVoQ5PWlAuvL3OsOSwpbIGyBsAXCFghbIH+0AItes9QHGvlXBQbpXZA9f9QyrEXYAmELhC3w322BnSUIBtvz/7ttne3JMqHdyVZgeBC2QNgCYQuELRC2QAFqgVrHHWcGDegX4wdXgB4hrGrYAmELhC0QtkAaLbDLC4JptFl4SdgCYQuELRC2QNgC/5kWIIgXv5DCFghbIGyBsAV2rRbIfCjOXav9wqcNWyBsgbAFwhYIWyBsgbAFwhYIWyBsgbAFClwLhIJggXtlYYXDFghbIGyBsAXCFghbIGyBsAXCFghbIGyBnLVAKAjmrP3Cq8MWCFsgbIGwBcIWCFsgbIGwBcIWCFsgbIEC1wKhIFjgXllY4bAFwhYIWyBsgbAFwhYIWyBsgbAFwhYIWyBnLRAKgjlrv/DqsAXCFghbIGyBsAXCFghbIGyBsAXCFghboMC1QCgIFrhXFlY4bIGwBcIWCFsgbIGwBcIWCFsgbIGwBcIWyFkLhIJgztovvDpsgbAFwhYIWyBsgbAFwhYIWyBsgbAFwhYocC0QCoIF7pWFFQ5bIGyBsAXCFghbIGyBsAXCFghbIGyBsAVy1gKhIJiz9guvDlsgbIGwBcIWCFsgbIGwBcIWCFsgbIGwBQpcC4SCYIF7ZWGFwxYIWyBsgbAFwhYIWyBsgbAFwhYIWyBsgZy1QCgI5qz9wqvDFghbIGyBsAXCFghbIGyBsAXCFghbIGyBAtcCoSBY4F5ZWOGwBcIWCFsgbIGwBcIWCFsgbIGwBcIWCFsgZy0QCoI5a7/w6rAFwhYIWyBsgbAFwhYIWyBsgbAFwhYIW6DAtUAoCBa4VxZWOGyBsAXCFghbIGyBsAXCFghbIGyBsAXCFshZC4SCYM7aL7w6bIGwBcIWCFsgbIGwBcIWCFsgbIGwBcIWKHAtEAqCBe6VhRUOWyBsgbAFwhYIWyBsgbAFwhYIWyBsgbAFctYCRXJ2eXh1Jlrg119/Mx99/Kk54IADTLVqVU2pffbJRLF5UsamTZtM0aJFTaFChdK+39atW80vv/xqChcuLG2wf1rlzJ0336xatcaUL3ewqV79qLTKyI8X/fPPejNv/ldm27at5riaNUzx4nvlx2rm2zr9+eef5sOPPrP985yzG+RaPbdv326+mDPP3qfGsdXNbrvtlmv3+i8WvHDhYrP2l1/Mfvvua4488oj/4iOGz5RiC9AnVv282hxUtow54oiqKV6dXPb5MrZ+v+IHc9BBZc0Jxx+X3EX5PNfGjRtlzPvU/P77H+aUk0805WROzDR9+dXX5ttvF5mDDy5rap9+aqaLN4sWf2cYuxlLd999d9/yt2zZYubMnS9z43Zz8knH++YpiIlr1qw1y5avMPvuW9pUrVK5wDwCfNxmeSdst23bVmDqnU5F4VWZ44sWKfKfmOtDQTCJXjD7i7nm33//TSKnkU5RJKVBaemy5WbM2Alm06bNZuWPPwkTdHhS90kmEwPpx598nkzWwDzVqh1uKlY41Pf873/8YQYPGWEOPqiMadb0HCvI+WaURNqPCWrjxn/N+g0bzF9//SWC22qzWgY9hEAGjpIlS5hul1yU8ocFE/7Rx58ZhKZ99ikZVIUCl85zjR473qxc+ZOtO+3Vvl2rjD8H7+abbxemVW7ZMgdaJsp78Y8/rpJJYbM3OaXjYsIAwKDlhP5a97f5+ptvpU8VNjkRBL+V9vl59RpTRSbm8uUOiakS/XfqtOk2vXLlir7KHMpYuvx7e/2xxxwdU4Ym8N4zRTlR0GSqDonKYQwcLWMgRH1LlChhypePbeNE5YTn/zst8PmsL8z7H8yMPlCddevMiSfUih5naufTz2abP2SeLFasWKaK3Onl7LHHHuaHlT+atWt/ESXtbhkXBBnbJ02eZudshJXcoBkzPjS/iSALf9CsSWPfW/z517poHznpxFoJldGM0b//8advWZlILLXP3inzLn73XbzkO8vPHHF4lQIhCG7bvMmsX/mD2bj2ZyNSoDDBRU1h6YOF+BXbU7b8iplCwhv/V4i+xG/z5s0GPiWnxpCd3S7/nTeTRksigDHYBBES//nndjCzZ881f4rgkgyhKUhWOzVr9hwz7f0Z0WL//vsfM3ToqOixd6dBgzqBQpk3L8e//va7+fKrb/xOJZ22//77Bd7zJ5kQ1gmjvVB+mzaNMa1aNjVFREPi0sR3p5ivvv7WJGJusXTtW7q0wTp64IEHuEUk3F8mzDVCIPRfsibACCEE0qdov+XfrzCffDpLtLwnJGyTVDL8+edfZsp776dySTTvaaee5CusjZ8wyTJY0Yxp7JQoUdxcefklaVy54xIs1tDuRf21yjtyxt/7+psFoqX9XoSU4r6CYPyrI2exbnwj5RQuVNgECYIDBg01MFqZoku6XmC/q0yVl+lyGFfHjXvXFlukyG5my5atZsy4Cebii843e+65R9q3Q7mEAq9MmQNMzRrH+pZDnp9W/SyWk99lIt/djtuhJde3qfI0ceaHH0cVmPuJoME8xliIIvGM2qdlrC6r5N0jBEJHVvtvWaFPP+0UM+qdsWbxkmV2jkbJmgn6S4SvUaPHRi0+mzdvMe9N/SBu0Sh2kuWJKAgLrfJlWAQheKPefd6yiJj27VpbpbE9kcI/LG393x6cwhWpZb3ogs7ZeBcUg/Az8Yj3cnbjBvGy5Otz22V+Xff1PLPxZ5mzUGDyE2XeVhBi/AoXko14oAkPI8yhCIZ7RITE3UUwtPt7GiMCY2E5tvnz9dP6V+5f5TECLNf+V+Wv1Oxce/6qW67XZvXqtaIhChYEYcBdQkuNsOJHGzasFzjDUr9TMWkMau9PnynQiogVpmhRMS8XjkDJNoi1zKWNjiUSq2E6VLpUKdOpY9uULp3y3lQ7icS76Oijj7QasHHC9MMkDx0+yrRt3SIblAONCUIMbYnmZK+99jT77VdaYA/72rbcbz/ZymQfBP/g/jDGX8yZG1iVNWt+iZ6bOfPj6H4yOxUOLW+OzZpsksmfV3nmzf/SoCjAQoKAvU404pOnvG9gkvbZu2TSAi/MzlsDhgRWm/fSWfpGlcMq+eZZ8t0ym37wwQeZvXwY8zJiEYxHu+9e1BTfq3i8LDHnNomGUQX7mJMpJmz6NyIIFpFvbFekLcKo5VfasGGjGTFyjGGMw8raonkT87b0VZjzEaPGmHZtWqRtqWFMgvEzXxoZb/aLEd6B4gOfc6nWccdmRKPvlhnup9YCk6dMM3PnyUsTwgJY56zaVgjEQogSDERJg/p17LiYWsmxuVFQQih3cgM+GXvHzKTwzaxesyZuYap4Zdun79sm0fgHqqdli2ZxywSKOWr0OLN+/Q4e5auvEyuamfNTEQTnZM31uIko+uKHH1bacWLb9m32fcWtaMBJ2iIZhIS2HcUkkz/gdmaF1BmrbDyibQoybVy5wmwQa2A8iuJbhJcp9M8/ZpsVDGUf/jrrZ/etcFhMhEKxJAqviFXRiLBYiHQRIuVlxLvNTj2HMIgSsaAqEndN7iiryzRuXF8sWRFG8WuZFBYuWmLKij8CVg7IOwicfNIJplLFCllXZ9/AcCcSBBHygKLMmTvPar4p4aQTjxeM/Sm+HQiNNppQTNBoQg+velj2myZ5tF6EVMpKhX77LVhAdssBOrqnDGYjRo621qvBQ0ea9m1bipInuza/YYO6gVYQtzy/fSCuC8RfJBlKNp+WtV0mlvwmCOL3oBa6xo3qmcMqR4S0H3740bbD2PHvWhx+Jnwh6VtobFu3aq5NEt0y4S/p+bo9btakkcBuU/ddPbtRg5T9e4AKDh8xOlqPoB2+163CnMQjJmMIvwWscfGIQTyRL9Knwoziv+Ill3kYIXUv5un/5KcfJ6JWwoxR13QIKO60aTMM7QcdXrWyVbLYg3z2D0F/8NARVmMO6qB1q2ZW6GvZookoLgabn35aJedHmg4ChfaOJck8SraxO8qJRK7E4uAKgYcccpD1TQTeE9LOaQG+H4R3VY4iOJx5xum2MgiDQLsRBBESsQw2FbigV1HrrTnjw+gx473JMccoZp9+9sWY9HgJKM78xsx412TqHK4V1DlZsspkR6Hsd926v9f7JUfTsAS+I225WuDxEHNSkPKQ87Q9CBbo8KpV7DaZf6BTlny33GY98fjjopfwzUIHH3RQDF8WzZRgBzeDW266NkEuY8dP5h8QCddcdVnC/EEZ4Os2irIrHhX0MWfjarEEJkvyjW+3c1tkfvMMy1YoLCQGka27ISSKYUSExEIyJ9stgiACYVEExd3Fmij7HNufoH3It5MJ/8hQENzJLyGd26u2iWthPKDie+0VZbxtgs8/JqL+bw22A9Kll1zokyN7ElYxNJr8XKseMMbSpfYxCKFe+m7pMhkQl9lkGBWsMTi2u1SqdClzaPlybpLv/r9iFfns89m+5zKRiFWtebNzBIoyzjK7G6R90mHegupSTqwFZ51ZO+Y0zMN08SWAgJaecHzqPiSlpQ3zE/GePpgeeSac8I+pvsOXrHGj+gafN/rqhHenmE3Sr2odVyNu9YHZXtati82z7q+/zcDBw+z+Bed1tAI8B0GwoZ9Xr7Z5ixXbPS0h0F6ci/8mT37PbBALQTKEUAujGY+wXiYSBOnbG7LGiqCygLKlS+lqiH8W2OlYgVgqwuHUU07MlSAO6T6Xex1w8iEi5P0mkEz6Xvu2raKWP/prk7MbGZQdMJ2DxAe5jSgp9hYreCrU9JxGVvl14IFiVfD4G/70k/iyZBE+t0E+0Jon3OZuC6Agmfjue9aCwp1QxAJtdAlFKIIfvuAo+7AMAqkLGru4NpsywC3sP7KPZbRy5Yo5epqlS5dHlY5BBaFMQ6DGgq+0/PvvzVHCv6AIdgnFIpBIFQKPOqqaQQmcLIGEYV5nHHTdPFasiCj0gHqr8n6TI9zi5+6nGIiHNEq2Tunmq3JY5aQvZfxW+i1r/qCPu+l6vpTwjJnkr7TcdLZb/kqs3Ey6XOk72+VnRLcbIyRiTUQ4FIWQFQ5F8IscyxYhkICFWBEF4h8VDkVoLCRzeqEiouDD8pjLlK4CN5erlVTxImaHlGoLgIsHvpTsRMMAip+hKwRyT7SfqgGNVwegkX5+QzgTJyMIonHv2L5NvFvEnMO3D2E0WWLQa970bMO9gKJmkmACcQb3EpHLlGAUjinA0UJRFrw7eWq0P9SscYyBmXeJSQ1r67AR79j+gG/GypUrTeNGDaKMtJuffTRU++y9tzfZWgGBRLnUWyBELilMGUWC9xz5WojwD7R3ZxN12EOc0f0IPzDqD2MRJPRznnzxqEGDOkZhpvHy6TkmcAR1BJs9PIEoMjmJwzRhKfnwo08sA4Wf3TmNG8YwaFqvnb2FQRw7bqJlKmmXDjIuefshzCVj6xjJB7Sqb78B5uyzG6YUOIE+0ahhPd/H/UWik0LcHyVWSDunBRAaPp81R4S7T6IIGQRAReR4a8W5wsIMAo+nH/Xq3c8iZVCG+c3FRFzsdulF3mLMHxIwZOiwUTb9uJrHmhNO2GF5iskckFAU5nIn01577uk7tqdSLcqIR7gngEpinEEhyFyzQqxzWGb5Pn8UpRiWL4LtINC/M2ZC1GqIINdEvttkietBw0BEyFbBDj9ijdEAooqfl1586TVvkj2+9ebrfNPzUyLfgZ/vIlZQv3Qg9PB++YG2ZiHqcr0u0v+2bxUJUYyJMUIiNxdBD4GwkMx/RoLS2MA09lhEHI4RFO0PQVF+xAywQqPsI0hmgHiPBZVCQTAP3hyCTEvx80KYg2EF9gcTcpJATf2IiY5OVblSRfFdOCQmCwOxatxiTvokwNCnGjRGneh9igtMimdNwWla4R2BBWSdoG0S+Z4BIdEojfgSVD/6yETF5tvzCCHvjB5vLSRUEkgf2l4/igiDrczIUWNtey5c9J2EWF9jhXD8+HJC8YQhv3P/rF+fUBAkTzKQSLfe/4gfQSpUt84ZJgiy/Wbv/lYQrHVczRjBWu9BhL1Bg4froe+WwEhfCJNS4dBy2QJWfPb5F6IwWWqOFcvt0U4fnCzfOJbbRg3rSgj0Y3zLzGki7Tp2/KQomgEFTPNmZyf8dnJ633Suh5FkXENohRBY24oP4L4BFnnGEvxGxo2faH2DCHwBwx+BCeZs4mYpFqi4KEL8BAh70ucflsy///7bwm39okxiqSBkP1DrdJZ5AS67Xr4XfKb9IEbcn7EcIdfvvLfKtDnXUOaewvAzD6XyvN7yMnnMt4HiS8cVhIx6dc+UcfyouLdBObbXXnvYIGsoZJkDCOTUWIR+75zBs/otxTRx4hR7D9rjrDNPtxH/3JtSN2BeB+y/v1Ugued2tf0ff/zRCoEE7WndurlV8iKEHCJzzbuCyGDJnAULF1m3D4Q4lGoIcIzJidAqblvSVxnLVFnuCjpz5kSEQzd/Xuxj4QGC61VUZfre9FMXCYJSmL4NHNodZzAo0E4h+bSA8MtYE7dL28WSWBMR9mTOwdfQ+hvaLdZCEYFEqYPgGBEQOY+QmCU4Srq8iNgi/2MpoSCYRy8Uyx0/9VMC1unnQM3aSapZaFD/LF9IHudTEQRhMBRCmUePG3MbNIv8kiGw/ERrjUdYLHXSgJnoI1aDZAlmMkhwSLaMTORjwP/k088tZHjr1m12Aj31lJOswKIMG5DGQUOGm21yvnOndpbBxK8ASBtWIJYHwX/j7YFDLRN15hmnpcWEus/ToX1rs6ePj5vmYckQN4iRpvttsVomiirnd10m0mDMFaZ5wAH75ajIv0U4xQ94b0/0vd9++836xlasUCFaPgzE6ixYLcxkbhBBGmhX/QZqHFvdMl/50ecEBdiUqe9HgrdIY2AlBboJekAJnz3QEUccUSUqaOMTve95naJKEpjOJd8tFWHwjIQa8RkzP7KWAwJxXX/tlfY2L/Z41eDUr8wUyin1DUNBp/5AfHMvv/KGvaZRFqwNgV9ht2c3rh+FbDMW8w3P//JrK3Tp88DYsaZpwwb1rBCm6Wy95aPc+eiTz6IRBvn2QQQwThGFmbIRojWAEow2Qk+Tcxr6Bi/j+RgXCLDlwvn4pmvWPMbCLnV8ceuVF/tA+IC+szaqEr5mCLYE/Zq6Zromx91iyf1H3hPfJBBiLCcIHlinaM8gQlhB8QMBWfT7XsaJQIIiFMRDPOVm0D3yMp15kGjE6dB++5YS5EA1aS8CevlbBpuc01gUD7OEVzkhW1sB+eT77ffWINufVcFDPQhupn7tydaL/ooAroQSCOJbIaYChKXYXesRCKUGQrvmqm5RC6LNnIF/jK1vvNlXnv1Ei0hKRvmSzm35Fq++slv0UiLJwysdfnjVbEtn0Nb09Z317UYrWOB21Jq4xWx34MTRx5D2twIiwp8Khln7FlaqQqNNEyQAebL2rYAp1xd0CgXBnfQGicClIZK1Ckzg0z6YYQ8RhrbKQqnePJxkDb5kqNwhB0sY9vOSyRqYp3jx7PBBzQizS+Q9LxFV1bWMMJBDaNWIGuqSMul7ChO2l/hmKh3gMIia5m5hCDUICOm0m2qW3XxB+/8m6VcWdH0m0vEL/WDGh1HmDqsmzDFbl2hnDUGtCgLOMxngQ3iIvONx4k8Fw4dwsGjxYlle4iSJuHdc2hPj/hJlEYsGfRQIEARjqkuDAG1MVhBEq+m+W1tYgn/c12VgE2QPPO0ySAjL6RB1wcoDnAxC4+1GgtOgDVgxSaefkx/BHpo77yvz7YJFdt/9x3eV7jIg3GdCllWDgAb4SqXij+LWIzf3afMPps+MBnpCgGGBaxg6LzOzbt06K2ipsKP1gtm88IJOZuKk98wCaUfKxF+pvPj91a97Vsz3otfR/owLfD9KW8USSJpLeux+W6Rp+rLly230ZD12r6VvoICx0UndE7LPuIe1fs2aX63SZh9ZY0zJLX+FCCWLFi2O9hfycB6BhW+MbxGh1iXqigCEFfs8UZh5od9E3nQFLb0W/1YYbtoYf+OdQSwro77vjPv169WxvmBPPfO/lKsD8794yVKBLs6w3yUB0VD+BIXjx4JOf4SqicW5cqWK7BY4wj2APoC1aLYI+6nMfd6HRdlyeNWIosR7jmMEZe+C8QhsWGEXiiXQ77sgqilRWAkSwy+eHyf3oC/78RKcw2eeJWUY5wis5wruu8vzKzEneccUPZeTLZY5lDD4LtaROAVen8igshHmmAeSISzTLgJI5z6vMlbHqNx4zmTq+Z/Nw3gvSnl/a6I8tSipooIicFKEQCsIsi8ilASsKUx00+IlCmwT7dKCIMFbiAIIMUlCLIPQIwtvDsa9fr2zbHqm/zF493qzX2CxDI7xzgddyHVr1krY9Fyg0iLkqU8iTJCrBdTbod11BUHVordo1kSEluzQxdde72Ox/y1aNI2Wq+UEbWEGFRKqefBNTAYWSdQzP+drLSevtsC1gNXArDKowxjDIKtPRCr1wLJ5ycUXyGT1iWX+0GJ++tnn1l/ShZukUqbmpSxd5/KoI6tFBUE9n8y2qWiUU9WqJxs1NNH9Z4n/kRLWMyDHaLJTIawxrkUTS7yf9RnGnV/DBnUsrEfvwWL2fgRjk64g6DJfrLeXDgzRr06ZToOJ0yi+QYqOZO4J88c3TnCKqVOnW2sNEXS/XbAwUBD0K5e2kinfTJo01cKqEaA6dGhts4pO2O8SGwkaGOvxtWpapcseMuETrAFC2FIhkO/wOFl+Yn+Bbf4sUO0FCxfaaxn/EFCAPfoRVlDqgSX/IAnhv1qsYpOnTLWCpPqP01fqihUU5nrdun/MjA8/slZoBLpvvlmYDfKMJUGFQMbEWuIDV6bsgWbN6rUiNMyzVhf6NPDT3Fig3e8Z3bQTZEkIBEEEMYRAHaOAaIKQSIXoF6zHSdsj/DJunCjCgh/xzaA8gbFnHKgnSoSCSi5csGH9ujZwjt+zgCSBGJP223eH9V3zYglMRLQbikgCh9GvCS6j/npcS9/En6/60dXkm1ppXVAQFFn/lh9zNbDSAwQFcOAB8pPgTWx1zOKdE+SK+6BEU8UaZQODVmsgSBlXCOR8bhOKCiLXThdFDHM2PpFfiHUSBZQXhuytC3ykKnC957zHPLcrCG7aFOFFgXO75I77bnq4n8stIMpEop0GWhPFwLGbKHYL713aSCCCXK5M7hS/SwuCwFRUANTmReuiaTDCfsRaNulSCYGWeWETROBSCwLlwnhUOPTQhLcoU6ZMTB58AZURiDmZwwQEYxUEsQ65kd1++WWt1YC7t0AbzwAKsXZgTongMESXg5hcCKON9gxfH7RqiQgGIB4xgU0VTV5uEcwOkWrRkBLchnWssAIClcsJMWEAc8Jq9960D8zRIuwog5WTcgvytViMdRkFGB6+5fETJ1thO1mtLs+PVpb3g8UPxhvB3bXarhMLFeMF9yglPnp7C1OP1QWC2a1QIft3DPQbYbKsz7drL0rxnzJUqVwGQ/yrQFpzgxCSmjVpbIs+o/apNuAU/rswcukoOtw6Mm7C9BNgZNHiJaJAOdk9nXBfrXLFikUYYNZW8/MhcwtiLO7Qrk2MEos8aPwZD2GGm8h3rBZzllmpKpaWl2XpFaLauugFt2z28Y1r375VNMAW15YQazyWRoj+RqAv7XOcZ63Wnq/2sn169eodEVDpn6q4wZKK5UhhkiA1KlWqYNdpBIkxfcZHFkqZW3A3W3mff4x/3oW3yYa1J11iPG0j/msw3swLXoKBHjN2glFI6FkCuU3nu/GWq8d5NW/o/dyt9gs3TfeBRSP4ljnwQFEylNXkpLYIMkRoXSPrFWKRc4lv4rDKFcXaV9X283XiN/unjIP4TyOYg2L68ssIEoL5n/7GDyWuEhZp8oLaAIZLmfTrvv0Hahb7Pe1dsqT112Ruy3OSb4+lpZgvaAsUOsDcgWii7D5T5nCEOD86Tca7jf9mGReWfW+VH/RTP+VfEfzQHNJI2IwrLqkgKNUKKb+0gIwtCIhb5CcTgjHH1MgvNUupHtl7YEqXFvzMNWsca6ELPMnsL+ZZaB1M3zmNG9iHczVv7tP+k7WGTzqTCYyDClM62KoQCKOEIMrACyMRFAWTwWj6zA/FChY7uGO5IcTy+vUbLaQBRgMBxCUCrRB5CyYDbWGyhEVQCQbCje7GIA8UyiUmB4gBLaeRErG26Np6TPYdO7Q1Q4aNtILg98JY/50lcLr39+7j5xWPaBcsqrlFCpOlfLTx+DvwDjJFMAWdpF1CMtElOBCIsZiideZ7Y1kC/E/cYATx2gvlBz9d1gMoFVHblPDRQfly0oknWMsMkXZhDKEz5bsj7DlWaHz4GFsWLVpiz1WpUslud8a/H3/8Kervlun7a2h3ymX8vOzSLhnt44yR+Fb7+Vdn+lkor1LFQ32FQM65WnyOXaKe1aodYa3EQHlh4vy+dQRbb5RlmHZVXmB58DL7CHekMQ+4673qci/Uo5H4JqoQqPXifdAnCTTFPEO9WDc3rymniq+g+vpFMKbdx4oQyLp2SuXLH2J3SfMLTPVvFgO/VBh4gl15CWHWfSd5OW9464LFmaVYgBATKMr7zr35kz0miBNzofZbnvcg6SsothACVelBefPnf2X5iaoyprVq2dwGgGK5J34Iggh7P//8s5QnW7EswjscmbXsBEFnEFjPkSVjvP0CC2Crls2sEJnXCgu3nWhT/HVr1Khu3hWIOmgEXDuAdAf5D7rKRiypEIoseM5EtCHLncaruLZLK8jFOVWoJbp/eD7NFpCxpqDSLi0Ios1RjU6JEhEftZIlSsQMSN6Xq/5GqmH2ng86RitGuP8VMpD8IBYLNLhKQNaA/yDwgJeHwUR4IgS2Ej4O02d+HNWsjZIJ/fLLLs42+AMf4kfZYNsZsL1RC1m/C0GwcOFC9hyTiWqb9F7uFgbGy6y454P2f0dDIuQ3QQdd45cOhPd9CWENqRDoCuFqgfG7NpW0g0Swzk3fmbIC0XLJjzF0z4f76bXAN+K/ohBgIHd8RyxUzgLlMDcsX1B8rzb2O0nvDv5X8Q1haYEqCsME5A+GAUtEFfmOQSBo5NzDKu/4rv1Ly71ULHUETckN8irPCnofP+SQiNCQqK2AyuNHytpfWAJYaoRoionIz1JDm8F8YsXeb999fYsomeW77fIeynByAWgJLM9ecpVRq8XaszMEQb6TRYtFaehW3lvRNI4ri4Diwge5z5ix42MUlFo082w8/zp8rgWEEkMo8IiKqZTX84bel+0iUb7CjyDYZ0oIpFwszy1bNJX1i/e0imVX8ON8soQVjB8KNIh3wjei7wkBD+VlUD+Ed8gp/5BsXRPlgweirkCr1S8VHovv/pyzI8YDvzIUmVJRlD4QAa++EMNDcwlG5LX6gaL6PcsfHfSYS9skZgQUCoJuq4T7mWiBXVoQTLcBWdQbAgaWLPn5PWGtO/qoIyWS27FWwGFyXChaJqV3350sePrOlqll8HEndpYYqH36aQkHfwTCF17sqUXaLYOxS73e7B9XECQvQWeAG6VCahkJYmaSKYsJDkgG5CcEko5fYlBQG84rwZj9KwxaEAETK3VMxP8nKM+ulK4QaZ4ZrW06BFSVyTIVYv29dAm/qgmiRIHQMGs4ehiPtgIfGyCQO6BLo94ZYy64oHNMoI1078t1wD6VsUTYgjSoDhDTJRLYgv5MvWCOdhYdIZDVkJJrgUT9nmAls2Z/IVbgn+27Ta7UHbmAxMWjVARpYHxKLLeRiFaL3+DOoI0CpSbgT6bpMlkzEAEG4jtDCFy0eKk9JsqoKmFsgvwDmVPKCeKj6cyzoHKwiuFL6aX9988unO/MeQOINORGLfbWl2Vv9hNkgh/tscfugVYqlND4+bG0UTxSX7iVYqEePmJ0vKwWNeH15w8SAimIqKBuv3YLd9mYZ59/SSzu7tnIPus9XnvN5bEncpACpBXr3tSp75vvli0XZNSJgaXhQwwPhvAGdBbCzxk/y9lfzIkJxIMyh77Ld19G5gmXCHYFhYKg2yrhfiZaID3uLhN3LkBleCdjHfi2btlsYWAIhN483scDAoT2F4awXLlDbGhxBkA+aoREIj8SGhhioFwvgwfY+dfe6GPT9B+TFzCFRM7Kmp/yvZAL/Or0GciHtk6hM8A79FkQGBcvWWaLKiyau1QIDfk8iZgIAVVNl6h/S4HiTZJgAOypYXIAAEAASURBVO3atPT17SAAAXCdRASExxWmE+X/r5/HOkDAjcNEkPbzlVKhBqu5anBTbRMmQX55Qa7lGGgda4tpX+b++FK2E78p/FDwwyC6XaJlSrz1XimwypGjxkSTYZSU8MECElRCrDXK3BDwANpD4NFotoF7ey3Den24LVgtwPIt+A4pESG3ZImSptgexWxAEq/goflya6suBpSv/c/vXljLOV9C0C87gxjTg+rHHMi8g4C8//77J109ynSt0QQdWbY8YhFFadqs6TkGYcGloEBwr7/R1869RMvMz0oTYJeKfKhYobz7aNn2QUgEEX02HlyR5XHUohVUhqbDVyTKe4wIUakQFjK3Xwddi/DkR4ULR4Qnv3M5SQOR1Fz4EuY2F53kLVMV+/BtarE9/bSTrb860c9xEXH77Y9ZbgVAcTW/lqnPWLhQYU0Kt2ELZKQFQkEwoBkRZBaLhQ7GrmOHNjYsNVBQm74kooVD28gPmAhwka5dzg8oLeL07zKdaIpYfwoBTBluG6VKcPVonLCCaXRMBpqtoqHEuoAAmKwQSGWAHnTu2C5bvYCGYgVUwueJSIj4jNSUCGDA2iD8nRAEgUQELfysZXi3wGqwKIFzx28xJ4QATYCBkDLXAqNFW47PBpMLAT78BEFVFuB/ki6ls2YjvnxAgV0hLt79YRx17SXy8b20b9sqmx+PXo/FAH8ULCZ8d+MnvGtq1TpOTyfcMvFr+HtvZiZ0olsqIWhrFLw1a36xCpezd4JPltYn3GauBfCF1KjJWHebi6CBz7bbZ7GEZwq2nkzNUTDw7VCHc2XN0Z3pVxWvvnwnF5zXMSYL848GC0EI80Y1JcIk602iuPRalbyFETwMP0lg2Y08CiFv3oJ6DMRQyRuUStPZIgjvuWfE9cVNZz9RHykn/pRBy3FoWfg9IwAivBBdNx4lo7B1ryeAjLsEjHsORTn+kRDWYOGy7L77z/0e3fRM7ccTArnHggURhFdVeQdKuAF9+tks6/s4Z+6X2QLI/PTTjzYbvpNeYi1hCOE9pLAFMtkCoSDoaU0GF6LqsR4bPhqHH14lW0RKtGvACxFw9hOICA77SvGw7DCrRI8DHrZ4yXfRaJpci8WFEMw1xRkZLRC+Cy4D0aB+XashBXaB1QPLA1CXZAhmdNLkqdmy4qvkJcKMvyv5uDdlM4AyWEFEyEqFeNbPP59jLyGkerrWpGTvOVSCxqARTkTe6GeJ8v8XzvMuUDos//4Hs0wmayXttwj53nXINI8yGqlCgvV6tkR9S/X6v9ats0VQ92QIYXbp0ojlmm8Qy3G8KLJAnmAy+Zb2DfDBCrovml03Wi5BZFCY+BHWQ6X3pr4vCpbyMVpePR9uC1YLMJarhp6+5F0ah6fRKJV59WQaRVq/eT//w7yqSzr3AfVB3XEBcBcO17JYxoXATCgZLzi/U+C4pflhuFNdLkavLQhbDTxFXbE8HSdzuB8RyCrdvkC0WX5KWP3o964ARCwABMFS+5SMBrjjPVI/+KecCGMaw0Hv7263iLVQKRlUlubNqy1zLPwkz0+EVSWOQTEReGbWrNnS12vaWA6gR9SKzRrQXtosCDQot/kp733D4/9+C+zSgiCDFVaBn1atin6AWEHUEoKGyx3EyA/eHqouEC80mH6E87aXEWVAGDpsVNQXj3JhKrH+KfyEyJtAjbDYQcBjEF7AyKMhxZ+QdclYlLfLhefFOBr71YU6J7OcBBPmx2KhZPD6YPqHdqBnHx8Zwr+nQr9JUByel/rXOi6+hjCVcoPyAh1RR+qgPKTTFrsaAT9Ry7I+O76pRxxe1U7armYdX0sCCHEef1WFKletcpgNSLDihx+sz92h4uuw//p9bSABLXNnbtFqt2nTwsyc+bHV/rtQm6B6EUn3APF5RcmRCsOOhZ1gTEowpUHEgstKWAYJJBMv0qTmDbf5vwXcoQSFoZcYO/nlJZUVtIgSSj2sgl54GRbDqSJQQWcK+sQNRkYa1hcgraXFPy6dAGGUkQ4ReVJ9yhsGWPD4ZleIrxv+VShFQdh4ny+dexfEa4CEuuMWYzzvP12BL5k2YE4fMmSkLOewWZZUae2LuNByxo6dYBaIIMj80qxp44RCu173X9rOmRfhFUFYEb0avhKlIWsxqpIQF4W58760io+54koDv8f8S+AjL6kiezfhq0IKWyCTLbBLC4KvvPZmFLqljQqTB+Nbteph2QYvhAicz3V5gZo1jzGTJ0/Ty7Jt+4kPEswokFIVCJlU0Rz//vtvUn4V65dFNEPgLqwn95lE8VQBEJhew4Z1zfdixcHi8Ouvv9ry69c7Uyw739s6vy1O1K1bNUsYUYsBiIWUXUJQGzh4mJtkNVKtWjS1ztlYSpSA9iUKbAFcjoVWoZ/Fx4MIY/hfcB/un9vUqWPbpHwEEcR3NR9BhfnSp/AF5Ac8x8+C2rpVc/uqsCLPlEV0IZziCY4AZAsFxzKZxM4+u2G+00ryfRGFLVlCEYMQmFvEhL9AgsdAaOp1wXnWeMxNZi23nicsN3sLEPiBPsS8MFsWccdCgh84kFGErekzPsxzxRPjNOuUAVlFSTlExruasmwJyyVs3iyuDoJG+fSzz+0+PrSHSrqXELAQBHm2xo3qRy083nyZPKauBJWC+FaC4IP4+LYVhc9bAwZbpnr0mAn2mLruSoSwjjKYvse4hw8+Y807EoCnvQhoWFQzTSgFhw4fZZdrIs6BS34K1oqCWlok/Q3hvk/ftwVe2jDpJXvcsgvqPnwigcugX4R/g9fEp9MlUGW4+8DjYRD4Yk4kKB5R3r0KDndZnt2L7u4WE+6HLZDjFtilBUF8nzDHE3ELwQ+m109wiQiBrEX0nW1wYCtB2lIGaXzj+HkjzqHRVEJbTCTQhYsW2YmZdDRBx4u/EpM5Vo5vv41YFIoWLWYvQ7hEWBs24h27Dlj/twdZf6d4a6IxSWKZYz2k9f+Iz5Kspac+iVjS8A1kEKp1XA3re0iwGH1OtRxpnf22LD0xcNCwaEAQLB/Uq3XL5rZMv2s0rWzZA+xi8PHgH5o33KbXAkAlu4n/hJ8PoF+JQN5YXgHhnr5Dn0VhQfRNYMNoedeKZpMFnJMp8xfJWyJFy4ha5P3qt7PTtknkNuBRSu4ErWlERVQ4NqgCrIAoR1CwDB852q5DCBogpILbAjBqjJn4cjPWA/NyiTEXC3uQP6mbN5P7Z8gi16zfChMKM6qKS/ce+BixPpuf5Rx0DMScB/okaC1bt7yc7OOmMOqdcdYSwjcRFMBF77HXXnvZtdtmiKIKgRs/TJ55V6KZH35i/ct4ZtaFZF0/IpkjdPXu85btlwQkyQTRDxi3CIyERQr+iCUUXDcYP0H8mOpHi+95KTNq1Fgr7BAl9swzTs+z9T8z8ew5KeOzzyNuNZShAiBtd6goYcuLEql8uXIS4XZv8/Irb9i5FqUGClgUtIwrXlot7h1K3iUnND3cBrdAkb33MUX33d9s37TR/LtWAlKJASYVKixKqGJlDjK7yXbT2tVm0y/+aMBUysxPeXdpQbCRWN2YWOJhroFrMvAi8EBM7ljJXILxU2IRWgghCg2mUkRTvMLCApYuW2Y/ej2Hj9YJJxxnJ12tSyT/cpulVKkdy1QAtTivcwe7mDpCFwMs9VHHeiA2s0RDreuEwdC/8OIrequYLdpYBnuEw8nvTbPhojUTvpBv9OpnTj31JDs4ea1ICL2EluYeWD5hePErRMgdNGS4HfSxrgIz8mq4uEeL5k31Vnmy1fDLeXKzfHSTZAQ2NL5AiBVGjMXg7EYNohM+jMX+IlSOnzjJauOxSHds3yah/x/CI7/8TPhQQslEYyN40uIlrwU+DpAtJnW+TTS+rVpG+jjrGSJk084EOOCb9fODCizYOeG3yLVzOtyVFgDiDHnHLNKUcdUtaS656e6+m4f9enXPtGgJxlvetxIRMevLue8FxugnCLpluvt6PVtNDzR2ZZ3wO99ELPb7yHg8TyBnQM+UKPMIUXiedtop0e9az+mWeQT/dJ0TND03tjDIrJcL5BA6XnylsFqyyDs/2hTmGOUlx+yrX6bWB+vnoeLTnqzPvF7HUi9B35H60H8n6IegPCVLloyB1WrZublF2MOCBOGXquvzsTTOFIH8ogBAOfHlV19HFcxEokSxzBJLCCPat7z15J275xirJoqCQ8dH5vgO7VvHKMFZF9CPsOyef35HM2zYO/YdYyXHnxBLs3sfv2sLelo5EfR+lCVlaANcKcqXL+8bcK9+3bMsr0awM+jIakfEILB4L7NEGIeIAO83ptmT+exfEUEhFd1X6itRlHODtgv6YsP3y832LN/JoHvsVqKE2aN8BbNn2YPN1s2bTKE99jQblkugpYBIs37lFBJFbtFSpU3RvUuZretlrA8FQb9mKphpuuaQX+1h2nBOV+sZeZgkYeh0EGONIWA0TJwLFy6xxSi886CyZbMVi0CJ34YS1sLDKlU01SSiJsIla5shRG4T4Yp7E1BGLQ9VDtsRcYrr0cYhDA4TqAaL1LvBOBjwSYO4B9YcBFIWht1L4EslSxS3mj0mCwaUKy7raqOXMhAx4KAtPuXkE6XM/c3kKVPt5Mu5OXPmmwYN6hjgT0r4JSBIov1uJ1EagaQARRw7boKNpkq7aNAbymVNn0LCoHFfbUPK4r76Q7hE80g7q3Cr90t1izYc52vqBwSXSRQqKkJOSMa2yRfyXr8WPzftM7QL/QvYsdfqjS8rEUaB2MKUYQmGMYgXxRYYURHph6kQVnr1h0jlumTy4vs4QxgSlkPBSgdjqYxO+fIHJ1OEVfJ4M+65ZzGrgMG/ljLp782anR21mtLnCWIzavRYqyjhm1olQuM5jRvYenjL02P6LEE0UBAVlfryfa/6+Wd72v3uNX+4jbQA1gd+fpRIAQWzfOvN1/ldGpPGGMUvIrSst0sycD2E0u7UU06MuSaZ8hmX4xEw6CAoNH0NKxl+5cC5UVSypAUKR3fc9SufQEj4D/cWOF9pJ0iIX96cprEotwvVHynWo3jEOF5amDEsTVhT8LPi22XpJXzmtd3jlaHnpsm91VKjad4tFlF+fsQ86PWv9MuXyTTmSALZQSia3WiezPPNmjQ21WSMJs4AQpySChl6zNjE2MdYsn3bduvzx3jLeMJ6wUqMOzo2EkOggbh7YEVGKc7SUIxJW7duEVhqBLlUsuQOhbWWwRxy/nkdZNwbZ5XMBPvB8vtfDuLDs2PVSxRBlXwVpR/1e2ugnTNoK9x/IKLj4hLEPLVCeEyU7RC8WUGhIsVLmj0OPtgUKV4iV6q8VfiEjSu/F0EwuPhC0keLlT1EhMCDYDQlrmwhs1e5Cma79NuNK8RoI2leKiT84W5Sd/JsEyTddllBQAZOwrWaQjIGCRPrvaTAH6fGoRX4x03+AVg/R4VAtDBA5NTfSksBNoMvEJOtCoCcQyDyfrCsn/PNgoWWUWCirVTx0GwM4FqZ0MYIJM8lJm1got51AMmDdu7czu2t1tkVzljuolKliiIAFgvUHFFXBEH6NvcgEiqTDM+Hb6JakNBmfTB9pvVhRGu7Tp7TJRhZqM5ZZ0T9EphcWrZoJprwpeYr0UquXfubde4Hhrp1q7/m0C1T9+MJF5on0Ra4DJAWl7B0pao9dq//L+3zzvFLUGsG/rHHVv9/e+fhZUd1rfnTQZ3Uiq2chXJCRAlEFCCEBCKDMTa2n8fYz89v3pq1Zs3fMfNm5oVxwGCwTU4iSgKEEAgRlQDlnLPU3ercmv07t8/VudVVde/tHPaGVtWtOnWq6qu0v53OLDtkCtcxTLgu5L4+/8IrNuTn6282mqVLFoU1tcsW3bEwWQwpslFgBRXo0g1MHNgk45+DhMhidAkKQ7dcLrkZ6YQwbIZbCRPGF4QE8vyjpBMW6guKKmFV76/40FY+PCSKLAYKlLIoQenF2BImcyX/S6VrIEB4e1cLcefdDmHiL1PhnUDxCsR5mzLdNtt2GDj5fkJiIBgYjci1JEqHv8R8sekr83jggvjyTSIUEoMpxhFSOzKVsUJGqsSY1VLpjLFAuZ5E1/D9vltIn1/N050HmPIHcdizd68QwhOin5wX8ibf7/JyWwk98S2udZskp4MHDUjOM0ORl5deet3cItELfvoJQ1n5dQTcRjNE9wgTDNFEjxAuT1hjTyeBYMC1ykSOHjtmrxVGe4yvLlz7ghAQN7Yz/RBdMlmiq/zrkEn/ndkmRwwOueQzinG/9vQp01Ad/7zhdSseKbnXQraqjx1NeN5iTqBRPIIX5XsbKXINCoUAFo8aYxrr6s2Fg/utF7B47DhTLB7Ci7U1pqYpFN7vI08MGiUTJpmGygpTfWCfDN0WwzT9DbvxfI68+JtT4jY4ofV74y96truYO6LjWTiWNIZqCBLA4LGjWLqbpUAsdVHl+IPb+b9RCN9+5z0xOiS8eMOFfI4XstiSvvx+w+ZR/LGIYjm+e8mdlrTxcsfjEyac3/diGcXC7AvHTJjKguvnp33xEW5DdT1ut4sXGw03XSLMJ/yFicKe7mXqQrIo3OPIq3987BOi4qRv32JRbianhOy6dV11yjkQmozceMN1yQ9FWx0vpGv//oNCgmaHhq5E7QeLM97ExXfeFmpwwIBQKYrW/HnXJI0EUX0Fl+Od3CDVeVH+5l17VXB18jehRhTBuFKsr9mMc0n4mS9Y1zF6xN1vHNNR8TBD7sIMM/RHODf327US5h1H7mi7QSrKjRk9OsWbz/IwwWtCmDbRAnjMeW4ZN8wv4R62XXdaRkjbYcF3lIwZOmPGtO506D3mWHkfE9JPaD/eoZ/JEA1RBqGuctIoyzz7QaNL2PG9Id545PbbFjYjlWHtu+Iy3jG7du1p1TPCO4RvN15APHpOSN/w01nc8uCUbzgGVqc6QtpJAXGF8YLts/ntPJ63Lbwp7bcOAwBFuJAFkr7SVoLh7fMvvpLoqdJmaUBttQ+/H77BkHPfw4xz4YSEH3KNMIQQBhz3ffL768j5o8tfjdwdhKtk0lTTKITrwu6dpu5sIlItaoP8AQNN/1mXiweuwVTs+MHUSWHFWJH7EDIoN2JoswKJamP/eCSrhARW7d8r7S6Kl3KsKR43wRLTyu1bTZ2QVF8KhDxyHPXnz5nKbd+bOjGk5Ek0Rd8p002BHGOlnIsNLfU3apofsezBkKWZL9p4NIbYZt5NsuX8CZfS05ILQ2aUCIaAoosUAUVAEVAEFIHehAAk4//+++/tMEWuSFRvOn89V0VAEcgOgUyIIJ7Aym1NxE68dDliyAwLrywaPdaUTplmaoUAVu7eYRrEgx0qOBM8A0ZYm3whbiWTppjCsqGmWoq7VO3ZJcTuvG1KwZdCIYIlY8ZZclohZK+h4lJF195IBKNjksLQ1WWKgCKgCCgCioAi0OMQwCP0z//069DCXj3uZPWEFAFFoMMRIPyzj3jq+vRvPsRJweAyCSWV/LziEgMpjKrs2Vh1wVQdkDBPiSwLk/x+Uhxm3EQhgcNMXfl5U33ooKn3SCW5hTXiIcwjHF0KyDRKGGjljm2msaY6rLtesUyJYK+4zHqSioAioAgoAopAPAJh1Z3jt9C1ioAioAhkhkCu1GgoGDbClI6dIHl7dZLucCk0mR6o6kmV0SKKuwQkV9KmIIo1EspZJeTOSDhtUPKkMi4ksGTkaBv6WX1gr6mXnNpg+GiD5GBW7dtt8qSCKJ7BBknBqdq7K5J8BvfT034rEexpV1TPRxFQBBQBRUARUAQUAUVAEeiCCFyUPNWaUyclNDNNHqB37IwFWCxj+UVJnhQiKoYEjhZiJ5WSLwixq2XMwADZtNtLeGlDuQxJI/l+eCBLJYy0sarC1Bw+HNV9j16uRLBHX149OUVAEVAEFAFFQBFQBBQBRaBrIAARrD0uuXv792R8QEWjRpvCIcMi2xeMGGNKxo23nkYGjcfjmB8ypElKBxJeemHPTikEM8PkDyozNU1DM6W06QU/lAj2gousp6gIKAKKgCKgCCgCioAioAh0OgIUjZGcZEI5M5WcgqLYyql4BBOewN1SGXSMKR4z1oaESmmZZruQvTPGh6mvLDdn139mZLBjGUrioHgPG5q17Q0LlAj2hqus56gIKAKKgCKgCCgCioAioAh0MgJ2zEAhagVDhmZ8JHkFMja2FJuJEgq+1Jw8bnMC8R7mybik9TIWIMNXBIV+8kv7y1iCMhahkL8qCRHtzRKNam9GRc9dEVAEFAFFQBFQBBQBRUARUARagED4GNF0xJiI+ZKbB7nLVBLDTkT3SZXRuuPHU7qr3CVj/hF+GhhrsHDoUDNo/o0pbXvzDyWCvfnq67krAoqAIqAIKAKKgCKgCCgC7YEA4/6Z1AqfjVIdtHzbVkNVz0ylSCqB9ps5J9Pm2i4LBJQIZgDWORmIcsWKD02RlLW9a/Edpo+UsG2pMGjv+fPlpo+U0R0gg162p/zwwzZz6vRpM27cWDNu7JjIXa1c9ZEYTC7agYRHj46uyhTZQdOKPXv3mS3f/WDKBg82C66fl665+WzdF/b4rrpirslmvzt27janTp02o0eNNGPHjg7dD+s3b/neDB400Fx++ezQNj1hIdeNv1wGac1Qvvl2o7kg5ZNnTJ9mysoGZ7hV2zbbtXuPOXlS7k25fiNHjgjt/MzZs6ahvsEMHDjA5MeEhIRunMXCysoL5tsNG+0WN95wfeSWBw8etu0GyT0V1y6ygx68oqOeSa7V1998a86ePWcY9HzAgAGRqG7fscscOHDQjBkz2kybOjmyna7oWgjwfTxy5KjpK/lDY8aM6loH1wlHw3twoNzneFHC5OjRY+b4iZPm8jmzwlbrMg+BaqkmufKD1fZ7eecdC1uly3nd6mwYAqKT4MW72Ngo4ZepRNCm7dnlmefkXWxsCMn2C9uxLssWASWCGSB25PBRs3fffhlot0+rXxz79h80r7/xlikpKTa/++2TGey95U2279hhtu/YLS+9vEgiCFncsHGz3ckVc1tnbTl9+ozZunW7JXWZEMG9+/aZQ4eOmFFCBLIhgl9//a05cPCQufaaqyKJ4NZt282XX31jhg8f1mOJYKO8SN9+531z6PAR8+D9y8ywYZnF22/YsEkI+BkzVAZ2zZQIbhFSzf6ykUmTLhNlriR0k6+/3mD27T9gbr7phkgi+Mab75gTouDcuWihmXt56+7N0INoWlglA8yu+/xL+yuK4EG2V6z8wOI2edLEuO6arUOpPXiofcpSc83Hi6EHQcmB5LeXzJk9y/STwXrDpKOeyWIpCPDd91tNRUWlgZDfdOOCsMOxy7bJO2Drth3mQmVl1kRw06YtpkK2a42AFZh1ttTX14vRbX2bH8aC6+e3i4GG5+XNt9615OfJX/282XHzLH4r77CGdirscOUVlyfPC2PCyZMnmx1DWyzAEDxr1ozYrs6dO2ee+vNzhvv+oQfutd8zfwOMU39/4WW7iOt81ZVz/dWh873hfRR64rKwrq7e6iisv1neHa0x6kftQ5c3IZAjxmlHBMWgmyKyPLekxPQZlLkhOrdvqSWWKf3ojzZBQIlgBjAePZaIOx46dEgGrTNrwsfMF5S45198NWtle8Tw4WbpkkV+VxnP10lM9Ucff2Lb41FyhNDv4Prr5kUqfyjpVXLcTs6cOWtna2pqzX6xxKcT2iHHjp9IaV8gHtcRI4aHbs7H//CRI3bdZZdNCG3Dwt179tl148dFe0IjN+4mK86KkrB3735TLYOh/vXvL5olixeZ6dOnpj36+qaXcl5+Xtq2rsF7Kz6wnkf3O5Pp42VllgjixamXsXz6lZZm5bl0+wg+K+u/+FrIwA9udcbTpXctiryv0nXy9TcbLAmk3YWqaiGFH6ZsMnz40Eiyimd6oxCL9pC54u12RJDn79PP2l7hd8c9ccL40HdBRz6TvKeum3+tWSVW/U2bv7Oe2ShPyZEjx+yhD5F8kGzlUyFOkM3WCN6srkAEec/zzLS1YIgLeuo/Wv2JKNt1obvC6HT1VVeErstm4YULVeaDDz/OZpOs2s6cMT15XhgEiHRpD+F5SkcE16xdZ3UC7vEwox332MyZ0833YhwBk6LCQvs77nh7+vso7tx1XcchkJMrtTkhgxiQxZvnC8Va+k6QMf+o7Jmh5DCgfDtGBmV4GD2yWa8ngq++ttycLy+PvbjnJTQUgfg8/Ze/xbZlJR6DKM9C1Ma1tXW2/6j1UctLioujVqVdvvbTzw1KOoK3J0xZxToa5QVY/vZ7NkQzuKOTJ0+ZF4TUZirfSTgpf0744P3yFz91P1OmKHcNEmaAd3bM6PCwITw8hMsg48ePS9m+J/0YPGiQeeKJx8wrr7xpTp85Y7geEHOuWZzUCHFECkVpyFRmzZwhCt6l6lvbtu+ymw4ZUiahwANDuykWrzfy1J+ftWT1Fz973LSFMQXPM6G/2QrW4JYIoWqffvZ5ctPD4oHlz5cpkydGEkFCmLln08m58+cklPGQbTZ92hRRRtOHoNO3E6IMZs+a6X7GTvft32/KyyssUZ84YUJsW7eS/sOkPZ/J42Ikej9AuvF8IBAC3sdBMvLIQ/fJ++yiIaQfGTas5QY8QkpHjEgNXa6pqTafr//K9j1/3tWSMpCKy9GjR4x7PmyjLvQP91U2z33w0OsEe0hHmGCw+UqiNaJklNyrbUEE+/TJz/g+37Z9u/UC8a5k/5kI/TuZMGGcDVF1v6OmjTIemcPlsokTJOInPBLC337o0DL/Z7P5Y2KAJsIGufGG65rd524DDFzVVdVi/Nxr3nlvpSmUFJZJl010q5tNe/r7qNkJ64JOQYDKoDkYmwnpbPLeX5RvcL3oKpW5l54x/+DyJYKoj4z9d1HeM3Xl501Dk7PAb9NQIe/1gCPFXx8678KqZTuOK7c4MWzFRXluVWT0jN4OAgolnpVMJFOy1hJllxC6Rx95IOUw8Ji98ebbdtm99ywxRRIe4mSHhKwQHhNlDXftoqarP16b/GgTEuoTph9++MGGlEIACb+KEgiAn5tG3pkjlplgcFZyH1DOOXf/wxm2LV4HyCoKLDJm9GgbGuTCgziOvLyEh2vfvgO2DdgQdhoV0sj6luJnd9AF/iF35Kc/edS8+vpyQ5gQnhIUZaz1UVIjeapIoYzjk6ksueuOZFPCiVF0wfzB+++xeVoogViaUTQLsug32WkWM/NE+Z45c1rKFt+Ix27nrj1WAbr66lSvA6HYPLstuda8H1565XW7PUTojttuTYanNAjOb0loLjJ+/Hg7DfsHqz9/6WTLd99bIoiR456778r6eMmX869T3P6ef+EVSwQh+OTatUQ64pnkHeiMOmHHiNEpKJDuo8eOJReTT7ht+87kb39mwvixscRo9uyZBsXeFwi0I4JXSn5z0FCGp7KrEsHbFt5i37f++WQzz/vdEZ647TCEklOPHBGjnG/oi9suk3W8XzK9z/cfOCDfmHJJD5gV+06M2u81V18ZtSplOQYccOEdc8/di2PvqZQNY37wjUYwjMYZeNjnvcuWmBdees3mVr65/B3zyEMPROZX9tT3UQyUuqqjEZB7Mlciu2yOoEQIQOwQKnvWHjts6k6dsOP4BQldwdCRJu8yxgOsMtX795q6c2cTRy79WRE9w5LKgIcxsTL630KJnCsaPVY8in3MRemLiqWNcky1ooOqKBGUD8oiU1cfHsrCDbJq1WpLFFG4IWIoJXz4F995e+T9Q4GSbAUS40K83LYUlnFCwQM/3ypMAaIthV9OnkooR6ekGAeCkuwIFOf7yZpPzdYmxWjGjGlmkSRNO8HK/v77q+zPhbfeHGmFpMF9997jNrNTwuc+/GiNzfd7/LFHUtaF/fjb8y/ZHMH5866JtRRDMv71//xHilcF6+f/+t//keyW8Ji7l9xpf+/YmfBWJbb7z2Sb4Awf0H/+pydFYblEsINtusNvLPwPP3ifefHl162nynn8wo6dsC1wQQoKMyeCri+U/zVrP7M/KU7ginUsf+tdq2yT85mpkub6zHZaNniQeCEHpWy2e/de+7u0tG+z5yiMAPIcu7BoSKITl28zftw4q0hBIiEjeAkeeej+lDxM5yXEcNHa/Fr2f/RoIgSdcO+wY3bH2Nop7xXySpG48Oq4/XTUMzlq1AjzgBgbshEIiE8eeSdFyb3LlsbmD/KeLeiT+pxUisHLyWGKmpxL9f6cEYt3b5c5QqB5FpEiMRw5IkjKgHtuojC60BSlgoHWPY+05R2XTU5XlXjJ8OYjIwNeXbuwDf/ZvWeP7Y1QzdZ4XN0hYbhw6RUYatK9D8CFHMK//f0lGx3y6utvmp898WObZ+n6zHband5HnNvGTZuzChn+z98/JcZjCV2MkTtuX6hFeGLwiVqV8AYK6ZI0FCqEOsLHd+OifE9zRfcqmTTVNFRcMFWH9hmxXtuuGvpXSVOKyzSYBonsapA87VzRbwqGDrfT2uNH7bKo/UYulwiRHCGB+f0SxcUoPFMthLT6UMKxELldL1nR6z2CcVXJeBk7b+HChTfZj9CLYnXDIswNHbQUt+SeoR+8DkeOHrWK4FQJRXKEkHVR4tYFPxBUDwuGrREuiLcI+fvzLydzXwhnI6zEl9Vr1towvgkSUtmVKu2lC61rlBcHApYUiMhEwDBdv5n00xXaoAg8/OC9cu7bkyGKLwkxDHpDGzxL2pvL3w31ClJl9vrrrg09ra+kyAvKVb6EfFAswglWZp4XvFqTJDR66pRJblWbTTFSHJNxglBQKuUDccftt2bUd9izQl6leyb8Ttwy7qN1n39h8cNDd/9996SQQEJxnVdokSgLwefQ79Ofp//3mgwt/nLmK2TwWwQF8I9/+oudD/4j30/zkIQ+YpiKEopBuHzdsDYYitx9QTGK8iZlOawtyzCAhb3r0j07bfFMYiCbPOkye2jkUb+/YpV4d+YY8qv4/YqE9s+eNT15z7tzOCwFvhCKbDhjBb8dQYS80zfr4+RjMZrFCd6X7iaE2675JGHMyebYb75pQUZhknF9Vskz7J6xuHZund/W3bNunZu+ufxtc/x4c88weclOlr/9rukjimCYYAy5beHNYavsMiIsiMBx75GwhjukKBuC0SATj+lYqeId9CS7filM9/Y779mfY8UAHBfm6bZhyr388MP3mWeffd6mCLz2+lvmiZ/8KNaY25PeR4SDp3sn+Xgxn669b4wPbqu/oxGAvOWITgIJbPQcGmyBp7BwxGhTMnqcqTlz2lQf3BtbDTRH3tP5Awaa4hEjLRm8sGu7aRQymY3UnTtjLu7cJtsn3vdUMm2ouiBEVPLApX/nucymz57UttcTwaiLCdlb9cFHdjVKkFNGpk2dZMN+3n77fbFUL4sMvwjrlw/JhQty44lgrXzuby9KXuAJMYYkSAzLyXdxRNAvxOLCbGiDRH2UbpcP2rlzidwYLK9Uh5wu5HLq1Cl2OwrffPHl16Z//35yTpMMYX5OLogFxlluR4wYlpxnPcVbwpLV3bb+FCs6HqJ0Qq5XtvLrX/0i5QNKEYS1n65LduMUN3JCCLUNU9BrxSv2p6cSinbY+mRngRnCoioqKmy4bLbhj9xPbDtYPFlhFmM8dRAsris4Z3Nc7jDp16+uCaGIUp7YhhyUMImyunNd132+3m5C6JfvoUZZIXwJIrhClHXyUPz1YfuJW0aeJ0NHIFT0hHSBoS8opu46OC9N8DmhfdizwvERbo3wjDgvhVtGIZ33pUAO5JNKfBWyb/dssM3GzVssthAyQpz5Q7hueKejpFY+jJSDTydxbeo8D2ZYPyj5zpsQtt5f9u57Ce+/vyw4Tx5oGBF07TrqmeQeoAryASHTv/3NfzHbxfDg8jXx2s679mp7SNwn7vyXSpSAO3YU+v/5r/9u2/zsp4+lhLW7cwlOeRaDpJt+qHiL8K4O5iiSmxgVsRHsvzN+kxPfkgIoePkY0qE1Qp6ee8ai+uHYCDMvaQrFdu2i3kvnzlekfabiCv+cl9zcOMHw5ELA49qxjmFx+Esn9917d8p3zLWnGvZrry+3BAWiSARPJoJRhEJRRGksXXqneeXVN+09SH6ti5QJ66cnvo/QVe4WDMKEdwPGfOSxRx8yfUtTvfluG4x1RLeotAyBvJK+lnQ1isG1Ue5NJxCuPKmWWzJuoq0oWntcQvgpJhMjjfK9a5BntLFsqCkaPkoIXLWp2ifPmGfUjtncroI41tY0NxZxPPnyDS8eO8HUnjguYatHTIPkJlbuFLJZWy0hqpeOPd0+uvN6JYIhVw/PxgpRAvEakAd1222XrIVLlyyWIgSvWMvyiy+/ais1El4ZJyTQ46UKkj4s905QNiBffkJ7RXmCNBZLqJPLf3PthS9YCRIGXoKu4ubWbYwjeMaUDRlipknuFoLHEcLwiYT3vRvhmaCd83Ywj1CmPVMiiFKWqVcu0Xvm/4ID18SJP491032EuWZRFlc+mpkKSh+V8Hbu2p30pLItRJrCB8EcEojDv//nH233jFOEfPHlN0lF5a7Ft6dUEoSMUbSHUFcnhKsMGzbMXCm5m5nklrntgtNlQnRqa2tSFm/c9J1VnrmW864NzyPs169fyjb8gJhRWImcTrzonDsKL0aHs2eECIlnCS+dbVtdY8Mu71m62P7O9B+8U6uliu3RYyeSIV1s6ytxhGgyJMhwwccnuZVNFR7Djt0RQbxpTlAq3TOB0u6IoFtGu0GPDrQFeILPguuDKedNgQYn3I9xRNC1w3pPHmA2goc3G2FIFucNA1sUG6oKXiYe26AcEKMBSpK/DZg6whNs7//uiGeS++ybbzfY3eKJZp+MD4phiyJXGIDAlCqdhKi7e8MvKHWuyfPJs+u/N/xzCc7fesuNSSLp1oETYWUIinrwPUOOIEaEriqEHkNEspWR8m1prYCV/4xF9QcRxLuWSVvXB+/iiRPHu59pp5s2bc4ql7NAIgMmT56U7HenpCAQVs4YvaVyXr7UyDuQb1Fwmz2yrErWhQnP5yuvvmENw5DgHz36oH3HUgQMYjNo4MCwzewy7nmGjtm85TtJd/i1oYgRRlK8k6MlvPqKufEFxHrS+4hvBIbgMPG9woxPG3x23TZ+O7dMp5kjkFdSavLkW1N79oypb9ILxEpqh4woGjPe5Jf2NTUnTpjqIwdCDbX+ni5K6lbNiWMmR/ormXCZKR4zzjSKQ6VGSFurRb7XffoPNH3HTUjkDMp+CEeturBXuhYlu0nPbvV+ungHSgS9C4RXZtUHH1uvhltMngPKkxOsv8Tiv/nWO7awA5ZCxrVaeOtNkUSJcE2f9NEXoXV4VRJK7dBQLxEeJKRfyMDzTtEJEkG7Qcw/tCfvBkl4BRNhVyjLFJ9ByHdyihKJ/sFjt41i/oFkZBK29554I1xlv5juMl61Zu2nti1VWwkdixJHDFgfhx8EhEIhYdZ9vHcQxP37D5oHH1iW3BV9u/737N1rduzck/ydbNQ0A0nHOonBwRfCVcCcP+4dlNGw48TA4Ly/bnsUZDxlXL+w8EyUVAR84goQuP6YEiZJ0SJ3rVBY8Ky4e9Bv6+bxNF8hIXxxodeubXIq9yYen6BwrDPF2DJCCv8Mko93GBbJZyWgkNEXIUNI2HZ2RcQ/3MeFTXmUhEk7bwj5dRB4nl2/amc2Y/jxHiH82hfCkL7dsFmuXY4l2u4Z9NtkMw/+jpSiEHLdxo4dFeoheP2N5ZYI+tvgmcmECMYdU1s9kx+v+cR6STCY+fmY5DdXS2EBirO8v+JDuV5FNlfIHRM5fA5nyDASp1C77dy0VoxaRG/44huSmA96BP31/nZdZZ5vWti7IZPjc8XAMmnb0W3wXLtr7faNge3EiVP2OQ2+iwgfzqaoT4kUmPC9a3/44zNCBM/ZsNJggTMqjEMEg9sQBVTlGYDdcTL94KOPraENfQNvFffpa2J84zuxdu06g2EvTLjfXLVWohe4HzHc8p7COPrVVxvSEsHe8j4Kw0+XtS0COTJuNUQvV4o6NUg+daMYkZE8MdQVyXARRcNHmHrRrS7sk3DrNNEt7sjwKkL88DQWjxxtisZPkD6kqqgjma5h6BQLcDijsx5KqVKKXMRoLvpb4kdqe3SHbPWHREfd418lgnKdbMWvH7bKR2GHLQzBpcNCRmEMFP5nn3vBPCT5V84jZq11jzwo3otE5U0Upr3P7DdU4Lti7uxmA2RTSXGofKRQHM+LZRtPHB6JuMqOHIMb0Lh/qHLbSJMkYbM/0vzjCIprNkTGebv9tlvsz4QSmqhC6heP+WzdF1kTQcLzsJKmk9J+fZPkIl3bTNZzPuQALYzJ96Af96wn+kx94P39QJocCcTaTOgZ54YCsfazdfYjy8eeMLSw84XUQPjxno2WoS6KREnFCongVXjp5UskkDaTJ19mjQ6MgbhZ9o23iQ88lU/DLON4roP5oPR93fxrQgvgcI1d7hQKPl6+4gyGH8GDjDLihPsIq2u/fgPF8jpAwl0H23DZsqbpq5KbwnF9uHqNIQQvU2GAZbyUDHQP6YN8gv9kyWV1hCaqr0vPSnNvpiOs2RArtvHbc+2dpx0DAESQcPEF189LHlI2RDC5kTeDJ33NJwljxvRpUyOt1d4mXX62LZ5JikA4hf1mKZzhXxc+zncvvUvu5TckT+yEGBJ2Wi+NA2aPPEuOHLhhgAYMSHz4XZu4Kd6YOMlkOKG47TtzHeHHjRkMa0L4dZTnJOr4//jUMyZfxv1C/Fw9136TeHEPyXu0vQtLET6Md5Gw1iARdMfSVaYUw3lXogsYKsLpGjcKoeM9SIQN42cGCSfHjjcQzyTeR6dT8Fwsu3uJTQOhv5ZIT3wftQQH3SY7BPIkfDyvbz9bKbSxqlIKv9Tb3L6C4ZIXKN5AKoheOLjP1J6UyqEiuXLfWp1MVLG8gqJEVW4W2IWX9t0gjpHqwwfEgzfAFA4cbOrFM1i5Y1t4aCk1I2R7wj4LRJ+4KCkZqSLkUAyu+TJIfWGZrJe29eVSWEqmjFeYU9BEjZrUQ9rh4aTITDYhqan77Lq/ei0RJOTvMxk0+HvxXKCUO0HJQClHwSvHIyTKOp6Q5/72gigci5O5grxo8QLiqUDhxfJGfhR/VA2dM2d2MvSOHBWXp7KjprnHw+07OHUhcaWlqWEntHPjn8jhZiAXRZHaacPffJLnb8hLH+Fj0lqhL4pppBM/NzJd20zWQ2rJ2SG3jIqkEIqw8/UJcZyVx1UfpUIl19rJ2LGjJc9lqS36wX10+vTpUCIICXz04QdtuJ3b1k0pROLuuxsWXJdCKIYNG2pDeJ9+5jnrBflmw8ZQIjhXSqI7jxRGi3REhMqa7tyxWP9dhhD4kRg00uXy4UGgqBBFQyBrKIWQQ+7Pnbt2WYLrD2R/6803mnfeXSFDLdziTjfj6S2yrZO4a+PaMMWT7yp/hj0rrq1PINyy4JRr8vn6LyXn75x55OH7g6vtb1eV1XkLQxt10YUnT55Jeg/8Qzx9Jj5Pym+bzXxrn0nInRs8nBD8YAErCmuQv4m3pFrG93Pjl9rcTTGkcM+7Z/dw0wDzcUPiuHODLDoi45a5KWPGYSBEbJgpgyaHSDaex5DN230R44/G5aK6A+CZ//WTv3A/M5oSQs5fmGCsc2NDMnxHutSKsD660jKIJveBL+7b7S9LN4+BGYOzL3huCdfGm0/ub3A9qQjOG4je4hv2eG/HFcHx99NZ8x39Puqs8+xN+4V85UkldoZ+qG/Kv82VMG8IYqN8q6vFs8fQEIZIHdGjCyXvz1DISUhY4bARUkymQIrBVFsCmYKbrCdXsOrAPlM6ScbZLe2fKPISkmNYV1Fu+gwcZIqkwEy+pLpcFCO4L0L3hPDliYdRxi0UL2O9FGqrPy8FZaSvPMkbLRwxyha7kXAiu1kfKVaTX9rP1Mr+k6GufofdfL7XEkFC6HwSiPINqfMt8WWDC8xPfvyoDQ8kPO71N942T/7q51YZdtcdL9+Pf/SwzSH75puNNpTq9Jmz4hE5JE3Cc7DctummJI4j/WNCQzNRbkkiTyeMAYig4LdW8OL86alnW9tN6PYJS3Nech0DHDvhmuI5w5PHh5M/BpP2C6jQ1nmImGebKHFEhCI6EATfKg55Cn6Ug/1MlMGI+YiHCSG3CPeP71VybTEmLBOyeVyqZOZEKJp+aGcmRHC9FAlC8F5C1LmnqSJLLop/bu4Y/GlYriJkaeWq1daL6RNBzpnnpKPEPSfkVqJM+eJf60yelT/86WlLviH7UYLyhXRHIojij0ezLaU9n8nDRyR5X7xWEDsMDJAI55nlHMivJYSaMHvyogjfJVSOe/plCevGkw2ZxMOyQ7yFCCGE6SRu+BveBS5HkHbpnp10++rs9RC9PiEGQIoSYQSVYPesD5FqlW5sWPKrHZmnI64fhB7jJOGQ5PV15yF88Mi1p3Df/1WGhSDMdYuQTsa2dILBzXkDg/nqrk1XnrbH+6grn29vODY8foSE1pw8KV62hJOlXnL6qoXANZw/a6qlQr4bV1DomAwNMdQUlA1LkrpGCfWvO3MqtFALhWNqJY+vUvQ2SKbrJ4grYaQQynzxHubmCckslr8wkWOtOXVSjumIuehyd8W7UijDVeQLQXSC44XhLPBi1pcnijG6dT1h2muJIEo+IRNYdlFio5KL+cj/5MePGErtQxT5aIYJYWL88WIjrC9dcnZYH/4yjsuVOi8ra5747MoeB0kC4X9YwXfIx3fP3v3JLlFa+VCMEOLhSEhypcy4cvNtodTgVYRYpxOImvNQpWvr1sdZml0bKqfRN95Zcj7LBpelhAVh0XfiyJ777U8hTIQAkiP09DN/tZZrhkbAC+eqVfrtg/OjZdD7MIG0uZBT59ELazdFQkX5awshfBmFGDJEwZoGsXRBArlf8Z6Sk5JNyFxbHFNb9bFtW0LBL5PQ4KCAtZMcCQXxBa/odikLTzihE54rSrbfuOB6t6jZ9NKzkuoFaNYwywU+ac1y04yb46WaNm1ys/Z4NVqa/9WezyTvUUKPCyU8kUp+eADxMl55xeWS+3Up93rmjKn23n7gvnskb/eA9dDMkfcA4ft4yskzRWHGUOBCRYMgcK/w/kwnziNMu0SOYLQxyfUF0Yl717h2nTG9887bQjEhysUfxy+bY8Mzj0cKKQ4Zp/W2hbfYyqW8W/F03bnotmy6z7ityw/OeIMWNExUU02tPsmzxDPVFkIBOQxxVC1e+cFH1nhIiOiXX32TrP7KmL9tTaa76/uIiCS+22HiUghYR6EpZwAPtvXbBdfp73gEaoRUMTQDg8dT6MWK6Bv1eAjlzxeMTNXiNLHVOUU3uShRBLSpO33Sbu+3dfOQzAu7L32z3XJ/WidDJNWJQyZPDPYQwjCxuqe88xvwPnp1GghBrdq/RzyCnlOkUY5LCCB/jI3Y06TXEkEupO9RibuweMmW3XOXeFDShzuiaN180w1x3WW0zimnhBeGKS5Owc1rysOgUxT9Z//6QorHi+VTp1wmuRh3Wu8XihTJ8whlxF2Vzd1CFBAUYbeM3y7EkynLOZY4Lxrb8JHCS5pO3IDy6dr563/5D0+Yvp7Xh49hWFXHOxctNIyXBpmmsM8vf/HT5IfS/8DFnQuGApRNMKOgC8V0+EOhgyzMlo8zHshgsQh3vOTRhQnXyR1DWM5H2DatWeYqn9KHPwg85O/vQgIxOlCt7nExeEQpExSl2Sc4+ILnGwGbTZu2+KussoK3s72Fl/nOnbvsbtwQL/4+3XPCsjxJYneyXMZ/2yoeiaBw35JLBFHnfneFQvZJUSA3RIUbWxSPKtj6wvGwHQajTDxP/raQcgSyHvRs+u1aMz9kyCBbSCLYxyl5Vihs1BJp72cSgwzXEazBd9UHqyUc+4xdxvESDu6qo2LIQmlGyNmGZPywdVsyBBKlPcozjGfHDT9jO8jgn0xzBAnRI3RPJYEAJJGQeLzTRHBcc81VNqWirfFxz1RbGDijjo3rGnyP891oKyLIfqlADbnhvcT4gIvk+8a9jWDI5r3e1uKw627vI76vf3nu+bRwvP7GW2nbaIOWIVDfVJgr7dbyPoc48tfmIvl8DaLjZk3bhLRWHzrY5ofTlTsM11S78hG3w7Hxci0XKwDlsVGEd+zcbQkACghKIYry7//4tFVCfv7Ej5t5u3jx8DFD8fdznDI9VBQcCAaEAks34oZfuEzCZsKIhlNAfbLBGHUIIXJUziQnhjCmoUOHWQ8WeQsMAeCE8/Z/sxziFFzGcqyR/P3jr3/ZqaFQeAZ8slJQ4FltONAmgeDdt2ypefovf7WejpWrPkpWXfOtxHFWenB/WAbvprDKFjn3vVJ4grEdUUYpEMPftxs3m0ekTTYhtb4i6nI93XG3x5R8HEgLRoXrr7tU3IRwuR9BBl942YbQvSYfxkcffiCU6FO91OX1hB1jcB0K912L7whr2qpl3J9fSojrXZKzSMElR9LpNJg/xjI/D9Ufh2yghN4iRAIQPuyeN1dQAlLAM+3EFXFxv5n64W5uOfcGz09Lzv+YDJuBQCDjDBRuX11l2hHPJHiQs/mOVGmGwPv5sHNlGIkwgUxPnjTBVqLFu4VEtQ3bvi2X+QaJtuy3O/dFhUvSKQg/XSsVn+9ddnebng7PIqH1SEcYpdr04AOd8S164P57zF+e/bvF6+VX3rAtCJle3E7e1O76PgIYiv2FikQ5u/GZrac6NUgkuQleRWesTS7UGUWghyKgRFAuLGPq7dy1x4b+MfYZ1UMpf18pwyigGJIIftnECdbST6gRA5X7gnXaDb0wc8b0ZtZBv60/7wjg+i++sp4HPlYQQZR28l6QKZMn+5sk511unE8SmWcoA6pMQkzeePOtZEESNiQ8lIG/gy84qun5VSFpSyhVmLj98fH+UsbH8+X4iYQiS+4YVvt0QjsEvF24ndsGhS1oZXXrMp1y3W6XECTGeUPRp/KkPX/xLiA+IYvqE6KIF9R5Zbk2eBg2CHFnPCiuEzmY2STlc16Qdbyvx4+fjNp1myzHW/r991ttX1SUc+FarnOOhTHFGKMOZfltUbTvFQIdFLywwXuCDyrEzGHkb5OtN8zfNmye/VDB1nmrZ4rXh2u5pYmsoRCF7dOvWAgRdoIFfeqUyVZBxCDiiKBbP1KeIYwoQSHE1hc8f84A4y9vyb17tMkqSvh2e8kxud8IsQwKyztCWvNMQgbvkaIwJR+tSSGCcWPHzZkz2xJBzo1n2HkOw86VyrD8RQnvfiIQKB7l3pfku3Fvst0tUtFUJXMEeP8uWDBPKmWukm/ALlslmee4rSThsU+86xk7sb3ks3Wfy7c1lXi0pFhMuuMDG4aF8L+thPVmkqaQru+w9d31fUR+N9EuYeLn9/78Z49HGrX5HmJkVFEEegMCvZ4IYql1Y2VNmjgh8prfsGC+VUJpizLoK8WEZny7cZNVpD9Zuy5lXLlgh5VSnQgh5IyCAy70jEHj8SJgxXQDvaM0+UU4/L4Y3woJFqzwj8tvzzweEX/MO7f+bUk4R7Fhf3WSIwPBIeSR44kSlGdHfoNtyI+IWhdsy29X2MVfN1a8sS1Rpv0+mCdMjMqWBVKWmHBOJMybaldk8A9eNApTEA70//7wZ1sZD89gNoICNHToUKtAHjx02F7zMM8k/YJzvijADJ6djXBf46XDi4sw9hrHHSaE1t1x+y228AsFHFB4GbvQF/JU8I764nKI8AgF1/ntWjLPc+AGqCd8zPfsQQCHyHWAFLrwznnzwgszMbCzE98jCCGI0zkhisFwK0KlKILEsWG0IVQLcnnfvUvts+X205IpZMKFZrbFwN1Rx0B0Q1uGrEXtJ255a55JnpMx8hz7HsF33n1frsE9oTl45eXlyUPxDQHJhRnOfPrZ55YEUiRq6ZI7bQg+m1JNFw/wF7YQ00WbFhD2LGe4m05ptnV6ZtVAAAAd/klEQVTr9lCDFESqvYXw3Y2bJKde3m9tSQI5bgy8CNcsaACzK9ron7CxT9uo65RuKLqzVvQLXzDqLLv7LhkbeKS/uNXz3fF9NEy+qdRBYKiu1srUqZOsYXH4sPYzyrX2GHV7RaCtEOj1RJCKgxQ74OMdZ1lG8SPcEs8hijLWZax+qz/+REr9T5FS+beaZyRsA+UUYhNWLZIQUj8HBRKIcoKnBosylj1KQTtvINUko7xWeOQQP0zSLsjyH6xezmN06y03WRwYt2jlqg9tYZkoMgYhiguDrZEEXI69T0iiLkQMvOPC3wjXaytBSfQlzJvqr2cepf+tt9+3ixkH0o3P5NpRppu/urryZmTctYmbouzzsYXooWQGSRr7f/W1N+29yb2ULREktNGRQMbmi7tWHCdFOU6ePG0JPF6P8VLWPc6oEHdubbEOL66rzulIIF46KujhpadgxwohuggK5OXi+QmTc0J8EAZpbo2Cjhd9xYoPLQnE8/jTxx+VIWVetGTwvRUfWGUsbP/BZYUSykwhpVKpbumEvjlfCCY5xhAlnkueD2e8oC3vH0KWwio8ur7STfFgzZP3TVC4B52XK7iuPX635JnkOHiHQvwQ51WHQGPMIprDF6osrpSqtk54d2OgcuH3bnnclPuMyoxsi/f3R48+IO+1S55l3tkPPXSvHbbiC4mQwMN/jyjmkaFpITvbuGmzDPr9rQ35416++uormlU6DtmszRa1h2HAVpKVCBUkLiyWZ5JibK0RPPI8Q/63kIgerhmCF40iQBDeKRIF4K4NzzHP15AhrfvW4AkOFpHj++x/61tzfpwb+YC8lxHeZVdcMccaQzDs/O35l22+JePHZvuO60nvI76TYXpXS7APVhoP9sE1wSnAezxKR+L7hX7JPUaYepjwPiP3HH0y22sX1p8uUwRagkCvJ4KbN22xuPEC8T8kYWCS3M7DT6VHPm4U0CCkDM/N7377pPXe8QFaI/kOYcVS6J/KdQjhRXPFSzNLwhXdfilC4ayYDB8QVcwGIkU4KoIXr6VCQjukDyEfctrUyXYeK+133/9gh8v42ROPCdFpnoeHwgLBCArKLMrW5+s3ybH1l/y5+5uNU8dYX5wr5d7nzJ4VSwiD/a/9dF3yQ866sAqowW2Cv1GmkYIQkuracn5V8iLngw5hQ6ZMmWRJxzmuk5St5yOMMORItkKuHkYD+lj3+ZdWwZ8q+FNy/cCBAzZ3xo3Dde01V8d2D+Yo8k62bttuyL/5TkJCObbrr7vWrYqdUo2R+wpFyYXCxm6Q4cr7JbeFD2dY6GZUF7lNQ2ag7GNoueLyRJi2a48xxoVf4a2P+oi6HKH+WQwi7vbhTyF7POfshzBgjBwo/M9IDioK5lghp5lUCuY9Q56xE8ZAxKrvvC9LlyyyRZxee3259YJakiveEt4TD9y/zG3W4mk/GSMJb39Qfti6tcVEsKOeSa73K2IcwTCAMvyEvJvWrfvSVgfmvcuyO26/1Z4a3to3pSAQzwbv0kGSC8rz9qGElRJ6i1EhnWyTd/vqNWvtM8r7+lEZcxPPUjBkmDzTxx97WMjga5bAP/X0s9ZgAaFPJyj33MuICzldsfIje47tXVzmqqvm2qqn6Y6xJaGHmVSSTbffTNffLR5aX4jYceGTGLOIbOEZg/CulJSFqVKJeY48U1RkZpy+1gr7CJIBvq1tQQT5Pix/+z0ZjuqIPUwM0kQgQDznSNTCG2++Y40jPIMU82Ks42wK4/TE91Frr2cm22O4452DMIwUqUO+oKP96am/2EJqRG390z/+qlmtB2pRuII16HpL7rrD70LnFYEOQ6BXE0HIiAstCyNdKK++YMn/r7/7TZK4MJA44gYovm7eNfblQMhcMHyUdpC2BdfPt0p20HLFC58QI5QclF8GSI5SbiFp7thGjkiv0LDvoKAUvfNOYgwiPmL333cpUZ8wwQMHD1qy9uxzL0go1KKMQk8471UfrraFdthfvXhaKc/sD1gO5ni7UKaw1pNfd83VV4mVfk5GuQ5tYb3mI40UR1jpWAf2N9+0QDw1K2wuH8oafyxHuXSCtW+GhAZnK2DyyMMPmL9KlVeqbhLq5oe7uf7IlcQTFCUcyyuvvpksI047cCXRH0t7Nkoc58ZHDZITde+FHQcloLmmx44etyW5UcKPSZEGQuio5Ol7tcK2D1tGWObw4YmxPZ2hxLXDa+4KuUybOtnmfrp1/pRnhCI/SEvDLfEkvPf+SpvDRD8MvUEoLQLBwNNK0RgwP3v2vHgfrk++H2yjiH+4bnjiuf+ddx+vMyFe4Dd61ChrdOJ5oVANBiIKn1x/3fwuV/iiI55JjDHL33rPkn/uzfvkfQVJ5nrwjsH75zxPDAmyQog7ZASlmOcM4wYVlSHcFEXCQBVU3t2l4j229rN1YpBJjOOKF/VheS78wbpdWzcl1Pgn4iUmxxZjIYrixs1bzC033RjrpXCDgTPunss35DhZ3u5EUIxF7SV4zEvkHYcwvMvHQqjbWzDQfdZkGGBfGAbcsBS8b7kHiMLhm88f32MMZniIXe57ex9jpv2jD2BQxVvsDJccpzNC0Q/3Pzhj3NggRcvwPv35medsdARtsxkOqCe9jzLFuDXt8OQ54VsbJIIUH+S7jnD9cBoQReWL00NY5oi+v17nFYGOQqBXE8H167+yOPORwOLupEBy6RAUAUrkl8gHxBes+HhOvhblHRk0cJCd4vHghWAHfhUFNCy0Du9FUHghvPTK68lxvBYvuj1ZmRTLEi8SqoPyst4jlSudBRml0SdZwX4rKquCi2yIDB6oRE5Lgpw+/GBq1UvIAxU3XxWvBAo+g9ni/SN8MRjOyTFtl4/q199usCGx7BAigbcPr1ewPR+v3zz5D3b8tm9kG5QuFN31X3xpP8hXX3VlZBgFfZMDwDiFThgr8ciRo+5n2ikE9NsNies2TAhwnJCfibJIxdEjMggqJJ3zRQjho/gM3jafNEXNh+0HIsHA14T9YDhwQh98NFAEg3lqro2bQhDYlm0W3XGr3ENVogytt0SJcZKuFK/z6NGjLKZxiqzrj+vFOXKP+zl1rMcjwwftrNwTZ2XqPKXcn3/8019cF8kphoAoqZAPZZxgKAkaSzguSJfLP+V5WyI5Wk7ITc3NzbHHzYf4Ywnbdt4bvK1REjVmFPfm+0Io3BAqDAsTNBihSPL8Qkzx7uySPB4IcJTHiVDg73/YKn/bksfG80J4mRsQGqs/Bal49jZu3GIHkaYwDyGQ/GEY4FmMIjLuPHk/uWFh2C9yRMj6W0JWgsJyxN8mWMApuI373Z7PJNeckEs8Hs74RSl9IhgQ7ns8JOu/+Nq+Pzg3Z6mnKiBePBc1gbHrWSkrz33y3N9eMEsWL0rJwSaU+isJqXZKHmH788W4R9h+JkQhYdy53x4Lx0uKAEPkcB/TD7mtvnBuPFN4dyCBCFN+Yxxgvf8+8bftrPkqGVQ5E+nXr18yL2/EiGH2nPBGZyK8WzIVDDW7JAT0h63b7XcXzBDrOVu2JHntCQ8loodv1QYhV3zbIVt8S/kWXjf/WptHHfxe+cdRXlGe8uxgpEF4fxdKjr8vFfKdQYLbuAgFv60/z7cMIwC52u5c+N6hE4TVC+B4FzU9D4TKQz54D9HHlMkT5RtylQ2l9/fhz/fE95F/fu01v0B0G4zeRD3NnDmt2W7QD/BEE51DREuQBLLBrFnTJXx5t3wHyuXebK4XNutUFygC7YRAryaC5BbgfUORQRlzctllE8QSt8UqYrj30wmJxU5Q6IjfD3703frgFNJICBPWawQC5YcUffX1hmS4qL8tx3u7hKgFhQ8AZJFqic7K5F5Cm+Sc1ghxwCqKoKAQShKWSI9C8vMnHpc8ufdsSBzKGB9crOsu9IQ8ND46TtmmT8jvwltvCn3xsR5BucGTwx9KFx9jrOhUuOT4r7xibrNiJYktjc3V84+XHERLSKTPMKF/8odQ5FAknZLHMYSFtgb7ALvHfvSQ/SijnNVJaO/AgQOakSS3HbkA/+O//4v7mXaKl5lCKyg0KCYcF/3HKSSu070SCoQCjIC5y2tA8eKe4lyDwzpw30CW2I/7Q+FwfwytAU60+2//8lt7HFiaXxZDhcvVc/v3p1jfy4YMtsMxQND4I4Qa4dpidOGc8vNzRTm6kAxDHDo0s8R+DCLL33o3mffDPUA5dUdWOf7f//HPoceIQhQMdWUg8NffeNt6TCH5iHtOILsfrf44WbwFQoDnD9IXJovvvN2MEbK9YtWH1nCE4YT3gMsrhXh8uHqNHejc5T26fsg/XSAKKmGBQUGZoGgPXkaIJuG/PLvkPvE3Td47y+5Zaq9jcFt+81w4su7WQzwcUXLL/GnYNv76sHnOs72eSUL88HYg3GMMG0JIny8825BjN1QM67j/qH6LscUJIZyE174h1x2FmZA7ckh55yIMBePeDyjd5KO6d53rI92UZ4pcrUnyDUFRxJgAIaSIGEZC1jthHsMYhAISOmPGNHtteM9wrH5bt01HTyFMGM5y5dllHE73TeE9F2ZYgmwhvrEO0v7rJ39hlwf/oRDU0WPHbN+8H3j3EI2C8B6LErzQfKO5Xx1hoi2kH/xJOfC/6azjN9eVPzzDGCB5jngm8apBCHmWuU5hQpXnsGeHb3iURG0TbM99R9iqw5f1GBauuvIKIaizk+kjwe3cb8K9qXEAJnyX+SZTxIY/vjEYT5xxqqe/jxwm7Tl191HcPhg+KW4IJQw+P/vpY3Fd6DpFoEMQ6NVEEAWGHAHysnxBaaTK4jax5lBBM0rw0jFchE/6nBIctU1w+ddC9CCBfPTJ0QoWMpgwfqwUEpDcwrpaG6JIeAulsFE0wzwCfBQhCE542TAWIUI+HYqkU2zZV5yywYcIzwQeJkr3E4JV5Fk+qerIB8d9YOdfe3VWeWAcEx8p9kG8/GpRClCKnOWf9U6cBwDi7gtkLo7QoRg4b4jbDuULsh5XSt61dVOntLnfbT3FC8u9k41AzBHuVz+MDEXmN0/+0nrODhyQyqMyWLgjIGAr/6cV7i1HRssGD04SLO6JIWVlljSVlQ2SaZlVWlkeJXjYIYNB4ToECVqwjfvNvbtbDBwI98yDotD7SjrXB+UbD7F7ngjZjsqRJO+V8FWXs8s9zDOPNMhAtPv2J5RRCtPgdeRY4wTjDcYTcm4puuKPVQk25eXlyWuAQkbI7PTpU9L2yz65DjyrRC0w1AzGkgQpT5D5qOPCmxz0qka1DVt+4sQpu6+wdSzriGeSc0a5BVuqI0aFuyXyrxO5vxj2COt2969//BwzuYWvSjg112mglzvKeGwffPSxuVm8R62twsjzQ574VvFUfSHGsvuWhYf6Q/IhpISSkofq3n03yvKuIHwr8E4FZcrkScFF9ltCgbNsBAMPZDkoEMnZ4lGJEp59FwmC53eiPPscEwaBIAEM6wOjD0YBiC55oBBK3pH9xZMZJXx7g9WUo9pGLSen1XkS/TaQ6lPynkb4Dlx7zZVWt8jkXFw/fEPQafgWQFi57/j2nTlzRkjlpeJUPfV95HDQqSKgCGSHQI4Qh0QsRXbbpW29fm9mISRpO2pqMHdEKgHIdLvWtAMaQuTCBMXTeSPC1me6jLwWigNMmzY50hKZaV+0w+LvCqj0E68JCpQT9kUC+9VSJCAbEsT2kEs8Vn6oIviQ1zZ1yuQUpdztL9spx7d5y3c2/C6TUKxM+yd0j/DFuvo6e96+lyDTPrpiO/CHpM8WEpLuerp72YW3onCyjP9kptnp4WnF6u8EizVKeFjhINcmasq+gpZ0SFq2yjZkkgI4i26/tU2ePYq/cF/Io2w9en4uYiJkp6KZYSbqHN1y3hd4f2684bqU/EzCPFE6MRrFkWbXT9wU4wveC0Kv/WvktuGeOHHiRNqwMNc+aspzwxhpQ4YMsWF1Ue1asjybZ5LrhMc1nVKMV61UCILL4Yw7Ljzw3EtBw1vcNm4dlUTXSrEohOvckmfC9cWU+3qDeN3OSI7poIH9xQt0pWEstLYS7knCF8EviiBH7Yt3BKkEvoBvawwMfl8ut9hfViDFNdhHGJH322357nsh8gPtscQZNP1touZ5P9XU1ogx6PJmTTAYMOB9376lyWJEzRpluAAvJMTsxhsWJCMQ3KYuxD9T45jbLm5Kn7zzg1703vo+4tml4BSGOoyJYe/PODx1XSoCR5e/mrqgF//KEYPt8KX3tQqBjUczsNJnsYf5Ey7pcHGbKRGMQ0fXKQKKgCKgCCgCioAioAgoAopACgK9mQhC/GSQZ5MrQ0LlFBWbvH79zaBZzQ1JKYCl+dFZRLBXh4amuSa6WhFQBBQBRUARUAQUAUVAEVAEegMCEiIEycsRkifJ0ZKbkW/nLfFjHgLopvn5JrewyOQUl5hciRjorqJEsLteOT1uRUARUAQUAUVAEVAEFAFFQBFIi0COhMdLzHmCzFmSJ0NlWWIny+xv1gktguDJn8nvY3KkxkFO07zkpNh525a+eogoEewhF1JPQxFQBBQBRUARUAQUAUVAEegIBPKk6FqD5F12uuDFs0ROEv5lagkfU4oLut/WyyeUR+ofpJA8IXcJgldgCaAlhi04oXQ57C3ossM2USLYYVDrjhQBRUARUAQUAUVAEVAEFIHuj0AfqUrfIIXJ2lXE85YgdkLyctw8BO/SvPXiQfCkci7evByZt548mUrVtsRvPHjt6MXLx7PYTUWJYDe9cHrYioAioAgoAoqAIqAIKAKKQGcgUDBshKluKRGkXLf15AlBY96Ob+zmmRK2KVPCMaUgSy6kjlBNiF0TuTMUaoH4dQES1paV7jv6WioR7GjEdX+KgCKgCCgCioAioAgoAopAN0agaNRYU3f2tKk6csSkDFAMwWsiehA6IzzPkj23HG8eeXdC6Ki6afoIoRPCZytwyjIZkydB9sjXo58uLoVyzOmGu+nKp6BEsCtfHT02RUARUAQUAUVAEVAEFAFFoIshkFtUZEqnz7bDJ1QfOmAuypjBNleP0EzIHH9C8gjZxKvHb0vy8Ox1AS9eW8AJCWyLMcXb4lha2ocSwZYip9spAoqAIqAIKAKKgCKgCCgCvRSBvJK+pv/My03fabNMXV2daRAy2Ch/PVkoDENOIOGg3dkT6K6REkGHhE4VAUVAEVAEFAFFQBFQBBQBRSArBCBEPYEUZXXSPaRx/r+tLDeD+uaaKSP6mGkj803/YonnVVEEFAFFQBFQBBQBRUARUAQUAUVAEeixCOSfqmg0/O08Vm/e22TMFeMLzK0zCk2/IiWEPfaq64kpAoqAIqAIKAKKgCKgCCgCikCvRiD/d4v6mSNnGszWI3X279u9tea7g3XmgWuKxUMoAy2qKAKKgCKgCCgCioAioAgoAoqAIqAI9CgE8stKcw1/s8f2MWcqG83KLdVm6+E68+L6C2bxnGIzb5KUclVRBBQBRUARUAQUAUVAEVAEFAFFQBHoMQikxH+SK/jo/BJzx+wie4Lvb64y28RTqKIIKAKKgCKgCCgCioAioAgoAoqAItBzEEghgu60FkwpNLfPKjIXLxrz2ldVpry6Z5eCdeetU0VAEVAEFAFFQBFQBBQBRUARUAR6AwK5f/iowpwob070IIPTR/UxtfUXzeofanoDFnqOioAioAgoAoqAIqAIKAKKgCKgCPQKBHKPnG0wT6+pMJU14v4LyCIJEZVxE82GfbXmfFVzshhorj8VAUVAEVAEFAFFQBFQBBQBRUARUAS6AQK5c8cVmKrai4ZqoUEhZ3C6VA4lRHTbkfrgav2tCCgCioAioAgoAoqAIqAIKAKKgCLQDRHIvW5yoirovpPhRA8iiOw42rlFY6rCD68bQq6HrAgoAoqAIqAIKAKKgCKgCCgCioAxFzqRYuXm5+XYa8DQEWEyclBe7PqwbdpjWaWmKbYHrNqnIqAIKAKKgCKgCCgCioAioAh0EgIXJDKzsyT3850JhnVWcgAJAQ1Kv6IEUSyvDlkZbNyOv8+E5DC24+60a0VAEVAEFAFFQBFQBBQBRUARUATaFYEznejsyv16TyI3MDcnx8j/XVbIYzxW0blktMuCowemCCgCioAioAgoAoqAIqAIKALdCgG4TVVd5/Gb3NtkvMCBJbmmrDR0SEEZQzBxcM4z2FnochTHK5UMdhb+ul9FQBFQBBQBRUARUAQUAUVAEWgbBCCBcJuwiMy22UP6XqRqaB9zTsJCh/QLJ4JHzjTYXqgg2tnSKGwQ0HacvmhOVhqjBWQ6+4ro/hUBRUARUAQUAUVAEVAEFAFFIBMEKAxzUsgfXOaYTOE2nSn5q7ZUWyY6riw/9Di2HkmUspkyIlE9NLRRBy4EL5IqbWJleQfuWHelCCgCioAioAgoAoqAIqAIKAKKQA9BIHfzgTozfki+uWZiYhgJ/7yoJAoRJHdw2shwoui313lFQBFQBBQBRUARUAQUAUVAEVAEFIGuj0D+lBH5Zunc4tBCMSvFW9goo0pcOaHA9C/u/NDQrg+nHqEioAgoAoqAIqAIKAKKgCKgCCgCXR+B/B9f3zf0KD/bUWO2Hq4zBfk55tYZhaFtdKEioAgoAoqAIqAIKAKKgCKgCCgCikD3QyDUzQcJ/OC7auslfOCaYtOvKLRZ9ztbPWJFQBFQBBQBRUARUAQUAUVAEVAEFAGTkvhHTiDhoHgCyQtcPKdYcgO7RpEYvVaKgCKgCCgCioAioAgoAoqAIqAIKAJtg0D+qYpGwxARFIXhj5xAwkHxBCoJbBuQtRdFQBFQBBQBRUARUAQUAUVAEVAEuhIC+f+28tIYDHgBKQxDTqCGg3aly6THoggoAoqAIqAIKAKKgCKgCCgCikDbIZBfVpprGCyecQIZIkKrg7YduNqTIqAIKAKKgCKgCCgCioAioAgoAl0RgfzfLerXFY9Lj0kRUAQUAUVAEVAEFAFFQBFQBBQBRaCdENByoO0ErHarCCgCioAioAgoAoqAIqAIKAKKQFdFQIlgV70yelyKgCKgCCgCioAioAgoAoqAIqAItBMCSgTbCVjtVhFQBBQBRUARUAQUAUVAEVAEFIGuioASwa56ZfS4FAFFQBFQBBQBRUARUAQUAUVAEWgnBNqNCBb3kbEoVBQBRUARUAQUAUVAEVAEFAFFQBFQBDoEgeKCzDlYuxHBfoXt1nWHgKg7UQQUAUVAEVAEFAFFQBFQBBQBRaA7IZANB2s3tlYmYxOqKAKKgCKgCCgCioAioAgoAoqAIqAIdAwCZSWZcbBz586ZzFq24LhLi/LMyP55LdhSN1EEFAFFQBFQBBQBRUARUAQUAUVAEcgGAbhXaWF6/nX27Hlz9NiJ9iOCuTk5ZuSAfCWD2Vw9basIKAKKgCKgCCgCioAioAgoAopAlghAAkf2zze5ufE5gtXV1eb4iZOmqKjI5FwUyXI/WTVvlO4rqhvMqcpGU17TaKrq2nV3WR2bNlYEFAFFQBFQBBQBRUARUAQUAUWgOyJAYRhyAgkHxROYjgTCy/btPWDy++SbsWNGtT8R7I6g6jErAoqAIqAIKAKKgCKgCCgCioAi0F0QaGhoMDW1tSZH/isqKjQ5Ep0ZlCNHjpkLVVVmwoRxJi831+QHG+hvRUARUAQUAUVAEVAEFAFFQBFQBBSBro9AlRC74ydOmSoJ+SQ1D8nNzTP9+vU1w4YOSRJCiGJ5RYX1BEICkXYPDbV70X8UAUVAEVAEFAFFQBFQBBQBRUARUATaDIETQgBPnzlrSkv7miFlg01BQR8D4TtfXmFOnjxtBg0aYIYOKUvur7qmxhQVFiZ/q0cwCYXOKAKKgCKgCCgCioAioAgoAoqAItD1EaiurhESeMaMGDHMDOjfP3nA+fn5ZvCggTZf8OjRE7KunxDEArveJ4EsaLfhI5JHozOKgCKgCCgCioAioAgoAoqAIqAIKAJZI1BVVW0o8hKUE1L5s29J3xQS6LcZOGCAycvLMzU1tf7ilHn1CKbAoT8UAUVAEVAEFAFFQBFQBBQBRUAR6DwEauvqzPnz5ab8fIVhftTI4ZLzV5pyQI2NF03/ASUpy4I/yBhsaGwMLk7+ViKYhEJnFAFFQBFQBBQBRUARUAQUAUVAEeh4BFxuHwSQsM8CGeIB8tffC+1MOSpheVQIjZKKikohgQ02fzCqjRaLiUJGlysCioAioAgoAoqAIqAIKAKKgCLQjggkcv3Omgop8JKbl2uJX2nfvqakpDh2rzVS+IXcv7BhIggHPXT4qJDAEls5NKqj/w/jWSbSWdwCXwAAAABJRU5ErkJggg==;" vertex="1" parent="1">
                    <mxGeometry x="569.11" y="550" width="400.89" height="250" as="geometry"/>
                </mxCell>
                <mxCell id="52" value="这种使用场景由于整体的控制权是iframe 的外层页面, 所以iframe内部的页面干涉不了具体的业务逻辑, 需要根据自己的使用场景, 按照提供方案去自行解决" style="rounded=0;whiteSpace=wrap;html=1;fontColor=#000000;strokeColor=#BD7000;fillColor=#f0a30a;align=left;" vertex="1" parent="1">
                    <mxGeometry x="580" y="460" width="390" height="60" as="geometry"/>
                </mxCell>
            </root>
        </mxGraphModel>
    </diagram>
</mxfile>